<?xml version="1.0" encoding="utf-8" standalone="no"?>
<!DOCTYPE svg PUBLIC "-//W3C//DTD SVG 1.1//EN"
  "http://www.w3.org/Graphics/SVG/1.1/DTD/svg11.dtd">
<svg height="423.388906pt" version="1.1" viewBox="0 0 637.815 423.388906" width="637.815pt" xmlns="http://www.w3.org/2000/svg" xmlns:xlink="http://www.w3.org/1999/xlink">
 <metadata>
  <rdf:RDF xmlns:cc="http://creativecommons.org/ns#" xmlns:dc="http://purl.org/dc/elements/1.1/" xmlns:rdf="http://www.w3.org/1999/02/22-rdf-syntax-ns#">
   <cc:Work>
    <dc:type rdf:resource="http://purl.org/dc/dcmitype/StillImage"/>
    <dc:date>2022-04-08T14:39:49.007600</dc:date>
    <dc:format>image/svg+xml</dc:format>
    <dc:creator>
     <cc:Agent>
      <dc:title>Matplotlib v3.4.3, https://matplotlib.org/</dc:title>
     </cc:Agent>
    </dc:creator>
   </cc:Work>
  </rdf:RDF>
 </metadata>
 <defs>
  <style type="text/css">*{stroke-linecap:butt;stroke-linejoin:round;}</style>
 </defs>
 <g id="figure_1">
  <g id="patch_1">
   <path d="M 0 423.388906 
L 637.815 423.388906 
L 637.815 0 
L 0 0 
z
" style="fill:#ffffff;"/>
  </g>
  <g id="axes_1">
   <g id="patch_2">
    <path d="M 72.615 387.72 
L 630.615 387.72 
L 630.615 7.2 
L 72.615 7.2 
z
" style="fill:#ffffff;"/>
   </g>
   <g id="matplotlib.axis_1">
    <g id="xtick_1">
     <g id="line2d_1">
      <defs>
       <path d="M 0 0 
L 0 9 
" id="m63d1d01925" style="stroke:#000000;stroke-width:1.875;"/>
      </defs>
      <g>
       <use style="stroke:#000000;stroke-width:1.875;" x="97.978636" xlink:href="#m63d1d01925" y="387.72"/>
      </g>
     </g>
     <g id="text_1">
      <!-- 0.0 -->
      <g transform="translate(84.858558 412.757422)scale(0.165 -0.165)">
       <defs>
        <path d="M 2034 4250 
Q 1547 4250 1301 3770 
Q 1056 3291 1056 2328 
Q 1056 1369 1301 889 
Q 1547 409 2034 409 
Q 2525 409 2770 889 
Q 3016 1369 3016 2328 
Q 3016 3291 2770 3770 
Q 2525 4250 2034 4250 
z
M 2034 4750 
Q 2819 4750 3233 4129 
Q 3647 3509 3647 2328 
Q 3647 1150 3233 529 
Q 2819 -91 2034 -91 
Q 1250 -91 836 529 
Q 422 1150 422 2328 
Q 422 3509 836 4129 
Q 1250 4750 2034 4750 
z
" id="DejaVuSans-30" transform="scale(0.015625)"/>
        <path d="M 684 794 
L 1344 794 
L 1344 0 
L 684 0 
L 684 794 
z
" id="DejaVuSans-2e" transform="scale(0.015625)"/>
       </defs>
       <use xlink:href="#DejaVuSans-30"/>
       <use x="63.623047" xlink:href="#DejaVuSans-2e"/>
       <use x="95.410156" xlink:href="#DejaVuSans-30"/>
      </g>
     </g>
    </g>
    <g id="xtick_2">
     <g id="line2d_2">
      <g>
       <use style="stroke:#000000;stroke-width:1.875;" x="148.967074" xlink:href="#m63d1d01925" y="387.72"/>
      </g>
     </g>
     <g id="text_2">
      <!-- 0.1 -->
      <g transform="translate(135.846996 412.757422)scale(0.165 -0.165)">
       <defs>
        <path d="M 794 531 
L 1825 531 
L 1825 4091 
L 703 3866 
L 703 4441 
L 1819 4666 
L 2450 4666 
L 2450 531 
L 3481 531 
L 3481 0 
L 794 0 
L 794 531 
z
" id="DejaVuSans-31" transform="scale(0.015625)"/>
       </defs>
       <use xlink:href="#DejaVuSans-30"/>
       <use x="63.623047" xlink:href="#DejaVuSans-2e"/>
       <use x="95.410156" xlink:href="#DejaVuSans-31"/>
      </g>
     </g>
    </g>
    <g id="xtick_3">
     <g id="line2d_3">
      <g>
       <use style="stroke:#000000;stroke-width:1.875;" x="199.955512" xlink:href="#m63d1d01925" y="387.72"/>
      </g>
     </g>
     <g id="text_3">
      <!-- 0.2 -->
      <g transform="translate(186.835434 412.757422)scale(0.165 -0.165)">
       <defs>
        <path d="M 1228 531 
L 3431 531 
L 3431 0 
L 469 0 
L 469 531 
Q 828 903 1448 1529 
Q 2069 2156 2228 2338 
Q 2531 2678 2651 2914 
Q 2772 3150 2772 3378 
Q 2772 3750 2511 3984 
Q 2250 4219 1831 4219 
Q 1534 4219 1204 4116 
Q 875 4013 500 3803 
L 500 4441 
Q 881 4594 1212 4672 
Q 1544 4750 1819 4750 
Q 2544 4750 2975 4387 
Q 3406 4025 3406 3419 
Q 3406 3131 3298 2873 
Q 3191 2616 2906 2266 
Q 2828 2175 2409 1742 
Q 1991 1309 1228 531 
z
" id="DejaVuSans-32" transform="scale(0.015625)"/>
       </defs>
       <use xlink:href="#DejaVuSans-30"/>
       <use x="63.623047" xlink:href="#DejaVuSans-2e"/>
       <use x="95.410156" xlink:href="#DejaVuSans-32"/>
      </g>
     </g>
    </g>
    <g id="xtick_4">
     <g id="line2d_4">
      <g>
       <use style="stroke:#000000;stroke-width:1.875;" x="250.94395" xlink:href="#m63d1d01925" y="387.72"/>
      </g>
     </g>
     <g id="text_4">
      <!-- 0.3 -->
      <g transform="translate(237.823872 412.757422)scale(0.165 -0.165)">
       <defs>
        <path d="M 2597 2516 
Q 3050 2419 3304 2112 
Q 3559 1806 3559 1356 
Q 3559 666 3084 287 
Q 2609 -91 1734 -91 
Q 1441 -91 1130 -33 
Q 819 25 488 141 
L 488 750 
Q 750 597 1062 519 
Q 1375 441 1716 441 
Q 2309 441 2620 675 
Q 2931 909 2931 1356 
Q 2931 1769 2642 2001 
Q 2353 2234 1838 2234 
L 1294 2234 
L 1294 2753 
L 1863 2753 
Q 2328 2753 2575 2939 
Q 2822 3125 2822 3475 
Q 2822 3834 2567 4026 
Q 2313 4219 1838 4219 
Q 1578 4219 1281 4162 
Q 984 4106 628 3988 
L 628 4550 
Q 988 4650 1302 4700 
Q 1616 4750 1894 4750 
Q 2613 4750 3031 4423 
Q 3450 4097 3450 3541 
Q 3450 3153 3228 2886 
Q 3006 2619 2597 2516 
z
" id="DejaVuSans-33" transform="scale(0.015625)"/>
       </defs>
       <use xlink:href="#DejaVuSans-30"/>
       <use x="63.623047" xlink:href="#DejaVuSans-2e"/>
       <use x="95.410156" xlink:href="#DejaVuSans-33"/>
      </g>
     </g>
    </g>
    <g id="xtick_5">
     <g id="line2d_5">
      <g>
       <use style="stroke:#000000;stroke-width:1.875;" x="301.932388" xlink:href="#m63d1d01925" y="387.72"/>
      </g>
     </g>
     <g id="text_5">
      <!-- 0.4 -->
      <g transform="translate(288.81231 412.757422)scale(0.165 -0.165)">
       <defs>
        <path d="M 2419 4116 
L 825 1625 
L 2419 1625 
L 2419 4116 
z
M 2253 4666 
L 3047 4666 
L 3047 1625 
L 3713 1625 
L 3713 1100 
L 3047 1100 
L 3047 0 
L 2419 0 
L 2419 1100 
L 313 1100 
L 313 1709 
L 2253 4666 
z
" id="DejaVuSans-34" transform="scale(0.015625)"/>
       </defs>
       <use xlink:href="#DejaVuSans-30"/>
       <use x="63.623047" xlink:href="#DejaVuSans-2e"/>
       <use x="95.410156" xlink:href="#DejaVuSans-34"/>
      </g>
     </g>
    </g>
    <g id="xtick_6">
     <g id="line2d_6">
      <g>
       <use style="stroke:#000000;stroke-width:1.875;" x="352.920827" xlink:href="#m63d1d01925" y="387.72"/>
      </g>
     </g>
     <g id="text_6">
      <!-- 0.5 -->
      <g transform="translate(339.800748 412.757422)scale(0.165 -0.165)">
       <defs>
        <path d="M 691 4666 
L 3169 4666 
L 3169 4134 
L 1269 4134 
L 1269 2991 
Q 1406 3038 1543 3061 
Q 1681 3084 1819 3084 
Q 2600 3084 3056 2656 
Q 3513 2228 3513 1497 
Q 3513 744 3044 326 
Q 2575 -91 1722 -91 
Q 1428 -91 1123 -41 
Q 819 9 494 109 
L 494 744 
Q 775 591 1075 516 
Q 1375 441 1709 441 
Q 2250 441 2565 725 
Q 2881 1009 2881 1497 
Q 2881 1984 2565 2268 
Q 2250 2553 1709 2553 
Q 1456 2553 1204 2497 
Q 953 2441 691 2322 
L 691 4666 
z
" id="DejaVuSans-35" transform="scale(0.015625)"/>
       </defs>
       <use xlink:href="#DejaVuSans-30"/>
       <use x="63.623047" xlink:href="#DejaVuSans-2e"/>
       <use x="95.410156" xlink:href="#DejaVuSans-35"/>
      </g>
     </g>
    </g>
    <g id="xtick_7">
     <g id="line2d_7">
      <g>
       <use style="stroke:#000000;stroke-width:1.875;" x="403.909265" xlink:href="#m63d1d01925" y="387.72"/>
      </g>
     </g>
     <g id="text_7">
      <!-- 0.6 -->
      <g transform="translate(390.789186 412.757422)scale(0.165 -0.165)">
       <defs>
        <path d="M 2113 2584 
Q 1688 2584 1439 2293 
Q 1191 2003 1191 1497 
Q 1191 994 1439 701 
Q 1688 409 2113 409 
Q 2538 409 2786 701 
Q 3034 994 3034 1497 
Q 3034 2003 2786 2293 
Q 2538 2584 2113 2584 
z
M 3366 4563 
L 3366 3988 
Q 3128 4100 2886 4159 
Q 2644 4219 2406 4219 
Q 1781 4219 1451 3797 
Q 1122 3375 1075 2522 
Q 1259 2794 1537 2939 
Q 1816 3084 2150 3084 
Q 2853 3084 3261 2657 
Q 3669 2231 3669 1497 
Q 3669 778 3244 343 
Q 2819 -91 2113 -91 
Q 1303 -91 875 529 
Q 447 1150 447 2328 
Q 447 3434 972 4092 
Q 1497 4750 2381 4750 
Q 2619 4750 2861 4703 
Q 3103 4656 3366 4563 
z
" id="DejaVuSans-36" transform="scale(0.015625)"/>
       </defs>
       <use xlink:href="#DejaVuSans-30"/>
       <use x="63.623047" xlink:href="#DejaVuSans-2e"/>
       <use x="95.410156" xlink:href="#DejaVuSans-36"/>
      </g>
     </g>
    </g>
    <g id="xtick_8">
     <g id="line2d_8">
      <g>
       <use style="stroke:#000000;stroke-width:1.875;" x="454.897703" xlink:href="#m63d1d01925" y="387.72"/>
      </g>
     </g>
     <g id="text_8">
      <!-- 0.7 -->
      <g transform="translate(441.777624 412.757422)scale(0.165 -0.165)">
       <defs>
        <path d="M 525 4666 
L 3525 4666 
L 3525 4397 
L 1831 0 
L 1172 0 
L 2766 4134 
L 525 4134 
L 525 4666 
z
" id="DejaVuSans-37" transform="scale(0.015625)"/>
       </defs>
       <use xlink:href="#DejaVuSans-30"/>
       <use x="63.623047" xlink:href="#DejaVuSans-2e"/>
       <use x="95.410156" xlink:href="#DejaVuSans-37"/>
      </g>
     </g>
    </g>
    <g id="xtick_9">
     <g id="line2d_9">
      <g>
       <use style="stroke:#000000;stroke-width:1.875;" x="505.886141" xlink:href="#m63d1d01925" y="387.72"/>
      </g>
     </g>
     <g id="text_9">
      <!-- 0.8 -->
      <g transform="translate(492.766062 412.757422)scale(0.165 -0.165)">
       <defs>
        <path d="M 2034 2216 
Q 1584 2216 1326 1975 
Q 1069 1734 1069 1313 
Q 1069 891 1326 650 
Q 1584 409 2034 409 
Q 2484 409 2743 651 
Q 3003 894 3003 1313 
Q 3003 1734 2745 1975 
Q 2488 2216 2034 2216 
z
M 1403 2484 
Q 997 2584 770 2862 
Q 544 3141 544 3541 
Q 544 4100 942 4425 
Q 1341 4750 2034 4750 
Q 2731 4750 3128 4425 
Q 3525 4100 3525 3541 
Q 3525 3141 3298 2862 
Q 3072 2584 2669 2484 
Q 3125 2378 3379 2068 
Q 3634 1759 3634 1313 
Q 3634 634 3220 271 
Q 2806 -91 2034 -91 
Q 1263 -91 848 271 
Q 434 634 434 1313 
Q 434 1759 690 2068 
Q 947 2378 1403 2484 
z
M 1172 3481 
Q 1172 3119 1398 2916 
Q 1625 2713 2034 2713 
Q 2441 2713 2670 2916 
Q 2900 3119 2900 3481 
Q 2900 3844 2670 4047 
Q 2441 4250 2034 4250 
Q 1625 4250 1398 4047 
Q 1172 3844 1172 3481 
z
" id="DejaVuSans-38" transform="scale(0.015625)"/>
       </defs>
       <use xlink:href="#DejaVuSans-30"/>
       <use x="63.623047" xlink:href="#DejaVuSans-2e"/>
       <use x="95.410156" xlink:href="#DejaVuSans-38"/>
      </g>
     </g>
    </g>
    <g id="xtick_10">
     <g id="line2d_10">
      <g>
       <use style="stroke:#000000;stroke-width:1.875;" x="556.874579" xlink:href="#m63d1d01925" y="387.72"/>
      </g>
     </g>
     <g id="text_10">
      <!-- 0.9 -->
      <g transform="translate(543.754501 412.757422)scale(0.165 -0.165)">
       <defs>
        <path d="M 703 97 
L 703 672 
Q 941 559 1184 500 
Q 1428 441 1663 441 
Q 2288 441 2617 861 
Q 2947 1281 2994 2138 
Q 2813 1869 2534 1725 
Q 2256 1581 1919 1581 
Q 1219 1581 811 2004 
Q 403 2428 403 3163 
Q 403 3881 828 4315 
Q 1253 4750 1959 4750 
Q 2769 4750 3195 4129 
Q 3622 3509 3622 2328 
Q 3622 1225 3098 567 
Q 2575 -91 1691 -91 
Q 1453 -91 1209 -44 
Q 966 3 703 97 
z
M 1959 2075 
Q 2384 2075 2632 2365 
Q 2881 2656 2881 3163 
Q 2881 3666 2632 3958 
Q 2384 4250 1959 4250 
Q 1534 4250 1286 3958 
Q 1038 3666 1038 3163 
Q 1038 2656 1286 2365 
Q 1534 2075 1959 2075 
z
" id="DejaVuSans-39" transform="scale(0.015625)"/>
       </defs>
       <use xlink:href="#DejaVuSans-30"/>
       <use x="63.623047" xlink:href="#DejaVuSans-2e"/>
       <use x="95.410156" xlink:href="#DejaVuSans-39"/>
      </g>
     </g>
    </g>
    <g id="xtick_11">
     <g id="line2d_11">
      <g>
       <use style="stroke:#000000;stroke-width:1.875;" x="607.863017" xlink:href="#m63d1d01925" y="387.72"/>
      </g>
     </g>
     <g id="text_11">
      <!-- 1.0 -->
      <g transform="translate(594.742939 412.757422)scale(0.165 -0.165)">
       <use xlink:href="#DejaVuSans-31"/>
       <use x="63.623047" xlink:href="#DejaVuSans-2e"/>
       <use x="95.410156" xlink:href="#DejaVuSans-30"/>
      </g>
     </g>
    </g>
   </g>
   <g id="matplotlib.axis_2">
    <g id="ytick_1">
     <g id="line2d_12">
      <defs>
       <path d="M 0 0 
L -9 0 
" id="me21f1aa90f" style="stroke:#000000;stroke-width:1.875;"/>
      </defs>
      <g>
       <use style="stroke:#000000;stroke-width:1.875;" x="72.615" xlink:href="#me21f1aa90f" y="387.72"/>
      </g>
     </g>
     <g id="text_12">
      <!-- 0 -->
      <g transform="translate(49.616875 393.988711)scale(0.165 -0.165)">
       <use xlink:href="#DejaVuSans-30"/>
      </g>
     </g>
    </g>
    <g id="ytick_2">
     <g id="line2d_13">
      <g>
       <use style="stroke:#000000;stroke-width:1.875;" x="72.615" xlink:href="#me21f1aa90f" y="351.48"/>
      </g>
     </g>
     <g id="text_13">
      <!-- 10 -->
      <g transform="translate(39.11875 357.748711)scale(0.165 -0.165)">
       <use xlink:href="#DejaVuSans-31"/>
       <use x="63.623047" xlink:href="#DejaVuSans-30"/>
      </g>
     </g>
    </g>
    <g id="ytick_3">
     <g id="line2d_14">
      <g>
       <use style="stroke:#000000;stroke-width:1.875;" x="72.615" xlink:href="#me21f1aa90f" y="315.24"/>
      </g>
     </g>
     <g id="text_14">
      <!-- 20 -->
      <g transform="translate(39.11875 321.508711)scale(0.165 -0.165)">
       <use xlink:href="#DejaVuSans-32"/>
       <use x="63.623047" xlink:href="#DejaVuSans-30"/>
      </g>
     </g>
    </g>
    <g id="ytick_4">
     <g id="line2d_15">
      <g>
       <use style="stroke:#000000;stroke-width:1.875;" x="72.615" xlink:href="#me21f1aa90f" y="279"/>
      </g>
     </g>
     <g id="text_15">
      <!-- 30 -->
      <g transform="translate(39.11875 285.268711)scale(0.165 -0.165)">
       <use xlink:href="#DejaVuSans-33"/>
       <use x="63.623047" xlink:href="#DejaVuSans-30"/>
      </g>
     </g>
    </g>
    <g id="ytick_5">
     <g id="line2d_16">
      <g>
       <use style="stroke:#000000;stroke-width:1.875;" x="72.615" xlink:href="#me21f1aa90f" y="242.76"/>
      </g>
     </g>
     <g id="text_16">
      <!-- 40 -->
      <g transform="translate(39.11875 249.028711)scale(0.165 -0.165)">
       <use xlink:href="#DejaVuSans-34"/>
       <use x="63.623047" xlink:href="#DejaVuSans-30"/>
      </g>
     </g>
    </g>
    <g id="ytick_6">
     <g id="line2d_17">
      <g>
       <use style="stroke:#000000;stroke-width:1.875;" x="72.615" xlink:href="#me21f1aa90f" y="206.52"/>
      </g>
     </g>
     <g id="text_17">
      <!-- 50 -->
      <g transform="translate(39.11875 212.788711)scale(0.165 -0.165)">
       <use xlink:href="#DejaVuSans-35"/>
       <use x="63.623047" xlink:href="#DejaVuSans-30"/>
      </g>
     </g>
    </g>
    <g id="ytick_7">
     <g id="line2d_18">
      <g>
       <use style="stroke:#000000;stroke-width:1.875;" x="72.615" xlink:href="#me21f1aa90f" y="170.28"/>
      </g>
     </g>
     <g id="text_18">
      <!-- 60 -->
      <g transform="translate(39.11875 176.548711)scale(0.165 -0.165)">
       <use xlink:href="#DejaVuSans-36"/>
       <use x="63.623047" xlink:href="#DejaVuSans-30"/>
      </g>
     </g>
    </g>
    <g id="ytick_8">
     <g id="line2d_19">
      <g>
       <use style="stroke:#000000;stroke-width:1.875;" x="72.615" xlink:href="#me21f1aa90f" y="134.04"/>
      </g>
     </g>
     <g id="text_19">
      <!-- 70 -->
      <g transform="translate(39.11875 140.308711)scale(0.165 -0.165)">
       <use xlink:href="#DejaVuSans-37"/>
       <use x="63.623047" xlink:href="#DejaVuSans-30"/>
      </g>
     </g>
    </g>
    <g id="ytick_9">
     <g id="line2d_20">
      <g>
       <use style="stroke:#000000;stroke-width:1.875;" x="72.615" xlink:href="#me21f1aa90f" y="97.8"/>
      </g>
     </g>
     <g id="text_20">
      <!-- 80 -->
      <g transform="translate(39.11875 104.068711)scale(0.165 -0.165)">
       <use xlink:href="#DejaVuSans-38"/>
       <use x="63.623047" xlink:href="#DejaVuSans-30"/>
      </g>
     </g>
    </g>
    <g id="ytick_10">
     <g id="line2d_21">
      <g>
       <use style="stroke:#000000;stroke-width:1.875;" x="72.615" xlink:href="#me21f1aa90f" y="61.56"/>
      </g>
     </g>
     <g id="text_21">
      <!-- 90 -->
      <g transform="translate(39.11875 67.828711)scale(0.165 -0.165)">
       <use xlink:href="#DejaVuSans-39"/>
       <use x="63.623047" xlink:href="#DejaVuSans-30"/>
      </g>
     </g>
    </g>
    <g id="ytick_11">
     <g id="line2d_22">
      <g>
       <use style="stroke:#000000;stroke-width:1.875;" x="72.615" xlink:href="#me21f1aa90f" y="25.32"/>
      </g>
     </g>
     <g id="text_22">
      <!-- 100 -->
      <g transform="translate(28.620625 31.588711)scale(0.165 -0.165)">
       <use xlink:href="#DejaVuSans-31"/>
       <use x="63.623047" xlink:href="#DejaVuSans-30"/>
       <use x="127.246094" xlink:href="#DejaVuSans-30"/>
      </g>
     </g>
    </g>
    <g id="text_23">
     <!-- Percent of gene pairs -->
     <g transform="translate(20.877188 293.180625)rotate(-90)scale(0.18 -0.18)">
      <defs>
       <path d="M 1259 4147 
L 1259 2394 
L 2053 2394 
Q 2494 2394 2734 2622 
Q 2975 2850 2975 3272 
Q 2975 3691 2734 3919 
Q 2494 4147 2053 4147 
L 1259 4147 
z
M 628 4666 
L 2053 4666 
Q 2838 4666 3239 4311 
Q 3641 3956 3641 3272 
Q 3641 2581 3239 2228 
Q 2838 1875 2053 1875 
L 1259 1875 
L 1259 0 
L 628 0 
L 628 4666 
z
" id="DejaVuSans-50" transform="scale(0.015625)"/>
       <path d="M 3597 1894 
L 3597 1613 
L 953 1613 
Q 991 1019 1311 708 
Q 1631 397 2203 397 
Q 2534 397 2845 478 
Q 3156 559 3463 722 
L 3463 178 
Q 3153 47 2828 -22 
Q 2503 -91 2169 -91 
Q 1331 -91 842 396 
Q 353 884 353 1716 
Q 353 2575 817 3079 
Q 1281 3584 2069 3584 
Q 2775 3584 3186 3129 
Q 3597 2675 3597 1894 
z
M 3022 2063 
Q 3016 2534 2758 2815 
Q 2500 3097 2075 3097 
Q 1594 3097 1305 2825 
Q 1016 2553 972 2059 
L 3022 2063 
z
" id="DejaVuSans-65" transform="scale(0.015625)"/>
       <path d="M 2631 2963 
Q 2534 3019 2420 3045 
Q 2306 3072 2169 3072 
Q 1681 3072 1420 2755 
Q 1159 2438 1159 1844 
L 1159 0 
L 581 0 
L 581 3500 
L 1159 3500 
L 1159 2956 
Q 1341 3275 1631 3429 
Q 1922 3584 2338 3584 
Q 2397 3584 2469 3576 
Q 2541 3569 2628 3553 
L 2631 2963 
z
" id="DejaVuSans-72" transform="scale(0.015625)"/>
       <path d="M 3122 3366 
L 3122 2828 
Q 2878 2963 2633 3030 
Q 2388 3097 2138 3097 
Q 1578 3097 1268 2742 
Q 959 2388 959 1747 
Q 959 1106 1268 751 
Q 1578 397 2138 397 
Q 2388 397 2633 464 
Q 2878 531 3122 666 
L 3122 134 
Q 2881 22 2623 -34 
Q 2366 -91 2075 -91 
Q 1284 -91 818 406 
Q 353 903 353 1747 
Q 353 2603 823 3093 
Q 1294 3584 2113 3584 
Q 2378 3584 2631 3529 
Q 2884 3475 3122 3366 
z
" id="DejaVuSans-63" transform="scale(0.015625)"/>
       <path d="M 3513 2113 
L 3513 0 
L 2938 0 
L 2938 2094 
Q 2938 2591 2744 2837 
Q 2550 3084 2163 3084 
Q 1697 3084 1428 2787 
Q 1159 2491 1159 1978 
L 1159 0 
L 581 0 
L 581 3500 
L 1159 3500 
L 1159 2956 
Q 1366 3272 1645 3428 
Q 1925 3584 2291 3584 
Q 2894 3584 3203 3211 
Q 3513 2838 3513 2113 
z
" id="DejaVuSans-6e" transform="scale(0.015625)"/>
       <path d="M 1172 4494 
L 1172 3500 
L 2356 3500 
L 2356 3053 
L 1172 3053 
L 1172 1153 
Q 1172 725 1289 603 
Q 1406 481 1766 481 
L 2356 481 
L 2356 0 
L 1766 0 
Q 1100 0 847 248 
Q 594 497 594 1153 
L 594 3053 
L 172 3053 
L 172 3500 
L 594 3500 
L 594 4494 
L 1172 4494 
z
" id="DejaVuSans-74" transform="scale(0.015625)"/>
       <path id="DejaVuSans-20" transform="scale(0.015625)"/>
       <path d="M 1959 3097 
Q 1497 3097 1228 2736 
Q 959 2375 959 1747 
Q 959 1119 1226 758 
Q 1494 397 1959 397 
Q 2419 397 2687 759 
Q 2956 1122 2956 1747 
Q 2956 2369 2687 2733 
Q 2419 3097 1959 3097 
z
M 1959 3584 
Q 2709 3584 3137 3096 
Q 3566 2609 3566 1747 
Q 3566 888 3137 398 
Q 2709 -91 1959 -91 
Q 1206 -91 779 398 
Q 353 888 353 1747 
Q 353 2609 779 3096 
Q 1206 3584 1959 3584 
z
" id="DejaVuSans-6f" transform="scale(0.015625)"/>
       <path d="M 2375 4863 
L 2375 4384 
L 1825 4384 
Q 1516 4384 1395 4259 
Q 1275 4134 1275 3809 
L 1275 3500 
L 2222 3500 
L 2222 3053 
L 1275 3053 
L 1275 0 
L 697 0 
L 697 3053 
L 147 3053 
L 147 3500 
L 697 3500 
L 697 3744 
Q 697 4328 969 4595 
Q 1241 4863 1831 4863 
L 2375 4863 
z
" id="DejaVuSans-66" transform="scale(0.015625)"/>
       <path d="M 2906 1791 
Q 2906 2416 2648 2759 
Q 2391 3103 1925 3103 
Q 1463 3103 1205 2759 
Q 947 2416 947 1791 
Q 947 1169 1205 825 
Q 1463 481 1925 481 
Q 2391 481 2648 825 
Q 2906 1169 2906 1791 
z
M 3481 434 
Q 3481 -459 3084 -895 
Q 2688 -1331 1869 -1331 
Q 1566 -1331 1297 -1286 
Q 1028 -1241 775 -1147 
L 775 -588 
Q 1028 -725 1275 -790 
Q 1522 -856 1778 -856 
Q 2344 -856 2625 -561 
Q 2906 -266 2906 331 
L 2906 616 
Q 2728 306 2450 153 
Q 2172 0 1784 0 
Q 1141 0 747 490 
Q 353 981 353 1791 
Q 353 2603 747 3093 
Q 1141 3584 1784 3584 
Q 2172 3584 2450 3431 
Q 2728 3278 2906 2969 
L 2906 3500 
L 3481 3500 
L 3481 434 
z
" id="DejaVuSans-67" transform="scale(0.015625)"/>
       <path d="M 1159 525 
L 1159 -1331 
L 581 -1331 
L 581 3500 
L 1159 3500 
L 1159 2969 
Q 1341 3281 1617 3432 
Q 1894 3584 2278 3584 
Q 2916 3584 3314 3078 
Q 3713 2572 3713 1747 
Q 3713 922 3314 415 
Q 2916 -91 2278 -91 
Q 1894 -91 1617 61 
Q 1341 213 1159 525 
z
M 3116 1747 
Q 3116 2381 2855 2742 
Q 2594 3103 2138 3103 
Q 1681 3103 1420 2742 
Q 1159 2381 1159 1747 
Q 1159 1113 1420 752 
Q 1681 391 2138 391 
Q 2594 391 2855 752 
Q 3116 1113 3116 1747 
z
" id="DejaVuSans-70" transform="scale(0.015625)"/>
       <path d="M 2194 1759 
Q 1497 1759 1228 1600 
Q 959 1441 959 1056 
Q 959 750 1161 570 
Q 1363 391 1709 391 
Q 2188 391 2477 730 
Q 2766 1069 2766 1631 
L 2766 1759 
L 2194 1759 
z
M 3341 1997 
L 3341 0 
L 2766 0 
L 2766 531 
Q 2569 213 2275 61 
Q 1981 -91 1556 -91 
Q 1019 -91 701 211 
Q 384 513 384 1019 
Q 384 1609 779 1909 
Q 1175 2209 1959 2209 
L 2766 2209 
L 2766 2266 
Q 2766 2663 2505 2880 
Q 2244 3097 1772 3097 
Q 1472 3097 1187 3025 
Q 903 2953 641 2809 
L 641 3341 
Q 956 3463 1253 3523 
Q 1550 3584 1831 3584 
Q 2591 3584 2966 3190 
Q 3341 2797 3341 1997 
z
" id="DejaVuSans-61" transform="scale(0.015625)"/>
       <path d="M 603 3500 
L 1178 3500 
L 1178 0 
L 603 0 
L 603 3500 
z
M 603 4863 
L 1178 4863 
L 1178 4134 
L 603 4134 
L 603 4863 
z
" id="DejaVuSans-69" transform="scale(0.015625)"/>
       <path d="M 2834 3397 
L 2834 2853 
Q 2591 2978 2328 3040 
Q 2066 3103 1784 3103 
Q 1356 3103 1142 2972 
Q 928 2841 928 2578 
Q 928 2378 1081 2264 
Q 1234 2150 1697 2047 
L 1894 2003 
Q 2506 1872 2764 1633 
Q 3022 1394 3022 966 
Q 3022 478 2636 193 
Q 2250 -91 1575 -91 
Q 1294 -91 989 -36 
Q 684 19 347 128 
L 347 722 
Q 666 556 975 473 
Q 1284 391 1588 391 
Q 1994 391 2212 530 
Q 2431 669 2431 922 
Q 2431 1156 2273 1281 
Q 2116 1406 1581 1522 
L 1381 1569 
Q 847 1681 609 1914 
Q 372 2147 372 2553 
Q 372 3047 722 3315 
Q 1072 3584 1716 3584 
Q 2034 3584 2315 3537 
Q 2597 3491 2834 3397 
z
" id="DejaVuSans-73" transform="scale(0.015625)"/>
      </defs>
      <use xlink:href="#DejaVuSans-50"/>
      <use x="56.677734" xlink:href="#DejaVuSans-65"/>
      <use x="118.201172" xlink:href="#DejaVuSans-72"/>
      <use x="157.064453" xlink:href="#DejaVuSans-63"/>
      <use x="212.044922" xlink:href="#DejaVuSans-65"/>
      <use x="273.568359" xlink:href="#DejaVuSans-6e"/>
      <use x="336.947266" xlink:href="#DejaVuSans-74"/>
      <use x="376.15625" xlink:href="#DejaVuSans-20"/>
      <use x="407.943359" xlink:href="#DejaVuSans-6f"/>
      <use x="469.125" xlink:href="#DejaVuSans-66"/>
      <use x="504.330078" xlink:href="#DejaVuSans-20"/>
      <use x="536.117188" xlink:href="#DejaVuSans-67"/>
      <use x="599.59375" xlink:href="#DejaVuSans-65"/>
      <use x="661.117188" xlink:href="#DejaVuSans-6e"/>
      <use x="724.496094" xlink:href="#DejaVuSans-65"/>
      <use x="786.019531" xlink:href="#DejaVuSans-20"/>
      <use x="817.806641" xlink:href="#DejaVuSans-70"/>
      <use x="881.283203" xlink:href="#DejaVuSans-61"/>
      <use x="942.5625" xlink:href="#DejaVuSans-69"/>
      <use x="970.345703" xlink:href="#DejaVuSans-72"/>
      <use x="1011.458984" xlink:href="#DejaVuSans-73"/>
     </g>
    </g>
   </g>
   <g id="LineCollection_1">
    <path clip-path="url(#p55e6cc656c)" d="M 72.615 134.04 
L 384.910843 134.04 
" style="fill:none;stroke:#808080;stroke-dasharray:2.25,3.7125;stroke-dashoffset:0;stroke-width:2.25;"/>
   </g>
   <g id="LineCollection_2">
    <path clip-path="url(#p55e6cc656c)" d="M 190.747179 387.72 
L 190.747179 134.04 
" style="fill:none;stroke:#808080;stroke-dasharray:2.25,3.7125;stroke-dashoffset:0;stroke-width:2.25;"/>
   </g>
   <g id="LineCollection_3">
    <path clip-path="url(#p55e6cc656c)" d="M 319.631007 387.72 
L 319.631007 134.04 
" style="fill:none;stroke:#808080;stroke-dasharray:2.25,3.7125;stroke-dashoffset:0;stroke-width:2.25;"/>
   </g>
   <g id="LineCollection_4">
    <path clip-path="url(#p55e6cc656c)" d="M 384.910843 387.72 
L 384.910843 134.04 
" style="fill:none;stroke:#808080;stroke-dasharray:2.25,3.7125;stroke-dashoffset:0;stroke-width:2.25;"/>
   </g>
   <g id="line2d_23">
    <path clip-path="url(#p55e6cc656c)" d="M 97.978636 386.374589 
L 99.144781 386.374589 
L 99.144781 385.02941 
L 100.310925 385.02941 
L 100.310925 383.67559 
L 101.477069 383.67559 
L 101.477069 382.317913 
L 102.643213 382.317913 
L 102.643213 380.966152 
L 103.809357 380.966152 
L 103.809357 379.624162 
L 104.975502 379.624162 
L 104.975502 378.281361 
L 106.141646 378.281361 
L 106.141646 376.931891 
L 107.30779 376.931891 
L 107.30779 375.589872 
L 108.473934 375.589872 
L 108.473934 374.251305 
L 109.640078 374.251305 
L 109.640078 372.910505 
L 110.806223 372.910505 
L 110.806223 371.569618 
L 111.972367 371.569618 
L 111.972367 370.228614 
L 113.138511 370.228614 
L 113.138511 368.889699 
L 114.304655 368.889699 
L 114.304655 367.547188 
L 115.470799 367.547188 
L 115.470799 366.205576 
L 116.636944 366.205576 
L 116.636944 364.877737 
L 117.803088 364.877737 
L 117.803088 363.554394 
L 118.969232 363.554394 
L 118.969232 362.229745 
L 120.135376 362.229745 
L 120.135376 360.899732 
L 121.30152 360.899732 
L 121.30152 359.586306 
L 122.467665 359.586306 
L 122.467665 358.274648 
L 123.633809 358.274648 
L 123.633809 356.974909 
L 124.799953 356.974909 
L 124.799953 355.674503 
L 125.966097 355.674503 
L 125.966097 354.366383 
L 127.132241 354.366383 
L 127.132241 353.065455 
L 128.298386 353.065455 
L 128.298386 351.760032 
L 129.46453 351.760032 
L 129.46453 350.451796 
L 130.630674 350.451796 
L 130.630674 349.158552 
L 131.796818 349.158552 
L 131.796818 347.861336 
L 132.962962 347.861336 
L 132.962962 346.570006 
L 134.129107 346.570006 
L 134.129107 345.29187 
L 135.295251 345.29187 
L 135.295251 344.006368 
L 136.461395 344.006368 
L 136.461395 342.728725 
L 137.627539 342.728725 
L 137.627539 341.450067 
L 138.793683 341.450067 
L 138.793683 340.171554 
L 139.959828 340.171554 
L 139.959828 338.901682 
L 141.125972 338.901682 
L 141.125972 337.629665 
L 142.292116 337.629665 
L 142.292116 336.360054 
L 143.45826 336.360054 
L 143.45826 335.099346 
L 144.624404 335.099346 
L 144.624404 333.838174 
L 145.790549 333.838174 
L 145.790549 332.581148 
L 146.956693 332.581148 
L 146.956693 331.323514 
L 148.122837 331.323514 
L 148.122837 330.071476 
L 149.288981 330.071476 
L 149.288981 328.812217 
L 150.455125 328.812217 
L 150.455125 327.57404 
L 151.62127 327.57404 
L 151.62127 326.330063 
L 152.787414 326.330063 
L 152.787414 325.100731 
L 153.953558 325.100731 
L 153.953558 323.871601 
L 155.119702 323.871601 
L 155.119702 322.632728 
L 156.285846 322.632728 
L 156.285846 321.40673 
L 157.451991 321.40673 
L 157.451991 320.185082 
L 158.618135 320.185082 
L 158.618135 318.959606 
L 159.784279 318.959606 
L 159.784279 317.737493 
L 160.950423 317.737493 
L 160.950423 316.521906 
L 162.116567 316.521906 
L 162.116567 315.303795 
L 163.282712 315.303795 
L 163.282712 314.095225 
L 164.448856 314.095225 
L 164.448856 312.892222 
L 165.615 312.892222 
L 165.615 311.682144 
L 166.781144 311.682144 
L 166.781144 310.470877 
L 167.947288 310.470877 
L 167.947288 309.266946 
L 169.113433 309.266946 
L 169.113433 308.056259 
L 170.279577 308.056259 
L 170.279577 306.864972 
L 171.445721 306.864972 
L 171.445721 305.681281 
L 172.611865 305.681281 
L 172.611865 304.493879 
L 173.778009 304.493879 
L 173.778009 303.309319 
L 174.944154 303.309319 
L 174.944154 302.117771 
L 176.110298 302.117771 
L 176.110298 300.944752 
L 177.276442 300.944752 
L 177.276442 299.773502 
L 178.442586 299.773502 
L 178.442586 298.591957 
L 179.60873 298.591957 
L 179.60873 297.422157 
L 180.774875 297.422157 
L 180.774875 296.256185 
L 181.941019 296.256185 
L 181.941019 295.096128 
L 183.107163 295.096128 
L 183.107163 293.937405 
L 184.273307 293.937405 
L 184.273307 292.78422 
L 185.439451 292.78422 
L 185.439451 291.632572 
L 186.605596 291.632572 
L 186.605596 290.472022 
L 187.77174 290.472022 
L 187.77174 289.331539 
L 188.937884 289.331539 
L 188.937884 288.191317 
L 190.104028 288.191317 
L 190.104028 287.046193 
L 191.270172 287.046193 
L 191.270172 285.923196 
L 192.436317 285.923196 
L 192.436317 284.78828 
L 193.602461 284.78828 
L 193.602461 283.65812 
L 194.768605 283.65812 
L 194.768605 282.531874 
L 195.934749 282.531874 
L 195.934749 281.413545 
L 197.100893 281.413545 
L 197.100893 280.298 
L 198.267038 280.298 
L 198.267038 279.184165 
L 199.433182 279.184165 
L 199.433182 278.077986 
L 200.599326 278.077986 
L 200.599326 276.978244 
L 201.76547 276.978244 
L 201.76547 275.88294 
L 202.931614 275.88294 
L 202.931614 274.782792 
L 204.097759 274.782792 
L 204.097759 273.697752 
L 205.263903 273.697752 
L 205.263903 272.616975 
L 206.430047 272.616975 
L 206.430047 271.53585 
L 207.596191 271.53585 
L 207.596191 270.465339 
L 208.762335 270.465339 
L 208.762335 269.398655 
L 209.92848 269.398655 
L 209.92848 268.336639 
L 211.094624 268.336639 
L 211.094624 267.264533 
L 212.260768 267.264533 
L 212.260768 266.21055 
L 213.426912 266.21055 
L 213.426912 265.162859 
L 214.593056 265.162859 
L 214.593056 264.120997 
L 215.759201 264.120997 
L 215.759201 263.071045 
L 216.925345 263.071045 
L 216.925345 262.030575 
L 218.091489 262.030575 
L 218.091489 260.994193 
L 219.257633 260.994193 
L 219.257633 259.962684 
L 220.423777 259.962684 
L 220.423777 258.942512 
L 221.589922 258.942512 
L 221.589922 257.910509 
L 222.756066 257.910509 
L 222.756066 256.879783 
L 223.92221 256.879783 
L 223.92221 255.865295 
L 225.088354 255.865295 
L 225.088354 254.839091 
L 226.254498 254.839091 
L 226.254498 253.823298 
L 227.420643 253.823298 
L 227.420643 252.809564 
L 228.586787 252.809564 
L 228.586787 251.810358 
L 229.752931 251.810358 
L 229.752931 250.810369 
L 230.919075 250.810369 
L 230.919075 249.819079 
L 232.085219 249.819079 
L 232.085219 248.822396 
L 233.251364 248.822396 
L 233.251364 247.830613 
L 234.417508 247.830613 
L 234.417508 246.836105 
L 235.583652 246.836105 
L 235.583652 245.851919 
L 236.749796 245.851919 
L 236.749796 244.871388 
L 237.91594 244.871388 
L 237.91594 243.902948 
L 239.082085 243.902948 
L 239.082085 242.921924 
L 240.248229 242.921924 
L 240.248229 241.939304 
L 241.414373 241.939304 
L 241.414373 240.968835 
L 242.580517 240.968835 
L 242.580517 239.995669 
L 243.746661 239.995669 
L 243.746661 239.018878 
L 244.912806 239.018878 
L 244.912806 238.04403 
L 246.07895 238.04403 
L 246.07895 237.066833 
L 247.245094 237.066833 
L 247.245094 236.097466 
L 248.411238 236.097466 
L 248.411238 235.135058 
L 249.577382 235.135058 
L 249.577382 234.174621 
L 250.743527 234.174621 
L 250.743527 233.221116 
L 251.909671 233.221116 
L 251.909671 232.267697 
L 253.075815 232.267697 
L 253.075815 231.300099 
L 254.241959 231.300099 
L 254.241959 230.344534 
L 255.408103 230.344534 
L 255.408103 229.389434 
L 256.574248 229.389434 
L 256.574248 228.439379 
L 257.740392 228.439379 
L 257.740392 227.490832 
L 258.906536 227.490832 
L 258.906536 226.544894 
L 260.07268 226.544894 
L 260.07268 225.605192 
L 261.238824 225.605192 
L 261.238824 224.668911 
L 262.404969 224.668911 
L 262.404969 223.737096 
L 263.571113 223.737096 
L 263.571113 222.799104 
L 264.737257 222.799104 
L 264.737257 221.866418 
L 265.903401 221.866418 
L 265.903401 220.931993 
L 267.069545 220.931993 
L 267.069545 220.000961 
L 268.23569 220.000961 
L 268.23569 219.081151 
L 269.401834 219.081151 
L 269.401834 218.15702 
L 270.567978 218.15702 
L 270.567978 217.232715 
L 271.734122 217.232715 
L 271.734122 216.298522 
L 272.900266 216.298522 
L 272.900266 215.373289 
L 274.066411 215.373289 
L 274.066411 214.450347 
L 275.232555 214.450347 
L 275.232555 213.516444 
L 276.398699 213.516444 
L 276.398699 212.608494 
L 277.564843 212.608494 
L 277.564843 211.702748 
L 278.730987 211.702748 
L 278.730987 210.79416 
L 279.897132 210.79416 
L 279.897132 209.885282 
L 281.063276 209.885282 
L 281.063276 208.974838 
L 282.22942 208.974838 
L 282.22942 208.069584 
L 283.395564 208.069584 
L 283.395564 207.162939 
L 284.561708 207.162939 
L 284.561708 206.253249 
L 285.727853 206.253249 
L 285.727853 205.354143 
L 286.893997 205.354143 
L 286.893997 204.450978 
L 288.060141 204.450978 
L 288.060141 203.552655 
L 289.226285 203.552655 
L 289.226285 202.657783 
L 290.392429 202.657783 
L 290.392429 201.762708 
L 291.558574 201.762708 
L 291.558574 200.857803 
L 292.724718 200.857803 
L 292.724718 199.958378 
L 293.890862 199.958378 
L 293.890862 199.063622 
L 295.057006 199.063622 
L 295.057006 198.170838 
L 296.22315 198.170838 
L 296.22315 197.284752 
L 297.389295 197.284752 
L 297.389295 196.398869 
L 298.555439 196.398869 
L 298.555439 195.519134 
L 299.721583 195.519134 
L 299.721583 194.637166 
L 300.887727 194.637166 
L 300.887727 193.759924 
L 302.053871 193.759924 
L 302.053871 192.873027 
L 303.220016 192.873027 
L 303.220016 191.994567 
L 304.38616 191.994567 
L 304.38616 191.108829 
L 305.552304 191.108829 
L 305.552304 190.235996 
L 306.718448 190.235996 
L 306.718448 189.34962 
L 307.884592 189.34962 
L 307.884592 188.475249 
L 309.050737 188.475249 
L 309.050737 187.604097 
L 310.216881 187.604097 
L 310.216881 186.738861 
L 311.383025 186.738861 
L 311.383025 185.86075 
L 312.549169 185.86075 
L 312.549169 184.989279 
L 313.715313 184.989279 
L 313.715313 184.121259 
L 314.881458 184.121259 
L 314.881458 183.246337 
L 316.047602 183.246337 
L 316.047602 182.376983 
L 317.213746 182.376983 
L 317.213746 181.511602 
L 318.37989 181.511602 
L 318.37989 180.642248 
L 319.546034 180.642248 
L 319.546034 179.773967 
L 320.712179 179.773967 
L 320.712179 178.903018 
L 321.878323 178.903018 
L 321.878323 178.032156 
L 323.044467 178.032156 
L 323.044467 177.168137 
L 324.210611 177.168137 
L 324.210611 176.314239 
L 325.376755 176.314239 
L 325.376755 175.454512 
L 326.5429 175.454512 
L 326.5429 174.596322 
L 327.709044 174.596322 
L 327.709044 173.740133 
L 328.875188 173.740133 
L 328.875188 172.879943 
L 330.041332 172.879943 
L 330.041332 172.026537 
L 331.207476 172.026537 
L 331.207476 171.174785 
L 332.373621 171.174785 
L 332.373621 170.321815 
L 333.539765 170.321815 
L 333.539765 169.472208 
L 334.705909 169.472208 
L 334.705909 168.62901 
L 335.872053 168.62901 
L 335.872053 167.77981 
L 337.038197 167.77981 
L 337.038197 166.933103 
L 338.204342 166.933103 
L 338.204342 166.084859 
L 339.370486 166.084859 
L 339.370486 165.235282 
L 340.53663 165.235282 
L 340.53663 164.393534 
L 341.702774 164.393534 
L 341.702774 163.548828 
L 342.868918 163.548828 
L 342.868918 162.715286 
L 344.035063 162.715286 
L 344.035063 161.874524 
L 345.201207 161.874524 
L 345.201207 161.034458 
L 346.367351 161.034458 
L 346.367351 160.201177 
L 347.533495 160.201177 
L 347.533495 159.37645 
L 348.699639 159.37645 
L 348.699639 158.546823 
L 349.865784 158.546823 
L 349.865784 157.714702 
L 351.031928 157.714702 
L 351.031928 156.894181 
L 352.198072 156.894181 
L 352.198072 156.064641 
L 353.364216 156.064641 
L 353.364216 155.233187 
L 354.530361 155.233187 
L 354.530361 154.394889 
L 355.696505 154.394889 
L 355.696505 153.573179 
L 356.862649 153.573179 
L 356.862649 152.75315 
L 358.028793 152.75315 
L 358.028793 151.927148 
L 359.194937 151.927148 
L 359.194937 151.10564 
L 360.361082 151.10564 
L 360.361082 150.284422 
L 361.527226 150.284422 
L 361.527226 149.46738 
L 362.69337 149.46738 
L 362.69337 148.649729 
L 363.859514 148.649729 
L 363.859514 147.840082 
L 365.025658 147.840082 
L 365.025658 147.02968 
L 366.191803 147.02968 
L 366.191803 146.21026 
L 367.357947 146.21026 
L 367.357947 145.387419 
L 368.524091 145.387419 
L 368.524091 144.57319 
L 369.690235 144.57319 
L 369.690235 143.758584 
L 370.856379 143.758584 
L 370.856379 142.945775 
L 372.022524 142.945775 
L 372.022524 142.141463 
L 373.188668 142.141463 
L 373.188668 141.332367 
L 374.354812 141.332367 
L 374.354812 140.522632 
L 375.520956 140.522632 
L 375.520956 139.710172 
L 376.6871 139.710172 
L 376.6871 138.905454 
L 377.853245 138.905454 
L 377.853245 138.103549 
L 379.019389 138.103549 
L 379.019389 137.298425 
L 380.185533 137.298425 
L 380.185533 136.493011 
L 381.351677 136.493011 
L 381.351677 135.683914 
L 382.517821 135.683914 
L 382.517821 134.885228 
L 383.683966 134.885228 
L 383.683966 134.081061 
L 384.85011 134.081061 
L 384.85011 133.281389 
L 386.016254 133.281389 
L 386.016254 132.476439 
L 387.182398 132.476439 
L 387.182398 131.673026 
L 388.348542 131.673026 
L 388.348542 130.871439 
L 389.514687 130.871439 
L 389.514687 130.06504 
L 390.680831 130.06504 
L 390.680831 129.277604 
L 391.846975 129.277604 
L 391.846975 128.478193 
L 393.013119 128.478193 
L 393.013119 127.684668 
L 394.179263 127.684668 
L 394.179263 126.89123 
L 395.345408 126.89123 
L 395.345408 126.090978 
L 396.511552 126.090978 
L 396.511552 125.294931 
L 397.677696 125.294931 
L 397.677696 124.508162 
L 398.84384 124.508162 
L 398.84384 123.71487 
L 400.009984 123.71487 
L 400.009984 122.926477 
L 401.176129 122.926477 
L 401.176129 122.127414 
L 402.342273 122.127414 
L 402.342273 121.332961 
L 403.508417 121.332961 
L 403.508417 120.547875 
L 404.674561 120.547875 
L 404.674561 119.758352 
L 405.840705 119.758352 
L 405.840705 118.964943 
L 407.00685 118.964943 
L 407.00685 118.174608 
L 408.172994 118.174608 
L 408.172994 117.382272 
L 409.339138 117.382272 
L 409.339138 116.597302 
L 410.505282 116.597302 
L 410.505282 115.80801 
L 411.671426 115.80801 
L 411.671426 115.025737 
L 412.837571 115.025737 
L 412.837571 114.241607 
L 414.003715 114.241607 
L 414.003715 113.456405 
L 415.169859 113.456405 
L 415.169859 112.671232 
L 416.336003 112.671232 
L 416.336003 111.879128 
L 417.502147 111.879128 
L 417.502147 111.100885 
L 418.668292 111.100885 
L 418.668292 110.310289 
L 419.834436 110.310289 
L 419.834436 109.520795 
L 421.00058 109.520795 
L 421.00058 108.726023 
L 422.166724 108.726023 
L 422.166724 107.940994 
L 423.332868 107.940994 
L 423.332868 107.143961 
L 424.499013 107.143961 
L 424.499013 106.353887 
L 425.665157 106.353887 
L 425.665157 105.562537 
L 426.831301 105.562537 
L 426.831301 104.776871 
L 427.997445 104.776871 
L 427.997445 103.984071 
L 429.163589 103.984071 
L 429.163589 103.190923 
L 430.329734 103.190923 
L 430.329734 102.389395 
L 431.495878 102.389395 
L 431.495878 101.588331 
L 432.662022 101.588331 
L 432.662022 100.793704 
L 433.828166 100.793704 
L 433.828166 99.999309 
L 434.99431 99.999309 
L 434.99431 99.207669 
L 436.160455 99.207669 
L 436.160455 98.407098 
L 437.326599 98.407098 
L 437.326599 97.611514 
L 438.492743 97.611514 
L 438.492743 96.808362 
L 439.658887 96.808362 
L 439.658887 96.01217 
L 440.825031 96.01217 
L 440.825031 95.210728 
L 441.991176 95.210728 
L 441.991176 94.408359 
L 443.15732 94.408359 
L 443.15732 93.606773 
L 444.323464 93.606773 
L 444.323464 92.811393 
L 445.489608 92.811393 
L 445.489608 92.005196 
L 446.655752 92.005196 
L 446.655752 91.203262 
L 447.821897 91.203262 
L 447.821897 90.398921 
L 448.988041 90.398921 
L 448.988041 89.59574 
L 450.154185 89.59574 
L 450.154185 88.793051 
L 451.320329 88.793051 
L 451.320329 87.988827 
L 452.486473 87.988827 
L 452.486473 87.181499 
L 453.652618 87.181499 
L 453.652618 86.384929 
L 454.818762 86.384929 
L 454.818762 85.576442 
L 455.984906 85.576442 
L 455.984906 84.76836 
L 457.15105 84.76836 
L 457.15105 83.961554 
L 458.317194 83.961554 
L 458.317194 83.160084 
L 459.483339 83.160084 
L 459.483339 82.346464 
L 460.649483 82.346464 
L 460.649483 81.540731 
L 461.815627 81.540731 
L 461.815627 80.737347 
L 462.981771 80.737347 
L 462.981771 79.927496 
L 464.147915 79.927496 
L 464.147915 79.111904 
L 465.31406 79.111904 
L 465.31406 78.301735 
L 466.480204 78.301735 
L 466.480204 77.490898 
L 467.646348 77.490898 
L 467.646348 76.688703 
L 468.812492 76.688703 
L 468.812492 75.885116 
L 469.978636 75.885116 
L 469.978636 75.079847 
L 471.144781 75.079847 
L 471.144781 74.274433 
L 472.310925 74.274433 
L 472.310925 73.462205 
L 473.477069 73.462205 
L 473.477069 72.662735 
L 474.643213 72.662735 
L 474.643213 71.862802 
L 475.809357 71.862802 
L 475.809357 71.057214 
L 476.975502 71.057214 
L 476.975502 70.253801 
L 478.141646 70.253801 
L 478.141646 69.448474 
L 479.30779 69.448474 
L 479.30779 68.653181 
L 480.473934 68.653181 
L 480.473934 67.846665 
L 481.640078 67.846665 
L 481.640078 67.055054 
L 482.806223 67.055054 
L 482.806223 66.259934 
L 483.972367 66.259934 
L 483.972367 65.460407 
L 485.138511 65.460407 
L 485.138511 64.673349 
L 486.304655 64.673349 
L 486.304655 63.889596 
L 487.470799 63.889596 
L 487.470799 63.103089 
L 488.636944 63.103089 
L 488.636944 62.320409 
L 489.803088 62.320409 
L 489.803088 61.535468 
L 490.969232 61.535468 
L 490.969232 60.753745 
L 492.135376 60.753745 
L 492.135376 59.97498 
L 493.30152 59.97498 
L 493.30152 59.197781 
L 494.467665 59.197781 
L 494.467665 58.422525 
L 495.633809 58.422525 
L 495.633809 57.651097 
L 496.799953 57.651097 
L 496.799953 56.892369 
L 497.966097 56.892369 
L 497.966097 56.137151 
L 499.132241 56.137151 
L 499.132241 55.375059 
L 500.298386 55.375059 
L 500.298386 54.625959 
L 501.46453 54.625959 
L 501.46453 53.87538 
L 502.630674 53.87538 
L 502.630674 53.13292 
L 503.796818 53.13292 
L 503.796818 52.39771 
L 504.962962 52.39771 
L 504.962962 51.676535 
L 506.129107 51.676535 
L 506.129107 50.955708 
L 507.295251 50.955708 
L 507.295251 50.243087 
L 508.461395 50.243087 
L 508.461395 49.522549 
L 509.627539 49.522549 
L 509.627539 48.826515 
L 510.793683 48.826515 
L 510.793683 48.132279 
L 511.959828 48.132279 
L 511.959828 47.437666 
L 513.125972 47.437666 
L 513.125972 46.756971 
L 514.292116 46.756971 
L 514.292116 46.084077 
L 515.45826 46.084077 
L 515.45826 45.412227 
L 516.624404 45.412227 
L 516.624404 44.741566 
L 517.790549 44.741566 
L 517.790549 44.08639 
L 518.956693 44.08639 
L 518.956693 43.435534 
L 520.122837 43.435534 
L 520.122837 42.795611 
L 521.288981 42.795611 
L 521.288981 42.159921 
L 522.455125 42.159921 
L 522.455125 41.535975 
L 523.62127 41.535975 
L 523.62127 40.923194 
L 524.787414 40.923194 
L 524.787414 40.317662 
L 525.953558 40.317662 
L 525.953558 39.719553 
L 527.119702 39.719553 
L 527.119702 39.136988 
L 528.285846 39.136988 
L 528.285846 38.565267 
L 529.451991 38.565267 
L 529.451991 37.998099 
L 530.618135 37.998099 
L 530.618135 37.442037 
L 531.784279 37.442037 
L 531.784279 36.900271 
L 532.950423 36.900271 
L 532.950423 36.363145 
L 534.116567 36.363145 
L 534.116567 35.840141 
L 535.282712 35.840141 
L 535.282712 35.332215 
L 536.448856 35.332215 
L 536.448856 34.834062 
L 537.615 34.834062 
L 537.615 34.347711 
L 538.781144 34.347711 
L 538.781144 33.870523 
L 539.947288 33.870523 
L 539.947288 33.40679 
L 541.113433 33.40679 
L 541.113433 32.959006 
L 542.279577 32.959006 
L 542.279577 32.52517 
L 543.445721 32.52517 
L 543.445721 32.101309 
L 544.611865 32.101309 
L 544.611865 31.6916 
L 545.778009 31.6916 
L 545.778009 31.293518 
L 546.944154 31.293518 
L 546.944154 30.908833 
L 548.110298 30.908833 
L 548.110298 30.536617 
L 549.276442 30.536617 
L 549.276442 30.175015 
L 550.442586 30.175015 
L 550.442586 29.826374 
L 551.60873 29.826374 
L 551.60873 29.497452 
L 552.774875 29.497452 
L 552.774875 29.183058 
L 553.941019 29.183058 
L 553.941019 28.883482 
L 555.107163 28.883482 
L 555.107163 28.598462 
L 556.273307 28.598462 
L 556.273307 28.322954 
L 557.439451 28.322954 
L 557.439451 28.062438 
L 558.605596 28.062438 
L 558.605596 27.810302 
L 559.77174 27.810302 
L 559.77174 27.577479 
L 560.937884 27.577479 
L 560.937884 27.361068 
L 562.104028 27.361068 
L 562.104028 27.155445 
L 563.270172 27.155445 
L 563.270172 26.959043 
L 564.436317 26.959043 
L 564.436317 26.777777 
L 565.602461 26.777777 
L 565.602461 26.610286 
L 566.768605 26.610286 
L 566.768605 26.455815 
L 567.934749 26.455815 
L 567.934749 26.3159 
L 569.100893 26.3159 
L 569.100893 26.183786 
L 570.267038 26.183786 
L 570.267038 26.064374 
L 572.599326 25.958619 
L 572.599326 25.859939 
L 574.931614 25.773294 
L 574.931614 25.698247 
L 577.263903 25.633872 
L 577.263903 25.575587 
L 580.762335 25.482098 
L 580.762335 25.445068 
L 588.925345 25.336616 
L 588.925345 25.330584 
L 605.251364 25.32 
L 605.251364 25.32 
" style="fill:none;stroke:#2ca02c;stroke-linecap:square;stroke-width:2.25;"/>
   </g>
   <g id="line2d_24">
    <path clip-path="url(#p55e6cc656c)" d="M 97.978636 385.281169 
L 99.144781 385.281169 
L 99.144781 382.821315 
L 100.310925 382.821315 
L 100.310925 380.374045 
L 101.477069 380.374045 
L 101.477069 377.912248 
L 102.643213 377.912248 
L 102.643213 375.456831 
L 103.809357 375.456831 
L 103.809357 373.014027 
L 104.975502 373.014027 
L 104.975502 370.583228 
L 106.141646 370.583228 
L 106.141646 368.152923 
L 107.30779 368.152923 
L 107.30779 365.747294 
L 108.473934 365.747294 
L 108.473934 363.362921 
L 109.640078 363.362921 
L 109.640078 360.969501 
L 110.806223 360.969501 
L 110.806223 358.606586 
L 111.972367 358.606586 
L 111.972367 356.245266 
L 113.138511 356.245266 
L 113.138511 353.912973 
L 114.304655 353.912973 
L 114.304655 351.61107 
L 115.470799 351.61107 
L 115.470799 349.314792 
L 116.636944 349.314792 
L 116.636944 347.037421 
L 117.803088 347.037421 
L 117.803088 344.796123 
L 118.969232 344.796123 
L 118.969232 342.566337 
L 120.135376 342.566337 
L 120.135376 340.337914 
L 121.30152 340.337914 
L 121.30152 338.134633 
L 122.467665 338.134633 
L 122.467665 335.950025 
L 123.633809 335.950025 
L 123.633809 333.788529 
L 124.799953 333.788529 
L 124.799953 331.637995 
L 125.966097 331.637995 
L 125.966097 329.50625 
L 127.132241 329.50625 
L 127.132241 327.388715 
L 128.298386 327.388715 
L 128.298386 325.290347 
L 129.46453 325.290347 
L 129.46453 323.210973 
L 130.630674 323.210973 
L 130.630674 321.143836 
L 131.796818 321.143836 
L 131.796818 319.091749 
L 132.962962 319.091749 
L 132.962962 317.045316 
L 134.129107 317.045316 
L 134.129107 315.021299 
L 135.295251 315.021299 
L 135.295251 313.017319 
L 136.461395 313.017319 
L 136.461395 311.037755 
L 137.627539 311.037755 
L 137.627539 309.075706 
L 138.793683 309.075706 
L 138.793683 307.120442 
L 139.959828 307.120442 
L 139.959828 305.180692 
L 141.125972 305.180692 
L 141.125972 303.266316 
L 142.292116 303.266316 
L 142.292116 301.373658 
L 143.45826 301.373658 
L 143.45826 299.498052 
L 144.624404 299.498052 
L 144.624404 297.651414 
L 145.790549 297.651414 
L 145.790549 295.795091 
L 146.956693 295.795091 
L 146.956693 293.967649 
L 148.122837 293.967649 
L 148.122837 292.156418 
L 149.288981 292.156418 
L 149.288981 290.349536 
L 150.455125 290.349536 
L 150.455125 288.563735 
L 151.62127 288.563735 
L 151.62127 286.800234 
L 152.787414 286.800234 
L 152.787414 285.040242 
L 153.953558 285.040242 
L 153.953558 283.309189 
L 155.119702 283.309189 
L 155.119702 281.591997 
L 156.285846 281.591997 
L 156.285846 279.885013 
L 157.451991 279.885013 
L 157.451991 278.195688 
L 158.618135 278.195688 
L 158.618135 276.529069 
L 159.784279 276.529069 
L 159.784279 274.871264 
L 160.950423 274.871264 
L 160.950423 273.219492 
L 162.116567 273.219492 
L 162.116567 271.583349 
L 163.282712 271.583349 
L 163.282712 269.958689 
L 164.448856 269.958689 
L 164.448856 268.360069 
L 165.615 268.360069 
L 165.615 266.773571 
L 166.781144 266.773571 
L 166.781144 265.189566 
L 167.947288 265.189566 
L 167.947288 263.628556 
L 169.113433 263.628556 
L 169.113433 262.075753 
L 170.279577 262.075753 
L 170.279577 260.54032 
L 171.445721 260.54032 
L 171.445721 259.009468 
L 172.611865 259.009468 
L 172.611865 257.492477 
L 173.778009 257.492477 
L 173.778009 255.993001 
L 174.944154 255.993001 
L 174.944154 254.507589 
L 176.110298 254.507589 
L 176.110298 253.037342 
L 177.276442 253.037342 
L 177.276442 251.563355 
L 178.442586 251.563355 
L 178.442586 250.102301 
L 179.60873 250.102301 
L 179.60873 248.650613 
L 180.774875 248.650613 
L 180.774875 247.226096 
L 181.941019 247.226096 
L 181.941019 245.816368 
L 183.107163 245.816368 
L 183.107163 244.40809 
L 184.273307 244.40809 
L 184.273307 243.007641 
L 185.439451 243.007641 
L 185.439451 241.616762 
L 186.605596 241.616762 
L 186.605596 240.243252 
L 187.77174 240.243252 
L 187.77174 238.88659 
L 188.937884 238.88659 
L 188.937884 237.537931 
L 190.104028 237.537931 
L 190.104028 236.199045 
L 191.270172 236.199045 
L 191.270172 234.86561 
L 192.436317 234.86561 
L 192.436317 233.53406 
L 193.602461 233.53406 
L 193.602461 232.220692 
L 194.768605 232.220692 
L 194.768605 230.918604 
L 195.934749 230.918604 
L 195.934749 229.631884 
L 197.100893 229.631884 
L 197.100893 228.355691 
L 198.267038 228.355691 
L 198.267038 227.094403 
L 199.433182 227.094403 
L 199.433182 225.83439 
L 200.599326 225.83439 
L 200.599326 224.57983 
L 201.76547 224.57983 
L 201.76547 223.336578 
L 202.931614 223.336578 
L 202.931614 222.102403 
L 204.097759 222.102403 
L 204.097759 220.885191 
L 205.263903 220.885191 
L 205.263903 219.668211 
L 206.430047 219.668211 
L 206.430047 218.471414 
L 207.596191 218.471414 
L 207.596191 217.280822 
L 208.762335 217.280822 
L 208.762335 216.106847 
L 209.92848 216.106847 
L 209.92848 214.929449 
L 211.094624 214.929449 
L 211.094624 213.769827 
L 212.260768 213.769827 
L 212.260768 212.62018 
L 213.426912 212.62018 
L 213.426912 211.471896 
L 214.593056 211.471896 
L 214.593056 210.353393 
L 215.759201 210.353393 
L 215.759201 209.232483 
L 216.925345 209.232483 
L 216.925345 208.114821 
L 218.091489 208.114821 
L 218.091489 207.002755 
L 219.257633 207.002755 
L 219.257633 205.902318 
L 220.423777 205.902318 
L 220.423777 204.818641 
L 221.589922 204.818641 
L 221.589922 203.724699 
L 222.756066 203.724699 
L 222.756066 202.64891 
L 223.92221 202.64891 
L 223.92221 201.57515 
L 225.088354 201.57515 
L 225.088354 200.518615 
L 226.254498 200.518615 
L 226.254498 199.45776 
L 227.420643 199.45776 
L 227.420643 198.416072 
L 228.586787 198.416072 
L 228.586787 197.377893 
L 229.752931 197.377893 
L 229.752931 196.349776 
L 230.919075 196.349776 
L 230.919075 195.327864 
L 232.085219 195.327864 
L 232.085219 194.314739 
L 233.251364 194.314739 
L 233.251364 193.316751 
L 234.417508 193.316751 
L 234.417508 192.312383 
L 235.583652 192.312383 
L 235.583652 191.322311 
L 236.749796 191.322311 
L 236.749796 190.338097 
L 237.91594 190.338097 
L 237.91594 189.360088 
L 239.082085 189.360088 
L 239.082085 188.389184 
L 240.248229 188.389184 
L 240.248229 187.420222 
L 241.414373 187.420222 
L 241.414373 186.466398 
L 242.580517 186.466398 
L 242.580517 185.519214 
L 243.746661 185.519214 
L 243.746661 184.578409 
L 244.912806 184.578409 
L 244.912806 183.635662 
L 246.07895 183.635662 
L 246.07895 182.700367 
L 247.245094 182.700367 
L 247.245094 181.771683 
L 248.411238 181.771683 
L 248.411238 180.855324 
L 249.577382 180.855324 
L 249.577382 179.947025 
L 250.743527 179.947025 
L 250.743527 179.040177 
L 251.909671 179.040177 
L 251.909671 178.138433 
L 253.075815 178.138433 
L 253.075815 177.243822 
L 254.241959 177.243822 
L 254.241959 176.355996 
L 255.408103 176.355996 
L 255.408103 175.471911 
L 256.574248 175.471911 
L 256.574248 174.591219 
L 257.740392 174.591219 
L 257.740392 173.724388 
L 258.906536 173.724388 
L 258.906536 172.858136 
L 260.07268 172.858136 
L 260.07268 172.00128 
L 261.238824 172.00128 
L 261.238824 171.143873 
L 262.404969 171.143873 
L 262.404969 170.29012 
L 263.571113 170.29012 
L 263.571113 169.447502 
L 264.737257 169.447502 
L 264.737257 168.611496 
L 265.903401 168.611496 
L 265.903401 167.776736 
L 267.069545 167.776736 
L 267.069545 166.955083 
L 268.23569 166.955083 
L 268.23569 166.122498 
L 269.401834 166.122498 
L 269.401834 165.314533 
L 270.567978 165.314533 
L 270.567978 164.493344 
L 271.734122 164.493344 
L 271.734122 163.689699 
L 272.900266 163.689699 
L 272.900266 162.886344 
L 274.066411 162.886344 
L 274.066411 162.078842 
L 275.232555 162.078842 
L 275.232555 161.275545 
L 276.398699 161.275545 
L 276.398699 160.480165 
L 277.564843 160.480165 
L 277.564843 159.696412 
L 278.730987 159.696412 
L 278.730987 158.90338 
L 279.897132 158.90338 
L 279.897132 158.125543 
L 281.063276 158.125543 
L 281.063276 157.346314 
L 282.22942 157.346314 
L 282.22942 156.572769 
L 283.395564 156.572769 
L 283.395564 155.808184 
L 284.561708 155.808184 
L 284.561708 155.046963 
L 285.727853 155.046963 
L 285.727853 154.28551 
L 286.893997 154.28551 
L 286.893997 153.529102 
L 288.060141 153.529102 
L 288.060141 152.783076 
L 289.226285 152.783076 
L 289.226285 152.029365 
L 290.392429 152.029365 
L 290.392429 151.282005 
L 291.558574 151.282005 
L 291.558574 150.535166 
L 292.724718 150.535166 
L 292.724718 149.795316 
L 293.890862 149.795316 
L 293.890862 149.061817 
L 295.057006 149.061817 
L 295.057006 148.3242 
L 296.22315 148.3242 
L 296.22315 147.584988 
L 297.389295 147.584988 
L 297.389295 146.843543 
L 298.555439 146.843543 
L 298.555439 146.118134 
L 299.721583 146.118134 
L 299.721583 145.395509 
L 300.887727 145.395509 
L 300.887727 144.673783 
L 302.053871 144.673783 
L 302.053871 143.95861 
L 303.220016 143.95861 
L 303.220016 143.245293 
L 304.38616 143.245293 
L 304.38616 142.525191 
L 305.552304 142.525191 
L 305.552304 141.809438 
L 306.718448 141.809438 
L 306.718448 141.10311 
L 307.884592 141.10311 
L 307.884592 140.398058 
L 309.050737 140.398058 
L 309.050737 139.692947 
L 310.216881 139.692947 
L 310.216881 138.993433 
L 311.383025 138.993433 
L 311.383025 138.284437 
L 312.549169 138.284437 
L 312.549169 137.578109 
L 313.715313 137.578109 
L 313.715313 136.88741 
L 314.881458 136.88741 
L 314.881458 136.187142 
L 316.047602 136.187142 
L 316.047602 135.486526 
L 317.213746 135.486526 
L 317.213746 134.7862 
L 318.37989 134.7862 
L 318.37989 134.0886 
L 319.546034 134.0886 
L 319.546034 133.393291 
L 320.712179 133.393291 
L 320.712179 132.700534 
L 321.878323 132.700534 
L 321.878323 132.005427 
L 323.044467 132.005427 
L 323.044467 131.318557 
L 324.210611 131.318557 
L 324.210611 130.638819 
L 325.376755 130.638819 
L 325.376755 129.956182 
L 326.5429 129.956182 
L 326.5429 129.262874 
L 327.709044 129.262874 
L 327.709044 128.577598 
L 328.875188 128.577598 
L 328.875188 127.890002 
L 330.041332 127.890002 
L 330.041332 127.205857 
L 331.207476 127.205857 
L 331.207476 126.523132 
L 332.373621 126.523132 
L 332.373621 125.833768 
L 333.539765 125.833768 
L 333.539765 125.153943 
L 334.705909 125.153943 
L 334.705909 124.475598 
L 335.872053 124.475598 
L 335.872053 123.792816 
L 337.038197 123.792816 
L 337.038197 123.113368 
L 338.204342 123.113368 
L 338.204342 122.43337 
L 339.370486 122.43337 
L 339.370486 121.754908 
L 340.53663 121.754908 
L 340.53663 121.071517 
L 341.702774 121.071517 
L 341.702774 120.393578 
L 342.868918 120.393578 
L 342.868918 119.714449 
L 344.035063 119.714449 
L 344.035063 119.037176 
L 345.201207 119.037176 
L 345.201207 118.362253 
L 346.367351 118.362253 
L 346.367351 117.67976 
L 347.533495 117.67976 
L 347.533495 117.002314 
L 348.699639 117.002314 
L 348.699639 116.326259 
L 349.865784 116.326259 
L 349.865784 115.645884 
L 351.031928 115.645884 
L 351.031928 114.965653 
L 352.198072 114.965653 
L 352.198072 114.291774 
L 353.364216 114.291774 
L 353.364216 113.616618 
L 354.530361 113.616618 
L 354.530361 112.940186 
L 355.696505 112.940186 
L 355.696505 112.264044 
L 356.862649 112.264044 
L 356.862649 111.58712 
L 358.028793 111.58712 
L 358.028793 110.913008 
L 359.194937 110.913008 
L 359.194937 110.23243 
L 360.361082 110.23243 
L 360.361082 109.559768 
L 361.527226 109.559768 
L 361.527226 108.883655 
L 362.69337 108.883655 
L 362.69337 108.213748 
L 363.859514 108.213748 
L 363.859514 107.542565 
L 365.025658 107.542565 
L 365.025658 106.872861 
L 366.191803 106.872861 
L 366.191803 106.200895 
L 367.357947 106.200895 
L 367.357947 105.522491 
L 368.524091 105.522491 
L 368.524091 104.847712 
L 369.690235 104.847712 
L 369.690235 104.169976 
L 370.856379 104.169976 
L 370.856379 103.492645 
L 372.022524 103.492645 
L 372.022524 102.826682 
L 373.188668 102.826682 
L 373.188668 102.154861 
L 374.354812 102.154861 
L 374.354812 101.485591 
L 375.520956 101.485591 
L 375.520956 100.812378 
L 376.6871 100.812378 
L 376.6871 100.140702 
L 377.853245 100.140702 
L 377.853245 99.470128 
L 379.019389 99.470128 
L 379.019389 98.788245 
L 380.185533 98.788245 
L 380.185533 98.116656 
L 381.351677 98.116656 
L 381.351677 97.452722 
L 382.517821 97.452722 
L 382.517821 96.783134 
L 383.683966 96.783134 
L 383.683966 96.111748 
L 384.85011 96.111748 
L 384.85011 95.428995 
L 386.016254 95.428995 
L 386.016254 94.754187 
L 387.182398 94.754187 
L 387.182398 94.084512 
L 388.348542 94.084512 
L 388.348542 93.410226 
L 389.514687 93.410226 
L 389.514687 92.734142 
L 390.680831 92.734142 
L 390.680831 92.066439 
L 391.846975 92.066439 
L 391.846975 91.398214 
L 393.013119 91.398214 
L 393.013119 90.724073 
L 394.179263 90.724073 
L 394.179263 90.056631 
L 395.345408 90.056631 
L 395.345408 89.386317 
L 396.511552 89.386317 
L 396.511552 88.722587 
L 397.677696 88.722587 
L 397.677696 88.05268 
L 398.84384 88.05268 
L 398.84384 87.383207 
L 400.009984 87.383207 
L 400.009984 86.723711 
L 401.176129 86.723711 
L 401.176129 86.055601 
L 402.342273 86.055601 
L 402.342273 85.392103 
L 403.508417 85.392103 
L 403.508417 84.733534 
L 404.674561 84.733534 
L 404.674561 84.060843 
L 405.840705 84.060843 
L 405.840705 83.402853 
L 407.00685 83.402853 
L 407.00685 82.738282 
L 408.172994 82.738282 
L 408.172994 82.085483 
L 409.339138 82.085483 
L 409.339138 81.429843 
L 410.505282 81.429843 
L 410.505282 80.776755 
L 411.671426 80.776755 
L 411.671426 80.121463 
L 412.837571 80.121463 
L 412.837571 79.466315 
L 414.003715 79.466315 
L 414.003715 78.814532 
L 415.169859 78.814532 
L 415.169859 78.157152 
L 416.336003 78.157152 
L 416.336003 77.502729 
L 417.502147 77.502729 
L 417.502147 76.856281 
L 418.668292 76.856281 
L 418.668292 76.207514 
L 419.834436 76.207514 
L 419.834436 75.556658 
L 421.00058 75.556658 
L 421.00058 74.902323 
L 422.166724 74.902323 
L 422.166724 74.257035 
L 423.332868 74.257035 
L 423.332868 73.614443 
L 424.499013 73.614443 
L 424.499013 72.97336 
L 425.665157 72.97336 
L 425.665157 72.338192 
L 426.831301 72.338192 
L 426.831301 71.710564 
L 427.997445 71.710564 
L 427.997445 71.085632 
L 429.163589 71.085632 
L 429.163589 70.446927 
L 430.329734 70.446927 
L 430.329734 69.817007 
L 431.495878 69.817007 
L 431.495878 69.186537 
L 432.662022 69.186537 
L 432.662022 68.551862 
L 433.828166 68.551862 
L 433.828166 67.921827 
L 434.99431 67.921827 
L 434.99431 67.300085 
L 436.160455 67.300085 
L 436.160455 66.677213 
L 437.326599 66.677213 
L 437.326599 66.057472 
L 438.492743 66.057472 
L 438.492743 65.435469 
L 439.658887 65.435469 
L 439.658887 64.820774 
L 440.825031 64.820774 
L 440.825031 64.199293 
L 441.991176 64.199293 
L 441.991176 63.585554 
L 443.15732 63.585554 
L 443.15732 62.977122 
L 444.323464 62.977122 
L 444.323464 62.360194 
L 445.489608 62.360194 
L 445.489608 61.754546 
L 446.655752 61.754546 
L 446.655752 61.151421 
L 447.821897 61.151421 
L 447.821897 60.556096 
L 448.988041 60.556096 
L 448.988041 59.966107 
L 450.154185 59.966107 
L 450.154185 59.376002 
L 451.320329 59.376002 
L 451.320329 58.785665 
L 452.486473 58.785665 
L 452.486473 58.194631 
L 453.652618 58.194631 
L 453.652618 57.607107 
L 454.818762 57.607107 
L 454.818762 57.019003 
L 455.984906 57.019003 
L 455.984906 56.439076 
L 457.15105 56.439076 
L 457.15105 55.85158 
L 458.317194 55.85158 
L 458.317194 55.275916 
L 459.483339 55.275916 
L 459.483339 54.698454 
L 460.649483 54.698454 
L 460.649483 54.132504 
L 461.815627 54.132504 
L 461.815627 53.566467 
L 462.981771 53.566467 
L 462.981771 53.007534 
L 464.147915 53.007534 
L 464.147915 52.448775 
L 465.31406 52.448775 
L 465.31406 51.895207 
L 466.480204 51.895207 
L 466.480204 51.341958 
L 467.646348 51.341958 
L 467.646348 50.798511 
L 468.812492 50.798511 
L 468.812492 50.258485 
L 469.978636 50.258485 
L 469.978636 49.72043 
L 471.144781 49.72043 
L 471.144781 49.19038 
L 472.310925 49.19038 
L 472.310925 48.65653 
L 473.477069 48.65653 
L 473.477069 48.134367 
L 474.643213 48.134367 
L 474.643213 47.610174 
L 475.809357 47.610174 
L 475.809357 47.097434 
L 476.975502 47.097434 
L 476.975502 46.583564 
L 478.141646 46.583564 
L 478.141646 46.083642 
L 479.30779 46.083642 
L 479.30779 45.586591 
L 480.473934 45.586591 
L 480.473934 45.085219 
L 481.640078 45.085219 
L 481.640078 44.593793 
L 482.806223 44.593793 
L 482.806223 44.106717 
L 483.972367 44.106717 
L 483.972367 43.627268 
L 485.138511 43.627268 
L 485.138511 43.144947 
L 486.304655 43.144947 
L 486.304655 42.673617 
L 487.470799 42.673617 
L 487.470799 42.215249 
L 488.636944 42.215249 
L 488.636944 41.762187 
L 489.803088 41.762187 
L 489.803088 41.307966 
L 490.969232 41.307966 
L 490.969232 40.862415 
L 492.135376 40.862415 
L 492.135376 40.415472 
L 493.30152 40.415472 
L 493.30152 39.974009 
L 494.467665 39.974009 
L 494.467665 39.543189 
L 495.633809 39.543189 
L 495.633809 39.110455 
L 496.799953 39.110455 
L 496.799953 38.690305 
L 497.966097 38.690305 
L 497.966097 38.271142 
L 499.132241 38.271142 
L 499.132241 37.865985 
L 500.298386 37.865985 
L 500.298386 37.461263 
L 501.46453 37.461263 
L 501.46453 37.065124 
L 502.630674 37.065124 
L 502.630674 36.675422 
L 503.796818 36.675422 
L 503.796818 36.29268 
L 504.962962 36.29268 
L 504.962962 35.913302 
L 506.129107 35.913302 
L 506.129107 35.536447 
L 507.295251 35.536447 
L 507.295251 35.168697 
L 508.461395 35.168697 
L 508.461395 34.805731 
L 509.627539 34.805731 
L 509.627539 34.446129 
L 510.793683 34.446129 
L 510.793683 34.099577 
L 511.959828 34.099577 
L 511.959828 33.75952 
L 513.125972 33.75952 
L 513.125972 33.423435 
L 514.292116 33.423435 
L 514.292116 33.096746 
L 515.45826 33.096746 
L 515.45826 32.774812 
L 516.624404 32.774812 
L 516.624404 32.460969 
L 517.790549 32.460969 
L 517.790549 32.156057 
L 518.956693 32.156057 
L 518.956693 31.856597 
L 520.122837 31.856597 
L 520.122837 31.562501 
L 521.288981 31.562501 
L 521.288981 31.280846 
L 522.455125 31.280846 
L 522.455125 31.000147 
L 523.62127 31.000147 
L 523.62127 30.731279 
L 524.787414 30.731279 
L 524.787414 30.468878 
L 525.953558 30.468878 
L 525.953558 30.214655 
L 527.119702 30.214655 
L 527.119702 29.97174 
L 528.285846 29.97174 
L 528.285846 29.72955 
L 529.451991 29.72955 
L 529.451991 29.496205 
L 530.618135 29.496205 
L 530.618135 29.267789 
L 531.784279 29.267789 
L 531.784279 29.043027 
L 532.950423 29.043027 
L 532.950423 28.82827 
L 534.116567 28.82827 
L 534.116567 28.622182 
L 535.282712 28.622182 
L 535.282712 28.423721 
L 536.448856 28.423721 
L 536.448856 28.232017 
L 537.615 28.232017 
L 537.615 28.046489 
L 538.781144 28.046489 
L 538.781144 27.867631 
L 539.947288 27.867631 
L 539.947288 27.695442 
L 541.113433 27.695442 
L 541.113433 27.532068 
L 542.279577 27.532068 
L 542.279577 27.376669 
L 543.445721 27.376669 
L 543.445721 27.227127 
L 544.611865 27.227127 
L 544.611865 27.085444 
L 545.778009 27.085444 
L 545.778009 26.947849 
L 546.944154 26.947849 
L 546.944154 26.818316 
L 548.110298 26.818316 
L 548.110298 26.697888 
L 549.276442 26.697888 
L 549.276442 26.580621 
L 551.60873 26.47388 
L 551.60873 26.369314 
L 553.941019 26.271795 
L 553.941019 26.182917 
L 556.273307 26.098562 
L 556.273307 26.015744 
L 558.605596 25.941278 
L 558.605596 25.875511 
L 560.937884 25.812412 
L 560.937884 25.75488 
L 564.436317 25.653475 
L 564.436317 25.608499 
L 569.100893 25.503933 
L 569.100893 25.475254 
L 577.263903 25.368687 
L 577.263903 25.359553 
L 605.251364 25.32 
L 605.251364 25.32 
" style="fill:none;stroke:#ff7f0e;stroke-linecap:square;stroke-width:2.25;"/>
   </g>
   <g id="line2d_25">
    <path clip-path="url(#p55e6cc656c)" d="M 97.978636 386.82478 
L 99.144781 386.82478 
L 99.144781 382.50895 
L 100.310925 382.50895 
L 100.310925 375.134665 
L 101.477069 375.134665 
L 101.477069 366.591159 
L 102.643213 366.591159 
L 102.643213 357.783803 
L 103.809357 357.783803 
L 103.809357 349.039226 
L 104.975502 349.039226 
L 104.975502 340.002555 
L 106.141646 340.002555 
L 106.141646 331.352888 
L 107.30779 331.352888 
L 107.30779 322.94689 
L 108.473934 322.94689 
L 108.473934 314.76693 
L 109.640078 314.76693 
L 109.640078 307.45702 
L 110.806223 307.45702 
L 110.806223 300.046835 
L 111.972367 300.046835 
L 111.972367 293.495159 
L 113.138511 293.495159 
L 113.138511 286.684475 
L 114.304655 286.684475 
L 114.304655 280.812362 
L 115.470799 280.812362 
L 115.470799 275.371998 
L 116.636944 275.371998 
L 116.636944 269.464567 
L 117.803088 269.464567 
L 117.803088 264.483209 
L 118.969232 264.483209 
L 118.969232 259.740966 
L 120.135376 259.740966 
L 120.135376 255.200926 
L 121.30152 255.200926 
L 121.30152 250.909397 
L 122.467665 250.909397 
L 122.467665 246.773498 
L 123.633809 246.773498 
L 123.633809 242.77215 
L 124.799953 242.77215 
L 124.799953 239.838559 
L 125.966097 239.838559 
L 125.966097 236.115908 
L 127.132241 236.115908 
L 127.132241 232.5399 
L 128.298386 232.5399 
L 128.298386 229.09267 
L 129.46453 229.09267 
L 129.46453 226.59738 
L 130.630674 226.59738 
L 130.630674 223.353948 
L 131.796818 223.353948 
L 131.796818 220.116604 
L 132.962962 220.116604 
L 132.962962 218.049148 
L 134.129107 218.049148 
L 134.129107 214.968915 
L 135.295251 214.968915 
L 135.295251 211.965497 
L 136.461395 211.965497 
L 136.461395 209.866085 
L 137.627539 209.866085 
L 137.627539 206.91988 
L 138.793683 206.91988 
L 138.793683 205.218695 
L 139.959828 205.218695 
L 139.959828 202.360585 
L 141.125972 202.360585 
L 141.125972 200.428519 
L 142.292116 200.428519 
L 142.292116 197.622953 
L 143.45826 197.622953 
L 143.45826 196.092159 
L 144.624404 196.092159 
L 144.624404 194.223367 
L 145.790549 194.223367 
L 145.790549 191.498299 
L 146.956693 191.498299 
L 146.956693 190.105303 
L 148.122837 190.105303 
L 148.122837 188.258694 
L 149.288981 188.258694 
L 149.288981 185.57805 
L 150.455125 185.57805 
L 150.455125 184.296956 
L 151.62127 184.296956 
L 151.62127 182.463338 
L 152.787414 182.463338 
L 152.787414 179.844141 
L 153.953558 179.844141 
L 153.953558 178.666019 
L 155.119702 178.666019 
L 155.119702 176.8819 
L 156.285846 176.8819 
L 156.285846 174.302604 
L 157.451991 174.302604 
L 157.451991 173.18729 
L 158.618135 173.18729 
L 158.618135 171.38644 
L 159.784279 171.38644 
L 159.784279 170.31732 
L 160.950423 170.31732 
L 160.950423 167.773691 
L 162.116567 167.773691 
L 162.116567 165.998678 
L 163.282712 165.998678 
L 163.282712 164.982885 
L 164.448856 164.982885 
L 164.448856 163.211815 
L 165.615 163.211815 
L 165.615 162.250538 
L 166.781144 162.250538 
L 166.781144 160.458706 
L 167.947288 160.458706 
L 167.947288 157.965562 
L 169.113433 157.965562 
L 169.113433 157.057003 
L 170.279577 157.057003 
L 170.279577 155.284716 
L 171.445721 155.284716 
L 171.445721 154.399181 
L 172.611865 154.399181 
L 172.611865 152.616048 
L 173.778009 152.616048 
L 173.778009 151.761889 
L 174.944154 151.761889 
L 174.944154 149.976002 
L 176.110298 149.976002 
L 176.110298 149.154668 
L 177.276442 149.154668 
L 177.276442 147.38441 
L 178.442586 147.38441 
L 178.442586 144.959904 
L 179.60873 144.959904 
L 179.60873 144.167481 
L 180.774875 144.167481 
L 180.774875 142.406561 
L 181.941019 142.406561 
L 181.941019 141.655257 
L 183.107163 141.655257 
L 183.107163 139.886246 
L 184.273307 139.886246 
L 184.273307 139.149093 
L 185.439451 139.149093 
L 185.439451 137.395422 
L 186.605596 137.395422 
L 186.605596 136.685237 
L 187.77174 136.685237 
L 187.77174 134.924433 
L 188.937884 134.924433 
L 188.937884 134.247827 
L 190.104028 134.247827 
L 190.104028 132.47757 
L 191.270172 132.47757 
L 191.270172 131.814216 
L 192.436317 131.814216 
L 192.436317 130.040971 
L 193.602461 130.040971 
L 193.602461 129.395944 
L 194.768605 129.395944 
L 194.768605 127.641027 
L 195.934749 127.641027 
L 195.934749 127.025374 
L 197.100893 127.025374 
L 197.100893 125.275444 
L 198.267038 125.275444 
L 198.267038 124.671072 
L 199.433182 124.671072 
L 199.433182 122.925317 
L 200.599326 122.925317 
L 200.599326 122.339736 
L 201.76547 122.339736 
L 201.76547 120.586355 
L 202.931614 120.586355 
L 202.931614 120.00985 
L 204.097759 120.00985 
L 204.097759 118.268329 
L 205.263903 118.268329 
L 205.263903 117.71102 
L 207.596191 117.667523 
L 207.596191 115.907009 
L 208.762335 115.907009 
L 208.762335 115.368085 
L 209.92848 115.368085 
L 209.92848 113.614501 
L 211.094624 113.614501 
L 211.094624 113.099964 
L 212.260768 113.099964 
L 212.260768 111.347685 
L 213.426912 111.347685 
L 213.426912 110.846487 
L 214.593056 110.846487 
L 214.593056 109.103081 
L 215.759201 109.103081 
L 215.759201 108.613917 
L 216.925345 108.613917 
L 216.925345 106.872687 
L 219.257633 106.843515 
L 219.257633 106.369981 
L 220.423777 106.369981 
L 220.423777 104.634984 
L 221.589922 104.634984 
L 221.589922 104.180937 
L 222.756066 104.180937 
L 222.756066 102.454959 
L 223.92221 102.454959 
L 223.92221 102.016077 
L 225.088354 102.016077 
L 225.088354 100.276644 
L 226.254498 100.276644 
L 226.254498 99.846375 
L 228.586787 99.828686 
L 228.586787 98.086469 
L 229.752931 98.086469 
L 229.752931 97.669365 
L 230.919075 97.669365 
L 230.919075 95.940197 
L 232.085219 95.940197 
L 232.085219 95.52953 
L 233.251364 95.52953 
L 233.251364 93.806771 
L 235.583652 93.790967 
L 235.583652 93.4075 
L 236.749796 93.4075 
L 236.749796 91.675752 
L 237.91594 91.675752 
L 237.91594 91.292053 
L 239.082085 91.292053 
L 239.082085 89.575006 
L 240.248229 89.575006 
L 240.248229 89.207227 
L 242.580517 89.198586 
L 242.580517 87.494008 
L 243.746661 87.494008 
L 243.746661 87.13371 
L 244.912806 87.13371 
L 244.912806 85.437803 
L 246.07895 85.437803 
L 246.07895 85.084726 
L 248.411238 85.077824 
L 248.411238 83.380728 
L 249.577382 83.380728 
L 249.577382 83.041976 
L 250.743527 83.041976 
L 250.743527 81.368339 
L 251.909671 81.368339 
L 251.909671 81.035444 
L 254.241959 81.030428 
L 254.241959 79.363518 
L 255.408103 79.363518 
L 255.408103 79.049037 
L 256.574248 79.049037 
L 256.574248 77.383548 
L 258.906536 77.378677 
L 258.906536 77.067124 
L 260.07268 77.067124 
L 260.07268 75.423616 
L 261.238824 75.423616 
L 261.238824 75.121401 
L 263.571113 75.118008 
L 263.571113 73.480879 
L 264.737257 73.480879 
L 264.737257 73.193685 
L 265.903401 73.193685 
L 265.903401 71.571896 
L 268.23569 71.569112 
L 268.23569 71.290966 
L 269.401834 71.290966 
L 269.401834 69.677064 
L 270.567978 69.677064 
L 270.567978 69.402455 
L 272.900266 69.400135 
L 272.900266 67.80108 
L 274.066411 67.80108 
L 274.066411 67.534997 
L 275.232555 67.534997 
L 275.232555 65.969666 
L 277.564843 65.96668 
L 277.564843 65.71408 
L 278.730987 65.71408 
L 278.730987 64.165887 
L 281.063276 64.163799 
L 281.063276 63.910301 
L 282.22942 63.910301 
L 282.22942 62.377767 
L 283.395564 62.377767 
L 283.395564 62.13491 
L 285.727853 62.132968 
L 285.727853 60.630939 
L 286.893997 60.630939 
L 286.893997 60.399189 
L 289.226285 60.397188 
L 289.226285 58.915285 
L 290.392429 58.915285 
L 290.392429 58.689566 
L 291.558574 58.689566 
L 291.558574 57.227903 
L 293.890862 57.226395 
L 293.890862 57.004069 
L 295.057006 57.004069 
L 295.057006 55.574245 
L 297.389295 55.572505 
L 297.389295 55.359314 
L 298.555439 55.359314 
L 298.555439 53.949238 
L 300.887727 53.94773 
L 300.887727 53.74257 
L 302.053871 53.74257 
L 302.053871 52.362768 
L 304.38616 52.361115 
L 304.38616 52.159464 
L 305.552304 52.159464 
L 305.552304 50.820839 
L 307.884592 50.819621 
L 307.884592 50.629424 
L 309.050737 50.629424 
L 309.050737 49.318289 
L 311.383025 49.317042 
L 311.383025 49.131108 
L 312.549169 49.131108 
L 312.549169 47.869472 
L 314.881458 47.86837 
L 314.881458 47.695833 
L 316.047602 47.695833 
L 316.047602 46.457076 
L 318.37989 46.45609 
L 318.37989 46.289353 
L 319.546034 46.289353 
L 319.546034 45.101574 
L 321.878323 45.10053 
L 321.878323 44.940723 
L 323.044467 44.940723 
L 323.044467 43.769038 
L 325.376755 43.768168 
L 325.376755 43.614683 
L 326.5429 43.614683 
L 326.5429 42.493947 
L 328.875188 42.493135 
L 328.875188 42.351249 
L 330.041332 42.351249 
L 330.041332 41.276938 
L 332.373621 41.276126 
L 332.373621 41.137633 
L 334.705909 41.136879 
L 334.705909 40.104528 
L 335.872053 40.104528 
L 335.872053 39.972385 
L 338.204342 39.971689 
L 338.204342 38.977761 
L 339.370486 38.977761 
L 339.370486 38.850866 
L 341.702774 38.850141 
L 341.702774 37.894519 
L 344.035063 37.893678 
L 344.035063 37.776382 
L 345.201207 37.776382 
L 345.201207 36.862168 
L 347.533495 36.861646 
L 347.533495 36.749744 
L 348.699639 36.749744 
L 348.699639 35.883434 
L 353.364216 35.775041 
L 353.364216 34.951242 
L 356.862649 34.849054 
L 356.862649 34.074088 
L 360.361082 33.982078 
L 360.361082 33.251217 
L 365.025658 33.161237 
L 365.025658 32.478513 
L 368.524091 32.396942 
L 368.524091 31.766211 
L 373.188668 31.686815 
L 373.188668 31.089402 
L 376.6871 31.020387 
L 376.6871 30.465457 
L 380.185533 30.400762 
L 380.185533 29.891126 
L 384.85011 29.832406 
L 384.85011 29.356987 
L 388.348542 29.303921 
L 388.348542 28.867243 
L 393.013119 28.819657 
L 393.013119 28.426186 
L 396.511552 28.383589 
L 396.511552 28.02506 
L 401.176129 27.985594 
L 401.176129 27.65818 
L 405.840705 27.623411 
L 405.840705 27.333375 
L 409.339138 27.303565 
L 409.339138 27.039541 
L 414.003715 27.011732 
L 414.003715 26.777139 
L 418.668292 26.753361 
L 418.668292 26.544809 
L 422.166724 26.524917 
L 422.166724 26.343274 
L 426.831301 26.327761 
L 426.831301 26.169607 
L 431.495878 26.155601 
L 431.495878 26.016121 
L 434.99431 26.005595 
L 434.99431 25.889662 
L 441.991176 25.779325 
L 441.991176 25.771409 
L 448.988041 25.678326 
L 448.988041 25.609833 
L 458.317194 25.543341 
L 458.317194 25.496887 
L 475.809357 25.399338 
L 475.809357 25.380779 
L 605.251364 25.32 
L 605.251364 25.32 
" style="fill:none;stroke:#1f77b4;stroke-linecap:square;stroke-width:2.25;"/>
   </g>
   <g id="patch_3">
    <path d="M 72.615 387.72 
L 72.615 7.2 
" style="fill:none;stroke:#000000;stroke-linecap:square;stroke-linejoin:miter;stroke-width:1.875;"/>
   </g>
   <g id="patch_4">
    <path d="M 72.615 387.72 
L 630.615 387.72 
" style="fill:none;stroke:#000000;stroke-linecap:square;stroke-linejoin:miter;stroke-width:1.875;"/>
   </g>
  </g>
 </g>
 <defs>
  <clipPath id="p55e6cc656c">
   <rect height="380.52" width="558" x="72.615" y="7.2"/>
  </clipPath>
 </defs>
</svg>
