<?xml version="1.0" encoding="utf-8" standalone="no"?>
<!DOCTYPE svg PUBLIC "-//W3C//DTD SVG 1.1//EN"
  "http://www.w3.org/Graphics/SVG/1.1/DTD/svg11.dtd">
<svg height="424.985797pt" version="1.1" viewBox="0 0 642.7065 424.985797" width="642.7065pt" xmlns="http://www.w3.org/2000/svg" xmlns:xlink="http://www.w3.org/1999/xlink">
 <metadata>
  <rdf:RDF xmlns:cc="http://creativecommons.org/ns#" xmlns:dc="http://purl.org/dc/elements/1.1/" xmlns:rdf="http://www.w3.org/1999/02/22-rdf-syntax-ns#">
   <cc:Work>
    <dc:type rdf:resource="http://purl.org/dc/dcmitype/StillImage"/>
    <dc:date>2021-12-17T21:01:14.424679</dc:date>
    <dc:format>image/svg+xml</dc:format>
    <dc:creator>
     <cc:Agent>
      <dc:title>Matplotlib v3.4.3, https://matplotlib.org/</dc:title>
     </cc:Agent>
    </dc:creator>
   </cc:Work>
  </rdf:RDF>
 </metadata>
 <defs>
  <style type="text/css">*{stroke-linecap:butt;stroke-linejoin:round;}</style>
 </defs>
 <g id="figure_1">
  <g id="patch_1">
   <path d="M 0 424.985797 
L 642.7065 424.985797 
L 642.7065 0 
L 0 0 
z
" style="fill:#ffffff;"/>
  </g>
  <g id="axes_1">
   <g id="patch_2">
    <path d="M 77.5065 387.72 
L 635.5065 387.72 
L 635.5065 7.2 
L 77.5065 7.2 
z
" style="fill:#ffffff;"/>
   </g>
   <g id="matplotlib.axis_1">
    <g id="xtick_1">
     <g id="line2d_1">
      <defs>
       <path d="M 0 0 
L 0 9 
" id="m9a10cc31c1" style="stroke:#000000;stroke-width:1.875;"/>
      </defs>
      <g>
       <use style="stroke:#000000;stroke-width:1.875;" x="103.380318" xlink:href="#m9a10cc31c1" y="387.72"/>
      </g>
     </g>
     <g id="text_1">
      <!-- 0.0 -->
      <g transform="translate(88.948233 414.011164)scale(0.1815 -0.1815)">
       <defs>
        <path d="M 2034 4250 
Q 1547 4250 1301 3770 
Q 1056 3291 1056 2328 
Q 1056 1369 1301 889 
Q 1547 409 2034 409 
Q 2525 409 2770 889 
Q 3016 1369 3016 2328 
Q 3016 3291 2770 3770 
Q 2525 4250 2034 4250 
z
M 2034 4750 
Q 2819 4750 3233 4129 
Q 3647 3509 3647 2328 
Q 3647 1150 3233 529 
Q 2819 -91 2034 -91 
Q 1250 -91 836 529 
Q 422 1150 422 2328 
Q 422 3509 836 4129 
Q 1250 4750 2034 4750 
z
" id="DejaVuSans-30" transform="scale(0.015625)"/>
        <path d="M 684 794 
L 1344 794 
L 1344 0 
L 684 0 
L 684 794 
z
" id="DejaVuSans-2e" transform="scale(0.015625)"/>
       </defs>
       <use xlink:href="#DejaVuSans-30"/>
       <use x="63.623047" xlink:href="#DejaVuSans-2e"/>
       <use x="95.410156" xlink:href="#DejaVuSans-30"/>
      </g>
     </g>
    </g>
    <g id="xtick_2">
     <g id="line2d_2">
      <g>
       <use style="stroke:#000000;stroke-width:1.875;" x="154.317476" xlink:href="#m9a10cc31c1" y="387.72"/>
      </g>
     </g>
     <g id="text_2">
      <!-- 0.1 -->
      <g transform="translate(139.88539 414.011164)scale(0.1815 -0.1815)">
       <defs>
        <path d="M 794 531 
L 1825 531 
L 1825 4091 
L 703 3866 
L 703 4441 
L 1819 4666 
L 2450 4666 
L 2450 531 
L 3481 531 
L 3481 0 
L 794 0 
L 794 531 
z
" id="DejaVuSans-31" transform="scale(0.015625)"/>
       </defs>
       <use xlink:href="#DejaVuSans-30"/>
       <use x="63.623047" xlink:href="#DejaVuSans-2e"/>
       <use x="95.410156" xlink:href="#DejaVuSans-31"/>
      </g>
     </g>
    </g>
    <g id="xtick_3">
     <g id="line2d_3">
      <g>
       <use style="stroke:#000000;stroke-width:1.875;" x="205.254633" xlink:href="#m9a10cc31c1" y="387.72"/>
      </g>
     </g>
     <g id="text_3">
      <!-- 0.2 -->
      <g transform="translate(190.822547 414.011164)scale(0.1815 -0.1815)">
       <defs>
        <path d="M 1228 531 
L 3431 531 
L 3431 0 
L 469 0 
L 469 531 
Q 828 903 1448 1529 
Q 2069 2156 2228 2338 
Q 2531 2678 2651 2914 
Q 2772 3150 2772 3378 
Q 2772 3750 2511 3984 
Q 2250 4219 1831 4219 
Q 1534 4219 1204 4116 
Q 875 4013 500 3803 
L 500 4441 
Q 881 4594 1212 4672 
Q 1544 4750 1819 4750 
Q 2544 4750 2975 4387 
Q 3406 4025 3406 3419 
Q 3406 3131 3298 2873 
Q 3191 2616 2906 2266 
Q 2828 2175 2409 1742 
Q 1991 1309 1228 531 
z
" id="DejaVuSans-32" transform="scale(0.015625)"/>
       </defs>
       <use xlink:href="#DejaVuSans-30"/>
       <use x="63.623047" xlink:href="#DejaVuSans-2e"/>
       <use x="95.410156" xlink:href="#DejaVuSans-32"/>
      </g>
     </g>
    </g>
    <g id="xtick_4">
     <g id="line2d_4">
      <g>
       <use style="stroke:#000000;stroke-width:1.875;" x="256.19179" xlink:href="#m9a10cc31c1" y="387.72"/>
      </g>
     </g>
     <g id="text_4">
      <!-- 0.3 -->
      <g transform="translate(241.759704 414.011164)scale(0.1815 -0.1815)">
       <defs>
        <path d="M 2597 2516 
Q 3050 2419 3304 2112 
Q 3559 1806 3559 1356 
Q 3559 666 3084 287 
Q 2609 -91 1734 -91 
Q 1441 -91 1130 -33 
Q 819 25 488 141 
L 488 750 
Q 750 597 1062 519 
Q 1375 441 1716 441 
Q 2309 441 2620 675 
Q 2931 909 2931 1356 
Q 2931 1769 2642 2001 
Q 2353 2234 1838 2234 
L 1294 2234 
L 1294 2753 
L 1863 2753 
Q 2328 2753 2575 2939 
Q 2822 3125 2822 3475 
Q 2822 3834 2567 4026 
Q 2313 4219 1838 4219 
Q 1578 4219 1281 4162 
Q 984 4106 628 3988 
L 628 4550 
Q 988 4650 1302 4700 
Q 1616 4750 1894 4750 
Q 2613 4750 3031 4423 
Q 3450 4097 3450 3541 
Q 3450 3153 3228 2886 
Q 3006 2619 2597 2516 
z
" id="DejaVuSans-33" transform="scale(0.015625)"/>
       </defs>
       <use xlink:href="#DejaVuSans-30"/>
       <use x="63.623047" xlink:href="#DejaVuSans-2e"/>
       <use x="95.410156" xlink:href="#DejaVuSans-33"/>
      </g>
     </g>
    </g>
    <g id="xtick_5">
     <g id="line2d_5">
      <g>
       <use style="stroke:#000000;stroke-width:1.875;" x="307.128947" xlink:href="#m9a10cc31c1" y="387.72"/>
      </g>
     </g>
     <g id="text_5">
      <!-- 0.4 -->
      <g transform="translate(292.696861 414.011164)scale(0.1815 -0.1815)">
       <defs>
        <path d="M 2419 4116 
L 825 1625 
L 2419 1625 
L 2419 4116 
z
M 2253 4666 
L 3047 4666 
L 3047 1625 
L 3713 1625 
L 3713 1100 
L 3047 1100 
L 3047 0 
L 2419 0 
L 2419 1100 
L 313 1100 
L 313 1709 
L 2253 4666 
z
" id="DejaVuSans-34" transform="scale(0.015625)"/>
       </defs>
       <use xlink:href="#DejaVuSans-30"/>
       <use x="63.623047" xlink:href="#DejaVuSans-2e"/>
       <use x="95.410156" xlink:href="#DejaVuSans-34"/>
      </g>
     </g>
    </g>
    <g id="xtick_6">
     <g id="line2d_6">
      <g>
       <use style="stroke:#000000;stroke-width:1.875;" x="358.066104" xlink:href="#m9a10cc31c1" y="387.72"/>
      </g>
     </g>
     <g id="text_6">
      <!-- 0.5 -->
      <g transform="translate(343.634018 414.011164)scale(0.1815 -0.1815)">
       <defs>
        <path d="M 691 4666 
L 3169 4666 
L 3169 4134 
L 1269 4134 
L 1269 2991 
Q 1406 3038 1543 3061 
Q 1681 3084 1819 3084 
Q 2600 3084 3056 2656 
Q 3513 2228 3513 1497 
Q 3513 744 3044 326 
Q 2575 -91 1722 -91 
Q 1428 -91 1123 -41 
Q 819 9 494 109 
L 494 744 
Q 775 591 1075 516 
Q 1375 441 1709 441 
Q 2250 441 2565 725 
Q 2881 1009 2881 1497 
Q 2881 1984 2565 2268 
Q 2250 2553 1709 2553 
Q 1456 2553 1204 2497 
Q 953 2441 691 2322 
L 691 4666 
z
" id="DejaVuSans-35" transform="scale(0.015625)"/>
       </defs>
       <use xlink:href="#DejaVuSans-30"/>
       <use x="63.623047" xlink:href="#DejaVuSans-2e"/>
       <use x="95.410156" xlink:href="#DejaVuSans-35"/>
      </g>
     </g>
    </g>
    <g id="xtick_7">
     <g id="line2d_7">
      <g>
       <use style="stroke:#000000;stroke-width:1.875;" x="409.003261" xlink:href="#m9a10cc31c1" y="387.72"/>
      </g>
     </g>
     <g id="text_7">
      <!-- 0.6 -->
      <g transform="translate(394.571175 414.011164)scale(0.1815 -0.1815)">
       <defs>
        <path d="M 2113 2584 
Q 1688 2584 1439 2293 
Q 1191 2003 1191 1497 
Q 1191 994 1439 701 
Q 1688 409 2113 409 
Q 2538 409 2786 701 
Q 3034 994 3034 1497 
Q 3034 2003 2786 2293 
Q 2538 2584 2113 2584 
z
M 3366 4563 
L 3366 3988 
Q 3128 4100 2886 4159 
Q 2644 4219 2406 4219 
Q 1781 4219 1451 3797 
Q 1122 3375 1075 2522 
Q 1259 2794 1537 2939 
Q 1816 3084 2150 3084 
Q 2853 3084 3261 2657 
Q 3669 2231 3669 1497 
Q 3669 778 3244 343 
Q 2819 -91 2113 -91 
Q 1303 -91 875 529 
Q 447 1150 447 2328 
Q 447 3434 972 4092 
Q 1497 4750 2381 4750 
Q 2619 4750 2861 4703 
Q 3103 4656 3366 4563 
z
" id="DejaVuSans-36" transform="scale(0.015625)"/>
       </defs>
       <use xlink:href="#DejaVuSans-30"/>
       <use x="63.623047" xlink:href="#DejaVuSans-2e"/>
       <use x="95.410156" xlink:href="#DejaVuSans-36"/>
      </g>
     </g>
    </g>
    <g id="xtick_8">
     <g id="line2d_8">
      <g>
       <use style="stroke:#000000;stroke-width:1.875;" x="459.940419" xlink:href="#m9a10cc31c1" y="387.72"/>
      </g>
     </g>
     <g id="text_8">
      <!-- 0.7 -->
      <g transform="translate(445.508333 414.011164)scale(0.1815 -0.1815)">
       <defs>
        <path d="M 525 4666 
L 3525 4666 
L 3525 4397 
L 1831 0 
L 1172 0 
L 2766 4134 
L 525 4134 
L 525 4666 
z
" id="DejaVuSans-37" transform="scale(0.015625)"/>
       </defs>
       <use xlink:href="#DejaVuSans-30"/>
       <use x="63.623047" xlink:href="#DejaVuSans-2e"/>
       <use x="95.410156" xlink:href="#DejaVuSans-37"/>
      </g>
     </g>
    </g>
    <g id="xtick_9">
     <g id="line2d_9">
      <g>
       <use style="stroke:#000000;stroke-width:1.875;" x="510.877576" xlink:href="#m9a10cc31c1" y="387.72"/>
      </g>
     </g>
     <g id="text_9">
      <!-- 0.8 -->
      <g transform="translate(496.44549 414.011164)scale(0.1815 -0.1815)">
       <defs>
        <path d="M 2034 2216 
Q 1584 2216 1326 1975 
Q 1069 1734 1069 1313 
Q 1069 891 1326 650 
Q 1584 409 2034 409 
Q 2484 409 2743 651 
Q 3003 894 3003 1313 
Q 3003 1734 2745 1975 
Q 2488 2216 2034 2216 
z
M 1403 2484 
Q 997 2584 770 2862 
Q 544 3141 544 3541 
Q 544 4100 942 4425 
Q 1341 4750 2034 4750 
Q 2731 4750 3128 4425 
Q 3525 4100 3525 3541 
Q 3525 3141 3298 2862 
Q 3072 2584 2669 2484 
Q 3125 2378 3379 2068 
Q 3634 1759 3634 1313 
Q 3634 634 3220 271 
Q 2806 -91 2034 -91 
Q 1263 -91 848 271 
Q 434 634 434 1313 
Q 434 1759 690 2068 
Q 947 2378 1403 2484 
z
M 1172 3481 
Q 1172 3119 1398 2916 
Q 1625 2713 2034 2713 
Q 2441 2713 2670 2916 
Q 2900 3119 2900 3481 
Q 2900 3844 2670 4047 
Q 2441 4250 2034 4250 
Q 1625 4250 1398 4047 
Q 1172 3844 1172 3481 
z
" id="DejaVuSans-38" transform="scale(0.015625)"/>
       </defs>
       <use xlink:href="#DejaVuSans-30"/>
       <use x="63.623047" xlink:href="#DejaVuSans-2e"/>
       <use x="95.410156" xlink:href="#DejaVuSans-38"/>
      </g>
     </g>
    </g>
    <g id="xtick_10">
     <g id="line2d_10">
      <g>
       <use style="stroke:#000000;stroke-width:1.875;" x="561.814733" xlink:href="#m9a10cc31c1" y="387.72"/>
      </g>
     </g>
     <g id="text_10">
      <!-- 0.9 -->
      <g transform="translate(547.382647 414.011164)scale(0.1815 -0.1815)">
       <defs>
        <path d="M 703 97 
L 703 672 
Q 941 559 1184 500 
Q 1428 441 1663 441 
Q 2288 441 2617 861 
Q 2947 1281 2994 2138 
Q 2813 1869 2534 1725 
Q 2256 1581 1919 1581 
Q 1219 1581 811 2004 
Q 403 2428 403 3163 
Q 403 3881 828 4315 
Q 1253 4750 1959 4750 
Q 2769 4750 3195 4129 
Q 3622 3509 3622 2328 
Q 3622 1225 3098 567 
Q 2575 -91 1691 -91 
Q 1453 -91 1209 -44 
Q 966 3 703 97 
z
M 1959 2075 
Q 2384 2075 2632 2365 
Q 2881 2656 2881 3163 
Q 2881 3666 2632 3958 
Q 2384 4250 1959 4250 
Q 1534 4250 1286 3958 
Q 1038 3666 1038 3163 
Q 1038 2656 1286 2365 
Q 1534 2075 1959 2075 
z
" id="DejaVuSans-39" transform="scale(0.015625)"/>
       </defs>
       <use xlink:href="#DejaVuSans-30"/>
       <use x="63.623047" xlink:href="#DejaVuSans-2e"/>
       <use x="95.410156" xlink:href="#DejaVuSans-39"/>
      </g>
     </g>
    </g>
    <g id="xtick_11">
     <g id="line2d_11">
      <g>
       <use style="stroke:#000000;stroke-width:1.875;" x="612.75189" xlink:href="#m9a10cc31c1" y="387.72"/>
      </g>
     </g>
     <g id="text_11">
      <!-- 1.0 -->
      <g transform="translate(598.319804 414.011164)scale(0.1815 -0.1815)">
       <use xlink:href="#DejaVuSans-31"/>
       <use x="63.623047" xlink:href="#DejaVuSans-2e"/>
       <use x="95.410156" xlink:href="#DejaVuSans-30"/>
      </g>
     </g>
    </g>
   </g>
   <g id="matplotlib.axis_2">
    <g id="ytick_1">
     <g id="line2d_12">
      <defs>
       <path d="M 0 0 
L -9 0 
" id="m2e92a3d2e2" style="stroke:#000000;stroke-width:1.875;"/>
      </defs>
      <g>
       <use style="stroke:#000000;stroke-width:1.875;" x="77.5065" xlink:href="#m2e92a3d2e2" y="387.72"/>
      </g>
     </g>
     <g id="text_12">
      <!-- 0 -->
      <g transform="translate(53.458563 394.615582)scale(0.1815 -0.1815)">
       <use xlink:href="#DejaVuSans-30"/>
      </g>
     </g>
    </g>
    <g id="ytick_2">
     <g id="line2d_13">
      <g>
       <use style="stroke:#000000;stroke-width:1.875;" x="77.5065" xlink:href="#m2e92a3d2e2" y="351.48"/>
      </g>
     </g>
     <g id="text_13">
      <!-- 10 -->
      <g transform="translate(41.910625 358.375582)scale(0.1815 -0.1815)">
       <use xlink:href="#DejaVuSans-31"/>
       <use x="63.623047" xlink:href="#DejaVuSans-30"/>
      </g>
     </g>
    </g>
    <g id="ytick_3">
     <g id="line2d_14">
      <g>
       <use style="stroke:#000000;stroke-width:1.875;" x="77.5065" xlink:href="#m2e92a3d2e2" y="315.24"/>
      </g>
     </g>
     <g id="text_14">
      <!-- 20 -->
      <g transform="translate(41.910625 322.135582)scale(0.1815 -0.1815)">
       <use xlink:href="#DejaVuSans-32"/>
       <use x="63.623047" xlink:href="#DejaVuSans-30"/>
      </g>
     </g>
    </g>
    <g id="ytick_4">
     <g id="line2d_15">
      <g>
       <use style="stroke:#000000;stroke-width:1.875;" x="77.5065" xlink:href="#m2e92a3d2e2" y="279"/>
      </g>
     </g>
     <g id="text_15">
      <!-- 30 -->
      <g transform="translate(41.910625 285.895582)scale(0.1815 -0.1815)">
       <use xlink:href="#DejaVuSans-33"/>
       <use x="63.623047" xlink:href="#DejaVuSans-30"/>
      </g>
     </g>
    </g>
    <g id="ytick_5">
     <g id="line2d_16">
      <g>
       <use style="stroke:#000000;stroke-width:1.875;" x="77.5065" xlink:href="#m2e92a3d2e2" y="242.76"/>
      </g>
     </g>
     <g id="text_16">
      <!-- 40 -->
      <g transform="translate(41.910625 249.655582)scale(0.1815 -0.1815)">
       <use xlink:href="#DejaVuSans-34"/>
       <use x="63.623047" xlink:href="#DejaVuSans-30"/>
      </g>
     </g>
    </g>
    <g id="ytick_6">
     <g id="line2d_17">
      <g>
       <use style="stroke:#000000;stroke-width:1.875;" x="77.5065" xlink:href="#m2e92a3d2e2" y="206.52"/>
      </g>
     </g>
     <g id="text_17">
      <!-- 50 -->
      <g transform="translate(41.910625 213.415582)scale(0.1815 -0.1815)">
       <use xlink:href="#DejaVuSans-35"/>
       <use x="63.623047" xlink:href="#DejaVuSans-30"/>
      </g>
     </g>
    </g>
    <g id="ytick_7">
     <g id="line2d_18">
      <g>
       <use style="stroke:#000000;stroke-width:1.875;" x="77.5065" xlink:href="#m2e92a3d2e2" y="170.28"/>
      </g>
     </g>
     <g id="text_18">
      <!-- 60 -->
      <g transform="translate(41.910625 177.175582)scale(0.1815 -0.1815)">
       <use xlink:href="#DejaVuSans-36"/>
       <use x="63.623047" xlink:href="#DejaVuSans-30"/>
      </g>
     </g>
    </g>
    <g id="ytick_8">
     <g id="line2d_19">
      <g>
       <use style="stroke:#000000;stroke-width:1.875;" x="77.5065" xlink:href="#m2e92a3d2e2" y="134.04"/>
      </g>
     </g>
     <g id="text_19">
      <!-- 70 -->
      <g transform="translate(41.910625 140.935582)scale(0.1815 -0.1815)">
       <use xlink:href="#DejaVuSans-37"/>
       <use x="63.623047" xlink:href="#DejaVuSans-30"/>
      </g>
     </g>
    </g>
    <g id="ytick_9">
     <g id="line2d_20">
      <g>
       <use style="stroke:#000000;stroke-width:1.875;" x="77.5065" xlink:href="#m2e92a3d2e2" y="97.8"/>
      </g>
     </g>
     <g id="text_20">
      <!-- 80 -->
      <g transform="translate(41.910625 104.695582)scale(0.1815 -0.1815)">
       <use xlink:href="#DejaVuSans-38"/>
       <use x="63.623047" xlink:href="#DejaVuSans-30"/>
      </g>
     </g>
    </g>
    <g id="ytick_10">
     <g id="line2d_21">
      <g>
       <use style="stroke:#000000;stroke-width:1.875;" x="77.5065" xlink:href="#m2e92a3d2e2" y="61.56"/>
      </g>
     </g>
     <g id="text_21">
      <!-- 90 -->
      <g transform="translate(41.910625 68.455582)scale(0.1815 -0.1815)">
       <use xlink:href="#DejaVuSans-39"/>
       <use x="63.623047" xlink:href="#DejaVuSans-30"/>
      </g>
     </g>
    </g>
    <g id="ytick_11">
     <g id="line2d_22">
      <g>
       <use style="stroke:#000000;stroke-width:1.875;" x="77.5065" xlink:href="#m2e92a3d2e2" y="25.32"/>
      </g>
     </g>
     <g id="text_22">
      <!-- 100 -->
      <g transform="translate(30.362688 32.215582)scale(0.1815 -0.1815)">
       <use xlink:href="#DejaVuSans-31"/>
       <use x="63.623047" xlink:href="#DejaVuSans-30"/>
       <use x="127.246094" xlink:href="#DejaVuSans-30"/>
      </g>
     </g>
    </g>
    <g id="text_23">
     <!-- Percent -->
     <g transform="translate(22.244906 234.699469)rotate(-90)scale(0.198 -0.198)">
      <defs>
       <path d="M 1259 4147 
L 1259 2394 
L 2053 2394 
Q 2494 2394 2734 2622 
Q 2975 2850 2975 3272 
Q 2975 3691 2734 3919 
Q 2494 4147 2053 4147 
L 1259 4147 
z
M 628 4666 
L 2053 4666 
Q 2838 4666 3239 4311 
Q 3641 3956 3641 3272 
Q 3641 2581 3239 2228 
Q 2838 1875 2053 1875 
L 1259 1875 
L 1259 0 
L 628 0 
L 628 4666 
z
" id="DejaVuSans-50" transform="scale(0.015625)"/>
       <path d="M 3597 1894 
L 3597 1613 
L 953 1613 
Q 991 1019 1311 708 
Q 1631 397 2203 397 
Q 2534 397 2845 478 
Q 3156 559 3463 722 
L 3463 178 
Q 3153 47 2828 -22 
Q 2503 -91 2169 -91 
Q 1331 -91 842 396 
Q 353 884 353 1716 
Q 353 2575 817 3079 
Q 1281 3584 2069 3584 
Q 2775 3584 3186 3129 
Q 3597 2675 3597 1894 
z
M 3022 2063 
Q 3016 2534 2758 2815 
Q 2500 3097 2075 3097 
Q 1594 3097 1305 2825 
Q 1016 2553 972 2059 
L 3022 2063 
z
" id="DejaVuSans-65" transform="scale(0.015625)"/>
       <path d="M 2631 2963 
Q 2534 3019 2420 3045 
Q 2306 3072 2169 3072 
Q 1681 3072 1420 2755 
Q 1159 2438 1159 1844 
L 1159 0 
L 581 0 
L 581 3500 
L 1159 3500 
L 1159 2956 
Q 1341 3275 1631 3429 
Q 1922 3584 2338 3584 
Q 2397 3584 2469 3576 
Q 2541 3569 2628 3553 
L 2631 2963 
z
" id="DejaVuSans-72" transform="scale(0.015625)"/>
       <path d="M 3122 3366 
L 3122 2828 
Q 2878 2963 2633 3030 
Q 2388 3097 2138 3097 
Q 1578 3097 1268 2742 
Q 959 2388 959 1747 
Q 959 1106 1268 751 
Q 1578 397 2138 397 
Q 2388 397 2633 464 
Q 2878 531 3122 666 
L 3122 134 
Q 2881 22 2623 -34 
Q 2366 -91 2075 -91 
Q 1284 -91 818 406 
Q 353 903 353 1747 
Q 353 2603 823 3093 
Q 1294 3584 2113 3584 
Q 2378 3584 2631 3529 
Q 2884 3475 3122 3366 
z
" id="DejaVuSans-63" transform="scale(0.015625)"/>
       <path d="M 3513 2113 
L 3513 0 
L 2938 0 
L 2938 2094 
Q 2938 2591 2744 2837 
Q 2550 3084 2163 3084 
Q 1697 3084 1428 2787 
Q 1159 2491 1159 1978 
L 1159 0 
L 581 0 
L 581 3500 
L 1159 3500 
L 1159 2956 
Q 1366 3272 1645 3428 
Q 1925 3584 2291 3584 
Q 2894 3584 3203 3211 
Q 3513 2838 3513 2113 
z
" id="DejaVuSans-6e" transform="scale(0.015625)"/>
       <path d="M 1172 4494 
L 1172 3500 
L 2356 3500 
L 2356 3053 
L 1172 3053 
L 1172 1153 
Q 1172 725 1289 603 
Q 1406 481 1766 481 
L 2356 481 
L 2356 0 
L 1766 0 
Q 1100 0 847 248 
Q 594 497 594 1153 
L 594 3053 
L 172 3053 
L 172 3500 
L 594 3500 
L 594 4494 
L 1172 4494 
z
" id="DejaVuSans-74" transform="scale(0.015625)"/>
      </defs>
      <use xlink:href="#DejaVuSans-50"/>
      <use x="56.677734" xlink:href="#DejaVuSans-65"/>
      <use x="118.201172" xlink:href="#DejaVuSans-72"/>
      <use x="157.064453" xlink:href="#DejaVuSans-63"/>
      <use x="212.044922" xlink:href="#DejaVuSans-65"/>
      <use x="273.568359" xlink:href="#DejaVuSans-6e"/>
      <use x="336.947266" xlink:href="#DejaVuSans-74"/>
     </g>
    </g>
   </g>
   <g id="LineCollection_1">
    <path clip-path="url(#p80a336c236)" d="M 77.5065 134.04 
L 390.023947 134.04 
" style="fill:none;stroke:#808080;stroke-dasharray:2.25,3.7125;stroke-dashoffset:0;stroke-width:2.25;"/>
   </g>
   <g id="LineCollection_2">
    <path clip-path="url(#p80a336c236)" d="M 196.05556 387.72 
L 196.05556 134.04 
" style="fill:none;stroke:#808080;stroke-dasharray:2.25,3.7125;stroke-dashoffset:0;stroke-width:2.25;"/>
   </g>
   <g id="LineCollection_3">
    <path clip-path="url(#p80a336c236)" d="M 324.809766 387.72 
L 324.809766 134.04 
" style="fill:none;stroke:#808080;stroke-dasharray:2.25,3.7125;stroke-dashoffset:0;stroke-width:2.25;"/>
   </g>
   <g id="LineCollection_4">
    <path clip-path="url(#p80a336c236)" d="M 390.023947 387.72 
L 390.023947 134.04 
" style="fill:none;stroke:#808080;stroke-dasharray:2.25,3.7125;stroke-dashoffset:0;stroke-width:2.25;"/>
   </g>
   <g id="line2d_23">
    <path clip-path="url(#p80a336c236)" d="M 102.870136 386.963389 
L 104.036281 386.963389 
L 104.036281 385.6165 
L 105.202425 385.6165 
L 105.202425 384.267928 
L 106.368569 384.267928 
L 106.368569 382.899957 
L 107.534713 382.899957 
L 107.534713 381.55414 
L 108.700857 381.55414 
L 108.700857 380.200842 
L 109.867002 380.200842 
L 109.867002 378.858765 
L 111.033146 378.858765 
L 111.033146 377.511847 
L 112.19929 377.511847 
L 112.19929 376.167654 
L 113.365434 376.167654 
L 113.365434 374.826592 
L 114.531578 374.826592 
L 114.531578 373.479007 
L 115.697723 373.479007 
L 115.697723 372.138525 
L 116.863867 372.138525 
L 116.863867 370.798885 
L 118.030011 370.798885 
L 118.030011 369.459042 
L 119.196155 369.459042 
L 119.196155 368.110586 
L 120.362299 368.110586 
L 120.362299 366.764914 
L 121.528444 366.764914 
L 121.528444 365.442614 
L 122.694588 365.442614 
L 122.694588 364.107817 
L 123.860732 364.107817 
L 123.860732 362.78601 
L 125.026876 362.78601 
L 125.026876 361.449849 
L 126.19302 361.449849 
L 126.19302 360.13738 
L 127.359165 360.13738 
L 127.359165 358.820677 
L 128.525309 358.820677 
L 128.525309 357.512267 
L 129.691453 357.512267 
L 129.691453 356.214935 
L 130.857597 356.214935 
L 130.857597 354.904408 
L 132.023741 354.904408 
L 132.023741 353.601943 
L 133.189886 353.601943 
L 133.189886 352.299681 
L 134.35603 352.299681 
L 134.35603 350.98956 
L 135.522174 350.98956 
L 135.522174 349.683441 
L 136.688318 349.683441 
L 136.688318 348.391386 
L 137.854462 348.391386 
L 137.854462 347.095794 
L 139.020607 347.095794 
L 139.020607 345.814526 
L 140.186751 345.814526 
L 140.186751 344.524791 
L 141.352895 344.524791 
L 141.352895 343.244915 
L 142.519039 343.244915 
L 142.519039 341.963125 
L 143.685183 341.963125 
L 143.685183 340.685163 
L 144.851328 340.685163 
L 144.851328 339.412102 
L 146.017472 339.412102 
L 146.017472 338.134952 
L 147.183616 338.134952 
L 147.183616 336.864413 
L 148.34976 336.864413 
L 148.34976 335.599848 
L 149.515904 335.599848 
L 149.515904 334.332934 
L 150.682049 334.332934 
L 150.682049 333.075184 
L 151.848193 333.075184 
L 151.848193 331.819579 
L 153.014337 331.819579 
L 153.014337 330.563249 
L 154.180481 330.563249 
L 154.180481 329.302193 
L 155.346625 329.302193 
L 155.346625 328.057462 
L 156.51277 328.057462 
L 156.51277 326.809484 
L 157.678914 326.809484 
L 157.678914 325.583602 
L 158.845058 325.583602 
L 158.845058 324.347774 
L 160.011202 324.347774 
L 160.011202 323.113773 
L 161.177346 323.113773 
L 161.177346 321.881424 
L 162.343491 321.881424 
L 162.343491 320.654382 
L 163.509635 320.654382 
L 163.509635 319.431748 
L 164.675779 319.431748 
L 164.675779 318.209085 
L 165.841923 318.209085 
L 165.841923 316.988741 
L 167.008067 316.988741 
L 167.008067 315.767702 
L 168.174212 315.767702 
L 168.174212 314.555217 
L 169.340356 314.555217 
L 169.340356 313.352968 
L 170.5065 313.352968 
L 170.5065 312.14202 
L 171.672644 312.14202 
L 171.672644 310.936495 
L 172.838788 310.936495 
L 172.838788 309.717775 
L 174.004933 309.717775 
L 174.004933 308.50848 
L 175.171077 308.50848 
L 175.171077 307.30858 
L 176.337221 307.30858 
L 176.337221 306.123759 
L 177.503365 306.123759 
L 177.503365 304.940156 
L 178.669509 304.940156 
L 178.669509 303.747708 
L 179.835654 303.747708 
L 179.835654 302.557754 
L 181.001798 302.557754 
L 181.001798 301.375659 
L 182.167942 301.375659 
L 182.167942 300.207367 
L 183.334086 300.207367 
L 183.334086 299.025271 
L 184.50023 299.025271 
L 184.50023 297.847932 
L 185.666375 297.847932 
L 185.666375 296.681147 
L 186.832519 296.681147 
L 186.832519 295.518075 
L 187.998663 295.518075 
L 187.998663 294.354103 
L 189.164807 294.354103 
L 189.164807 293.206167 
L 190.330951 293.206167 
L 190.330951 292.043558 
L 191.497096 292.043558 
L 191.497096 290.890345 
L 192.66324 290.890345 
L 192.66324 289.743453 
L 193.829384 289.743453 
L 193.829384 288.597663 
L 194.995528 288.597663 
L 194.995528 287.455381 
L 196.161672 287.455381 
L 196.161672 286.323104 
L 197.327817 286.323104 
L 197.327817 285.195554 
L 198.493961 285.195554 
L 198.493961 284.053302 
L 199.660105 284.053302 
L 199.660105 282.930072 
L 200.826249 282.930072 
L 200.826249 281.803565 
L 201.992393 281.803565 
L 201.992393 280.689702 
L 203.158538 280.689702 
L 203.158538 279.575548 
L 204.324682 279.575548 
L 204.324682 278.464933 
L 205.490826 278.464933 
L 205.490826 277.361247 
L 206.65697 277.361247 
L 206.65697 276.263304 
L 207.823114 276.263304 
L 207.823114 275.167216 
L 208.989259 275.167216 
L 208.989259 274.071244 
L 210.155403 274.071244 
L 210.155403 272.987306 
L 211.321547 272.987306 
L 211.321547 271.91201 
L 212.487691 271.91201 
L 212.487691 270.830711 
L 213.653835 270.830711 
L 213.653835 269.76394 
L 214.81998 269.76394 
L 214.81998 268.697053 
L 215.986124 268.697053 
L 215.986124 267.628861 
L 217.152268 267.628861 
L 217.152268 266.564236 
L 218.318412 266.564236 
L 218.318412 265.519764 
L 219.484556 265.519764 
L 219.484556 264.473523 
L 220.650701 264.473523 
L 220.650701 263.419511 
L 221.816845 263.419511 
L 221.816845 262.377591 
L 222.982989 262.377591 
L 222.982989 261.337266 
L 224.149133 261.337266 
L 224.149133 260.302973 
L 225.315277 260.302973 
L 225.315277 259.281293 
L 226.481422 259.281293 
L 226.481422 258.250306 
L 227.647566 258.250306 
L 227.647566 257.216853 
L 228.81371 257.216853 
L 228.81371 256.198015 
L 229.979854 256.198015 
L 229.979854 255.174712 
L 231.145998 255.174712 
L 231.145998 254.156338 
L 232.312143 254.156338 
L 232.312143 253.138225 
L 233.478287 253.138225 
L 233.478287 252.131219 
L 234.644431 252.131219 
L 234.644431 251.130128 
L 235.810575 251.130128 
L 235.810575 250.139592 
L 236.976719 250.139592 
L 236.976719 249.140328 
L 238.142864 249.140328 
L 238.142864 248.147936 
L 239.309008 248.147936 
L 239.309008 247.152703 
L 240.475152 247.152703 
L 240.475152 246.166401 
L 241.641296 246.166401 
L 241.641296 245.179112 
L 242.80744 245.179112 
L 242.80744 244.211601 
L 243.973585 244.211601 
L 243.973585 243.229967 
L 245.139729 243.229967 
L 245.139729 242.247986 
L 246.305873 242.247986 
L 246.305873 241.276473 
L 247.472017 241.276473 
L 247.472017 240.302842 
L 248.638161 240.302842 
L 248.638161 239.325878 
L 249.804306 239.325878 
L 249.804306 238.344244 
L 250.97045 238.344244 
L 250.97045 237.369338 
L 252.136594 237.369338 
L 252.136594 236.395766 
L 253.302738 236.395766 
L 253.302738 235.432053 
L 254.468882 235.432053 
L 254.468882 234.465527 
L 255.635027 234.465527 
L 255.635027 233.513936 
L 256.801171 233.513936 
L 256.801171 232.557298 
L 257.967315 232.557298 
L 257.967315 231.596427 
L 259.133459 231.596427 
L 259.133459 230.634512 
L 260.299603 230.634512 
L 260.299603 229.678629 
L 261.465748 229.678629 
L 261.465748 228.724485 
L 262.631892 228.724485 
L 262.631892 227.774082 
L 263.798036 227.774082 
L 263.798036 226.825564 
L 264.96418 226.825564 
L 264.96418 225.885687 
L 266.130324 225.885687 
L 266.130324 224.94381 
L 267.296469 224.94381 
L 267.296469 224.011763 
L 268.462613 224.011763 
L 268.462613 223.076526 
L 269.628757 223.076526 
L 269.628757 222.134068 
L 270.794901 222.134068 
L 270.794901 221.204022 
L 271.961045 221.204022 
L 271.961045 220.2718 
L 273.12719 220.2718 
L 273.12719 219.347989 
L 274.293334 219.347989 
L 274.293334 218.423974 
L 275.459478 218.423974 
L 275.459478 217.498074 
L 276.625622 217.498074 
L 276.625622 216.565592 
L 277.791766 216.565592 
L 277.791766 215.636879 
L 278.957911 215.636879 
L 278.957911 214.7124 
L 280.124055 214.7124 
L 280.124055 213.782702 
L 281.290199 213.782702 
L 281.290199 212.863095 
L 282.456343 212.863095 
L 282.456343 211.959088 
L 283.622487 211.959088 
L 283.622487 211.05137 
L 284.788632 211.05137 
L 284.788632 210.136026 
L 285.954776 210.136026 
L 285.954776 209.22506 
L 287.12092 209.22506 
L 287.12092 208.325113 
L 288.287064 208.325113 
L 288.287064 207.411769 
L 289.453208 207.411769 
L 289.453208 206.508256 
L 290.619353 206.508256 
L 290.619353 205.602974 
L 291.785497 205.602974 
L 291.785497 204.703317 
L 292.951641 204.703317 
L 292.951641 203.799194 
L 294.117785 203.799194 
L 294.117785 202.899683 
L 295.283929 202.899683 
L 295.283929 202.004927 
L 296.450074 202.004927 
L 296.450074 201.102109 
L 297.616218 201.102109 
L 297.616218 200.200539 
L 298.782362 200.200539 
L 298.782362 199.304594 
L 299.948506 199.304594 
L 299.948506 198.412128 
L 301.11465 198.412128 
L 301.11465 197.523752 
L 302.280795 197.523752 
L 302.280795 196.635491 
L 303.446939 196.635491 
L 303.446939 195.749289 
L 304.613083 195.749289 
L 304.613083 194.871845 
L 305.779227 194.871845 
L 305.779227 193.98805 
L 306.945371 193.98805 
L 306.945371 193.106111 
L 308.111516 193.106111 
L 308.111516 192.225506 
L 309.27766 192.225506 
L 309.27766 191.337448 
L 310.443804 191.337448 
L 310.443804 190.461918 
L 311.609948 190.461918 
L 311.609948 189.575252 
L 312.776092 189.575252 
L 312.776092 188.69801 
L 313.942237 188.69801 
L 313.942237 187.827902 
L 315.108381 187.827902 
L 315.108381 186.958809 
L 316.274525 186.958809 
L 316.274525 186.082119 
L 317.440669 186.082119 
L 317.440669 185.208241 
L 318.606813 185.208241 
L 318.606813 184.336857 
L 319.772958 184.336857 
L 319.772958 183.462487 
L 320.939102 183.462487 
L 320.939102 182.591567 
L 322.105246 182.591567 
L 322.105246 181.724794 
L 323.27139 181.724794 
L 323.27139 180.853381 
L 324.437534 180.853381 
L 324.437534 179.988173 
L 325.603679 179.988173 
L 325.603679 179.116093 
L 326.769823 179.116093 
L 326.769823 178.243695 
L 327.935967 178.243695 
L 327.935967 177.378951 
L 329.102111 177.378951 
L 329.102111 176.519225 
L 330.268255 176.519225 
L 330.268255 175.664688 
L 331.4344 175.664688 
L 331.4344 174.803251 
L 332.600544 174.803251 
L 332.600544 173.943205 
L 333.766688 173.943205 
L 333.766688 173.082463 
L 334.932832 173.082463 
L 334.932832 172.227666 
L 336.098976 172.227666 
L 336.098976 171.374 
L 337.265121 171.374 
L 337.265121 170.522016 
L 338.431265 170.522016 
L 338.431265 169.669422 
L 339.597409 169.669422 
L 339.597409 168.828747 
L 340.763553 168.828747 
L 340.763553 167.976357 
L 341.929697 167.976357 
L 341.929697 167.126141 
L 343.095842 167.126141 
L 343.095842 166.282624 
L 344.261986 166.282624 
L 344.261986 165.432351 
L 345.42813 165.432351 
L 345.42813 164.583788 
L 346.594274 164.583788 
L 346.594274 163.739459 
L 347.760418 163.739459 
L 347.760418 162.901568 
L 348.926563 162.901568 
L 348.926563 162.063242 
L 350.092707 162.063242 
L 350.092707 161.221174 
L 351.258851 161.221174 
L 351.258851 160.387575 
L 352.424995 160.387575 
L 352.424995 159.557542 
L 353.591139 159.557542 
L 353.591139 158.729017 
L 354.757284 158.729017 
L 354.757284 157.892082 
L 355.923428 157.892082 
L 355.923428 157.075098 
L 357.089572 157.075098 
L 357.089572 156.241208 
L 358.255716 156.241208 
L 358.255716 155.414017 
L 359.421861 155.414017 
L 359.421861 154.580388 
L 360.588005 154.580388 
L 360.588005 153.750326 
L 361.754149 153.750326 
L 361.754149 152.926412 
L 362.920293 152.926412 
L 362.920293 152.10183 
L 364.086437 152.10183 
L 364.086437 151.276118 
L 365.252582 151.276118 
L 365.252582 150.455422 
L 366.418726 150.455422 
L 366.418726 149.636727 
L 367.58487 149.636727 
L 367.58487 148.819975 
L 368.751014 148.819975 
L 368.751014 148.008211 
L 369.917158 148.008211 
L 369.917158 147.197317 
L 371.083303 147.197317 
L 371.083303 146.381376 
L 372.249447 146.381376 
L 372.249447 145.555432 
L 373.415591 145.555432 
L 373.415591 144.737201 
L 374.581735 144.737201 
L 374.581735 143.919318 
L 375.747879 143.919318 
L 375.747879 143.110338 
L 376.914024 143.110338 
L 376.914024 142.304634 
L 378.080168 142.304634 
L 378.080168 141.492753 
L 379.246312 141.492753 
L 379.246312 140.682497 
L 380.412456 140.682497 
L 380.412456 139.868123 
L 381.5786 139.868123 
L 381.5786 139.062941 
L 382.744745 139.062941 
L 382.744745 138.259876 
L 383.910889 138.259876 
L 383.910889 137.453041 
L 385.077033 137.453041 
L 385.077033 136.647366 
L 386.243177 136.647366 
L 386.243177 135.837342 
L 387.409321 135.837342 
L 387.409321 135.03619 
L 388.575466 135.03619 
L 388.575466 134.237243 
L 389.74161 134.237243 
L 389.74161 133.432873 
L 390.907754 133.432873 
L 390.907754 132.627459 
L 392.073898 132.627459 
L 392.073898 131.82364 
L 393.240042 131.82364 
L 393.240042 131.019647 
L 394.406187 131.019647 
L 394.406187 130.211913 
L 395.572331 130.211913 
L 395.572331 129.418128 
L 396.738475 129.418128 
L 396.738475 128.623965 
L 397.904619 128.623965 
L 397.904619 127.82957 
L 399.070763 127.82957 
L 399.070763 127.037205 
L 400.236908 127.037205 
L 400.236908 126.233096 
L 401.403052 126.233096 
L 401.403052 125.438731 
L 402.569196 125.438731 
L 402.569196 124.649614 
L 403.73534 124.649614 
L 403.73534 123.854929 
L 404.901484 123.854929 
L 404.901484 123.065638 
L 406.067629 123.065638 
L 406.067629 122.269126 
L 407.233773 122.269126 
L 407.233773 121.467627 
L 408.399917 121.467627 
L 408.399917 120.685701 
L 409.566061 120.685701 
L 409.566061 119.893742 
L 410.732205 119.893742 
L 410.732205 119.100653 
L 411.89835 119.100653 
L 411.89835 118.308114 
L 413.064494 118.308114 
L 413.064494 117.518649 
L 414.230638 117.518649 
L 414.230638 116.730083 
L 415.396782 116.730083 
L 415.396782 115.938733 
L 416.562926 115.938733 
L 416.562926 115.154719 
L 417.729071 115.154719 
L 417.729071 114.369749 
L 418.895215 114.369749 
L 418.895215 113.586112 
L 420.061359 113.586112 
L 420.061359 112.799953 
L 421.227503 112.799953 
L 421.227503 112.01072 
L 422.393647 112.01072 
L 422.393647 111.225169 
L 423.559792 111.225169 
L 423.559792 110.437821 
L 424.725936 110.437821 
L 424.725936 109.647196 
L 425.89208 109.647196 
L 425.89208 108.852946 
L 427.058224 108.852946 
L 427.058224 108.062408 
L 428.224368 108.062408 
L 428.224368 107.271667 
L 429.390513 107.271667 
L 429.390513 106.474692 
L 430.556657 106.474692 
L 430.556657 105.683342 
L 431.722801 105.683342 
L 431.722801 104.899444 
L 432.888945 104.899444 
L 432.888945 104.104644 
L 434.055089 104.104644 
L 434.055089 103.311177 
L 435.221234 103.311177 
L 435.221234 102.507967 
L 436.387378 102.507967 
L 436.387378 101.704119 
L 437.553522 101.704119 
L 437.553522 100.911232 
L 438.719666 100.911232 
L 438.719666 100.117272 
L 439.88581 100.117272 
L 439.88581 99.326183 
L 441.051955 99.326183 
L 441.051955 98.525264 
L 442.218099 98.525264 
L 442.218099 97.727071 
L 443.384243 97.727071 
L 443.384243 96.926093 
L 444.550387 96.926093 
L 444.550387 96.125667 
L 445.716531 96.125667 
L 445.716531 95.322921 
L 446.882676 95.322921 
L 446.882676 94.523771 
L 448.04882 94.523771 
L 448.04882 93.722648 
L 449.214964 93.722648 
L 449.214964 92.920366 
L 450.381108 92.920366 
L 450.381108 92.116982 
L 451.547252 92.116982 
L 451.547252 91.312728 
L 452.713397 91.312728 
L 452.713397 90.506676 
L 453.879541 90.506676 
L 453.879541 89.702509 
L 455.045685 89.702509 
L 455.045685 88.901271 
L 456.211829 88.901271 
L 456.211829 88.095915 
L 457.377973 88.095915 
L 457.377973 87.289255 
L 458.544118 87.289255 
L 458.544118 86.491206 
L 459.710262 86.491206 
L 459.710262 85.679036 
L 460.876406 85.679036 
L 460.876406 84.870867 
L 462.04255 84.870867 
L 462.04255 84.064148 
L 463.208694 84.064148 
L 463.208694 83.261663 
L 464.374839 83.261663 
L 464.374839 82.448971 
L 465.540983 82.448971 
L 465.540983 81.641672 
L 466.707127 81.641672 
L 466.707127 80.834634 
L 467.873271 80.834634 
L 467.873271 80.027162 
L 469.039415 80.027162 
L 469.039415 79.209453 
L 470.20556 79.209453 
L 470.20556 78.398007 
L 471.371704 78.398007 
L 471.371704 77.587287 
L 472.537848 77.587287 
L 472.537848 76.78196 
L 473.703992 76.78196 
L 473.703992 75.977677 
L 474.870136 75.977677 
L 474.870136 75.173858 
L 476.036281 75.173858 
L 476.036281 74.367661 
L 477.202425 74.367661 
L 477.202425 73.553693 
L 478.368569 73.553693 
L 478.368569 72.750744 
L 479.534713 72.750744 
L 479.534713 71.952289 
L 480.700857 71.952289 
L 480.700857 71.146238 
L 481.867002 71.146238 
L 481.867002 70.342651 
L 483.033146 70.342651 
L 483.033146 69.536338 
L 484.19929 69.536338 
L 484.19929 68.739594 
L 485.365434 68.739594 
L 485.365434 67.936355 
L 486.531578 67.936355 
L 486.531578 67.138249 
L 487.697723 67.138249 
L 487.697723 66.344376 
L 488.863867 66.344376 
L 488.863867 65.542297 
L 490.030011 65.542297 
L 490.030011 64.752658 
L 491.196155 64.752658 
L 491.196155 63.969224 
L 492.362299 63.969224 
L 492.362299 63.181093 
L 493.528444 63.181093 
L 493.528444 62.396442 
L 494.694588 62.396442 
L 494.694588 61.614748 
L 495.860732 61.614748 
L 495.860732 60.82969 
L 497.026876 60.82969 
L 497.026876 60.04965 
L 498.19302 60.04965 
L 498.19302 59.27306 
L 499.359165 59.27306 
L 499.359165 58.498557 
L 500.525309 58.498557 
L 500.525309 57.724084 
L 501.691453 57.724084 
L 501.691453 56.95947 
L 502.857597 56.95947 
L 502.857597 56.206716 
L 504.023741 56.206716 
L 504.023741 55.44274 
L 505.189886 55.44274 
L 505.189886 54.695641 
L 506.35603 54.695641 
L 506.35603 53.941814 
L 507.522174 53.941814 
L 507.522174 53.198398 
L 508.688318 53.198398 
L 508.688318 52.460462 
L 509.854462 52.460462 
L 509.854462 51.737633 
L 511.020607 51.737633 
L 511.020607 51.018459 
L 512.186751 51.018459 
L 512.186751 50.299922 
L 513.352895 50.299922 
L 513.352895 49.583909 
L 514.519039 49.583909 
L 514.519039 48.882742 
L 515.685183 48.882742 
L 515.685183 48.187839 
L 516.851328 48.187839 
L 516.851328 47.491747 
L 518.017472 47.491747 
L 518.017472 46.810501 
L 519.183616 46.810501 
L 519.183616 46.137288 
L 520.34976 46.137288 
L 520.34976 45.462857 
L 521.515904 45.462857 
L 521.515904 44.792457 
L 522.682049 44.792457 
L 522.682049 44.135802 
L 523.848193 44.135802 
L 523.848193 43.484512 
L 525.014337 43.484512 
L 525.014337 42.841601 
L 526.180481 42.841601 
L 526.180481 42.203795 
L 527.346625 42.203795 
L 527.346625 41.579037 
L 528.51277 41.579037 
L 528.51277 40.966517 
L 529.678914 40.966517 
L 529.678914 40.358636 
L 530.845058 40.358636 
L 530.845058 39.758787 
L 532.011202 39.758787 
L 532.011202 39.174859 
L 533.177346 39.174859 
L 533.177346 38.602268 
L 534.343491 38.602268 
L 534.343491 38.035593 
L 535.509635 38.035593 
L 535.509635 37.47782 
L 536.675779 37.47782 
L 536.675779 36.932923 
L 537.841923 36.932923 
L 537.841923 36.395855 
L 539.008067 36.395855 
L 539.008067 35.872241 
L 540.174212 35.872241 
L 540.174212 35.362025 
L 541.340356 35.362025 
L 541.340356 34.865148 
L 542.5065 34.865148 
L 542.5065 34.374273 
L 543.672644 34.374273 
L 543.672644 33.895751 
L 544.838788 33.895751 
L 544.838788 33.43341 
L 546.004933 33.43341 
L 546.004933 32.984205 
L 547.171077 32.984205 
L 547.171077 32.548108 
L 548.337221 32.548108 
L 548.337221 32.123957 
L 549.503365 32.123957 
L 549.503365 31.71155 
L 550.669509 31.71155 
L 550.669509 31.31312 
L 551.835654 31.31312 
L 551.835654 30.92742 
L 553.001798 30.92742 
L 553.001798 30.554132 
L 554.167942 30.554132 
L 554.167942 30.192181 
L 555.334086 30.192181 
L 555.334086 29.842004 
L 556.50023 29.842004 
L 556.50023 29.511487 
L 557.666375 29.511487 
L 557.666375 29.196977 
L 558.832519 29.196977 
L 558.832519 28.89598 
L 559.998663 28.89598 
L 559.998663 28.610902 
L 561.164807 28.610902 
L 561.164807 28.333045 
L 562.330951 28.333045 
L 562.330951 28.07279 
L 563.497096 28.07279 
L 563.497096 27.819175 
L 564.66324 27.819175 
L 564.66324 27.586091 
L 565.829384 27.586091 
L 565.829384 27.368753 
L 566.995528 27.368753 
L 566.995528 27.163274 
L 568.161672 27.163274 
L 568.161672 26.965538 
L 569.327817 26.965538 
L 569.327817 26.784331 
L 570.493961 26.784331 
L 570.493961 26.615071 
L 571.660105 26.615071 
L 571.660105 26.460889 
L 572.826249 26.460889 
L 572.826249 26.31967 
L 573.992393 26.31967 
L 573.992393 26.187672 
L 575.158538 26.187672 
L 575.158538 26.067766 
L 577.490826 25.96146 
L 577.490826 25.862085 
L 579.823114 25.775439 
L 579.823114 25.699842 
L 582.155403 25.635322 
L 582.155403 25.576805 
L 585.653835 25.483026 
L 585.653835 25.445879 
L 593.816845 25.336674 
L 593.816845 25.330584 
L 610.142864 25.32 
L 610.142864 25.32 
" style="fill:none;stroke:#2ca02c;stroke-linecap:square;stroke-width:2.25;"/>
   </g>
   <g id="line2d_24">
    <path clip-path="url(#p80a336c236)" d="M 102.870136 386.342373 
L 104.036281 386.342373 
L 104.036281 383.898119 
L 105.202425 383.898119 
L 105.202425 381.435307 
L 106.368569 381.435307 
L 106.368569 378.978468 
L 107.534713 378.978468 
L 107.534713 376.516932 
L 108.700857 376.516932 
L 108.700857 374.057368 
L 109.867002 374.057368 
L 109.867002 371.622539 
L 111.033146 371.622539 
L 111.033146 369.19522 
L 112.19929 369.19522 
L 112.19929 366.773439 
L 113.365434 366.773439 
L 113.365434 364.379062 
L 114.531578 364.379062 
L 114.531578 361.990223 
L 115.697723 361.990223 
L 115.697723 359.615101 
L 116.863867 359.615101 
L 116.863867 357.251867 
L 118.030011 357.251867 
L 118.030011 354.899102 
L 119.196155 354.899102 
L 119.196155 352.5876 
L 120.362299 352.5876 
L 120.362299 350.281579 
L 121.528444 350.281579 
L 121.528444 347.999336 
L 122.694588 347.999336 
L 122.694588 345.735478 
L 123.860732 345.735478 
L 123.860732 343.502183 
L 125.026876 343.502183 
L 125.026876 341.262683 
L 126.19302 341.262683 
L 126.19302 339.052674 
L 127.359165 339.052674 
L 127.359165 336.859048 
L 128.525309 336.859048 
L 128.525309 334.675572 
L 129.691453 334.675572 
L 129.691453 332.530373 
L 130.857597 332.530373 
L 130.857597 330.380708 
L 132.023741 330.380708 
L 132.023741 328.262854 
L 133.189886 328.262854 
L 133.189886 326.150132 
L 134.35603 326.150132 
L 134.35603 324.056897 
L 135.522174 324.056897 
L 135.522174 321.986106 
L 136.688318 321.986106 
L 136.688318 319.922304 
L 137.854462 319.922304 
L 137.854462 317.878655 
L 139.020607 317.878655 
L 139.020607 315.840515 
L 140.186751 315.840515 
L 140.186751 313.832737 
L 141.352895 313.832737 
L 141.352895 311.833426 
L 142.519039 311.833426 
L 142.519039 309.86085 
L 143.685183 309.86085 
L 143.685183 307.906804 
L 144.851328 307.906804 
L 144.851328 305.9585 
L 146.017472 305.9585 
L 146.017472 304.031945 
L 147.183616 304.031945 
L 147.183616 302.122236 
L 148.34976 302.122236 
L 148.34976 300.239148 
L 149.515904 300.239148 
L 149.515904 298.374039 
L 150.682049 298.374039 
L 150.682049 296.529518 
L 151.848193 296.529518 
L 151.848193 294.682532 
L 153.014337 294.682532 
L 153.014337 292.864863 
L 154.180481 292.864863 
L 154.180481 291.056473 
L 155.346625 291.056473 
L 155.346625 289.269078 
L 156.51277 289.269078 
L 156.51277 287.485539 
L 157.678914 287.485539 
L 157.678914 285.722734 
L 158.845058 285.722734 
L 158.845058 283.980981 
L 160.011202 283.980981 
L 160.011202 282.257671 
L 161.177346 282.257671 
L 161.177346 280.537956 
L 162.343491 280.537956 
L 162.343491 278.844485 
L 163.509635 278.844485 
L 163.509635 277.178329 
L 164.675779 277.178329 
L 164.675779 275.503648 
L 165.841923 275.503648 
L 165.841923 273.843611 
L 167.008067 273.843611 
L 167.008067 272.20712 
L 168.174212 272.20712 
L 168.174212 270.578923 
L 169.340356 270.578923 
L 169.340356 268.958758 
L 170.5065 268.958758 
L 170.5065 267.374057 
L 171.672644 267.374057 
L 171.672644 265.784804 
L 172.838788 265.784804 
L 172.838788 264.213877 
L 174.004933 264.213877 
L 174.004933 262.657391 
L 175.171077 262.657391 
L 175.171077 261.117289 
L 176.337221 261.117289 
L 176.337221 259.579362 
L 177.503365 259.579362 
L 177.503365 258.056397 
L 178.669509 258.056397 
L 178.669509 256.545902 
L 179.835654 256.545902 
L 179.835654 255.055241 
L 181.001798 255.055241 
L 181.001798 253.574816 
L 182.167942 253.574816 
L 182.167942 252.10573 
L 183.334086 252.10573 
L 183.334086 250.635164 
L 184.50023 250.635164 
L 184.50023 249.184318 
L 185.666375 249.184318 
L 185.666375 247.747912 
L 186.832519 247.747912 
L 186.832519 246.328643 
L 187.998663 246.328643 
L 187.998663 244.919263 
L 189.164807 244.919263 
L 189.164807 243.519075 
L 190.330951 243.519075 
L 190.330951 242.116133 
L 191.497096 242.116133 
L 191.497096 240.734765 
L 192.66324 240.734765 
L 192.66324 239.371665 
L 193.829384 239.371665 
L 193.829384 238.017787 
L 194.995528 238.017787 
L 194.995528 236.678639 
L 196.161672 236.678639 
L 196.161672 235.347872 
L 197.327817 235.347872 
L 197.327817 234.004027 
L 198.493961 234.004027 
L 198.493961 232.686135 
L 199.660105 232.686135 
L 199.660105 231.378596 
L 200.826249 231.378596 
L 200.826249 230.083612 
L 201.992393 230.083612 
L 201.992393 228.800952 
L 203.158538 228.800952 
L 203.158538 227.532125 
L 204.324682 227.532125 
L 204.324682 226.268168 
L 205.490826 226.268168 
L 205.490826 225.022568 
L 206.65697 225.022568 
L 206.65697 223.767978 
L 207.823114 223.767978 
L 207.823114 222.524524 
L 208.989259 222.524524 
L 208.989259 221.303484 
L 210.155403 221.303484 
L 210.155403 220.088302 
L 211.321547 220.088302 
L 211.321547 218.882545 
L 212.487691 218.882545 
L 212.487691 217.683602 
L 213.653835 217.683602 
L 213.653835 216.512671 
L 214.81998 216.512671 
L 214.81998 215.332257 
L 215.986124 215.332257 
L 215.986124 214.163733 
L 217.152268 214.163733 
L 217.152268 213.004227 
L 218.318412 213.004227 
L 218.318412 211.859017 
L 219.484556 211.859017 
L 219.484556 210.72819 
L 220.650701 210.72819 
L 220.650701 209.60931 
L 221.816845 209.60931 
L 221.816845 208.488719 
L 222.982989 208.488719 
L 222.982989 207.374681 
L 224.149133 207.374681 
L 224.149133 206.265428 
L 225.315277 206.265428 
L 225.315277 205.180708 
L 226.481422 205.180708 
L 226.481422 204.087027 
L 227.647566 204.087027 
L 227.647566 203.000189 
L 228.81371 203.000189 
L 228.81371 201.927821 
L 229.979854 201.927821 
L 229.979854 200.861804 
L 231.145998 200.861804 
L 231.145998 199.801703 
L 232.312143 199.801703 
L 232.312143 198.754737 
L 233.478287 198.754737 
L 233.478287 197.713484 
L 234.644431 197.713484 
L 234.644431 196.68383 
L 235.810575 196.68383 
L 235.810575 195.655829 
L 236.976719 195.655829 
L 236.976719 194.635165 
L 238.142864 194.635165 
L 238.142864 193.634625 
L 239.309008 193.634625 
L 239.309008 192.628923 
L 240.475152 192.628923 
L 240.475152 191.636067 
L 241.641296 191.636067 
L 241.641296 190.651737 
L 242.80744 190.651737 
L 242.80744 189.674076 
L 243.973585 189.674076 
L 243.973585 188.695053 
L 245.139729 188.695053 
L 245.139729 187.723597 
L 246.305873 187.723597 
L 246.305873 186.763161 
L 247.472017 186.763161 
L 247.472017 185.814585 
L 248.638161 185.814585 
L 248.638161 184.876651 
L 249.804306 184.876651 
L 249.804306 183.923523 
L 250.97045 183.923523 
L 250.97045 182.987416 
L 252.136594 182.987416 
L 252.136594 182.056441 
L 253.302738 182.056441 
L 253.302738 181.135587 
L 254.468882 181.135587 
L 254.468882 180.222302 
L 255.635027 180.222302 
L 255.635027 179.31496 
L 256.801171 179.31496 
L 256.801171 178.40933 
L 257.967315 178.40933 
L 257.967315 177.514661 
L 259.133459 177.514661 
L 259.133459 176.626719 
L 260.299603 176.626719 
L 260.299603 175.735704 
L 261.465748 175.735704 
L 261.465748 174.856172 
L 262.631892 174.856172 
L 262.631892 173.983135 
L 263.798036 173.983135 
L 263.798036 173.114274 
L 264.96418 173.114274 
L 264.96418 172.255997 
L 266.130324 172.255997 
L 266.130324 171.398793 
L 267.296469 171.398793 
L 267.296469 170.537703 
L 268.462613 170.537703 
L 268.462613 169.694215 
L 269.628757 169.694215 
L 269.628757 168.852931 
L 270.794901 168.852931 
L 270.794901 168.02197 
L 271.961045 168.02197 
L 271.961045 167.200405 
L 273.12719 167.200405 
L 273.12719 166.363586 
L 274.293334 166.363586 
L 274.293334 165.548574 
L 275.459478 165.548574 
L 275.459478 164.727269 
L 276.625622 164.727269 
L 276.625622 163.919855 
L 277.791766 163.919855 
L 277.791766 163.113252 
L 278.957911 163.113252 
L 278.957911 162.30865 
L 280.124055 162.30865 
L 280.124055 161.502888 
L 281.290199 161.502888 
L 281.290199 160.704695 
L 282.456343 160.704695 
L 282.456343 159.909894 
L 283.622487 159.909894 
L 283.622487 159.125532 
L 284.788632 159.125532 
L 284.788632 158.344187 
L 285.954776 158.344187 
L 285.954776 157.565132 
L 287.12092 157.565132 
L 287.12092 156.788339 
L 288.287064 156.788339 
L 288.287064 156.020883 
L 289.453208 156.020883 
L 289.453208 155.258792 
L 290.619353 155.258792 
L 290.619353 154.488668 
L 291.785497 154.488668 
L 291.785497 153.73777 
L 292.951641 153.73777 
L 292.951641 152.987945 
L 294.117785 152.987945 
L 294.117785 152.231509 
L 295.283929 152.231509 
L 295.283929 151.484525 
L 296.450074 151.484525 
L 296.450074 150.733772 
L 297.616218 150.733772 
L 297.616218 149.994879 
L 298.782362 149.994879 
L 298.782362 149.251434 
L 299.948506 149.251434 
L 299.948506 148.520022 
L 301.11465 148.520022 
L 301.11465 147.784203 
L 302.280795 147.784203 
L 302.280795 147.042613 
L 303.446939 147.042613 
L 303.446939 146.309752 
L 304.613083 146.309752 
L 304.613083 145.581762 
L 305.779227 145.581762 
L 305.779227 144.865198 
L 306.945371 144.865198 
L 306.945371 144.145501 
L 308.111516 144.145501 
L 308.111516 143.42798 
L 309.27766 143.42798 
L 309.27766 142.710516 
L 310.443804 142.710516 
L 310.443804 141.995952 
L 311.609948 141.995952 
L 311.609948 141.287188 
L 312.776092 141.287188 
L 312.776092 140.577322 
L 313.942237 140.577322 
L 313.942237 139.872936 
L 315.108381 139.872936 
L 315.108381 139.169798 
L 316.274525 139.169798 
L 316.274525 138.463904 
L 317.440669 138.463904 
L 317.440669 137.753632 
L 318.606813 137.753632 
L 318.606813 137.061513 
L 319.772958 137.061513 
L 319.772958 136.360143 
L 320.939102 136.360143 
L 320.939102 135.659208 
L 322.105246 135.659208 
L 322.105246 134.960912 
L 323.27139 134.960912 
L 323.27139 134.261572 
L 324.437534 134.261572 
L 324.437534 133.564639 
L 325.603679 133.564639 
L 325.603679 132.86962 
L 326.769823 132.86962 
L 326.769823 132.176746 
L 327.935967 132.176746 
L 327.935967 131.485555 
L 329.102111 131.485555 
L 329.102111 130.800366 
L 330.268255 130.800366 
L 330.268255 130.121527 
L 331.4344 130.121527 
L 331.4344 129.4308 
L 332.600544 129.4308 
L 332.600544 128.741232 
L 333.766688 128.741232 
L 333.766688 128.056449 
L 334.932832 128.056449 
L 334.932832 127.365373 
L 336.098976 127.365373 
L 336.098976 126.683548 
L 337.265121 126.683548 
L 337.265121 125.994734 
L 338.431265 125.994734 
L 338.431265 125.311662 
L 339.597409 125.311662 
L 339.597409 124.632969 
L 340.763553 124.632969 
L 340.763553 123.950013 
L 341.929697 123.950013 
L 341.929697 123.270101 
L 343.095842 123.270101 
L 343.095842 122.585956 
L 344.261986 122.585956 
L 344.261986 121.906306 
L 345.42813 121.906306 
L 345.42813 121.23115 
L 346.594274 121.23115 
L 346.594274 120.542829 
L 347.760418 120.542829 
L 347.760418 119.868166 
L 348.926563 119.868166 
L 348.926563 119.189444 
L 350.092707 119.189444 
L 350.092707 118.51365 
L 351.258851 118.51365 
L 351.258851 117.830056 
L 352.424995 117.830056 
L 352.424995 117.153189 
L 353.591139 117.153189 
L 353.591139 116.476671 
L 354.757284 116.476671 
L 354.757284 115.794556 
L 355.923428 115.794556 
L 355.923428 115.112933 
L 357.089572 115.112933 
L 357.089572 114.440126 
L 358.255716 114.440126 
L 358.255716 113.763579 
L 359.421861 113.763579 
L 359.421861 113.085813 
L 360.588005 113.085813 
L 360.588005 112.411643 
L 361.754149 112.411643 
L 361.754149 111.734168 
L 362.920293 111.734168 
L 362.920293 111.055271 
L 364.086437 111.055271 
L 364.086437 110.376723 
L 365.252582 110.376723 
L 365.252582 109.701654 
L 366.418726 109.701654 
L 366.418726 109.024526 
L 367.58487 109.024526 
L 367.58487 108.35343 
L 368.751014 108.35343 
L 368.751014 107.681 
L 369.917158 107.681 
L 369.917158 107.008483 
L 371.083303 107.008483 
L 371.083303 106.334893 
L 372.249447 106.334893 
L 372.249447 105.663768 
L 373.415591 105.663768 
L 373.415591 104.986873 
L 374.581735 104.986873 
L 374.581735 104.306294 
L 375.747879 104.306294 
L 375.747879 103.632037 
L 376.914024 103.632037 
L 376.914024 102.960332 
L 378.080168 102.960332 
L 378.080168 102.291034 
L 379.246312 102.291034 
L 379.246312 101.619445 
L 380.412456 101.619445 
L 380.412456 100.947943 
L 381.5786 100.947943 
L 381.5786 100.274875 
L 382.744745 100.274875 
L 382.744745 99.601343 
L 383.910889 99.601343 
L 383.910889 98.919779 
L 385.077033 98.919779 
L 385.077033 98.246769 
L 386.243177 98.246769 
L 386.243177 97.57982 
L 387.409321 97.57982 
L 387.409321 96.910782 
L 388.575466 96.910782 
L 388.575466 96.241136 
L 389.74161 96.241136 
L 389.74161 95.558325 
L 390.907754 95.558325 
L 390.907754 94.880647 
L 392.073898 94.880647 
L 392.073898 94.212189 
L 393.240042 94.212189 
L 393.240042 93.536831 
L 394.406187 93.536831 
L 394.406187 92.859355 
L 395.572331 92.859355 
L 395.572331 92.189448 
L 396.738475 92.189448 
L 396.738475 91.520613 
L 397.904619 91.520613 
L 397.904619 90.847517 
L 399.070763 90.847517 
L 399.070763 90.17529 
L 400.236908 90.17529 
L 400.236908 89.508398 
L 401.403052 89.508398 
L 401.403052 88.839709 
L 402.569196 88.839709 
L 402.569196 88.17247 
L 403.73534 88.17247 
L 403.73534 87.501808 
L 404.901484 87.501808 
L 404.901484 86.839992 
L 406.067629 86.839992 
L 406.067629 86.174869 
L 407.233773 86.174869 
L 407.233773 85.509109 
L 408.399917 85.509109 
L 408.399917 84.849583 
L 409.566061 84.849583 
L 409.566061 84.179531 
L 410.732205 84.179531 
L 410.732205 83.513683 
L 411.89835 83.513683 
L 411.89835 82.849575 
L 413.064494 82.849575 
L 413.064494 82.196603 
L 414.230638 82.196603 
L 414.230638 81.542297 
L 415.396782 81.542297 
L 415.396782 80.88596 
L 416.562926 80.88596 
L 416.562926 80.2309 
L 417.729071 80.2309 
L 417.729071 79.573491 
L 418.895215 79.573491 
L 418.895215 78.92165 
L 420.061359 78.92165 
L 420.061359 78.264849 
L 421.227503 78.264849 
L 421.227503 77.608281 
L 422.393647 77.608281 
L 422.393647 76.960673 
L 423.559792 76.960673 
L 423.559792 76.30889 
L 424.725936 76.30889 
L 424.725936 75.660818 
L 425.89208 75.660818 
L 425.89208 75.002742 
L 427.058224 75.002742 
L 427.058224 74.357744 
L 428.224368 74.357744 
L 428.224368 73.71669 
L 429.390513 73.71669 
L 429.390513 73.074156 
L 430.556657 73.074156 
L 430.556657 72.431768 
L 431.722801 72.431768 
L 431.722801 71.804865 
L 432.888945 71.804865 
L 432.888945 71.177555 
L 434.055089 71.177555 
L 434.055089 70.5423 
L 435.221234 70.5423 
L 435.221234 69.909481 
L 436.387378 69.909481 
L 436.387378 69.280171 
L 437.553522 69.280171 
L 437.553522 68.645235 
L 438.719666 68.645235 
L 438.719666 68.011546 
L 439.88581 68.011546 
L 439.88581 67.390936 
L 441.051955 67.390936 
L 441.051955 66.768092 
L 442.218099 66.768092 
L 442.218099 66.147858 
L 443.384243 66.147858 
L 443.384243 65.523506 
L 444.550387 65.523506 
L 444.550387 64.908811 
L 445.716531 64.908811 
L 445.716531 64.285242 
L 446.882676 64.285242 
L 446.882676 63.672113 
L 448.04882 63.672113 
L 448.04882 63.059882 
L 449.214964 63.059882 
L 449.214964 62.443099 
L 450.381108 62.443099 
L 450.381108 61.838698 
L 451.547252 61.838698 
L 451.547252 61.233978 
L 452.713397 61.233978 
L 452.713397 60.634506 
L 453.879541 60.634506 
L 453.879541 60.044227 
L 455.045685 60.044227 
L 455.045685 59.45534 
L 456.211829 59.45534 
L 456.211829 58.863089 
L 457.377973 58.863089 
L 457.377973 58.270606 
L 458.544118 58.270606 
L 458.544118 57.681167 
L 459.710262 57.681167 
L 459.710262 57.095731 
L 460.876406 57.095731 
L 460.876406 56.511048 
L 462.04255 56.511048 
L 462.04255 55.927061 
L 463.208694 55.927061 
L 463.208694 55.347714 
L 464.374839 55.347714 
L 464.374839 54.770803 
L 465.540983 54.770803 
L 465.540983 54.200097 
L 466.707127 54.200097 
L 466.707127 53.635742 
L 467.873271 53.635742 
L 467.873271 53.077448 
L 469.039415 53.077448 
L 469.039415 52.515238 
L 470.20556 52.515238 
L 470.20556 51.960249 
L 471.371704 51.960249 
L 471.371704 51.406536 
L 472.537848 51.406536 
L 472.537848 50.862596 
L 473.703992 50.862596 
L 473.703992 50.323556 
L 474.870136 50.323556 
L 474.870136 49.781703 
L 476.036281 49.781703 
L 476.036281 49.251275 
L 477.202425 49.251275 
L 477.202425 48.718817 
L 478.368569 48.718817 
L 478.368569 48.191637 
L 479.534713 48.191637 
L 479.534713 47.669619 
L 480.700857 47.669619 
L 480.700857 47.15253 
L 481.867002 47.15253 
L 481.867002 46.639849 
L 483.033146 46.639849 
L 483.033146 46.139579 
L 484.19929 46.139579 
L 484.19929 45.639976 
L 485.365434 45.639976 
L 485.365434 45.138169 
L 486.531578 45.138169 
L 486.531578 44.646569 
L 487.697723 44.646569 
L 487.697723 44.155231 
L 488.863867 44.155231 
L 488.863867 43.677521 
L 490.030011 43.677521 
L 490.030011 43.194882 
L 491.196155 43.194882 
L 491.196155 42.720971 
L 492.362299 42.720971 
L 492.362299 42.259123 
L 493.528444 42.259123 
L 493.528444 41.806032 
L 494.694588 41.806032 
L 494.694588 41.352361 
L 495.860732 41.352361 
L 495.860732 40.905563 
L 497.026876 40.905563 
L 497.026876 40.4563 
L 498.19302 40.4563 
L 498.19302 40.014693 
L 499.359165 40.014693 
L 499.359165 39.584627 
L 500.525309 39.584627 
L 500.525309 39.150906 
L 501.691453 39.150906 
L 501.691453 38.727365 
L 502.857597 38.727365 
L 502.857597 38.308926 
L 504.023741 38.308926 
L 504.023741 37.901652 
L 505.189886 37.901652 
L 505.189886 37.495625 
L 506.35603 37.495625 
L 506.35603 37.101458 
L 507.522174 37.101458 
L 507.522174 36.709118 
L 508.688318 36.709118 
L 508.688318 36.325593 
L 509.854462 36.325593 
L 509.854462 35.944968 
L 511.020607 35.944968 
L 511.020607 35.566488 
L 512.186751 35.566488 
L 512.186751 35.19868 
L 513.352895 35.19868 
L 513.352895 34.836005 
L 514.519039 34.836005 
L 514.519039 34.473909 
L 515.685183 34.473909 
L 515.685183 34.12669 
L 516.851328 34.12669 
L 516.851328 33.786923 
L 518.017472 33.786923 
L 518.017472 33.449156 
L 519.183616 33.449156 
L 519.183616 33.122989 
L 520.34976 33.122989 
L 520.34976 32.798243 
L 521.515904 32.798243 
L 521.515904 32.485037 
L 522.682049 32.485037 
L 522.682049 32.178502 
L 523.848193 32.178502 
L 523.848193 31.878432 
L 525.014337 31.878432 
L 525.014337 31.583235 
L 526.180481 31.583235 
L 526.180481 31.300042 
L 527.346625 31.300042 
L 527.346625 31.0203 
L 528.51277 31.0203 
L 528.51277 30.749867 
L 529.678914 30.749867 
L 529.678914 30.486828 
L 530.845058 30.486828 
L 530.845058 30.231299 
L 532.011202 30.231299 
L 532.011202 29.989342 
L 533.177346 29.989342 
L 533.177346 29.745876 
L 534.343491 29.745876 
L 534.343491 29.510762 
L 535.509635 29.510762 
L 535.509635 29.28281 
L 536.675779 29.28281 
L 536.675779 29.056743 
L 537.841923 29.056743 
L 537.841923 28.841725 
L 539.008067 28.841725 
L 539.008067 28.634101 
L 540.174212 28.634101 
L 540.174212 28.43564 
L 541.340356 28.43564 
L 541.340356 28.243529 
L 542.5065 28.243529 
L 542.5065 28.056551 
L 543.672644 28.056551 
L 543.672644 27.876533 
L 544.838788 27.876533 
L 544.838788 27.705011 
L 546.004933 27.705011 
L 546.004933 27.541057 
L 547.171077 27.541057 
L 547.171077 27.3856 
L 548.337221 27.3856 
L 548.337221 27.235305 
L 549.503365 27.235305 
L 549.503365 27.092606 
L 550.669509 27.092606 
L 550.669509 26.95449 
L 551.835654 26.95449 
L 551.835654 26.824377 
L 553.001798 26.824377 
L 553.001798 26.703717 
L 554.167942 26.703717 
L 554.167942 26.585812 
L 556.50023 26.47968 
L 556.50023 26.374447 
L 558.832519 26.275912 
L 558.832519 26.187034 
L 561.164807 26.101781 
L 561.164807 26.018673 
L 563.497096 25.944062 
L 563.497096 25.877918 
L 565.829384 25.814876 
L 565.829384 25.756736 
L 569.327817 25.655215 
L 569.327817 25.609862 
L 573.992393 25.504948 
L 573.992393 25.476037 
L 582.155403 25.368948 
L 582.155403 25.359698 
L 610.142864 25.32 
L 610.142864 25.32 
" style="fill:none;stroke:#ff7f0e;stroke-linecap:square;stroke-width:2.25;"/>
   </g>
   <g id="line2d_25">
    <path clip-path="url(#p80a336c236)" d="M 102.870136 387.498863 
L 104.036281 387.498863 
L 104.036281 384.883928 
L 105.202425 384.883928 
L 105.202425 378.562292 
L 106.368569 378.562292 
L 106.368569 370.36531 
L 107.534713 370.36531 
L 107.534713 361.655821 
L 108.700857 361.655821 
L 108.700857 352.753148 
L 109.867002 352.753148 
L 109.867002 343.965452 
L 111.033146 343.965452 
L 111.033146 334.934001 
L 112.19929 334.934001 
L 112.19929 326.380578 
L 113.365434 326.380578 
L 113.365434 318.53502 
L 114.531578 318.53502 
L 114.531578 310.615547 
L 115.697723 310.615547 
L 115.697723 302.996781 
L 116.863867 302.996781 
L 116.863867 296.265203 
L 118.030011 296.265203 
L 118.030011 289.382604 
L 119.196155 289.382604 
L 119.196155 283.39566 
L 120.362299 283.39566 
L 120.362299 277.097976 
L 121.528444 277.097976 
L 121.528444 271.684116 
L 122.694588 271.684116 
L 122.694588 266.632786 
L 123.860732 266.632786 
L 123.860732 261.793605 
L 125.026876 261.793605 
L 125.026876 257.195946 
L 126.19302 257.195946 
L 126.19302 252.795095 
L 127.359165 252.795095 
L 127.359165 248.586064 
L 128.525309 248.586064 
L 128.525309 244.551368 
L 129.691453 244.551368 
L 129.691453 240.666678 
L 130.857597 240.666678 
L 130.857597 236.90459 
L 132.023741 236.90459 
L 132.023741 234.136663 
L 133.189886 234.136663 
L 133.189886 230.635411 
L 134.35603 230.635411 
L 134.35603 227.206711 
L 135.522174 227.206711 
L 135.522174 224.878072 
L 136.688318 224.878072 
L 136.688318 221.663463 
L 137.854462 221.663463 
L 137.854462 218.517782 
L 139.020607 218.517782 
L 139.020607 216.298899 
L 140.186751 216.298899 
L 140.186751 213.269209 
L 141.352895 213.269209 
L 141.352895 211.351787 
L 142.519039 211.351787 
L 142.519039 208.422546 
L 143.685183 208.422546 
L 143.685183 205.532335 
L 144.851328 205.532335 
L 144.851328 203.548045 
L 146.017472 203.548045 
L 146.017472 201.904797 
L 147.183616 201.904797 
L 147.183616 199.120747 
L 148.34976 199.120747 
L 148.34976 197.21565 
L 149.515904 197.21565 
L 149.515904 194.456364 
L 150.682049 194.456364 
L 150.682049 193.013376 
L 151.848193 193.013376 
L 151.848193 190.311564 
L 153.014337 190.311564 
L 153.014337 188.456314 
L 154.180481 188.456314 
L 154.180481 187.133666 
L 155.346625 187.133666 
L 155.346625 184.458184 
L 156.51277 184.458184 
L 156.51277 182.650142 
L 157.678914 182.650142 
L 157.678914 181.417765 
L 158.845058 181.417765 
L 158.845058 178.810805 
L 160.011202 178.810805 
L 160.011202 177.013956 
L 161.177346 177.013956 
L 161.177346 175.873937 
L 162.343491 175.873937 
L 162.343491 174.081351 
L 163.509635 174.081351 
L 163.509635 171.508956 
L 164.675779 171.508956 
L 164.675779 170.423046 
L 165.841923 170.423046 
L 165.841923 168.642987 
L 167.008067 168.642987 
L 167.008067 167.616958 
L 168.174212 167.616958 
L 168.174212 165.821037 
L 169.340356 165.821037 
L 169.340356 163.305623 
L 170.5065 163.305623 
L 170.5065 162.322946 
L 171.672644 162.322946 
L 171.672644 160.558981 
L 172.838788 160.558981 
L 172.838788 159.622555 
L 174.004933 159.622555 
L 174.004933 157.842583 
L 175.171077 157.842583 
L 175.171077 156.9353 
L 176.337221 156.9353 
L 176.337221 154.467964 
L 177.503365 154.467964 
L 177.503365 152.684135 
L 178.669509 152.684135 
L 178.669509 151.808054 
L 179.835654 151.808054 
L 179.835654 150.03507 
L 181.001798 150.03507 
L 181.001798 149.2093 
L 182.167942 149.2093 
L 182.167942 147.437853 
L 183.334086 147.437853 
L 183.334086 146.636847 
L 184.50023 146.636847 
L 184.50023 144.873056 
L 185.666375 144.873056 
L 185.666375 144.095219 
L 186.832519 144.095219 
L 186.832519 142.332298 
L 187.998663 142.332298 
L 187.998663 141.586967 
L 189.164807 141.586967 
L 189.164807 139.811171 
L 190.330951 139.811171 
L 190.330951 137.433989 
L 191.497096 137.433989 
L 191.497096 136.71844 
L 192.66324 136.71844 
L 192.66324 134.963319 
L 193.829384 134.963319 
L 193.829384 134.275839 
L 194.995528 134.275839 
L 194.995528 132.512686 
L 196.161672 132.512686 
L 196.161672 131.839038 
L 197.327817 131.839038 
L 197.327817 130.075885 
L 198.493961 130.075885 
L 198.493961 129.417751 
L 199.660105 129.417751 
L 199.660105 127.673069 
L 200.826249 127.673069 
L 200.826249 127.04721 
L 201.992393 127.04721 
L 201.992393 125.300643 
L 203.158538 125.300643 
L 203.158538 124.691747 
L 205.490826 124.632592 
L 205.490826 122.880893 
L 206.65697 122.880893 
L 206.65697 122.306939 
L 207.823114 122.306939 
L 207.823114 120.553906 
L 208.989259 120.553906 
L 208.989259 119.98033 
L 210.155403 119.98033 
L 210.155403 118.238229 
L 211.321547 118.238229 
L 211.321547 117.682051 
L 212.487691 117.682051 
L 212.487691 115.924234 
L 213.653835 115.924234 
L 213.653835 115.378524 
L 214.81998 115.378524 
L 214.81998 113.626622 
L 215.986124 113.626622 
L 215.986124 113.110171 
L 217.152268 113.110171 
L 217.152268 111.359284 
L 218.318412 111.359284 
L 218.318412 110.856172 
L 219.484556 110.856172 
L 219.484556 109.113173 
L 221.816845 109.081884 
L 221.816845 108.598114 
L 222.982989 108.598114 
L 222.982989 106.853403 
L 224.149133 106.853403 
L 224.149133 106.376447 
L 225.315277 106.376447 
L 225.315277 104.64264 
L 226.481422 104.64264 
L 226.481422 104.188302 
L 227.647566 104.188302 
L 227.647566 102.462179 
L 228.81371 102.462179 
L 228.81371 102.022022 
L 231.145998 102.002303 
L 231.145998 100.264639 
L 232.312143 100.264639 
L 232.312143 99.835762 
L 233.478287 99.835762 
L 233.478287 98.090993 
L 234.644431 98.090993 
L 234.644431 97.673947 
L 235.810575 97.673947 
L 235.810575 95.945156 
L 236.976719 95.945156 
L 236.976719 95.53446 
L 239.309008 95.522107 
L 239.309008 93.795636 
L 240.475152 93.795636 
L 240.475152 93.410023 
L 241.641296 93.410023 
L 241.641296 91.67926 
L 242.80744 91.67926 
L 242.80744 91.294895 
L 245.139729 91.285296 
L 245.139729 89.568627 
L 246.305873 89.568627 
L 246.305873 89.200645 
L 247.472017 89.200645 
L 247.472017 87.496647 
L 248.638161 87.496647 
L 248.638161 87.135798 
L 249.804306 87.135798 
L 249.804306 85.440993 
L 252.136594 85.432004 
L 252.136594 85.079506 
L 253.302738 85.079506 
L 253.302738 83.382816 
L 254.468882 83.382816 
L 254.468882 83.043658 
L 256.801171 83.038757 
L 256.801171 81.364279 
L 257.967315 81.364279 
L 257.967315 81.031442 
L 259.133459 81.031442 
L 259.133459 79.364881 
L 260.299603 79.364881 
L 260.299603 79.050429 
L 262.631892 79.046253 
L 262.631892 77.379721 
L 263.798036 77.379721 
L 263.798036 77.068197 
L 264.96418 77.068197 
L 264.96418 75.424892 
L 267.296469 75.421209 
L 267.296469 75.119023 
L 268.462613 75.119023 
L 268.462613 73.481923 
L 269.628757 73.481923 
L 269.628757 73.1947 
L 271.961045 73.191365 
L 271.961045 71.569808 
L 273.12719 71.569808 
L 273.12719 71.291749 
L 274.293334 71.291749 
L 274.293334 69.677905 
L 276.625622 69.675208 
L 276.625622 69.400889 
L 277.791766 69.400889 
L 277.791766 67.801515 
L 278.957911 67.801515 
L 278.957911 67.535983 
L 281.290199 67.533837 
L 281.290199 65.967666 
L 282.456343 65.967666 
L 282.456343 65.714718 
L 283.622487 65.714718 
L 283.622487 64.166641 
L 285.954776 64.164379 
L 285.954776 63.910939 
L 287.12092 63.910939 
L 287.12092 62.378318 
L 289.453208 62.376462 
L 289.453208 62.13346 
L 290.619353 62.13346 
L 290.619353 60.63149 
L 291.785497 60.63149 
L 291.785497 60.399769 
L 294.117785 60.397594 
L 294.117785 58.915923 
L 295.283929 58.915923 
L 295.283929 58.689827 
L 297.616218 58.68829 
L 297.616218 57.226859 
L 298.782362 57.226859 
L 298.782362 57.004475 
L 301.11465 57.00317 
L 301.11465 55.572882 
L 302.280795 55.572882 
L 302.280795 55.359748 
L 303.446939 55.359748 
L 303.446939 53.949614 
L 305.779227 53.948078 
L 305.779227 53.742744 
L 306.945371 53.742744 
L 306.945371 52.363116 
L 309.27766 52.361492 
L 309.27766 52.159783 
L 310.443804 52.159783 
L 310.443804 50.821274 
L 312.776092 50.81994 
L 312.776092 50.629859 
L 313.942237 50.629859 
L 313.942237 49.318753 
L 316.274525 49.317303 
L 316.274525 49.131485 
L 317.440669 49.131485 
L 317.440669 47.869762 
L 319.772958 47.868805 
L 319.772958 47.696123 
L 320.939102 47.696123 
L 320.939102 46.457395 
L 323.27139 46.456351 
L 323.27139 46.289614 
L 324.437534 46.289614 
L 324.437534 45.101806 
L 326.769823 45.100617 
L 326.769823 44.94081 
L 327.935967 44.94081 
L 327.935967 43.769299 
L 330.268255 43.768371 
L 330.268255 43.614828 
L 332.600544 43.614103 
L 332.600544 42.493338 
L 333.766688 42.493338 
L 333.766688 42.351394 
L 336.098976 42.350698 
L 336.098976 41.276358 
L 337.265121 41.276358 
L 337.265121 41.137952 
L 339.597409 41.137024 
L 339.597409 40.104702 
L 340.763553 40.104702 
L 340.763553 39.972501 
L 343.095842 39.971834 
L 343.095842 38.978051 
L 345.42813 38.977326 
L 345.42813 38.850402 
L 346.594274 38.850402 
L 346.594274 37.894751 
L 348.926563 37.89391 
L 348.926563 37.776585 
L 350.092707 37.776585 
L 350.092707 36.862284 
L 352.424995 36.861936 
L 352.424995 36.749802 
L 354.757284 36.749483 
L 354.757284 35.882825 
L 358.255716 35.775099 
L 358.255716 34.951358 
L 361.754149 34.849112 
L 361.754149 34.074117 
L 366.418726 33.981614 
L 366.418726 33.25084 
L 369.917158 33.161295 
L 369.917158 32.478571 
L 373.415591 32.396942 
L 373.415591 31.766269 
L 378.080168 31.686844 
L 378.080168 31.089431 
L 381.5786 31.020387 
L 381.5786 30.465573 
L 386.243177 30.400617 
L 386.243177 29.890894 
L 389.74161 29.832406 
L 389.74161 29.357045 
L 394.406187 29.303718 
L 394.406187 28.867127 
L 397.904619 28.819657 
L 397.904619 28.426244 
L 402.569196 28.383473 
L 402.569196 28.024944 
L 406.067629 27.985623 
L 406.067629 27.658238 
L 410.732205 27.623411 
L 410.732205 27.333375 
L 414.230638 27.303623 
L 414.230638 27.039541 
L 418.895215 27.011732 
L 418.895215 26.777168 
L 423.559792 26.753361 
L 423.559792 26.544809 
L 427.058224 26.524946 
L 427.058224 26.343274 
L 431.722801 26.327761 
L 431.722801 26.169607 
L 436.387378 26.155601 
L 436.387378 26.016121 
L 441.051955 26.005595 
L 441.051955 25.889575 
L 446.882676 25.779325 
L 446.882676 25.771409 
L 453.879541 25.678326 
L 453.879541 25.609833 
L 463.208694 25.543341 
L 463.208694 25.496887 
L 481.867002 25.399338 
L 481.867002 25.380779 
L 610.142864 25.32 
L 610.142864 25.32 
" style="fill:none;stroke:#1f77b4;stroke-linecap:square;stroke-width:2.25;"/>
   </g>
   <g id="patch_3">
    <path d="M 77.5065 387.72 
L 77.5065 7.2 
" style="fill:none;stroke:#000000;stroke-linecap:square;stroke-linejoin:miter;stroke-width:1.875;"/>
   </g>
   <g id="patch_4">
    <path d="M 77.5065 387.72 
L 635.5065 387.72 
" style="fill:none;stroke:#000000;stroke-linecap:square;stroke-linejoin:miter;stroke-width:1.875;"/>
   </g>
  </g>
 </g>
 <defs>
  <clipPath id="p80a336c236">
   <rect height="380.52" width="558" x="77.5065" y="7.2"/>
  </clipPath>
 </defs>
</svg>
