<?xml version="1.0" encoding="UTF-8" standalone="no"?>
<svg
   height="410.49249"
   width="411.28638"
   version="1.1"
   id="svg252"
   sodipodi:docname="GIANT-MYOZ1_vs_TNNI2-skeletal_muscle.svg"
   inkscape:version="1.1.1 (26b7af14f2, 2022-01-19)"
   xmlns:inkscape="http://www.inkscape.org/namespaces/inkscape"
   xmlns:sodipodi="http://sodipodi.sourceforge.net/DTD/sodipodi-0.dtd"
   xmlns="http://www.w3.org/2000/svg"
   xmlns:svg="http://www.w3.org/2000/svg">
  <defs
     id="defs256">
    <linearGradient
       id="legend2"
       x1="3.5533452"
       y1="0"
       x2="73.909584"
       y2="0"
       spreadMethod="pad"
       gradientTransform="matrix(4.9990019,0,0,0.10098994,22.321037,410.78561)"
       gradientUnits="userSpaceOnUse">
      <stop
         offset="0%"
         style="stop-color: rgb(44, 160, 44);"
         id="stop2" />
      <stop
         offset="25%"
         style="stop-color: rgb(228, 164, 76);"
         id="stop4" />
      <stop
         offset="50%"
         style="stop-color: rgb(219, 109, 61);"
         id="stop6" />
      <stop
         offset="75%"
         style="stop-color: rgb(211, 55, 47);"
         id="stop8" />
      <stop
         offset="100%"
         style="stop-color: rgb(202, 0, 32);"
         id="stop10" />
    </linearGradient>
    <clipPath
       clipPathUnits="userSpaceOnUse"
       id="clipPath1221">
      <rect
         style="fill:none;stroke:#000000;stroke-width:1.35509;stroke-linecap:round;stroke-linejoin:round;stroke-miterlimit:4;stroke-dasharray:1.35509, 16.261;stroke-dashoffset:0"
         id="rect1223"
         width="403.2023"
         height="396.51294"
         x="74.897202"
         y="130.29227" />
    </clipPath>
    <linearGradient
       id="legend2-1"
       x1="3.5533452"
       y1="0"
       x2="73.909584"
       y2="0"
       spreadMethod="pad"
       gradientTransform="matrix(7.0356236,0,0,0.14213381,-25,15.27081)"
       gradientUnits="userSpaceOnUse">
      <stop
         offset="0%"
         style="stop-color: rgb(44, 160, 44);"
         id="stop2-9" />
      <stop
         offset="25%"
         style="stop-color: rgb(228, 164, 76);"
         id="stop4-6" />
      <stop
         offset="50%"
         style="stop-color: rgb(219, 109, 61);"
         id="stop6-9" />
      <stop
         offset="75%"
         style="stop-color: rgb(211, 55, 47);"
         id="stop8-3" />
      <stop
         offset="100%"
         style="stop-color: rgb(202, 0, 32);"
         id="stop10-3" />
    </linearGradient>
    <clipPath
       clipPathUnits="userSpaceOnUse"
       id="clipPath1307">
      <rect
         style="fill:none;stroke:#000000;stroke-width:1.33333;stroke-linecap:round;stroke-linejoin:round;stroke-dasharray:1.33333, 16"
         id="rect1309"
         width="472.39386"
         height="499.33911"
         x="36.83596"
         y="47.54314" />
    </clipPath>
    <clipPath
       clipPathUnits="userSpaceOnUse"
       id="clipPath1181">
      <rect
         style="fill:none;stroke:#000000;stroke-width:1.33333;stroke-linecap:round;stroke-linejoin:round;stroke-dasharray:1.33333, 16"
         id="rect1183"
         width="469.34454"
         height="474.88599"
         x="37.243046"
         y="61.07563" />
    </clipPath>
    <clipPath
       clipPathUnits="userSpaceOnUse"
       id="clipPath1126">
      <rect
         style="fill:none;stroke:#000000;stroke-width:1.33333;stroke-linecap:round;stroke-linejoin:round;stroke-dasharray:1.33333, 16"
         id="rect1128"
         width="466.70071"
         height="479.67831"
         x="37.267841"
         y="58.058514" />
    </clipPath>
  </defs>
  <sodipodi:namedview
     id="namedview254"
     pagecolor="#ffffff"
     bordercolor="#666666"
     borderopacity="1.0"
     inkscape:pageshadow="2"
     inkscape:pageopacity="0.0"
     inkscape:pagecheckerboard="0"
     showgrid="false"
     inkscape:zoom="1.4066667"
     inkscape:cx="-26.303317"
     inkscape:cy="174.17061"
     inkscape:window-width="1714"
     inkscape:window-height="1371"
     inkscape:window-x="4"
     inkscape:window-y="28"
     inkscape:window-maximized="0"
     inkscape:current-layer="svg252"
     fit-margin-top="0"
     fit-margin-left="0"
     fit-margin-right="0"
     fit-margin-bottom="0" />
  <rect
     style="fill:#ffffff;fill-opacity:1;stroke:none;stroke-width:0.864779;stroke-linecap:round;stroke-linejoin:round;stroke-miterlimit:4;stroke-dasharray:0.864779, 10.3773;stroke-dashoffset:0"
     id="rect1456"
     width="410.4216"
     height="429.62772"
     x="0.4323895"
     y="0.4323895" />
  <g
     id="g199"
     clip-path="url(#clipPath1126)"
     transform="matrix(0.84180712,0,0,0.84180712,-20.512192,-43.105693)">
    <rect
       class="canvas"
       width="540"
       height="600"
       style="fill:none"
       id="rect2"
       x="0"
       y="0" />
    <g
       transform="matrix(1.2,0,0,1.2,-45.388382,-98.661201)"
       id="g197">
      <path
         class="edge"
         id="246"
         style="fill:none;stroke:#b1b347;stroke-width:1"
         d="m 403.44133,231.5166 c 0,0 -159.59255,-44.75022 -305.977747,-43.34605" />
      <path
         class="edge"
         id="256"
         style="fill:none;stroke:#bab449;stroke-width:1"
         d="m 403.44133,231.5166 c 0,0 37.37225,147.56741 7.04185,267.8635" />
      <path
         class="edge"
         id="258"
         style="fill:none;stroke:#b1b347;stroke-width:1"
         d="m 403.44133,231.5166 c 0,0 -61.77742,83.14468 -139.32051,146.13263" />
      <path
         class="edge"
         id="273"
         style="fill:none;stroke:#bab449;stroke-width:1"
         d="m 403.44133,231.5166 c 0,0 67.0587,44.31387 11.345,102.67186" />
      <path
         class="edge"
         id="275"
         style="fill:none;stroke:#b1b347;stroke-width:1"
         d="m 403.44133,231.5166 c 0,0 76.62591,3.29271 24.74239,57.76655" />
      <path
         class="edge"
         id="279"
         style="fill:none;stroke:#bab449;stroke-width:1"
         d="m 403.44133,231.5166 c 0,0 -19.74717,-85.28395 -99.2194,-68.32539" />
      <path
         class="edge"
         id="281"
         style="fill:none;stroke:#b1b347;stroke-width:1"
         d="m 403.44133,231.5166 c 0,0 33.47817,-72.25093 -31.47541,-46.9456" />
      <path
         class="edge"
         id="286"
         style="fill:none;stroke:#b1b347;stroke-width:1"
         d="m 403.44133,231.5166 c 0,0 -11.18864,93.37627 -80.14947,168.62789" />
      <path
         class="edge"
         id="288"
         style="fill:none;stroke:#bab449;stroke-width:1"
         d="m 403.44133,231.5166 c 0,0 -83.9382,-60.2544 -195.75757,-54.33602" />
      <path
         class="edge"
         id="289"
         style="fill:none;stroke:#bab449;stroke-width:1"
         d="m 403.44133,231.5166 c 0,0 -118.50857,-10.96864 -236.88173,37.58381" />
      <path
         class="edge"
         id="347"
         style="fill:none;stroke:#b0b247;stroke-width:1"
         d="m 97.463583,188.17055 c 0,0 58.956267,107.22089 166.657237,189.47868" />
      <path
         class="edge"
         id="348"
         style="fill:none;stroke:#b1b347;stroke-width:1"
         d="m 97.463583,188.17055 c 0,0 -26.090761,75.29913 52.309877,127.95579" />
      <path
         class="edge"
         id="360"
         style="fill:none;stroke:#b1b347;stroke-width:1"
         d="m 97.463583,188.17055 c 0,0 64.449197,-20.60661 151.807547,38.22152" />
      <path
         class="edge"
         id="362"
         style="fill:none;stroke:#b1b347;stroke-width:1"
         d="m 97.463583,188.17055 c 0,0 147.229497,72.66548 317.322747,146.01791" />
      <path
         class="edge"
         id="363"
         style="fill:none;stroke:#bab449;stroke-width:1"
         d="m 97.463583,188.17055 c 0,0 -30.65551,113.93357 24.059327,226.8205" />
      <path
         class="edge"
         id="368"
         style="fill:none;stroke:#b1b347;stroke-width:1"
         d="m 97.463583,188.17055 c 0,0 89.626477,-54.17831 206.758347,-24.97934" />
      <path
         class="edge"
         id="370"
         style="fill:none;stroke:#bcb449;stroke-width:1"
         d="m 97.463583,188.17055 c 0,0 136.509257,-31.57957 274.502337,-3.59955" />
      <path
         class="edge"
         id="377"
         style="fill:none;stroke:#b0b247;stroke-width:1"
         d="m 97.463583,188.17055 c 0,0 31.947447,-57.50057 110.220177,-10.98997" />
      <path
         class="edge"
         id="378"
         style="fill:none;stroke:#b1b347;stroke-width:1"
         d="m 97.463583,188.17055 c 0,0 -22.283379,47.07852 69.096017,80.92986" />
      <path
         class="edge"
         id="471"
         style="fill:none;stroke:#bcb449;stroke-width:1"
         d="m 281.8707,501.24412 c 0,0 90.7875,51.96408 128.61248,-1.86402" />
      <path
         class="edge"
         id="661"
         style="fill:none;stroke:#bab449;stroke-width:1"
         d="m 126.23259,362.77442 c 0,0 147.58066,101.4647 284.25059,136.60568" />
      <path
         class="edge"
         id="663"
         style="fill:none;stroke:#b1b347;stroke-width:1"
         d="m 126.23259,362.77442 c 0,0 46.81196,55.84188 137.88823,14.87481" />
      <path
         class="edge"
         id="684"
         style="fill:none;stroke:#b1b347;stroke-width:1"
         d="m 126.23259,362.77442 c 0,0 76.14671,-118.45761 177.98934,-199.58321" />
      <path
         class="edge"
         id="691"
         style="fill:none;stroke:#b1b347;stroke-width:1"
         d="m 126.23259,362.77442 c 0,0 87.6997,56.92114 197.05927,37.37007" />
      <path
         class="edge"
         id="693"
         style="fill:none;stroke:#b1b347;stroke-width:1"
         d="m 126.23259,362.77442 c 0,0 -0.30052,-104.25997 81.45117,-185.59384" />
      <path
         class="edge"
         id="732"
         style="fill:none;stroke:#bab449;stroke-width:1"
         d="m 410.48318,499.3801 c 0,0 -75.30967,-37.167 -146.36236,-121.73087" />
      <path
         class="edge"
         id="733"
         style="fill:none;stroke:#bab449;stroke-width:1"
         d="m 410.48318,499.3801 c 0,0 -143.28135,-70.33723 -260.70972,-183.25376" />
      <path
         class="edge"
         id="740"
         style="fill:none;stroke:#c0b54a;stroke-width:1"
         d="m 410.48318,499.3801 c 0,0 -95.36731,37.0076 -212.4361,-3.87576" />
      <path
         class="edge"
         id="745"
         style="fill:none;stroke:#bab449;stroke-width:1"
         d="m 410.48318,499.3801 c 0,0 -80.38303,-126.49089 -161.21205,-272.98803" />
      <path
         class="edge"
         id="747"
         style="fill:none;stroke:#bab449;stroke-width:1"
         d="m 410.48318,499.3801 c 0,0 36.33643,-65.20095 4.30315,-165.19164" />
      <path
         class="edge"
         id="748"
         style="fill:none;stroke:#aeb247;stroke-width:1"
         d="m 410.48318,499.3801 c 0,0 -145.96011,0.89892 -288.96027,-84.38905" />
      <path
         class="edge"
         id="749"
         style="fill:none;stroke:#bab449;stroke-width:1"
         d="m 410.48318,499.3801 c 0,0 45.97177,-93.5406 17.70054,-210.09695" />
      <path
         class="edge"
         id="753"
         style="fill:none;stroke:#bab449;stroke-width:1"
         d="m 410.48318,499.3801 c 0,0 -43.6005,-165.70661 -106.26125,-336.18889" />
      <path
         class="edge"
         id="755"
         style="fill:none;stroke:#b8b449;stroke-width:1"
         d="m 410.48318,499.3801 c 0,0 16.1171,-152.81252 -38.51726,-314.8091" />
      <path
         class="edge"
         id="760"
         style="fill:none;stroke:#c4b54b;stroke-width:1"
         d="m 410.48318,499.3801 c 0,0 -48.97814,-20.44158 -87.19132,-99.23561" />
      <path
         class="edge"
         id="762"
         style="fill:none;stroke:#bab449;stroke-width:1"
         d="m 410.48318,499.3801 c 0,0 -106.4729,-153.52046 -202.79942,-322.19952" />
      <path
         class="edge"
         id="763"
         style="fill:none;stroke:#bab449;stroke-width:1"
         d="m 410.48318,499.3801 c 0,0 -128.79622,-99.12975 -243.92358,-230.27969" />
      <path
         class="edge"
         id="798"
         style="fill:none;stroke:#b5b348;stroke-width:1"
         d="m 264.12082,377.64923 c 0,0 -94.43501,7.22548 -114.34736,-61.52289" />
      <path
         class="edge"
         id="810"
         style="fill:none;stroke:#b1b347;stroke-width:1"
         d="m 264.12082,377.64923 c 0,0 -46.54109,-68.805 -14.84969,-151.25716" />
      <path
         class="edge"
         id="812"
         style="fill:none;stroke:#b1b347;stroke-width:1"
         d="m 264.12082,377.64923 c 0,0 91.99578,19.93632 150.66551,-43.46077" />
      <path
         class="edge"
         id="814"
         style="fill:none;stroke:#b1b347;stroke-width:1"
         d="m 264.12082,377.64923 c 0,0 99.07373,-18.27585 164.0629,-88.36608" />
      <path
         class="edge"
         id="818"
         style="fill:none;stroke:#bab449;stroke-width:1"
         d="m 264.12082,377.64923 c 0,0 11.29957,-113.19426 40.10111,-214.45802" />
      <path
         class="edge"
         id="820"
         style="fill:none;stroke:#b2b347;stroke-width:1"
         d="m 264.12082,377.64923 c 0,0 68.91555,-102.70944 107.8451,-193.07823" />
      <path
         class="edge"
         id="825"
         style="fill:none;stroke:#b9b449;stroke-width:1"
         d="m 264.12082,377.64923 c 0,0 28.14388,70.53013 59.17104,22.49526" />
      <path
         class="edge"
         id="828"
         style="fill:none;stroke:#bab449;stroke-width:1"
         d="m 264.12082,377.64923 c 0,0 -86.3293,-29.9016 -97.56122,-108.54882" />
      <path
         class="edge"
         id="841"
         style="fill:none;stroke:#b1b347;stroke-width:1"
         d="m 149.77346,316.12634 c 0,0 14.01037,-70.05848 99.49767,-89.73427" />
      <path
         class="edge"
         id="845"
         style="fill:none;stroke:#b1b347;stroke-width:1"
         d="m 149.77346,316.12634 c 0,0 141.34635,-6.32805 278.41026,-26.84319" />
      <path
         class="edge"
         id="851"
         style="fill:none;stroke:#bbb449;stroke-width:1"
         d="m 149.77346,316.12634 c 0,0 110.01089,-80.56057 222.19246,-131.55534" />
      <path
         class="edge"
         id="856"
         style="fill:none;stroke:#c5b54b;stroke-width:1"
         d="m 149.77346,316.12634 c 0,0 69.61564,70.56343 173.5184,84.01815" />
      <path
         class="edge"
         id="858"
         style="fill:none;stroke:#b9b449;stroke-width:1"
         d="m 149.77346,316.12634 c 0,0 -16.89831,-88.48973 57.9103,-138.94576" />
      <path
         class="edge"
         id="1033"
         style="fill:none;stroke:#b8b348;stroke-width:1"
         d="m 198.04708,495.50434 c 0,0 -77.93574,-2.90173 -76.52417,-80.51329" />
      <path
         class="edge"
         id="1045"
         style="fill:none;stroke:#afb247;stroke-width:1"
         d="m 198.04708,495.50434 c 0,0 55.50761,-21.03826 125.24478,-95.35985" />
      <path
         class="edge"
         id="1137"
         style="fill:none;stroke:#b1b347;stroke-width:1"
         d="m 249.27113,226.39207 c 0,0 106.71633,33.0088 165.5152,107.79639" />
      <path
         class="edge"
         id="1139"
         style="fill:none;stroke:#bab449;stroke-width:1"
         d="m 249.27113,226.39207 c 0,0 108.94203,1.27724 178.91259,62.89108" />
      <path
         class="edge"
         id="1143"
         style="fill:none;stroke:#bab449;stroke-width:1"
         d="m 249.27113,226.39207 c 0,0 9.65249,-92.22542 54.9508,-63.20086" />
      <path
         class="edge"
         id="1150"
         style="fill:none;stroke:#bab449;stroke-width:1"
         d="m 249.27113,226.39207 c 0,0 17.83936,102.63324 74.02073,173.75242" />
      <path
         class="edge"
         id="1152"
         style="fill:none;stroke:#b1b347;stroke-width:1"
         d="m 249.27113,226.39207 c 0,0 -30.6222,-97.82278 -41.58737,-49.21149" />
      <path
         class="edge"
         id="1153"
         style="fill:none;stroke:#bab449;stroke-width:1"
         d="m 249.27113,226.39207 c 0,0 -76.2277,-20.87668 -82.71153,42.70834" />
      <path
         class="edge"
         id="1174"
         style="fill:none;stroke:#bab449;stroke-width:1"
         d="m 414.78633,334.18846 c 0,0 75.54462,-13.23993 13.39739,-44.90531" />
      <path
         class="edge"
         id="1180"
         style="fill:none;stroke:#bab449;stroke-width:1"
         d="m 414.78633,334.18846 c 0,0 21.93975,-90.98119 -42.82041,-149.61746" />
      <path
         class="edge"
         id="1185"
         style="fill:none;stroke:#b1b347;stroke-width:1"
         d="m 414.78633,334.18846 c 0,0 -15.03229,80.15888 -91.49447,65.95603" />
      <path
         class="edge"
         id="1187"
         style="fill:none;stroke:#bab449;stroke-width:1"
         d="m 414.78633,334.18846 c 0,0 -94.75866,-104.65189 -207.10257,-157.00788" />
      <path
         class="edge"
         id="1209"
         style="fill:none;stroke:#bab449;stroke-width:1"
         d="m 428.18372,289.28315 c 0,0 -31.01369,-95.51277 -123.96179,-126.09194" />
      <path
         class="edge"
         id="1211"
         style="fill:none;stroke:#b1b347;stroke-width:1"
         d="m 428.18372,289.28315 c 0,0 20.07022,-83.60938 -56.2178,-104.71215" />
      <path
         class="edge"
         id="1216"
         style="fill:none;stroke:#b1b347;stroke-width:1"
         d="m 428.18372,289.28315 c 0,0 -21.85406,87.20511 -104.89186,110.86134" />
      <path
         class="edge"
         id="1219"
         style="fill:none;stroke:#b1b347;stroke-width:1"
         d="m 428.18372,289.28315 c 0,0 -129.76065,-19.64662 -261.62412,-20.18274" />
      <path
         class="edge"
         id="1261"
         style="fill:none;stroke:#bab449;stroke-width:1"
         d="m 304.22193,163.19121 c 0,0 53.08647,-51.98842 67.74399,21.37979" />
      <path
         class="edge"
         id="1266"
         style="fill:none;stroke:#bab449;stroke-width:1"
         d="m 304.22193,163.19121 c 0,0 13.18263,125.18836 19.06993,236.95328" />
      <path
         class="edge"
         id="1268"
         style="fill:none;stroke:#bab449;stroke-width:1"
         d="m 304.22193,163.19121 c 0,0 -54.30896,-59.48672 -96.53817,13.98937" />
      <path
         class="edge"
         id="1285"
         style="fill:none;stroke:#aeb246;stroke-width:1"
         d="m 371.96592,184.571 c 0,0 2.12474,108.7684 -48.67406,215.57349" />
      <path
         class="edge"
         id="1287"
         style="fill:none;stroke:#c0b54a;stroke-width:1"
         d="m 371.96592,184.571 c 0,0 -76.77773,-54.43489 -164.28216,-7.39042" />
      <path
         class="edge"
         id="1317"
         style="fill:none;stroke:#aeb246;stroke-width:1"
         d="m 323.29186,400.14449 c 0,0 -76.22334,-106.66769 -115.6081,-222.96391" />
      <path
         class="edge"
         id="1318"
         style="fill:none;stroke:#b1b347;stroke-width:1"
         d="m 323.29186,400.14449 c 0,0 -98.69176,-48.27356 -156.73226,-131.04408" />
      <path
         class="edge"
         id="1323"
         style="fill:none;stroke:#bab449;stroke-width:1"
         d="m 207.68376,177.18058 c 0,0 -72.68314,14.85775 -41.12416,91.91983" />
      <g
         class="gene-group"
         id="728395"
         cx="371.9659176138841"
         cy="184.57099681456975"
         transform="translate(371.96592,184.571)">
        <circle
           class="gene"
           r="8"
           style="stroke:#aaaaaa;stroke-width:1"
           id="circle78"
           cx="0"
           cy="0" />
        <rect
           rx="5"
           ry="5"
           x="-22.679688"
           y="-27"
           width="44.943848"
           height="19"
           style="opacity:0.5;fill:#ffffff"
           id="rect80" />
        <text
           class="gene-name"
           text-anchor="middle"
           y="-13"
           id="text82">TSPY4</text>
      </g>
      <g
         class="gene-group"
         id="145814"
         cx="198.0470757509343"
         cy="495.50433547917794"
         transform="translate(198.04708,495.50434)">
        <circle
           class="gene"
           r="8"
           style="stroke:#aaaaaa;stroke-width:1"
           id="circle85"
           cx="0"
           cy="0" />
        <rect
           rx="5"
           ry="5"
           x="-31.125"
           y="-27"
           width="62.375778"
           height="19"
           style="opacity:0.5;fill:#ffffff"
           id="rect87" />
        <text
           class="gene-name"
           text-anchor="middle"
           y="-13"
           id="text89">PGPEP1L</text>
      </g>
      <g
         class="gene-group"
         id="100506127"
         cx="403.44132813033207"
         cy="231.5166048354965"
         transform="translate(403.44133,231.5166)">
        <circle
           class="gene"
           r="8"
           style="stroke:#aaaaaa;stroke-width:1"
           id="circle92"
           cx="0"
           cy="0" />
        <rect
           rx="5"
           ry="5"
           x="-27.3125"
           y="-27"
           width="54.625"
           height="19"
           style="opacity:0.5;fill:#ffffff"
           id="rect94" />
        <text
           class="gene-name"
           text-anchor="middle"
           y="-13"
           id="text96">GVQW3</text>
      </g>
      <g
         class="gene-group"
         id="100505502"
         cx="249.27112906453897"
         cy="226.39207434960397"
         transform="translate(249.27113,226.39207)">
        <circle
           class="gene"
           r="8"
           style="stroke:#aaaaaa;stroke-width:1"
           id="circle99"
           cx="0"
           cy="0" />
        <rect
           rx="5"
           ry="5"
           x="-51.726562"
           y="-27"
           width="103.45312"
           height="19"
           style="opacity:0.5;fill:#ffffff"
           id="rect101" />
        <text
           class="gene-name"
           text-anchor="middle"
           y="-13"
           id="text103">LOC100505502</text>
      </g>
      <g
         class="gene-group"
         id="401934"
         cx="166.5596009093901"
         cy="269.1004063333807"
         transform="translate(166.5596,269.10041)">
        <circle
           class="gene"
           r="8"
           style="stroke:#aaaaaa;stroke-width:1"
           id="circle106"
           cx="0"
           cy="0" />
        <rect
           rx="5"
           ry="5"
           x="-26.578125"
           y="-27"
           width="53.15625"
           height="19"
           style="opacity:0.5;fill:#ffffff"
           id="rect108" />
        <text
           class="gene-name"
           text-anchor="middle"
           y="-13"
           id="text110">RNF223</text>
      </g>
      <g
         class="gene-group"
         id="643596"
         cx="304.2219260817019"
         cy="163.19120806791253"
         transform="translate(304.22193,163.19121)">
        <circle
           class="gene"
           r="8"
           style="stroke:#aaaaaa;stroke-width:1"
           id="circle113"
           cx="0"
           cy="0" />
        <rect
           rx="5"
           ry="5"
           x="-26.578125"
           y="-27"
           width="53.743805"
           height="19"
           style="opacity:0.5;fill:#ffffff"
           id="rect115" />
        <text
           class="gene-name"
           text-anchor="middle"
           y="-13"
           id="text117">RNF224</text>
      </g>
      <g
         class="gene-group"
         id="100130827"
         cx="414.7863268006456"
         cy="334.18845912939895"
         transform="translate(414.78633,334.18846)">
        <circle
           class="gene"
           r="8"
           style="stroke:#aaaaaa;stroke-width:1"
           id="circle120"
           cx="0"
           cy="0" />
        <rect
           rx="5"
           ry="5"
           x="-18.09375"
           y="-27"
           width="36.1875"
           height="19"
           style="opacity:0.5;fill:#ffffff"
           id="rect122" />
        <text
           class="gene-name"
           text-anchor="middle"
           y="-13"
           id="text124">SBK3</text>
      </g>
      <g
         class="gene-group"
         id="401563"
         cx="149.77345521608444"
         cy="316.1263407775787"
         transform="translate(149.77346,316.12634)">
        <circle
           class="gene"
           r="8"
           style="stroke:#aaaaaa;stroke-width:1"
           id="circle127"
           cx="0"
           cy="0" />
        <rect
           rx="5"
           ry="5"
           x="-31.085938"
           y="-27"
           width="62.171875"
           height="19"
           style="opacity:0.5;fill:#ffffff"
           id="rect129" />
        <text
           class="gene-name"
           text-anchor="middle"
           y="-13"
           id="text131">C9orf139</text>
      </g>
      <g
         class="gene-group"
         id="388931"
         cx="264.12082106998093"
         cy="377.6492286543638"
         transform="translate(264.12082,377.64923)">
        <circle
           class="gene"
           r="8"
           style="stroke:#aaaaaa;stroke-width:1"
           id="circle134"
           cx="0"
           cy="0" />
        <rect
           rx="5"
           ry="5"
           x="-28.640625"
           y="-27"
           width="57.28125"
           height="19"
           style="opacity:0.5;fill:#ffffff"
           id="rect136" />
        <text
           class="gene-name"
           text-anchor="middle"
           y="-13"
           id="text138">MFSD2B</text>
      </g>
      <g
         class="gene-group"
         id="388468"
         cx="207.68376497593198"
         cy="177.1805775397981"
         transform="translate(207.68376,177.18058)">
        <circle
           class="gene"
           r="8"
           style="stroke:#aaaaaa;stroke-width:1"
           id="circle141"
           cx="0"
           cy="0" />
        <rect
           rx="5"
           ry="5"
           x="-23.007812"
           y="-27"
           width="46.015625"
           height="19"
           style="opacity:0.5;fill:#ffffff"
           id="rect143" />
        <text
           class="gene-name"
           text-anchor="middle"
           y="-13"
           id="text145">POTEC</text>
      </g>
      <g
         class="gene-group"
         id="391002"
         cx="121.52290624864678"
         cy="414.99104868515604"
         transform="translate(121.52291,414.99105)">
        <circle
           class="gene"
           r="8"
           style="stroke:#aaaaaa;stroke-width:1"
           id="circle148"
           cx="0"
           cy="0" />
        <rect
           rx="5"
           ry="5"
           x="-32.875"
           y="-27"
           width="65.75"
           height="19"
           style="opacity:0.5;fill:#ffffff"
           id="rect150" />
        <text
           class="gene-name"
           text-anchor="middle"
           y="-13"
           id="text152">PRAMEF8</text>
      </g>
      <g
         class="gene-group"
         id="728597"
         cx="428.18371982229706"
         cy="289.2831479668544"
         transform="translate(428.18372,289.28315)">
        <circle
           class="gene"
           r="8"
           style="stroke-width:1"
           id="circle155"
           cx="0"
           cy="0" />
        <rect
           rx="5"
           ry="5"
           x="-29.148438"
           y="-27"
           width="58.296875"
           height="19"
           style="opacity:0.5;fill:#ffffff"
           id="rect157" />
        <text
           class="gene-name"
           text-anchor="middle"
           y="-13"
           id="text159">DCDC2C</text>
      </g>
      <g
         class="gene-group"
         id="100287045"
         cx="126.23259453438322"
         cy="362.77441689335916"
         transform="translate(126.23259,362.77442)">
        <circle
           class="gene"
           r="8"
           style="stroke:#aaaaaa;stroke-width:1"
           id="circle162"
           cx="0"
           cy="0" />
        <rect
           rx="5"
           ry="5"
           x="-36.84375"
           y="-27"
           width="73.6875"
           height="19"
           style="opacity:0.5;fill:#ffffff"
           id="rect164" />
        <text
           class="gene-name"
           text-anchor="middle"
           y="-13"
           id="text166">FAM90A26</text>
      </g>
      <g
         class="gene-group"
         id="100288797"
         cx="323.29185988352384"
         cy="400.1444948262524"
         transform="translate(323.29186,400.14449)">
        <circle
           class="gene"
           r="8"
           style="stroke:#aaaaaa;stroke-width:1"
           id="circle169"
           cx="0"
           cy="0" />
        <rect
           rx="5"
           ry="5"
           x="-34.28125"
           y="-27"
           width="67.5625"
           height="19"
           style="opacity:0.5;fill:#ffffff"
           id="rect171" />
        <text
           class="gene-name"
           text-anchor="middle"
           y="-13"
           id="text173">TMEM239</text>
      </g>
      <g
         class="gene-group"
         id="5942"
         cx="281.8707021978942"
         cy="501.24412355947095"
         transform="translate(281.8707,501.24412)">
        <circle
           class="gene"
           r="8"
           style="stroke:#aaaaaa;stroke-width:1"
           id="circle176"
           cx="0"
           cy="0" />
        <rect
           rx="5"
           ry="5"
           x="-28.984375"
           y="-27"
           width="57.96875"
           height="19"
           style="opacity:0.5;fill:#ffffff"
           id="rect178" />
        <text
           class="gene-name"
           text-anchor="middle"
           y="-13"
           id="text180">RBMY1C</text>
      </g>
      <g
         class="gene-group"
         id="58529"
         cx="97.46358314115531"
         cy="188.1705475592994"
         transform="translate(97.463583,188.17055)">
        <circle
           class="gene gene-query"
           r="15"
           style="stroke:#aaaaaa;stroke-width:1"
           id="circle183"
           cx="0"
           cy="0" />
        <rect
           rx="5"
           ry="5"
           x="-23.929688"
           y="-34"
           width="47.859375"
           height="19"
           style="opacity:0.5;fill:#ffffff"
           id="rect185" />
        <text
           class="gene-name"
           text-anchor="middle"
           y="-20"
           id="text187">MYOZ1</text>
      </g>
      <g
         class="gene-group"
         id="7136"
         cx="410.48318061479773"
         cy="499.3800974913673"
         transform="translate(410.48318,499.3801)">
        <circle
           class="gene gene-query"
           r="15"
           style="stroke:#aaaaaa;stroke-width:1"
           id="circle190"
           cx="0"
           cy="0" />
        <rect
           rx="5"
           ry="5"
           x="-22"
           y="-34"
           width="43"
           height="19"
           style="opacity:0.5;fill:#ffffff"
           id="rect192" />
        <text
           class="gene-name"
           text-anchor="middle"
           y="-20"
           id="text194">TNNI2</text>
      </g>
    </g>
  </g>
</svg>
