<?xml version="1.0" encoding="utf-8" standalone="no"?>
<!DOCTYPE svg PUBLIC "-//W3C//DTD SVG 1.1//EN"
  "http://www.w3.org/Graphics/SVG/1.1/DTD/svg11.dtd">
<svg height="423.388906pt" version="1.1" viewBox="0 0 637.815 423.388906" width="637.815pt" xmlns="http://www.w3.org/2000/svg" xmlns:xlink="http://www.w3.org/1999/xlink">
 <metadata>
  <rdf:RDF xmlns:cc="http://creativecommons.org/ns#" xmlns:dc="http://purl.org/dc/elements/1.1/" xmlns:rdf="http://www.w3.org/1999/02/22-rdf-syntax-ns#">
   <cc:Work>
    <dc:type rdf:resource="http://purl.org/dc/dcmitype/StillImage"/>
    <dc:date>2022-01-28T19:26:53.169808</dc:date>
    <dc:format>image/svg+xml</dc:format>
    <dc:creator>
     <cc:Agent>
      <dc:title>Matplotlib v3.4.3, https://matplotlib.org/</dc:title>
     </cc:Agent>
    </dc:creator>
   </cc:Work>
  </rdf:RDF>
 </metadata>
 <defs>
  <style type="text/css">*{stroke-linecap:butt;stroke-linejoin:round;}</style>
 </defs>
 <g id="figure_1">
  <g id="patch_1">
   <path d="M 0 423.388906 
L 637.815 423.388906 
L 637.815 0 
L 0 0 
z
" style="fill:#ffffff;"/>
  </g>
  <g id="axes_1">
   <g id="patch_2">
    <path d="M 72.615 387.72 
L 630.615 387.72 
L 630.615 7.2 
L 72.615 7.2 
z
" style="fill:#ffffff;"/>
   </g>
   <g id="matplotlib.axis_1">
    <g id="xtick_1">
     <g id="line2d_1">
      <defs>
       <path d="M 0 0 
L 0 9 
" id="mec03f8202f" style="stroke:#000000;stroke-width:1.875;"/>
      </defs>
      <g>
       <use style="stroke:#000000;stroke-width:1.875;" x="97.978636" xlink:href="#mec03f8202f" y="387.72"/>
      </g>
     </g>
     <g id="text_1">
      <!-- 0.0 -->
      <g transform="translate(84.858558 412.757422)scale(0.165 -0.165)">
       <defs>
        <path d="M 2034 4250 
Q 1547 4250 1301 3770 
Q 1056 3291 1056 2328 
Q 1056 1369 1301 889 
Q 1547 409 2034 409 
Q 2525 409 2770 889 
Q 3016 1369 3016 2328 
Q 3016 3291 2770 3770 
Q 2525 4250 2034 4250 
z
M 2034 4750 
Q 2819 4750 3233 4129 
Q 3647 3509 3647 2328 
Q 3647 1150 3233 529 
Q 2819 -91 2034 -91 
Q 1250 -91 836 529 
Q 422 1150 422 2328 
Q 422 3509 836 4129 
Q 1250 4750 2034 4750 
z
" id="DejaVuSans-30" transform="scale(0.015625)"/>
        <path d="M 684 794 
L 1344 794 
L 1344 0 
L 684 0 
L 684 794 
z
" id="DejaVuSans-2e" transform="scale(0.015625)"/>
       </defs>
       <use xlink:href="#DejaVuSans-30"/>
       <use x="63.623047" xlink:href="#DejaVuSans-2e"/>
       <use x="95.410156" xlink:href="#DejaVuSans-30"/>
      </g>
     </g>
    </g>
    <g id="xtick_2">
     <g id="line2d_2">
      <g>
       <use style="stroke:#000000;stroke-width:1.875;" x="149.761704" xlink:href="#mec03f8202f" y="387.72"/>
      </g>
     </g>
     <g id="text_2">
      <!-- 0.1 -->
      <g transform="translate(136.641626 412.757422)scale(0.165 -0.165)">
       <defs>
        <path d="M 794 531 
L 1825 531 
L 1825 4091 
L 703 3866 
L 703 4441 
L 1819 4666 
L 2450 4666 
L 2450 531 
L 3481 531 
L 3481 0 
L 794 0 
L 794 531 
z
" id="DejaVuSans-31" transform="scale(0.015625)"/>
       </defs>
       <use xlink:href="#DejaVuSans-30"/>
       <use x="63.623047" xlink:href="#DejaVuSans-2e"/>
       <use x="95.410156" xlink:href="#DejaVuSans-31"/>
      </g>
     </g>
    </g>
    <g id="xtick_3">
     <g id="line2d_3">
      <g>
       <use style="stroke:#000000;stroke-width:1.875;" x="201.544772" xlink:href="#mec03f8202f" y="387.72"/>
      </g>
     </g>
     <g id="text_3">
      <!-- 0.2 -->
      <g transform="translate(188.424694 412.757422)scale(0.165 -0.165)">
       <defs>
        <path d="M 1228 531 
L 3431 531 
L 3431 0 
L 469 0 
L 469 531 
Q 828 903 1448 1529 
Q 2069 2156 2228 2338 
Q 2531 2678 2651 2914 
Q 2772 3150 2772 3378 
Q 2772 3750 2511 3984 
Q 2250 4219 1831 4219 
Q 1534 4219 1204 4116 
Q 875 4013 500 3803 
L 500 4441 
Q 881 4594 1212 4672 
Q 1544 4750 1819 4750 
Q 2544 4750 2975 4387 
Q 3406 4025 3406 3419 
Q 3406 3131 3298 2873 
Q 3191 2616 2906 2266 
Q 2828 2175 2409 1742 
Q 1991 1309 1228 531 
z
" id="DejaVuSans-32" transform="scale(0.015625)"/>
       </defs>
       <use xlink:href="#DejaVuSans-30"/>
       <use x="63.623047" xlink:href="#DejaVuSans-2e"/>
       <use x="95.410156" xlink:href="#DejaVuSans-32"/>
      </g>
     </g>
    </g>
    <g id="xtick_4">
     <g id="line2d_4">
      <g>
       <use style="stroke:#000000;stroke-width:1.875;" x="253.327839" xlink:href="#mec03f8202f" y="387.72"/>
      </g>
     </g>
     <g id="text_4">
      <!-- 0.3 -->
      <g transform="translate(240.207761 412.757422)scale(0.165 -0.165)">
       <defs>
        <path d="M 2597 2516 
Q 3050 2419 3304 2112 
Q 3559 1806 3559 1356 
Q 3559 666 3084 287 
Q 2609 -91 1734 -91 
Q 1441 -91 1130 -33 
Q 819 25 488 141 
L 488 750 
Q 750 597 1062 519 
Q 1375 441 1716 441 
Q 2309 441 2620 675 
Q 2931 909 2931 1356 
Q 2931 1769 2642 2001 
Q 2353 2234 1838 2234 
L 1294 2234 
L 1294 2753 
L 1863 2753 
Q 2328 2753 2575 2939 
Q 2822 3125 2822 3475 
Q 2822 3834 2567 4026 
Q 2313 4219 1838 4219 
Q 1578 4219 1281 4162 
Q 984 4106 628 3988 
L 628 4550 
Q 988 4650 1302 4700 
Q 1616 4750 1894 4750 
Q 2613 4750 3031 4423 
Q 3450 4097 3450 3541 
Q 3450 3153 3228 2886 
Q 3006 2619 2597 2516 
z
" id="DejaVuSans-33" transform="scale(0.015625)"/>
       </defs>
       <use xlink:href="#DejaVuSans-30"/>
       <use x="63.623047" xlink:href="#DejaVuSans-2e"/>
       <use x="95.410156" xlink:href="#DejaVuSans-33"/>
      </g>
     </g>
    </g>
    <g id="xtick_5">
     <g id="line2d_5">
      <g>
       <use style="stroke:#000000;stroke-width:1.875;" x="305.110907" xlink:href="#mec03f8202f" y="387.72"/>
      </g>
     </g>
     <g id="text_5">
      <!-- 0.4 -->
      <g transform="translate(291.990829 412.757422)scale(0.165 -0.165)">
       <defs>
        <path d="M 2419 4116 
L 825 1625 
L 2419 1625 
L 2419 4116 
z
M 2253 4666 
L 3047 4666 
L 3047 1625 
L 3713 1625 
L 3713 1100 
L 3047 1100 
L 3047 0 
L 2419 0 
L 2419 1100 
L 313 1100 
L 313 1709 
L 2253 4666 
z
" id="DejaVuSans-34" transform="scale(0.015625)"/>
       </defs>
       <use xlink:href="#DejaVuSans-30"/>
       <use x="63.623047" xlink:href="#DejaVuSans-2e"/>
       <use x="95.410156" xlink:href="#DejaVuSans-34"/>
      </g>
     </g>
    </g>
    <g id="xtick_6">
     <g id="line2d_6">
      <g>
       <use style="stroke:#000000;stroke-width:1.875;" x="356.893975" xlink:href="#mec03f8202f" y="387.72"/>
      </g>
     </g>
     <g id="text_6">
      <!-- 0.5 -->
      <g transform="translate(343.773897 412.757422)scale(0.165 -0.165)">
       <defs>
        <path d="M 691 4666 
L 3169 4666 
L 3169 4134 
L 1269 4134 
L 1269 2991 
Q 1406 3038 1543 3061 
Q 1681 3084 1819 3084 
Q 2600 3084 3056 2656 
Q 3513 2228 3513 1497 
Q 3513 744 3044 326 
Q 2575 -91 1722 -91 
Q 1428 -91 1123 -41 
Q 819 9 494 109 
L 494 744 
Q 775 591 1075 516 
Q 1375 441 1709 441 
Q 2250 441 2565 725 
Q 2881 1009 2881 1497 
Q 2881 1984 2565 2268 
Q 2250 2553 1709 2553 
Q 1456 2553 1204 2497 
Q 953 2441 691 2322 
L 691 4666 
z
" id="DejaVuSans-35" transform="scale(0.015625)"/>
       </defs>
       <use xlink:href="#DejaVuSans-30"/>
       <use x="63.623047" xlink:href="#DejaVuSans-2e"/>
       <use x="95.410156" xlink:href="#DejaVuSans-35"/>
      </g>
     </g>
    </g>
    <g id="xtick_7">
     <g id="line2d_7">
      <g>
       <use style="stroke:#000000;stroke-width:1.875;" x="408.677042" xlink:href="#mec03f8202f" y="387.72"/>
      </g>
     </g>
     <g id="text_7">
      <!-- 0.6 -->
      <g transform="translate(395.556964 412.757422)scale(0.165 -0.165)">
       <defs>
        <path d="M 2113 2584 
Q 1688 2584 1439 2293 
Q 1191 2003 1191 1497 
Q 1191 994 1439 701 
Q 1688 409 2113 409 
Q 2538 409 2786 701 
Q 3034 994 3034 1497 
Q 3034 2003 2786 2293 
Q 2538 2584 2113 2584 
z
M 3366 4563 
L 3366 3988 
Q 3128 4100 2886 4159 
Q 2644 4219 2406 4219 
Q 1781 4219 1451 3797 
Q 1122 3375 1075 2522 
Q 1259 2794 1537 2939 
Q 1816 3084 2150 3084 
Q 2853 3084 3261 2657 
Q 3669 2231 3669 1497 
Q 3669 778 3244 343 
Q 2819 -91 2113 -91 
Q 1303 -91 875 529 
Q 447 1150 447 2328 
Q 447 3434 972 4092 
Q 1497 4750 2381 4750 
Q 2619 4750 2861 4703 
Q 3103 4656 3366 4563 
z
" id="DejaVuSans-36" transform="scale(0.015625)"/>
       </defs>
       <use xlink:href="#DejaVuSans-30"/>
       <use x="63.623047" xlink:href="#DejaVuSans-2e"/>
       <use x="95.410156" xlink:href="#DejaVuSans-36"/>
      </g>
     </g>
    </g>
    <g id="xtick_8">
     <g id="line2d_8">
      <g>
       <use style="stroke:#000000;stroke-width:1.875;" x="460.46011" xlink:href="#mec03f8202f" y="387.72"/>
      </g>
     </g>
     <g id="text_8">
      <!-- 0.7 -->
      <g transform="translate(447.340032 412.757422)scale(0.165 -0.165)">
       <defs>
        <path d="M 525 4666 
L 3525 4666 
L 3525 4397 
L 1831 0 
L 1172 0 
L 2766 4134 
L 525 4134 
L 525 4666 
z
" id="DejaVuSans-37" transform="scale(0.015625)"/>
       </defs>
       <use xlink:href="#DejaVuSans-30"/>
       <use x="63.623047" xlink:href="#DejaVuSans-2e"/>
       <use x="95.410156" xlink:href="#DejaVuSans-37"/>
      </g>
     </g>
    </g>
    <g id="xtick_9">
     <g id="line2d_9">
      <g>
       <use style="stroke:#000000;stroke-width:1.875;" x="512.243178" xlink:href="#mec03f8202f" y="387.72"/>
      </g>
     </g>
     <g id="text_9">
      <!-- 0.8 -->
      <g transform="translate(499.1231 412.757422)scale(0.165 -0.165)">
       <defs>
        <path d="M 2034 2216 
Q 1584 2216 1326 1975 
Q 1069 1734 1069 1313 
Q 1069 891 1326 650 
Q 1584 409 2034 409 
Q 2484 409 2743 651 
Q 3003 894 3003 1313 
Q 3003 1734 2745 1975 
Q 2488 2216 2034 2216 
z
M 1403 2484 
Q 997 2584 770 2862 
Q 544 3141 544 3541 
Q 544 4100 942 4425 
Q 1341 4750 2034 4750 
Q 2731 4750 3128 4425 
Q 3525 4100 3525 3541 
Q 3525 3141 3298 2862 
Q 3072 2584 2669 2484 
Q 3125 2378 3379 2068 
Q 3634 1759 3634 1313 
Q 3634 634 3220 271 
Q 2806 -91 2034 -91 
Q 1263 -91 848 271 
Q 434 634 434 1313 
Q 434 1759 690 2068 
Q 947 2378 1403 2484 
z
M 1172 3481 
Q 1172 3119 1398 2916 
Q 1625 2713 2034 2713 
Q 2441 2713 2670 2916 
Q 2900 3119 2900 3481 
Q 2900 3844 2670 4047 
Q 2441 4250 2034 4250 
Q 1625 4250 1398 4047 
Q 1172 3844 1172 3481 
z
" id="DejaVuSans-38" transform="scale(0.015625)"/>
       </defs>
       <use xlink:href="#DejaVuSans-30"/>
       <use x="63.623047" xlink:href="#DejaVuSans-2e"/>
       <use x="95.410156" xlink:href="#DejaVuSans-38"/>
      </g>
     </g>
    </g>
    <g id="xtick_10">
     <g id="line2d_10">
      <g>
       <use style="stroke:#000000;stroke-width:1.875;" x="564.026245" xlink:href="#mec03f8202f" y="387.72"/>
      </g>
     </g>
     <g id="text_10">
      <!-- 0.9 -->
      <g transform="translate(550.906167 412.757422)scale(0.165 -0.165)">
       <defs>
        <path d="M 703 97 
L 703 672 
Q 941 559 1184 500 
Q 1428 441 1663 441 
Q 2288 441 2617 861 
Q 2947 1281 2994 2138 
Q 2813 1869 2534 1725 
Q 2256 1581 1919 1581 
Q 1219 1581 811 2004 
Q 403 2428 403 3163 
Q 403 3881 828 4315 
Q 1253 4750 1959 4750 
Q 2769 4750 3195 4129 
Q 3622 3509 3622 2328 
Q 3622 1225 3098 567 
Q 2575 -91 1691 -91 
Q 1453 -91 1209 -44 
Q 966 3 703 97 
z
M 1959 2075 
Q 2384 2075 2632 2365 
Q 2881 2656 2881 3163 
Q 2881 3666 2632 3958 
Q 2384 4250 1959 4250 
Q 1534 4250 1286 3958 
Q 1038 3666 1038 3163 
Q 1038 2656 1286 2365 
Q 1534 2075 1959 2075 
z
" id="DejaVuSans-39" transform="scale(0.015625)"/>
       </defs>
       <use xlink:href="#DejaVuSans-30"/>
       <use x="63.623047" xlink:href="#DejaVuSans-2e"/>
       <use x="95.410156" xlink:href="#DejaVuSans-39"/>
      </g>
     </g>
    </g>
    <g id="xtick_11">
     <g id="line2d_11">
      <g>
       <use style="stroke:#000000;stroke-width:1.875;" x="615.809313" xlink:href="#mec03f8202f" y="387.72"/>
      </g>
     </g>
     <g id="text_11">
      <!-- 1.0 -->
      <g transform="translate(602.689235 412.757422)scale(0.165 -0.165)">
       <use xlink:href="#DejaVuSans-31"/>
       <use x="63.623047" xlink:href="#DejaVuSans-2e"/>
       <use x="95.410156" xlink:href="#DejaVuSans-30"/>
      </g>
     </g>
    </g>
   </g>
   <g id="matplotlib.axis_2">
    <g id="ytick_1">
     <g id="line2d_12">
      <defs>
       <path d="M 0 0 
L -9 0 
" id="m1735f19730" style="stroke:#000000;stroke-width:1.875;"/>
      </defs>
      <g>
       <use style="stroke:#000000;stroke-width:1.875;" x="72.615" xlink:href="#m1735f19730" y="387.72"/>
      </g>
     </g>
     <g id="text_12">
      <!-- 0 -->
      <g transform="translate(49.616875 393.988711)scale(0.165 -0.165)">
       <use xlink:href="#DejaVuSans-30"/>
      </g>
     </g>
    </g>
    <g id="ytick_2">
     <g id="line2d_13">
      <g>
       <use style="stroke:#000000;stroke-width:1.875;" x="72.615" xlink:href="#m1735f19730" y="351.48"/>
      </g>
     </g>
     <g id="text_13">
      <!-- 10 -->
      <g transform="translate(39.11875 357.748711)scale(0.165 -0.165)">
       <use xlink:href="#DejaVuSans-31"/>
       <use x="63.623047" xlink:href="#DejaVuSans-30"/>
      </g>
     </g>
    </g>
    <g id="ytick_3">
     <g id="line2d_14">
      <g>
       <use style="stroke:#000000;stroke-width:1.875;" x="72.615" xlink:href="#m1735f19730" y="315.24"/>
      </g>
     </g>
     <g id="text_14">
      <!-- 20 -->
      <g transform="translate(39.11875 321.508711)scale(0.165 -0.165)">
       <use xlink:href="#DejaVuSans-32"/>
       <use x="63.623047" xlink:href="#DejaVuSans-30"/>
      </g>
     </g>
    </g>
    <g id="ytick_4">
     <g id="line2d_15">
      <g>
       <use style="stroke:#000000;stroke-width:1.875;" x="72.615" xlink:href="#m1735f19730" y="279"/>
      </g>
     </g>
     <g id="text_15">
      <!-- 30 -->
      <g transform="translate(39.11875 285.268711)scale(0.165 -0.165)">
       <use xlink:href="#DejaVuSans-33"/>
       <use x="63.623047" xlink:href="#DejaVuSans-30"/>
      </g>
     </g>
    </g>
    <g id="ytick_5">
     <g id="line2d_16">
      <g>
       <use style="stroke:#000000;stroke-width:1.875;" x="72.615" xlink:href="#m1735f19730" y="242.76"/>
      </g>
     </g>
     <g id="text_16">
      <!-- 40 -->
      <g transform="translate(39.11875 249.028711)scale(0.165 -0.165)">
       <use xlink:href="#DejaVuSans-34"/>
       <use x="63.623047" xlink:href="#DejaVuSans-30"/>
      </g>
     </g>
    </g>
    <g id="ytick_6">
     <g id="line2d_17">
      <g>
       <use style="stroke:#000000;stroke-width:1.875;" x="72.615" xlink:href="#m1735f19730" y="206.52"/>
      </g>
     </g>
     <g id="text_17">
      <!-- 50 -->
      <g transform="translate(39.11875 212.788711)scale(0.165 -0.165)">
       <use xlink:href="#DejaVuSans-35"/>
       <use x="63.623047" xlink:href="#DejaVuSans-30"/>
      </g>
     </g>
    </g>
    <g id="ytick_7">
     <g id="line2d_18">
      <g>
       <use style="stroke:#000000;stroke-width:1.875;" x="72.615" xlink:href="#m1735f19730" y="170.28"/>
      </g>
     </g>
     <g id="text_18">
      <!-- 60 -->
      <g transform="translate(39.11875 176.548711)scale(0.165 -0.165)">
       <use xlink:href="#DejaVuSans-36"/>
       <use x="63.623047" xlink:href="#DejaVuSans-30"/>
      </g>
     </g>
    </g>
    <g id="ytick_8">
     <g id="line2d_19">
      <g>
       <use style="stroke:#000000;stroke-width:1.875;" x="72.615" xlink:href="#m1735f19730" y="134.04"/>
      </g>
     </g>
     <g id="text_19">
      <!-- 70 -->
      <g transform="translate(39.11875 140.308711)scale(0.165 -0.165)">
       <use xlink:href="#DejaVuSans-37"/>
       <use x="63.623047" xlink:href="#DejaVuSans-30"/>
      </g>
     </g>
    </g>
    <g id="ytick_9">
     <g id="line2d_20">
      <g>
       <use style="stroke:#000000;stroke-width:1.875;" x="72.615" xlink:href="#m1735f19730" y="97.8"/>
      </g>
     </g>
     <g id="text_20">
      <!-- 80 -->
      <g transform="translate(39.11875 104.068711)scale(0.165 -0.165)">
       <use xlink:href="#DejaVuSans-38"/>
       <use x="63.623047" xlink:href="#DejaVuSans-30"/>
      </g>
     </g>
    </g>
    <g id="ytick_10">
     <g id="line2d_21">
      <g>
       <use style="stroke:#000000;stroke-width:1.875;" x="72.615" xlink:href="#m1735f19730" y="61.56"/>
      </g>
     </g>
     <g id="text_21">
      <!-- 90 -->
      <g transform="translate(39.11875 67.828711)scale(0.165 -0.165)">
       <use xlink:href="#DejaVuSans-39"/>
       <use x="63.623047" xlink:href="#DejaVuSans-30"/>
      </g>
     </g>
    </g>
    <g id="ytick_11">
     <g id="line2d_22">
      <g>
       <use style="stroke:#000000;stroke-width:1.875;" x="72.615" xlink:href="#m1735f19730" y="25.32"/>
      </g>
     </g>
     <g id="text_22">
      <!-- 100 -->
      <g transform="translate(28.620625 31.588711)scale(0.165 -0.165)">
       <use xlink:href="#DejaVuSans-31"/>
       <use x="63.623047" xlink:href="#DejaVuSans-30"/>
       <use x="127.246094" xlink:href="#DejaVuSans-30"/>
      </g>
     </g>
    </g>
    <g id="text_23">
     <!-- Percent of gene pairs -->
     <g transform="translate(20.877188 293.180625)rotate(-90)scale(0.18 -0.18)">
      <defs>
       <path d="M 1259 4147 
L 1259 2394 
L 2053 2394 
Q 2494 2394 2734 2622 
Q 2975 2850 2975 3272 
Q 2975 3691 2734 3919 
Q 2494 4147 2053 4147 
L 1259 4147 
z
M 628 4666 
L 2053 4666 
Q 2838 4666 3239 4311 
Q 3641 3956 3641 3272 
Q 3641 2581 3239 2228 
Q 2838 1875 2053 1875 
L 1259 1875 
L 1259 0 
L 628 0 
L 628 4666 
z
" id="DejaVuSans-50" transform="scale(0.015625)"/>
       <path d="M 3597 1894 
L 3597 1613 
L 953 1613 
Q 991 1019 1311 708 
Q 1631 397 2203 397 
Q 2534 397 2845 478 
Q 3156 559 3463 722 
L 3463 178 
Q 3153 47 2828 -22 
Q 2503 -91 2169 -91 
Q 1331 -91 842 396 
Q 353 884 353 1716 
Q 353 2575 817 3079 
Q 1281 3584 2069 3584 
Q 2775 3584 3186 3129 
Q 3597 2675 3597 1894 
z
M 3022 2063 
Q 3016 2534 2758 2815 
Q 2500 3097 2075 3097 
Q 1594 3097 1305 2825 
Q 1016 2553 972 2059 
L 3022 2063 
z
" id="DejaVuSans-65" transform="scale(0.015625)"/>
       <path d="M 2631 2963 
Q 2534 3019 2420 3045 
Q 2306 3072 2169 3072 
Q 1681 3072 1420 2755 
Q 1159 2438 1159 1844 
L 1159 0 
L 581 0 
L 581 3500 
L 1159 3500 
L 1159 2956 
Q 1341 3275 1631 3429 
Q 1922 3584 2338 3584 
Q 2397 3584 2469 3576 
Q 2541 3569 2628 3553 
L 2631 2963 
z
" id="DejaVuSans-72" transform="scale(0.015625)"/>
       <path d="M 3122 3366 
L 3122 2828 
Q 2878 2963 2633 3030 
Q 2388 3097 2138 3097 
Q 1578 3097 1268 2742 
Q 959 2388 959 1747 
Q 959 1106 1268 751 
Q 1578 397 2138 397 
Q 2388 397 2633 464 
Q 2878 531 3122 666 
L 3122 134 
Q 2881 22 2623 -34 
Q 2366 -91 2075 -91 
Q 1284 -91 818 406 
Q 353 903 353 1747 
Q 353 2603 823 3093 
Q 1294 3584 2113 3584 
Q 2378 3584 2631 3529 
Q 2884 3475 3122 3366 
z
" id="DejaVuSans-63" transform="scale(0.015625)"/>
       <path d="M 3513 2113 
L 3513 0 
L 2938 0 
L 2938 2094 
Q 2938 2591 2744 2837 
Q 2550 3084 2163 3084 
Q 1697 3084 1428 2787 
Q 1159 2491 1159 1978 
L 1159 0 
L 581 0 
L 581 3500 
L 1159 3500 
L 1159 2956 
Q 1366 3272 1645 3428 
Q 1925 3584 2291 3584 
Q 2894 3584 3203 3211 
Q 3513 2838 3513 2113 
z
" id="DejaVuSans-6e" transform="scale(0.015625)"/>
       <path d="M 1172 4494 
L 1172 3500 
L 2356 3500 
L 2356 3053 
L 1172 3053 
L 1172 1153 
Q 1172 725 1289 603 
Q 1406 481 1766 481 
L 2356 481 
L 2356 0 
L 1766 0 
Q 1100 0 847 248 
Q 594 497 594 1153 
L 594 3053 
L 172 3053 
L 172 3500 
L 594 3500 
L 594 4494 
L 1172 4494 
z
" id="DejaVuSans-74" transform="scale(0.015625)"/>
       <path id="DejaVuSans-20" transform="scale(0.015625)"/>
       <path d="M 1959 3097 
Q 1497 3097 1228 2736 
Q 959 2375 959 1747 
Q 959 1119 1226 758 
Q 1494 397 1959 397 
Q 2419 397 2687 759 
Q 2956 1122 2956 1747 
Q 2956 2369 2687 2733 
Q 2419 3097 1959 3097 
z
M 1959 3584 
Q 2709 3584 3137 3096 
Q 3566 2609 3566 1747 
Q 3566 888 3137 398 
Q 2709 -91 1959 -91 
Q 1206 -91 779 398 
Q 353 888 353 1747 
Q 353 2609 779 3096 
Q 1206 3584 1959 3584 
z
" id="DejaVuSans-6f" transform="scale(0.015625)"/>
       <path d="M 2375 4863 
L 2375 4384 
L 1825 4384 
Q 1516 4384 1395 4259 
Q 1275 4134 1275 3809 
L 1275 3500 
L 2222 3500 
L 2222 3053 
L 1275 3053 
L 1275 0 
L 697 0 
L 697 3053 
L 147 3053 
L 147 3500 
L 697 3500 
L 697 3744 
Q 697 4328 969 4595 
Q 1241 4863 1831 4863 
L 2375 4863 
z
" id="DejaVuSans-66" transform="scale(0.015625)"/>
       <path d="M 2906 1791 
Q 2906 2416 2648 2759 
Q 2391 3103 1925 3103 
Q 1463 3103 1205 2759 
Q 947 2416 947 1791 
Q 947 1169 1205 825 
Q 1463 481 1925 481 
Q 2391 481 2648 825 
Q 2906 1169 2906 1791 
z
M 3481 434 
Q 3481 -459 3084 -895 
Q 2688 -1331 1869 -1331 
Q 1566 -1331 1297 -1286 
Q 1028 -1241 775 -1147 
L 775 -588 
Q 1028 -725 1275 -790 
Q 1522 -856 1778 -856 
Q 2344 -856 2625 -561 
Q 2906 -266 2906 331 
L 2906 616 
Q 2728 306 2450 153 
Q 2172 0 1784 0 
Q 1141 0 747 490 
Q 353 981 353 1791 
Q 353 2603 747 3093 
Q 1141 3584 1784 3584 
Q 2172 3584 2450 3431 
Q 2728 3278 2906 2969 
L 2906 3500 
L 3481 3500 
L 3481 434 
z
" id="DejaVuSans-67" transform="scale(0.015625)"/>
       <path d="M 1159 525 
L 1159 -1331 
L 581 -1331 
L 581 3500 
L 1159 3500 
L 1159 2969 
Q 1341 3281 1617 3432 
Q 1894 3584 2278 3584 
Q 2916 3584 3314 3078 
Q 3713 2572 3713 1747 
Q 3713 922 3314 415 
Q 2916 -91 2278 -91 
Q 1894 -91 1617 61 
Q 1341 213 1159 525 
z
M 3116 1747 
Q 3116 2381 2855 2742 
Q 2594 3103 2138 3103 
Q 1681 3103 1420 2742 
Q 1159 2381 1159 1747 
Q 1159 1113 1420 752 
Q 1681 391 2138 391 
Q 2594 391 2855 752 
Q 3116 1113 3116 1747 
z
" id="DejaVuSans-70" transform="scale(0.015625)"/>
       <path d="M 2194 1759 
Q 1497 1759 1228 1600 
Q 959 1441 959 1056 
Q 959 750 1161 570 
Q 1363 391 1709 391 
Q 2188 391 2477 730 
Q 2766 1069 2766 1631 
L 2766 1759 
L 2194 1759 
z
M 3341 1997 
L 3341 0 
L 2766 0 
L 2766 531 
Q 2569 213 2275 61 
Q 1981 -91 1556 -91 
Q 1019 -91 701 211 
Q 384 513 384 1019 
Q 384 1609 779 1909 
Q 1175 2209 1959 2209 
L 2766 2209 
L 2766 2266 
Q 2766 2663 2505 2880 
Q 2244 3097 1772 3097 
Q 1472 3097 1187 3025 
Q 903 2953 641 2809 
L 641 3341 
Q 956 3463 1253 3523 
Q 1550 3584 1831 3584 
Q 2591 3584 2966 3190 
Q 3341 2797 3341 1997 
z
" id="DejaVuSans-61" transform="scale(0.015625)"/>
       <path d="M 603 3500 
L 1178 3500 
L 1178 0 
L 603 0 
L 603 3500 
z
M 603 4863 
L 1178 4863 
L 1178 4134 
L 603 4134 
L 603 4863 
z
" id="DejaVuSans-69" transform="scale(0.015625)"/>
       <path d="M 2834 3397 
L 2834 2853 
Q 2591 2978 2328 3040 
Q 2066 3103 1784 3103 
Q 1356 3103 1142 2972 
Q 928 2841 928 2578 
Q 928 2378 1081 2264 
Q 1234 2150 1697 2047 
L 1894 2003 
Q 2506 1872 2764 1633 
Q 3022 1394 3022 966 
Q 3022 478 2636 193 
Q 2250 -91 1575 -91 
Q 1294 -91 989 -36 
Q 684 19 347 128 
L 347 722 
Q 666 556 975 473 
Q 1284 391 1588 391 
Q 1994 391 2212 530 
Q 2431 669 2431 922 
Q 2431 1156 2273 1281 
Q 2116 1406 1581 1522 
L 1381 1569 
Q 847 1681 609 1914 
Q 372 2147 372 2553 
Q 372 3047 722 3315 
Q 1072 3584 1716 3584 
Q 2034 3584 2315 3537 
Q 2597 3491 2834 3397 
z
" id="DejaVuSans-73" transform="scale(0.015625)"/>
      </defs>
      <use xlink:href="#DejaVuSans-50"/>
      <use x="56.677734" xlink:href="#DejaVuSans-65"/>
      <use x="118.201172" xlink:href="#DejaVuSans-72"/>
      <use x="157.064453" xlink:href="#DejaVuSans-63"/>
      <use x="212.044922" xlink:href="#DejaVuSans-65"/>
      <use x="273.568359" xlink:href="#DejaVuSans-6e"/>
      <use x="336.947266" xlink:href="#DejaVuSans-74"/>
      <use x="376.15625" xlink:href="#DejaVuSans-20"/>
      <use x="407.943359" xlink:href="#DejaVuSans-6f"/>
      <use x="469.125" xlink:href="#DejaVuSans-66"/>
      <use x="504.330078" xlink:href="#DejaVuSans-20"/>
      <use x="536.117188" xlink:href="#DejaVuSans-67"/>
      <use x="599.59375" xlink:href="#DejaVuSans-65"/>
      <use x="661.117188" xlink:href="#DejaVuSans-6e"/>
      <use x="724.496094" xlink:href="#DejaVuSans-65"/>
      <use x="786.019531" xlink:href="#DejaVuSans-20"/>
      <use x="817.806641" xlink:href="#DejaVuSans-70"/>
      <use x="881.283203" xlink:href="#DejaVuSans-61"/>
      <use x="942.5625" xlink:href="#DejaVuSans-69"/>
      <use x="970.345703" xlink:href="#DejaVuSans-72"/>
      <use x="1011.458984" xlink:href="#DejaVuSans-73"/>
     </g>
    </g>
   </g>
   <g id="LineCollection_1">
    <path clip-path="url(#p9d850b76cf)" d="M 72.615 134.04 
L 389.548551 134.04 
" style="fill:none;stroke:#808080;stroke-dasharray:2.25,3.7125;stroke-dashoffset:0;stroke-width:2.25;"/>
   </g>
   <g id="LineCollection_2">
    <path clip-path="url(#p9d850b76cf)" d="M 192.075449 387.72 
L 192.075449 134.04 
" style="fill:none;stroke:#808080;stroke-dasharray:2.25,3.7125;stroke-dashoffset:0;stroke-width:2.25;"/>
   </g>
   <g id="LineCollection_3">
    <path clip-path="url(#p9d850b76cf)" d="M 322.570194 387.72 
L 322.570194 134.04 
" style="fill:none;stroke:#808080;stroke-dasharray:2.25,3.7125;stroke-dashoffset:0;stroke-width:2.25;"/>
   </g>
   <g id="LineCollection_4">
    <path clip-path="url(#p9d850b76cf)" d="M 389.548551 387.72 
L 389.548551 134.04 
" style="fill:none;stroke:#808080;stroke-dasharray:2.25,3.7125;stroke-dashoffset:0;stroke-width:2.25;"/>
   </g>
   <g id="LineCollection_5">
    <path clip-path="url(#p9d850b76cf)" d="M 276.628152 387.72 
L 276.628152 134.04 
" style="fill:none;stroke:#808080;stroke-dasharray:2.25,3.7125;stroke-dashoffset:0;stroke-width:2.25;"/>
   </g>
   <g id="line2d_23">
    <path clip-path="url(#p9d850b76cf)" d="M 97.978636 387.72 
L 160.826585 387.66564 
L 160.826585 386.97708 
L 165.315724 386.97708 
L 165.315724 383.44368 
L 169.804863 383.44368 
L 169.804863 373.615392 
L 174.294002 373.615392 
L 174.294002 358.416336 
L 178.783142 358.416336 
L 178.783142 340.792824 
L 183.272281 340.792824 
L 183.272281 321.705216 
L 187.76142 321.705216 
L 187.76142 303.338784 
L 192.250559 303.338784 
L 192.250559 286.037808 
L 196.739698 286.037808 
L 196.739698 269.918256 
L 201.228837 269.918256 
L 201.228837 255.342528 
L 205.717977 255.342528 
L 205.717977 242.278008 
L 210.207116 242.278008 
L 210.207116 230.586984 
L 214.696255 230.586984 
L 214.696255 219.834576 
L 219.185394 219.834576 
L 219.185394 210.154872 
L 223.674533 210.154872 
L 223.674533 201.022392 
L 228.163673 201.022392 
L 228.163673 192.87564 
L 232.652812 192.87564 
L 232.652812 185.131152 
L 237.141951 185.131152 
L 237.141951 177.94476 
L 241.63109 177.94476 
L 241.63109 171.153384 
L 246.120229 171.153384 
L 246.120229 164.941848 
L 250.609368 164.941848 
L 250.609368 158.88252 
L 255.098508 158.88252 
L 255.098508 153.2472 
L 259.587647 153.2472 
L 259.587647 148.06488 
L 264.076786 148.06488 
L 264.076786 142.878936 
L 268.565925 142.878936 
L 268.565925 137.794464 
L 273.055064 137.794464 
L 273.055064 133.039776 
L 277.544204 133.039776 
L 277.544204 128.535144 
L 282.033343 128.535144 
L 282.033343 124.077624 
L 286.522482 124.077624 
L 286.522482 119.895528 
L 291.011621 119.895528 
L 291.011621 115.887384 
L 295.50076 115.887384 
L 295.50076 112.067688 
L 299.989899 112.067688 
L 299.989899 108.443688 
L 304.479039 108.443688 
L 304.479039 104.870424 
L 308.968178 104.870424 
L 308.968178 101.275416 
L 313.457317 101.275416 
L 313.457317 97.847112 
L 317.946456 97.847112 
L 317.946456 94.404312 
L 322.435595 94.404312 
L 322.435595 91.247808 
L 326.924735 91.247808 
L 326.924735 88.018824 
L 331.413874 88.018824 
L 331.413874 84.702864 
L 335.903013 84.702864 
L 335.903013 81.644208 
L 340.392152 81.644208 
L 340.392152 78.748632 
L 344.881291 78.748632 
L 344.881291 75.718968 
L 349.37043 75.718968 
L 349.37043 73.040832 
L 353.85957 73.040832 
L 353.85957 70.290216 
L 358.348709 70.290216 
L 358.348709 67.644696 
L 362.837848 67.644696 
L 362.837848 65.042664 
L 367.326987 65.042664 
L 367.326987 62.596464 
L 371.816126 62.596464 
L 371.816126 60.215496 
L 376.305265 60.215496 
L 376.305265 57.856272 
L 380.794405 57.856272 
L 380.794405 55.703616 
L 385.283544 55.703616 
L 385.283544 53.757528 
L 389.772683 53.757528 
L 389.772683 51.724464 
L 394.261822 51.724464 
L 394.261822 49.698648 
L 398.750961 49.698648 
L 398.750961 47.738064 
L 403.240101 47.738064 
L 403.240101 45.95868 
L 407.72924 45.95868 
L 407.72924 44.269896 
L 412.218379 44.269896 
L 412.218379 42.58836 
L 416.707518 42.58836 
L 416.707518 41.200368 
L 421.196657 41.200368 
L 421.196657 39.776136 
L 425.685796 39.776136 
L 425.685796 38.322912 
L 430.174936 38.322912 
L 430.174936 37.02552 
L 434.664075 37.02552 
L 434.664075 35.876712 
L 439.153214 35.876712 
L 439.153214 34.818504 
L 443.642353 34.818504 
L 443.642353 33.738552 
L 448.131492 33.738552 
L 448.131492 32.698464 
L 452.620632 32.698464 
L 452.620632 31.835952 
L 457.109771 31.835952 
L 457.109771 30.904584 
L 461.59891 30.904584 
L 461.59891 30.187032 
L 466.088049 30.187032 
L 466.088049 29.610816 
L 470.577188 29.610816 
L 470.577188 28.994736 
L 475.066327 28.994736 
L 475.066327 28.465632 
L 479.555467 28.465632 
L 479.555467 28.070616 
L 484.044606 28.070616 
L 484.044606 27.63936 
L 488.533745 27.63936 
L 488.533745 27.269712 
L 493.022884 27.269712 
L 493.022884 26.9508 
L 497.512023 26.9508 
L 497.512023 26.686248 
L 502.001163 26.686248 
L 502.001163 26.44344 
L 506.490302 26.44344 
L 506.490302 26.186136 
L 510.979441 26.186136 
L 510.979441 26.023056 
L 515.46858 26.023056 
L 515.46858 25.8636 
L 519.957719 25.8636 
L 519.957719 25.722264 
L 528.935998 25.635288 
L 528.935998 25.566432 
L 542.403415 25.457712 
L 542.403415 25.414224 
L 605.251364 25.32 
L 605.251364 25.32 
" style="fill:none;stroke:#d62728;stroke-linecap:square;stroke-width:2.25;"/>
   </g>
   <g id="line2d_24">
    <path clip-path="url(#p9d850b76cf)" d="M 97.978636 382.802232 
L 102.467776 382.802232 
L 102.467776 377.576424 
L 106.956915 377.576424 
L 106.956915 372.48108 
L 111.446054 372.48108 
L 111.446054 367.269768 
L 115.935193 367.269768 
L 115.935193 362.420856 
L 120.424332 362.420856 
L 120.424332 357.2784 
L 124.913471 357.2784 
L 124.913471 352.324392 
L 129.402611 352.324392 
L 129.402611 347.696544 
L 133.89175 347.696544 
L 133.89175 342.880248 
L 138.380889 342.880248 
L 138.380889 338.147304 
L 142.870028 338.147304 
L 142.870028 333.225912 
L 147.359167 333.225912 
L 147.359167 328.453104 
L 151.848307 328.453104 
L 151.848307 323.868744 
L 156.337446 323.868744 
L 156.337446 319.324248 
L 160.826585 319.324248 
L 160.826585 314.743512 
L 165.315724 314.743512 
L 165.315724 310.14828 
L 169.804863 310.14828 
L 169.804863 305.687136 
L 174.294002 305.687136 
L 174.294002 301.153512 
L 178.783142 301.153512 
L 178.783142 296.692368 
L 183.272281 296.692368 
L 183.272281 292.205856 
L 187.76142 292.205856 
L 187.76142 287.925912 
L 192.250559 287.925912 
L 192.250559 283.577112 
L 196.739698 283.577112 
L 196.739698 279.210192 
L 201.228837 279.210192 
L 201.228837 275.183928 
L 205.717977 275.183928 
L 205.717977 270.943848 
L 210.207116 270.943848 
L 210.207116 267.033552 
L 214.696255 267.033552 
L 214.696255 263.079768 
L 219.185394 263.079768 
L 219.185394 259.278192 
L 223.674533 259.278192 
L 223.674533 255.458496 
L 228.163673 255.458496 
L 228.163673 251.569944 
L 232.652812 251.569944 
L 232.652812 247.956816 
L 237.141951 247.956816 
L 237.141951 244.10088 
L 241.63109 244.10088 
L 241.63109 240.29568 
L 246.120229 240.29568 
L 246.120229 236.5086 
L 250.609368 236.5086 
L 250.609368 233.004192 
L 255.098508 233.004192 
L 255.098508 229.122888 
L 259.587647 229.122888 
L 259.587647 225.506136 
L 264.076786 225.506136 
L 264.076786 221.845896 
L 268.565925 221.845896 
L 268.565925 218.254512 
L 273.055064 218.254512 
L 273.055064 214.721112 
L 277.544204 214.721112 
L 277.544204 211.05 
L 282.033343 211.05 
L 282.033343 207.64344 
L 286.522482 207.64344 
L 286.522482 204.356472 
L 291.011621 204.356472 
L 291.011621 200.989776 
L 295.50076 200.989776 
L 295.50076 197.62308 
L 299.989899 197.62308 
L 299.989899 194.118672 
L 304.479039 194.118672 
L 304.479039 190.867944 
L 308.968178 190.867944 
L 308.968178 187.53024 
L 313.457317 187.53024 
L 313.457317 184.46796 
L 317.946456 184.46796 
L 317.946456 181.162872 
L 322.435595 181.162872 
L 322.435595 177.923016 
L 326.924735 177.923016 
L 326.924735 174.654168 
L 331.413874 174.654168 
L 331.413874 171.396192 
L 335.903013 171.396192 
L 335.903013 167.986008 
L 340.392152 167.986008 
L 340.392152 164.742528 
L 344.881291 164.742528 
L 344.881291 161.629512 
L 349.37043 161.629512 
L 349.37043 158.516496 
L 353.85957 158.516496 
L 353.85957 155.410728 
L 358.348709 155.410728 
L 358.348709 152.32308 
L 362.837848 152.32308 
L 362.837848 149.086848 
L 367.326987 149.086848 
L 367.326987 146.12604 
L 371.816126 146.12604 
L 371.816126 143.06376 
L 376.305265 143.06376 
L 376.305265 140.005104 
L 380.794405 140.005104 
L 380.794405 136.931952 
L 385.283544 136.931952 
L 385.283544 133.887792 
L 389.772683 133.887792 
L 389.772683 130.7784 
L 394.261822 130.7784 
L 394.261822 127.698 
L 398.750961 127.698 
L 398.750961 124.78068 
L 403.240101 124.78068 
L 403.240101 121.801752 
L 407.72924 121.801752 
L 407.72924 118.840944 
L 412.218379 118.840944 
L 412.218379 115.79316 
L 416.707518 115.79316 
L 416.707518 112.734504 
L 421.196657 112.734504 
L 421.196657 109.74108 
L 425.685796 109.74108 
L 425.685796 106.725912 
L 430.174936 106.725912 
L 430.174936 103.94268 
L 434.664075 103.94268 
L 434.664075 100.913016 
L 439.153214 100.913016 
L 439.153214 97.984824 
L 443.642353 97.984824 
L 443.642353 94.893552 
L 448.131492 94.893552 
L 448.131492 91.805904 
L 452.620632 91.805904 
L 452.620632 88.70376 
L 457.109771 88.70376 
L 457.109771 85.543632 
L 461.59891 85.543632 
L 461.59891 82.376256 
L 466.088049 82.376256 
L 466.088049 79.277736 
L 470.577188 79.277736 
L 470.577188 76.030632 
L 475.066327 76.030632 
L 475.066327 73.008216 
L 479.555467 73.008216 
L 479.555467 69.909696 
L 484.044606 69.909696 
L 484.044606 66.825672 
L 488.533745 66.825672 
L 488.533745 63.792384 
L 493.022884 63.792384 
L 493.022884 60.78084 
L 497.512023 60.78084 
L 497.512023 57.801912 
L 502.001163 57.801912 
L 502.001163 54.913584 
L 506.490302 54.913584 
L 506.490302 52.144848 
L 510.979441 52.144848 
L 510.979441 49.49208 
L 515.46858 49.49208 
L 515.46858 46.93716 
L 519.957719 46.93716 
L 519.957719 44.534448 
L 524.446858 44.534448 
L 524.446858 42.070128 
L 528.935998 42.070128 
L 528.935998 39.85224 
L 533.425137 39.85224 
L 533.425137 37.645224 
L 537.914276 37.645224 
L 537.914276 35.681016 
L 542.403415 35.681016 
L 542.403415 33.774792 
L 546.892554 33.774792 
L 546.892554 32.031648 
L 551.381693 32.031648 
L 551.381693 30.582048 
L 555.870833 30.582048 
L 555.870833 29.208552 
L 560.359972 29.208552 
L 560.359972 28.16484 
L 564.849111 28.16484 
L 564.849111 27.305952 
L 569.33825 27.305952 
L 569.33825 26.592024 
L 573.827389 26.592024 
L 573.827389 26.139024 
L 578.316529 26.139024 
L 578.316529 25.696896 
L 582.805668 25.696896 
L 582.805668 25.526568 
L 587.294807 25.526568 
L 587.294807 25.399728 
L 605.251364 25.32 
L 605.251364 25.32 
" style="fill:none;stroke:#2ca02c;stroke-linecap:square;stroke-width:2.25;"/>
   </g>
   <g id="line2d_25">
    <path clip-path="url(#p9d850b76cf)" d="M 97.978636 378.699864 
L 102.467776 378.699864 
L 102.467776 369.476784 
L 106.956915 369.476784 
L 106.956915 360.550872 
L 111.446054 360.550872 
L 111.446054 351.284304 
L 115.935193 351.284304 
L 115.935193 342.67368 
L 120.424332 342.67368 
L 120.424332 334.414584 
L 124.913471 334.414584 
L 124.913471 326.40192 
L 129.402611 326.40192 
L 129.402611 318.780648 
L 133.89175 318.780648 
L 133.89175 311.0724 
L 138.380889 311.0724 
L 138.380889 303.791784 
L 142.870028 303.791784 
L 142.870028 296.826456 
L 147.359167 296.826456 
L 147.359167 289.99884 
L 151.848307 289.99884 
L 151.848307 283.142232 
L 156.337446 283.142232 
L 156.337446 276.550176 
L 160.826585 276.550176 
L 160.826585 270.37488 
L 165.315724 270.37488 
L 165.315724 264.355416 
L 169.804863 264.355416 
L 169.804863 258.792576 
L 174.294002 258.792576 
L 174.294002 253.200744 
L 178.783142 253.200744 
L 178.783142 247.699512 
L 183.272281 247.699512 
L 183.272281 242.281632 
L 187.76142 242.281632 
L 187.76142 237.041328 
L 192.250559 237.041328 
L 192.250559 231.819144 
L 196.739698 231.819144 
L 196.739698 226.792656 
L 201.228837 226.792656 
L 201.228837 221.969112 
L 205.717977 221.969112 
L 205.717977 217.526088 
L 210.207116 217.526088 
L 210.207116 213.010584 
L 214.696255 213.010584 
L 214.696255 208.679904 
L 219.185394 208.679904 
L 219.185394 204.50868 
L 223.674533 204.50868 
L 223.674533 200.511408 
L 228.163673 200.511408 
L 228.163673 196.249584 
L 232.652812 196.249584 
L 232.652812 192.444384 
L 237.141951 192.444384 
L 237.141951 188.79864 
L 241.63109 188.79864 
L 241.63109 185.261616 
L 246.120229 185.261616 
L 246.120229 181.6956 
L 250.609368 181.6956 
L 250.609368 178.386888 
L 255.098508 178.386888 
L 255.098508 174.817248 
L 259.587647 174.817248 
L 259.587647 171.9108 
L 264.076786 171.9108 
L 264.076786 168.855768 
L 268.565925 168.855768 
L 268.565925 165.717384 
L 273.055064 165.717384 
L 273.055064 162.477528 
L 277.544204 162.477528 
L 277.544204 159.614568 
L 282.033343 159.614568 
L 282.033343 156.603024 
L 286.522482 156.603024 
L 286.522482 153.729192 
L 291.011621 153.729192 
L 291.011621 150.920592 
L 295.50076 150.920592 
L 295.50076 148.097496 
L 299.989899 148.097496 
L 299.989899 145.1838 
L 304.479039 145.1838 
L 304.479039 142.512912 
L 308.968178 142.512912 
L 308.968178 139.599216 
L 313.457317 139.599216 
L 313.457317 136.881216 
L 317.946456 136.881216 
L 317.946456 134.126976 
L 322.435595 134.126976 
L 322.435595 131.474208 
L 326.924735 131.474208 
L 326.924735 128.933784 
L 331.413874 128.933784 
L 331.413874 126.179544 
L 335.903013 126.179544 
L 335.903013 123.624624 
L 340.392152 123.624624 
L 340.392152 121.044336 
L 344.881291 121.044336 
L 344.881291 118.507536 
L 349.37043 118.507536 
L 349.37043 115.941744 
L 353.85957 115.941744 
L 353.85957 113.43756 
L 358.348709 113.43756 
L 358.348709 111.013104 
L 362.837848 111.013104 
L 362.837848 108.353088 
L 367.326987 108.353088 
L 367.326987 105.88152 
L 371.816126 105.88152 
L 371.816126 103.428072 
L 376.305265 103.428072 
L 376.305265 101.090592 
L 380.794405 101.090592 
L 380.794405 98.550168 
L 385.283544 98.550168 
L 385.283544 95.988 
L 389.772683 95.988 
L 389.772683 93.538176 
L 394.261822 93.538176 
L 394.261822 90.845544 
L 398.750961 90.845544 
L 398.750961 88.265256 
L 403.240101 88.265256 
L 403.240101 85.637856 
L 407.72924 85.637856 
L 407.72924 83.115552 
L 412.218379 83.115552 
L 412.218379 80.488152 
L 416.707518 80.488152 
L 416.707518 77.998464 
L 421.196657 77.998464 
L 421.196657 75.537768 
L 425.685796 75.537768 
L 425.685796 72.979224 
L 430.174936 72.979224 
L 430.174936 70.485912 
L 434.664075 70.485912 
L 434.664075 67.88388 
L 439.153214 67.88388 
L 439.153214 65.56452 
L 443.642353 65.56452 
L 443.642353 63.310392 
L 448.131492 63.310392 
L 448.131492 60.99828 
L 452.620632 60.99828 
L 452.620632 58.704288 
L 457.109771 58.704288 
L 457.109771 56.526264 
L 461.59891 56.526264 
L 461.59891 54.359112 
L 466.088049 54.359112 
L 466.088049 52.166592 
L 470.577188 52.166592 
L 470.577188 50.263992 
L 475.066327 50.263992 
L 475.066327 48.299784 
L 479.555467 48.299784 
L 479.555467 46.328328 
L 484.044606 46.328328 
L 484.044606 44.49096 
L 488.533745 44.49096 
L 488.533745 42.75144 
L 493.022884 42.75144 
L 493.022884 41.10252 
L 497.512023 41.10252 
L 497.512023 39.4536 
L 502.001163 39.4536 
L 502.001163 37.869912 
L 506.490302 37.869912 
L 506.490302 36.326088 
L 510.979441 36.326088 
L 510.979441 34.843872 
L 515.46858 34.843872 
L 515.46858 33.640704 
L 519.957719 33.640704 
L 519.957719 32.502768 
L 524.446858 32.502768 
L 524.446858 31.201752 
L 528.935998 31.201752 
L 528.935998 30.183408 
L 533.425137 30.183408 
L 533.425137 29.371632 
L 537.914276 29.371632 
L 537.914276 28.516368 
L 542.403415 28.516368 
L 542.403415 27.798816 
L 546.892554 27.798816 
L 546.892554 27.200856 
L 551.381693 27.200856 
L 551.381693 26.682624 
L 555.870833 26.682624 
L 555.870833 26.291232 
L 560.359972 26.291232 
L 560.359972 26.001312 
L 564.849111 26.001312 
L 564.849111 25.780248 
L 569.33825 25.780248 
L 569.33825 25.548312 
L 578.316529 25.468584 
L 578.316529 25.403352 
L 605.251364 25.32 
L 605.251364 25.32 
" style="fill:none;stroke:#ff7f0e;stroke-linecap:square;stroke-width:2.25;"/>
   </g>
   <g id="line2d_26">
    <path clip-path="url(#p9d850b76cf)" d="M 97.978636 368.596152 
L 102.467776 368.596152 
L 102.467776 334.621152 
L 106.956915 334.621152 
L 106.956915 304.777512 
L 111.446054 304.777512 
L 111.446054 279.70668 
L 115.935193 279.70668 
L 115.935193 260.162448 
L 120.424332 260.162448 
L 120.424332 244.561128 
L 124.913471 244.561128 
L 124.913471 231.043608 
L 129.402611 231.043608 
L 129.402611 219.997656 
L 133.89175 219.997656 
L 133.89175 210.122256 
L 138.380889 210.122256 
L 138.380889 200.917296 
L 142.870028 200.917296 
L 142.870028 193.404744 
L 147.359167 193.404744 
L 147.359167 185.64576 
L 151.848307 185.64576 
L 151.848307 178.865256 
L 156.337446 178.865256 
L 156.337446 171.682488 
L 160.826585 171.682488 
L 160.826585 165.463704 
L 165.315724 165.463704 
L 165.315724 159.955224 
L 169.804863 159.955224 
L 169.804863 154.667808 
L 174.294002 154.667808 
L 174.294002 147.586512 
L 178.783142 147.586512 
L 178.783142 142.291848 
L 183.272281 142.291848 
L 183.272281 137.232744 
L 187.76142 137.232744 
L 187.76142 132.333096 
L 192.250559 132.333096 
L 192.250559 129.259944 
L 196.739698 129.259944 
L 196.739698 124.429152 
L 201.228837 124.429152 
L 201.228837 119.931768 
L 205.717977 119.931768 
L 205.717977 115.952616 
L 210.207116 115.952616 
L 210.207116 111.375504 
L 214.696255 111.375504 
L 214.696255 108.809712 
L 219.185394 108.809712 
L 219.185394 104.819688 
L 223.674533 104.819688 
L 223.674533 100.438272 
L 228.163673 100.438272 
L 228.163673 97.69128 
L 232.652812 97.69128 
L 232.652812 93.585288 
L 237.141951 93.585288 
L 237.141951 91.015872 
L 241.63109 91.015872 
L 241.63109 87.330264 
L 246.120229 87.330264 
L 246.120229 85.04352 
L 250.609368 85.04352 
L 250.609368 81.082488 
L 255.098508 81.082488 
L 255.098508 78.759504 
L 259.587647 78.759504 
L 259.587647 75.117384 
L 264.076786 75.117384 
L 264.076786 72.924864 
L 268.565925 72.924864 
L 268.565925 69.1704 
L 273.055064 69.1704 
L 273.055064 67.166328 
L 277.544204 67.166328 
L 277.544204 65.29272 
L 282.033343 65.29272 
L 282.033343 62.17608 
L 286.522482 62.17608 
L 286.522482 60.229992 
L 291.011621 60.229992 
L 291.011621 58.51584 
L 295.50076 58.51584 
L 295.50076 55.594896 
L 299.989899 55.594896 
L 299.989899 53.906112 
L 304.479039 53.906112 
L 304.479039 52.257192 
L 308.968178 52.257192 
L 308.968178 49.477584 
L 313.457317 49.477584 
L 313.457317 47.901144 
L 317.946456 47.901144 
L 317.946456 46.277592 
L 322.435595 46.277592 
L 322.435595 44.867856 
L 326.924735 44.867856 
L 326.924735 42.341928 
L 331.413874 42.341928 
L 331.413874 41.088024 
L 335.903013 41.088024 
L 335.903013 39.957336 
L 340.392152 39.957336 
L 340.392152 38.779536 
L 344.881291 38.779536 
L 344.881291 37.681464 
L 349.37043 37.681464 
L 349.37043 35.818728 
L 353.85957 35.818728 
L 353.85957 34.861992 
L 358.348709 34.861992 
L 358.348709 33.912504 
L 362.837848 33.912504 
L 362.837848 32.992008 
L 367.326987 32.992008 
L 367.326987 32.143992 
L 371.816126 32.143992 
L 371.816126 31.502544 
L 376.305265 31.502544 
L 376.305265 30.893712 
L 380.794405 30.893712 
L 380.794405 30.281256 
L 385.283544 30.281256 
L 385.283544 29.353512 
L 389.772683 29.353512 
L 389.772683 28.849776 
L 394.261822 28.849776 
L 394.261822 28.378656 
L 398.750961 28.378656 
L 398.750961 28.01988 
L 403.240101 28.01988 
L 403.240101 27.628488 
L 407.72924 27.628488 
L 407.72924 27.291456 
L 412.218379 27.291456 
L 412.218379 26.98704 
L 416.707518 26.98704 
L 416.707518 26.758728 
L 421.196657 26.758728 
L 421.196657 26.53404 
L 425.685796 26.53404 
L 425.685796 26.320224 
L 430.174936 26.320224 
L 430.174936 26.139024 
L 434.664075 26.139024 
L 434.664075 26.001312 
L 439.153214 26.001312 
L 439.153214 25.874472 
L 443.642353 25.874472 
L 443.642353 25.758504 
L 452.620632 25.660656 
L 452.620632 25.599048 
L 466.088049 25.490328 
L 466.088049 25.443216 
L 493.022884 25.334496 
L 493.022884 25.327248 
L 605.251364 25.32 
L 605.251364 25.32 
" style="fill:none;stroke:#1f77b4;stroke-linecap:square;stroke-width:2.25;"/>
   </g>
   <g id="patch_3">
    <path d="M 72.615 387.72 
L 72.615 7.2 
" style="fill:none;stroke:#000000;stroke-linecap:square;stroke-linejoin:miter;stroke-width:1.875;"/>
   </g>
   <g id="patch_4">
    <path d="M 72.615 387.72 
L 630.615 387.72 
" style="fill:none;stroke:#000000;stroke-linecap:square;stroke-linejoin:miter;stroke-width:1.875;"/>
   </g>
  </g>
 </g>
 <defs>
  <clipPath id="p9d850b76cf">
   <rect height="380.52" width="558" x="72.615" y="7.2"/>
  </clipPath>
 </defs>
</svg>
