<?xml version="1.0" encoding="utf-8" standalone="no"?>
<!DOCTYPE svg PUBLIC "-//W3C//DTD SVG 1.1//EN"
  "http://www.w3.org/Graphics/SVG/1.1/DTD/svg11.dtd">
<svg height="329.099247pt" version="1.1" viewBox="0 0 294.37514 329.099247" width="294.37514pt" xmlns="http://www.w3.org/2000/svg" xmlns:xlink="http://www.w3.org/1999/xlink">
 <metadata>
  <rdf:RDF xmlns:cc="http://creativecommons.org/ns#" xmlns:dc="http://purl.org/dc/elements/1.1/" xmlns:rdf="http://www.w3.org/1999/02/22-rdf-syntax-ns#">
   <cc:Work>
    <dc:type rdf:resource="http://purl.org/dc/dcmitype/StillImage"/>
    <dc:date>2022-05-16T13:51:29.072646</dc:date>
    <dc:format>image/svg+xml</dc:format>
    <dc:creator>
     <cc:Agent>
      <dc:title>Matplotlib v3.4.3, https://matplotlib.org/</dc:title>
     </cc:Agent>
    </dc:creator>
   </cc:Work>
  </rdf:RDF>
 </metadata>
 <defs>
  <style type="text/css">*{stroke-linecap:butt;stroke-linejoin:round;}</style>
 </defs>
 <g id="figure_1">
  <g id="patch_1">
   <path d="M 0 329.099247 
L 294.37514 329.099247 
L 294.37514 0 
L 0 0 
z
" style="fill:none;"/>
  </g>
  <g id="axes_1">
   <g id="patch_2">
    <path d="M 43.13214 103.248 
L 287.17514 103.248 
L 287.17514 7.2 
L 43.13214 7.2 
z
" style="fill:none;"/>
   </g>
   <g id="patch_3">
    <path clip-path="url(#p4c04761cf3)" d="M 46.182678 103.248 
L 70.586978 103.248 
L 70.586978 82.920381 
L 46.182678 82.920381 
z
" style="fill:#c03d3e;"/>
   </g>
   <g id="patch_4">
    <path clip-path="url(#p4c04761cf3)" d="M 76.688053 103.248 
L 101.092353 103.248 
L 101.092353 80.379429 
L 76.688053 80.379429 
z
" style="fill:#c03d3e;"/>
   </g>
   <g id="patch_5">
    <path clip-path="url(#p4c04761cf3)" d="M 107.193428 103.248 
L 131.597728 103.248 
L 131.597728 70.215619 
L 107.193428 70.215619 
z
" style="fill:#c03d3e;"/>
   </g>
   <g id="patch_6">
    <path clip-path="url(#p4c04761cf3)" d="M 137.698803 103.248 
L 162.103103 103.248 
L 162.103103 62.592762 
L 137.698803 62.592762 
z
" style="fill:#9372b2;"/>
   </g>
   <g id="patch_7">
    <path clip-path="url(#p4c04761cf3)" d="M 168.204178 103.248 
L 192.608478 103.248 
L 192.608478 67.674667 
L 168.204178 67.674667 
z
" style="fill:#9372b2;"/>
   </g>
   <g id="patch_8">
    <path clip-path="url(#p4c04761cf3)" d="M 0 0 
z
" style="fill:#3274a1;"/>
   </g>
   <g id="patch_9">
    <path clip-path="url(#p4c04761cf3)" d="M 0 0 
z
" style="fill:#3274a1;"/>
   </g>
   <g id="patch_10">
    <path clip-path="url(#p4c04761cf3)" d="M 0 0 
z
" style="fill:#3274a1;"/>
   </g>
   <g id="matplotlib.axis_1">
    <g id="xtick_1">
     <g id="line2d_1">
      <defs>
       <path d="M 0 0 
L 0 4.8 
" id="md1e1de83c0" style="stroke:#000000;"/>
      </defs>
      <g>
       <use style="stroke:#000000;" x="58.384828" xlink:href="#md1e1de83c0" y="103.248"/>
      </g>
     </g>
    </g>
    <g id="xtick_2">
     <g id="line2d_2">
      <g>
       <use style="stroke:#000000;" x="88.890203" xlink:href="#md1e1de83c0" y="103.248"/>
      </g>
     </g>
    </g>
    <g id="xtick_3">
     <g id="line2d_3">
      <g>
       <use style="stroke:#000000;" x="119.395578" xlink:href="#md1e1de83c0" y="103.248"/>
      </g>
     </g>
    </g>
    <g id="xtick_4">
     <g id="line2d_4">
      <g>
       <use style="stroke:#000000;" x="149.900953" xlink:href="#md1e1de83c0" y="103.248"/>
      </g>
     </g>
    </g>
    <g id="xtick_5">
     <g id="line2d_5">
      <g>
       <use style="stroke:#000000;" x="180.406328" xlink:href="#md1e1de83c0" y="103.248"/>
      </g>
     </g>
    </g>
    <g id="xtick_6">
     <g id="line2d_6">
      <g>
       <use style="stroke:#000000;" x="210.911703" xlink:href="#md1e1de83c0" y="103.248"/>
      </g>
     </g>
    </g>
    <g id="xtick_7">
     <g id="line2d_7">
      <g>
       <use style="stroke:#000000;" x="241.417078" xlink:href="#md1e1de83c0" y="103.248"/>
      </g>
     </g>
    </g>
    <g id="xtick_8">
     <g id="line2d_8">
      <g>
       <use style="stroke:#000000;" x="271.922453" xlink:href="#md1e1de83c0" y="103.248"/>
      </g>
     </g>
    </g>
   </g>
   <g id="matplotlib.axis_2">
    <g id="ytick_1">
     <g id="line2d_9">
      <defs>
       <path d="M 0 0 
L -4.8 0 
" id="m775aac8e3d" style="stroke:#000000;"/>
      </defs>
      <g>
       <use style="stroke:#000000;" x="43.13214" xlink:href="#m775aac8e3d" y="103.248"/>
      </g>
     </g>
     <g id="text_1">
      <!-- 0 -->
      <g transform="translate(29.23314 106.591313)scale(0.088 -0.088)">
       <defs>
        <path d="M 2034 4250 
Q 1547 4250 1301 3770 
Q 1056 3291 1056 2328 
Q 1056 1369 1301 889 
Q 1547 409 2034 409 
Q 2525 409 2770 889 
Q 3016 1369 3016 2328 
Q 3016 3291 2770 3770 
Q 2525 4250 2034 4250 
z
M 2034 4750 
Q 2819 4750 3233 4129 
Q 3647 3509 3647 2328 
Q 3647 1150 3233 529 
Q 2819 -91 2034 -91 
Q 1250 -91 836 529 
Q 422 1150 422 2328 
Q 422 3509 836 4129 
Q 1250 4750 2034 4750 
z
" id="DejaVuSans-30" transform="scale(0.015625)"/>
       </defs>
       <use xlink:href="#DejaVuSans-30"/>
      </g>
     </g>
    </g>
    <g id="ytick_2">
     <g id="line2d_10">
      <g>
       <use style="stroke:#000000;" x="43.13214" xlink:href="#m775aac8e3d" y="77.838476"/>
      </g>
     </g>
     <g id="text_2">
      <!-- 10 -->
      <g transform="translate(23.63414 81.181789)scale(0.088 -0.088)">
       <defs>
        <path d="M 794 531 
L 1825 531 
L 1825 4091 
L 703 3866 
L 703 4441 
L 1819 4666 
L 2450 4666 
L 2450 531 
L 3481 531 
L 3481 0 
L 794 0 
L 794 531 
z
" id="DejaVuSans-31" transform="scale(0.015625)"/>
       </defs>
       <use xlink:href="#DejaVuSans-31"/>
       <use x="63.623047" xlink:href="#DejaVuSans-30"/>
      </g>
     </g>
    </g>
    <g id="ytick_3">
     <g id="line2d_11">
      <g>
       <use style="stroke:#000000;" x="43.13214" xlink:href="#m775aac8e3d" y="52.428952"/>
      </g>
     </g>
     <g id="text_3">
      <!-- 20 -->
      <g transform="translate(23.63414 55.772265)scale(0.088 -0.088)">
       <defs>
        <path d="M 1228 531 
L 3431 531 
L 3431 0 
L 469 0 
L 469 531 
Q 828 903 1448 1529 
Q 2069 2156 2228 2338 
Q 2531 2678 2651 2914 
Q 2772 3150 2772 3378 
Q 2772 3750 2511 3984 
Q 2250 4219 1831 4219 
Q 1534 4219 1204 4116 
Q 875 4013 500 3803 
L 500 4441 
Q 881 4594 1212 4672 
Q 1544 4750 1819 4750 
Q 2544 4750 2975 4387 
Q 3406 4025 3406 3419 
Q 3406 3131 3298 2873 
Q 3191 2616 2906 2266 
Q 2828 2175 2409 1742 
Q 1991 1309 1228 531 
z
" id="DejaVuSans-32" transform="scale(0.015625)"/>
       </defs>
       <use xlink:href="#DejaVuSans-32"/>
       <use x="63.623047" xlink:href="#DejaVuSans-30"/>
      </g>
     </g>
    </g>
    <g id="ytick_4">
     <g id="line2d_12">
      <g>
       <use style="stroke:#000000;" x="43.13214" xlink:href="#m775aac8e3d" y="27.019429"/>
      </g>
     </g>
     <g id="text_4">
      <!-- 30 -->
      <g transform="translate(23.63414 30.362741)scale(0.088 -0.088)">
       <defs>
        <path d="M 2597 2516 
Q 3050 2419 3304 2112 
Q 3559 1806 3559 1356 
Q 3559 666 3084 287 
Q 2609 -91 1734 -91 
Q 1441 -91 1130 -33 
Q 819 25 488 141 
L 488 750 
Q 750 597 1062 519 
Q 1375 441 1716 441 
Q 2309 441 2620 675 
Q 2931 909 2931 1356 
Q 2931 1769 2642 2001 
Q 2353 2234 1838 2234 
L 1294 2234 
L 1294 2753 
L 1863 2753 
Q 2328 2753 2575 2939 
Q 2822 3125 2822 3475 
Q 2822 3834 2567 4026 
Q 2313 4219 1838 4219 
Q 1578 4219 1281 4162 
Q 984 4106 628 3988 
L 628 4550 
Q 988 4650 1302 4700 
Q 1616 4750 1894 4750 
Q 2613 4750 3031 4423 
Q 3450 4097 3450 3541 
Q 3450 3153 3228 2886 
Q 3006 2619 2597 2516 
z
" id="DejaVuSans-33" transform="scale(0.015625)"/>
       </defs>
       <use xlink:href="#DejaVuSans-33"/>
       <use x="63.623047" xlink:href="#DejaVuSans-30"/>
      </g>
     </g>
    </g>
   </g>
   <g id="line2d_13">
    <path clip-path="url(#p4c04761cf3)" style="fill:none;stroke:#424242;stroke-linecap:square;stroke-width:2.16;"/>
   </g>
   <g id="line2d_14">
    <path clip-path="url(#p4c04761cf3)" style="fill:none;stroke:#424242;stroke-linecap:square;stroke-width:2.16;"/>
   </g>
   <g id="line2d_15">
    <path clip-path="url(#p4c04761cf3)" style="fill:none;stroke:#424242;stroke-linecap:square;stroke-width:2.16;"/>
   </g>
   <g id="line2d_16">
    <path clip-path="url(#p4c04761cf3)" style="fill:none;stroke:#424242;stroke-linecap:square;stroke-width:2.16;"/>
   </g>
   <g id="line2d_17">
    <path clip-path="url(#p4c04761cf3)" style="fill:none;stroke:#424242;stroke-linecap:square;stroke-width:2.16;"/>
   </g>
   <g id="line2d_18">
    <path clip-path="url(#p4c04761cf3)" style="fill:none;stroke:#424242;stroke-linecap:square;stroke-width:2.16;"/>
   </g>
   <g id="line2d_19">
    <path clip-path="url(#p4c04761cf3)" style="fill:none;stroke:#424242;stroke-linecap:square;stroke-width:2.16;"/>
   </g>
   <g id="line2d_20">
    <path clip-path="url(#p4c04761cf3)" style="fill:none;stroke:#424242;stroke-linecap:square;stroke-width:2.16;"/>
   </g>
   <g id="patch_11">
    <path d="M 43.13214 103.248 
L 43.13214 7.2 
" style="fill:none;stroke:#000000;stroke-linecap:square;stroke-linejoin:miter;"/>
   </g>
   <g id="patch_12">
    <path d="M 43.13214 103.248 
L 287.17514 103.248 
" style="fill:none;stroke:#000000;stroke-linecap:square;stroke-linejoin:miter;"/>
   </g>
  </g>
  <g id="axes_2">
   <g id="patch_13">
    <path d="M 43.13214 229.164 
L 287.17514 229.164 
L 287.17514 133.116 
L 43.13214 133.116 
z
" style="fill:none;"/>
   </g>
   <g id="patch_14">
    <path clip-path="url(#p54e8aeafe6)" d="M 0 0 
z
" style="fill:#c03d3e;"/>
   </g>
   <g id="patch_15">
    <path clip-path="url(#p54e8aeafe6)" d="M 0 0 
z
" style="fill:#c03d3e;"/>
   </g>
   <g id="patch_16">
    <path clip-path="url(#p54e8aeafe6)" d="M 0 0 
z
" style="fill:#c03d3e;"/>
   </g>
   <g id="patch_17">
    <path clip-path="url(#p54e8aeafe6)" d="M 137.698803 229.164 
L 162.103103 229.164 
L 162.103103 206.295429 
L 137.698803 206.295429 
z
" style="fill:#9372b2;"/>
   </g>
   <g id="patch_18">
    <path clip-path="url(#p54e8aeafe6)" d="M 168.204178 229.164 
L 192.608478 229.164 
L 192.608478 211.377333 
L 168.204178 211.377333 
z
" style="fill:#9372b2;"/>
   </g>
   <g id="patch_19">
    <path clip-path="url(#p54e8aeafe6)" d="M 198.709553 229.164 
L 223.113853 229.164 
L 223.113853 137.689714 
L 198.709553 137.689714 
z
" style="fill:#3274a1;"/>
   </g>
   <g id="patch_20">
    <path clip-path="url(#p54e8aeafe6)" d="M 229.214928 229.164 
L 253.619228 229.164 
L 253.619228 183.426857 
L 229.214928 183.426857 
z
" style="fill:#3274a1;"/>
   </g>
   <g id="patch_21">
    <path clip-path="url(#p54e8aeafe6)" d="M 259.720303 229.164 
L 284.124603 229.164 
L 284.124603 198.672571 
L 259.720303 198.672571 
z
" style="fill:#3274a1;"/>
   </g>
   <g id="matplotlib.axis_3">
    <g id="xtick_9">
     <g id="line2d_21">
      <g>
       <use style="stroke:#000000;" x="58.384828" xlink:href="#md1e1de83c0" y="229.164"/>
      </g>
     </g>
     <g id="text_5">
      <!-- Macrophage -->
      <g transform="translate(10.543312 270.347787)rotate(-30)scale(0.088 -0.088)">
       <defs>
        <path d="M 628 4666 
L 1569 4666 
L 2759 1491 
L 3956 4666 
L 4897 4666 
L 4897 0 
L 4281 0 
L 4281 4097 
L 3078 897 
L 2444 897 
L 1241 4097 
L 1241 0 
L 628 0 
L 628 4666 
z
" id="DejaVuSans-4d" transform="scale(0.015625)"/>
        <path d="M 2194 1759 
Q 1497 1759 1228 1600 
Q 959 1441 959 1056 
Q 959 750 1161 570 
Q 1363 391 1709 391 
Q 2188 391 2477 730 
Q 2766 1069 2766 1631 
L 2766 1759 
L 2194 1759 
z
M 3341 1997 
L 3341 0 
L 2766 0 
L 2766 531 
Q 2569 213 2275 61 
Q 1981 -91 1556 -91 
Q 1019 -91 701 211 
Q 384 513 384 1019 
Q 384 1609 779 1909 
Q 1175 2209 1959 2209 
L 2766 2209 
L 2766 2266 
Q 2766 2663 2505 2880 
Q 2244 3097 1772 3097 
Q 1472 3097 1187 3025 
Q 903 2953 641 2809 
L 641 3341 
Q 956 3463 1253 3523 
Q 1550 3584 1831 3584 
Q 2591 3584 2966 3190 
Q 3341 2797 3341 1997 
z
" id="DejaVuSans-61" transform="scale(0.015625)"/>
        <path d="M 3122 3366 
L 3122 2828 
Q 2878 2963 2633 3030 
Q 2388 3097 2138 3097 
Q 1578 3097 1268 2742 
Q 959 2388 959 1747 
Q 959 1106 1268 751 
Q 1578 397 2138 397 
Q 2388 397 2633 464 
Q 2878 531 3122 666 
L 3122 134 
Q 2881 22 2623 -34 
Q 2366 -91 2075 -91 
Q 1284 -91 818 406 
Q 353 903 353 1747 
Q 353 2603 823 3093 
Q 1294 3584 2113 3584 
Q 2378 3584 2631 3529 
Q 2884 3475 3122 3366 
z
" id="DejaVuSans-63" transform="scale(0.015625)"/>
        <path d="M 2631 2963 
Q 2534 3019 2420 3045 
Q 2306 3072 2169 3072 
Q 1681 3072 1420 2755 
Q 1159 2438 1159 1844 
L 1159 0 
L 581 0 
L 581 3500 
L 1159 3500 
L 1159 2956 
Q 1341 3275 1631 3429 
Q 1922 3584 2338 3584 
Q 2397 3584 2469 3576 
Q 2541 3569 2628 3553 
L 2631 2963 
z
" id="DejaVuSans-72" transform="scale(0.015625)"/>
        <path d="M 1959 3097 
Q 1497 3097 1228 2736 
Q 959 2375 959 1747 
Q 959 1119 1226 758 
Q 1494 397 1959 397 
Q 2419 397 2687 759 
Q 2956 1122 2956 1747 
Q 2956 2369 2687 2733 
Q 2419 3097 1959 3097 
z
M 1959 3584 
Q 2709 3584 3137 3096 
Q 3566 2609 3566 1747 
Q 3566 888 3137 398 
Q 2709 -91 1959 -91 
Q 1206 -91 779 398 
Q 353 888 353 1747 
Q 353 2609 779 3096 
Q 1206 3584 1959 3584 
z
" id="DejaVuSans-6f" transform="scale(0.015625)"/>
        <path d="M 1159 525 
L 1159 -1331 
L 581 -1331 
L 581 3500 
L 1159 3500 
L 1159 2969 
Q 1341 3281 1617 3432 
Q 1894 3584 2278 3584 
Q 2916 3584 3314 3078 
Q 3713 2572 3713 1747 
Q 3713 922 3314 415 
Q 2916 -91 2278 -91 
Q 1894 -91 1617 61 
Q 1341 213 1159 525 
z
M 3116 1747 
Q 3116 2381 2855 2742 
Q 2594 3103 2138 3103 
Q 1681 3103 1420 2742 
Q 1159 2381 1159 1747 
Q 1159 1113 1420 752 
Q 1681 391 2138 391 
Q 2594 391 2855 752 
Q 3116 1113 3116 1747 
z
" id="DejaVuSans-70" transform="scale(0.015625)"/>
        <path d="M 3513 2113 
L 3513 0 
L 2938 0 
L 2938 2094 
Q 2938 2591 2744 2837 
Q 2550 3084 2163 3084 
Q 1697 3084 1428 2787 
Q 1159 2491 1159 1978 
L 1159 0 
L 581 0 
L 581 4863 
L 1159 4863 
L 1159 2956 
Q 1366 3272 1645 3428 
Q 1925 3584 2291 3584 
Q 2894 3584 3203 3211 
Q 3513 2838 3513 2113 
z
" id="DejaVuSans-68" transform="scale(0.015625)"/>
        <path d="M 2906 1791 
Q 2906 2416 2648 2759 
Q 2391 3103 1925 3103 
Q 1463 3103 1205 2759 
Q 947 2416 947 1791 
Q 947 1169 1205 825 
Q 1463 481 1925 481 
Q 2391 481 2648 825 
Q 2906 1169 2906 1791 
z
M 3481 434 
Q 3481 -459 3084 -895 
Q 2688 -1331 1869 -1331 
Q 1566 -1331 1297 -1286 
Q 1028 -1241 775 -1147 
L 775 -588 
Q 1028 -725 1275 -790 
Q 1522 -856 1778 -856 
Q 2344 -856 2625 -561 
Q 2906 -266 2906 331 
L 2906 616 
Q 2728 306 2450 153 
Q 2172 0 1784 0 
Q 1141 0 747 490 
Q 353 981 353 1791 
Q 353 2603 747 3093 
Q 1141 3584 1784 3584 
Q 2172 3584 2450 3431 
Q 2728 3278 2906 2969 
L 2906 3500 
L 3481 3500 
L 3481 434 
z
" id="DejaVuSans-67" transform="scale(0.015625)"/>
        <path d="M 3597 1894 
L 3597 1613 
L 953 1613 
Q 991 1019 1311 708 
Q 1631 397 2203 397 
Q 2534 397 2845 478 
Q 3156 559 3463 722 
L 3463 178 
Q 3153 47 2828 -22 
Q 2503 -91 2169 -91 
Q 1331 -91 842 396 
Q 353 884 353 1716 
Q 353 2575 817 3079 
Q 1281 3584 2069 3584 
Q 2775 3584 3186 3129 
Q 3597 2675 3597 1894 
z
M 3022 2063 
Q 3016 2534 2758 2815 
Q 2500 3097 2075 3097 
Q 1594 3097 1305 2825 
Q 1016 2553 972 2059 
L 3022 2063 
z
" id="DejaVuSans-65" transform="scale(0.015625)"/>
       </defs>
       <use xlink:href="#DejaVuSans-4d"/>
       <use x="86.279297" xlink:href="#DejaVuSans-61"/>
       <use x="147.558594" xlink:href="#DejaVuSans-63"/>
       <use x="202.539062" xlink:href="#DejaVuSans-72"/>
       <use x="241.402344" xlink:href="#DejaVuSans-6f"/>
       <use x="302.583984" xlink:href="#DejaVuSans-70"/>
       <use x="366.060547" xlink:href="#DejaVuSans-68"/>
       <use x="429.439453" xlink:href="#DejaVuSans-61"/>
       <use x="490.71875" xlink:href="#DejaVuSans-67"/>
       <use x="554.195312" xlink:href="#DejaVuSans-65"/>
      </g>
     </g>
    </g>
    <g id="xtick_10">
     <g id="line2d_22">
      <g>
       <use style="stroke:#000000;" x="88.890203" xlink:href="#md1e1de83c0" y="229.164"/>
      </g>
     </g>
     <g id="text_6">
      <!-- Leukocyte -->
      <g transform="translate(49.165078 265.661787)rotate(-30)scale(0.088 -0.088)">
       <defs>
        <path d="M 628 4666 
L 1259 4666 
L 1259 531 
L 3531 531 
L 3531 0 
L 628 0 
L 628 4666 
z
" id="DejaVuSans-4c" transform="scale(0.015625)"/>
        <path d="M 544 1381 
L 544 3500 
L 1119 3500 
L 1119 1403 
Q 1119 906 1312 657 
Q 1506 409 1894 409 
Q 2359 409 2629 706 
Q 2900 1003 2900 1516 
L 2900 3500 
L 3475 3500 
L 3475 0 
L 2900 0 
L 2900 538 
Q 2691 219 2414 64 
Q 2138 -91 1772 -91 
Q 1169 -91 856 284 
Q 544 659 544 1381 
z
M 1991 3584 
L 1991 3584 
z
" id="DejaVuSans-75" transform="scale(0.015625)"/>
        <path d="M 581 4863 
L 1159 4863 
L 1159 1991 
L 2875 3500 
L 3609 3500 
L 1753 1863 
L 3688 0 
L 2938 0 
L 1159 1709 
L 1159 0 
L 581 0 
L 581 4863 
z
" id="DejaVuSans-6b" transform="scale(0.015625)"/>
        <path d="M 2059 -325 
Q 1816 -950 1584 -1140 
Q 1353 -1331 966 -1331 
L 506 -1331 
L 506 -850 
L 844 -850 
Q 1081 -850 1212 -737 
Q 1344 -625 1503 -206 
L 1606 56 
L 191 3500 
L 800 3500 
L 1894 763 
L 2988 3500 
L 3597 3500 
L 2059 -325 
z
" id="DejaVuSans-79" transform="scale(0.015625)"/>
        <path d="M 1172 4494 
L 1172 3500 
L 2356 3500 
L 2356 3053 
L 1172 3053 
L 1172 1153 
Q 1172 725 1289 603 
Q 1406 481 1766 481 
L 2356 481 
L 2356 0 
L 1766 0 
Q 1100 0 847 248 
Q 594 497 594 1153 
L 594 3053 
L 172 3053 
L 172 3500 
L 594 3500 
L 594 4494 
L 1172 4494 
z
" id="DejaVuSans-74" transform="scale(0.015625)"/>
       </defs>
       <use xlink:href="#DejaVuSans-4c"/>
       <use x="53.962891" xlink:href="#DejaVuSans-65"/>
       <use x="115.486328" xlink:href="#DejaVuSans-75"/>
       <use x="178.865234" xlink:href="#DejaVuSans-6b"/>
       <use x="233.150391" xlink:href="#DejaVuSans-6f"/>
       <use x="294.332031" xlink:href="#DejaVuSans-63"/>
       <use x="349.3125" xlink:href="#DejaVuSans-79"/>
       <use x="408.492188" xlink:href="#DejaVuSans-74"/>
       <use x="447.701172" xlink:href="#DejaVuSans-65"/>
      </g>
     </g>
    </g>
    <g id="xtick_11">
     <g id="line2d_23">
      <g>
       <use style="stroke:#000000;" x="119.395578" xlink:href="#md1e1de83c0" y="229.164"/>
      </g>
     </g>
     <g id="text_7">
      <!-- Natural killer cell -->
      <g transform="translate(53.825656 280.583287)rotate(-30)scale(0.088 -0.088)">
       <defs>
        <path d="M 628 4666 
L 1478 4666 
L 3547 763 
L 3547 4666 
L 4159 4666 
L 4159 0 
L 3309 0 
L 1241 3903 
L 1241 0 
L 628 0 
L 628 4666 
z
" id="DejaVuSans-4e" transform="scale(0.015625)"/>
        <path d="M 603 4863 
L 1178 4863 
L 1178 0 
L 603 0 
L 603 4863 
z
" id="DejaVuSans-6c" transform="scale(0.015625)"/>
        <path id="DejaVuSans-20" transform="scale(0.015625)"/>
        <path d="M 603 3500 
L 1178 3500 
L 1178 0 
L 603 0 
L 603 3500 
z
M 603 4863 
L 1178 4863 
L 1178 4134 
L 603 4134 
L 603 4863 
z
" id="DejaVuSans-69" transform="scale(0.015625)"/>
       </defs>
       <use xlink:href="#DejaVuSans-4e"/>
       <use x="74.804688" xlink:href="#DejaVuSans-61"/>
       <use x="136.083984" xlink:href="#DejaVuSans-74"/>
       <use x="175.292969" xlink:href="#DejaVuSans-75"/>
       <use x="238.671875" xlink:href="#DejaVuSans-72"/>
       <use x="279.785156" xlink:href="#DejaVuSans-61"/>
       <use x="341.064453" xlink:href="#DejaVuSans-6c"/>
       <use x="368.847656" xlink:href="#DejaVuSans-20"/>
       <use x="400.634766" xlink:href="#DejaVuSans-6b"/>
       <use x="458.544922" xlink:href="#DejaVuSans-69"/>
       <use x="486.328125" xlink:href="#DejaVuSans-6c"/>
       <use x="514.111328" xlink:href="#DejaVuSans-6c"/>
       <use x="541.894531" xlink:href="#DejaVuSans-65"/>
       <use x="603.417969" xlink:href="#DejaVuSans-72"/>
       <use x="644.53125" xlink:href="#DejaVuSans-20"/>
       <use x="676.318359" xlink:href="#DejaVuSans-63"/>
       <use x="731.298828" xlink:href="#DejaVuSans-65"/>
       <use x="792.822266" xlink:href="#DejaVuSans-6c"/>
       <use x="820.605469" xlink:href="#DejaVuSans-6c"/>
      </g>
     </g>
    </g>
    <g id="xtick_12">
     <g id="line2d_24">
      <g>
       <use style="stroke:#000000;" x="149.900953" xlink:href="#md1e1de83c0" y="229.164"/>
      </g>
     </g>
     <g id="text_8">
      <!-- Blood -->
      <g transform="translate(127.475551 255.673787)rotate(-30)scale(0.088 -0.088)">
       <defs>
        <path d="M 1259 2228 
L 1259 519 
L 2272 519 
Q 2781 519 3026 730 
Q 3272 941 3272 1375 
Q 3272 1813 3026 2020 
Q 2781 2228 2272 2228 
L 1259 2228 
z
M 1259 4147 
L 1259 2741 
L 2194 2741 
Q 2656 2741 2882 2914 
Q 3109 3088 3109 3444 
Q 3109 3797 2882 3972 
Q 2656 4147 2194 4147 
L 1259 4147 
z
M 628 4666 
L 2241 4666 
Q 2963 4666 3353 4366 
Q 3744 4066 3744 3513 
Q 3744 3084 3544 2831 
Q 3344 2578 2956 2516 
Q 3422 2416 3680 2098 
Q 3938 1781 3938 1306 
Q 3938 681 3513 340 
Q 3088 0 2303 0 
L 628 0 
L 628 4666 
z
" id="DejaVuSans-42" transform="scale(0.015625)"/>
        <path d="M 2906 2969 
L 2906 4863 
L 3481 4863 
L 3481 0 
L 2906 0 
L 2906 525 
Q 2725 213 2448 61 
Q 2172 -91 1784 -91 
Q 1150 -91 751 415 
Q 353 922 353 1747 
Q 353 2572 751 3078 
Q 1150 3584 1784 3584 
Q 2172 3584 2448 3432 
Q 2725 3281 2906 2969 
z
M 947 1747 
Q 947 1113 1208 752 
Q 1469 391 1925 391 
Q 2381 391 2643 752 
Q 2906 1113 2906 1747 
Q 2906 2381 2643 2742 
Q 2381 3103 1925 3103 
Q 1469 3103 1208 2742 
Q 947 2381 947 1747 
z
" id="DejaVuSans-64" transform="scale(0.015625)"/>
       </defs>
       <use xlink:href="#DejaVuSans-42"/>
       <use x="68.603516" xlink:href="#DejaVuSans-6c"/>
       <use x="96.386719" xlink:href="#DejaVuSans-6f"/>
       <use x="157.568359" xlink:href="#DejaVuSans-6f"/>
       <use x="218.75" xlink:href="#DejaVuSans-64"/>
      </g>
     </g>
    </g>
    <g id="xtick_13">
     <g id="line2d_25">
      <g>
       <use style="stroke:#000000;" x="180.406328" xlink:href="#md1e1de83c0" y="229.164"/>
      </g>
     </g>
     <g id="text_9">
      <!-- Mononuclear phagocyte -->
      <g transform="translate(87.660313 296.273412)rotate(-30)scale(0.088 -0.088)">
       <defs>
        <path d="M 3513 2113 
L 3513 0 
L 2938 0 
L 2938 2094 
Q 2938 2591 2744 2837 
Q 2550 3084 2163 3084 
Q 1697 3084 1428 2787 
Q 1159 2491 1159 1978 
L 1159 0 
L 581 0 
L 581 3500 
L 1159 3500 
L 1159 2956 
Q 1366 3272 1645 3428 
Q 1925 3584 2291 3584 
Q 2894 3584 3203 3211 
Q 3513 2838 3513 2113 
z
" id="DejaVuSans-6e" transform="scale(0.015625)"/>
       </defs>
       <use xlink:href="#DejaVuSans-4d"/>
       <use x="86.279297" xlink:href="#DejaVuSans-6f"/>
       <use x="147.460938" xlink:href="#DejaVuSans-6e"/>
       <use x="210.839844" xlink:href="#DejaVuSans-6f"/>
       <use x="272.021484" xlink:href="#DejaVuSans-6e"/>
       <use x="335.400391" xlink:href="#DejaVuSans-75"/>
       <use x="398.779297" xlink:href="#DejaVuSans-63"/>
       <use x="453.759766" xlink:href="#DejaVuSans-6c"/>
       <use x="481.542969" xlink:href="#DejaVuSans-65"/>
       <use x="543.066406" xlink:href="#DejaVuSans-61"/>
       <use x="604.345703" xlink:href="#DejaVuSans-72"/>
       <use x="645.458984" xlink:href="#DejaVuSans-20"/>
       <use x="677.246094" xlink:href="#DejaVuSans-70"/>
       <use x="740.722656" xlink:href="#DejaVuSans-68"/>
       <use x="804.101562" xlink:href="#DejaVuSans-61"/>
       <use x="865.380859" xlink:href="#DejaVuSans-67"/>
       <use x="928.857422" xlink:href="#DejaVuSans-6f"/>
       <use x="990.039062" xlink:href="#DejaVuSans-63"/>
       <use x="1045.019531" xlink:href="#DejaVuSans-79"/>
       <use x="1104.199219" xlink:href="#DejaVuSans-74"/>
       <use x="1143.408203" xlink:href="#DejaVuSans-65"/>
      </g>
     </g>
    </g>
    <g id="xtick_14">
     <g id="line2d_26">
      <g>
       <use style="stroke:#000000;" x="210.911703" xlink:href="#md1e1de83c0" y="229.164"/>
      </g>
     </g>
     <g id="text_10">
      <!-- Skeletal muscle -->
      <g transform="translate(150.108494 277.831225)rotate(-30)scale(0.088 -0.088)">
       <defs>
        <path d="M 3425 4513 
L 3425 3897 
Q 3066 4069 2747 4153 
Q 2428 4238 2131 4238 
Q 1616 4238 1336 4038 
Q 1056 3838 1056 3469 
Q 1056 3159 1242 3001 
Q 1428 2844 1947 2747 
L 2328 2669 
Q 3034 2534 3370 2195 
Q 3706 1856 3706 1288 
Q 3706 609 3251 259 
Q 2797 -91 1919 -91 
Q 1588 -91 1214 -16 
Q 841 59 441 206 
L 441 856 
Q 825 641 1194 531 
Q 1563 422 1919 422 
Q 2459 422 2753 634 
Q 3047 847 3047 1241 
Q 3047 1584 2836 1778 
Q 2625 1972 2144 2069 
L 1759 2144 
Q 1053 2284 737 2584 
Q 422 2884 422 3419 
Q 422 4038 858 4394 
Q 1294 4750 2059 4750 
Q 2388 4750 2728 4690 
Q 3069 4631 3425 4513 
z
" id="DejaVuSans-53" transform="scale(0.015625)"/>
        <path d="M 3328 2828 
Q 3544 3216 3844 3400 
Q 4144 3584 4550 3584 
Q 5097 3584 5394 3201 
Q 5691 2819 5691 2113 
L 5691 0 
L 5113 0 
L 5113 2094 
Q 5113 2597 4934 2840 
Q 4756 3084 4391 3084 
Q 3944 3084 3684 2787 
Q 3425 2491 3425 1978 
L 3425 0 
L 2847 0 
L 2847 2094 
Q 2847 2600 2669 2842 
Q 2491 3084 2119 3084 
Q 1678 3084 1418 2786 
Q 1159 2488 1159 1978 
L 1159 0 
L 581 0 
L 581 3500 
L 1159 3500 
L 1159 2956 
Q 1356 3278 1631 3431 
Q 1906 3584 2284 3584 
Q 2666 3584 2933 3390 
Q 3200 3197 3328 2828 
z
" id="DejaVuSans-6d" transform="scale(0.015625)"/>
        <path d="M 2834 3397 
L 2834 2853 
Q 2591 2978 2328 3040 
Q 2066 3103 1784 3103 
Q 1356 3103 1142 2972 
Q 928 2841 928 2578 
Q 928 2378 1081 2264 
Q 1234 2150 1697 2047 
L 1894 2003 
Q 2506 1872 2764 1633 
Q 3022 1394 3022 966 
Q 3022 478 2636 193 
Q 2250 -91 1575 -91 
Q 1294 -91 989 -36 
Q 684 19 347 128 
L 347 722 
Q 666 556 975 473 
Q 1284 391 1588 391 
Q 1994 391 2212 530 
Q 2431 669 2431 922 
Q 2431 1156 2273 1281 
Q 2116 1406 1581 1522 
L 1381 1569 
Q 847 1681 609 1914 
Q 372 2147 372 2553 
Q 372 3047 722 3315 
Q 1072 3584 1716 3584 
Q 2034 3584 2315 3537 
Q 2597 3491 2834 3397 
z
" id="DejaVuSans-73" transform="scale(0.015625)"/>
       </defs>
       <use xlink:href="#DejaVuSans-53"/>
       <use x="63.476562" xlink:href="#DejaVuSans-6b"/>
       <use x="117.761719" xlink:href="#DejaVuSans-65"/>
       <use x="179.285156" xlink:href="#DejaVuSans-6c"/>
       <use x="207.068359" xlink:href="#DejaVuSans-65"/>
       <use x="268.591797" xlink:href="#DejaVuSans-74"/>
       <use x="307.800781" xlink:href="#DejaVuSans-61"/>
       <use x="369.080078" xlink:href="#DejaVuSans-6c"/>
       <use x="396.863281" xlink:href="#DejaVuSans-20"/>
       <use x="428.650391" xlink:href="#DejaVuSans-6d"/>
       <use x="526.0625" xlink:href="#DejaVuSans-75"/>
       <use x="589.441406" xlink:href="#DejaVuSans-73"/>
       <use x="641.541016" xlink:href="#DejaVuSans-63"/>
       <use x="696.521484" xlink:href="#DejaVuSans-6c"/>
       <use x="724.304688" xlink:href="#DejaVuSans-65"/>
      </g>
     </g>
    </g>
    <g id="xtick_15">
     <g id="line2d_27">
      <g>
       <use style="stroke:#000000;" x="241.417078" xlink:href="#md1e1de83c0" y="229.164"/>
      </g>
     </g>
     <g id="text_11">
      <!-- Liver -->
      <g transform="translate(221.805501 254.049225)rotate(-30)scale(0.088 -0.088)">
       <defs>
        <path d="M 191 3500 
L 800 3500 
L 1894 563 
L 2988 3500 
L 3597 3500 
L 2284 0 
L 1503 0 
L 191 3500 
z
" id="DejaVuSans-76" transform="scale(0.015625)"/>
       </defs>
       <use xlink:href="#DejaVuSans-4c"/>
       <use x="55.712891" xlink:href="#DejaVuSans-69"/>
       <use x="83.496094" xlink:href="#DejaVuSans-76"/>
       <use x="142.675781" xlink:href="#DejaVuSans-65"/>
       <use x="204.199219" xlink:href="#DejaVuSans-72"/>
      </g>
     </g>
    </g>
    <g id="xtick_16">
     <g id="line2d_28">
      <g>
       <use style="stroke:#000000;" x="271.922453" xlink:href="#md1e1de83c0" y="229.164"/>
      </g>
     </g>
     <g id="text_12">
      <!-- Placenta -->
      <g transform="translate(238.257232 262.1631)rotate(-30)scale(0.088 -0.088)">
       <defs>
        <path d="M 1259 4147 
L 1259 2394 
L 2053 2394 
Q 2494 2394 2734 2622 
Q 2975 2850 2975 3272 
Q 2975 3691 2734 3919 
Q 2494 4147 2053 4147 
L 1259 4147 
z
M 628 4666 
L 2053 4666 
Q 2838 4666 3239 4311 
Q 3641 3956 3641 3272 
Q 3641 2581 3239 2228 
Q 2838 1875 2053 1875 
L 1259 1875 
L 1259 0 
L 628 0 
L 628 4666 
z
" id="DejaVuSans-50" transform="scale(0.015625)"/>
       </defs>
       <use xlink:href="#DejaVuSans-50"/>
       <use x="60.302734" xlink:href="#DejaVuSans-6c"/>
       <use x="88.085938" xlink:href="#DejaVuSans-61"/>
       <use x="149.365234" xlink:href="#DejaVuSans-63"/>
       <use x="204.345703" xlink:href="#DejaVuSans-65"/>
       <use x="265.869141" xlink:href="#DejaVuSans-6e"/>
       <use x="329.248047" xlink:href="#DejaVuSans-74"/>
       <use x="368.457031" xlink:href="#DejaVuSans-61"/>
      </g>
     </g>
    </g>
    <g id="text_13">
     <!-- Predicted tissue/cell type -->
     <g transform="translate(104.75914 309.152847)scale(0.096 -0.096)">
      <defs>
       <path d="M 1625 4666 
L 2156 4666 
L 531 -594 
L 0 -594 
L 1625 4666 
z
" id="DejaVuSans-2f" transform="scale(0.015625)"/>
      </defs>
      <use xlink:href="#DejaVuSans-50"/>
      <use x="58.552734" xlink:href="#DejaVuSans-72"/>
      <use x="97.416016" xlink:href="#DejaVuSans-65"/>
      <use x="158.939453" xlink:href="#DejaVuSans-64"/>
      <use x="222.416016" xlink:href="#DejaVuSans-69"/>
      <use x="250.199219" xlink:href="#DejaVuSans-63"/>
      <use x="305.179688" xlink:href="#DejaVuSans-74"/>
      <use x="344.388672" xlink:href="#DejaVuSans-65"/>
      <use x="405.912109" xlink:href="#DejaVuSans-64"/>
      <use x="469.388672" xlink:href="#DejaVuSans-20"/>
      <use x="501.175781" xlink:href="#DejaVuSans-74"/>
      <use x="540.384766" xlink:href="#DejaVuSans-69"/>
      <use x="568.167969" xlink:href="#DejaVuSans-73"/>
      <use x="620.267578" xlink:href="#DejaVuSans-73"/>
      <use x="672.367188" xlink:href="#DejaVuSans-75"/>
      <use x="735.746094" xlink:href="#DejaVuSans-65"/>
      <use x="797.269531" xlink:href="#DejaVuSans-2f"/>
      <use x="830.960938" xlink:href="#DejaVuSans-63"/>
      <use x="885.941406" xlink:href="#DejaVuSans-65"/>
      <use x="947.464844" xlink:href="#DejaVuSans-6c"/>
      <use x="975.248047" xlink:href="#DejaVuSans-6c"/>
      <use x="1003.03125" xlink:href="#DejaVuSans-20"/>
      <use x="1034.818359" xlink:href="#DejaVuSans-74"/>
      <use x="1074.027344" xlink:href="#DejaVuSans-79"/>
      <use x="1133.207031" xlink:href="#DejaVuSans-70"/>
      <use x="1196.683594" xlink:href="#DejaVuSans-65"/>
     </g>
     <!-- in GIANT -->
     <g transform="translate(144.31114 319.902747)scale(0.096 -0.096)">
      <defs>
       <path d="M 3809 666 
L 3809 1919 
L 2778 1919 
L 2778 2438 
L 4434 2438 
L 4434 434 
Q 4069 175 3628 42 
Q 3188 -91 2688 -91 
Q 1594 -91 976 548 
Q 359 1188 359 2328 
Q 359 3472 976 4111 
Q 1594 4750 2688 4750 
Q 3144 4750 3555 4637 
Q 3966 4525 4313 4306 
L 4313 3634 
Q 3963 3931 3569 4081 
Q 3175 4231 2741 4231 
Q 1884 4231 1454 3753 
Q 1025 3275 1025 2328 
Q 1025 1384 1454 906 
Q 1884 428 2741 428 
Q 3075 428 3337 486 
Q 3600 544 3809 666 
z
" id="DejaVuSans-47" transform="scale(0.015625)"/>
       <path d="M 628 4666 
L 1259 4666 
L 1259 0 
L 628 0 
L 628 4666 
z
" id="DejaVuSans-49" transform="scale(0.015625)"/>
       <path d="M 2188 4044 
L 1331 1722 
L 3047 1722 
L 2188 4044 
z
M 1831 4666 
L 2547 4666 
L 4325 0 
L 3669 0 
L 3244 1197 
L 1141 1197 
L 716 0 
L 50 0 
L 1831 4666 
z
" id="DejaVuSans-41" transform="scale(0.015625)"/>
       <path d="M -19 4666 
L 3928 4666 
L 3928 4134 
L 2272 4134 
L 2272 0 
L 1638 0 
L 1638 4134 
L -19 4134 
L -19 4666 
z
" id="DejaVuSans-54" transform="scale(0.015625)"/>
      </defs>
      <use xlink:href="#DejaVuSans-69"/>
      <use x="27.783203" xlink:href="#DejaVuSans-6e"/>
      <use x="91.162109" xlink:href="#DejaVuSans-20"/>
      <use x="122.949219" xlink:href="#DejaVuSans-47"/>
      <use x="200.439453" xlink:href="#DejaVuSans-49"/>
      <use x="229.931641" xlink:href="#DejaVuSans-41"/>
      <use x="298.339844" xlink:href="#DejaVuSans-4e"/>
      <use x="373.144531" xlink:href="#DejaVuSans-54"/>
     </g>
    </g>
   </g>
   <g id="matplotlib.axis_4">
    <g id="ytick_5">
     <g id="line2d_29">
      <g>
       <use style="stroke:#000000;" x="43.13214" xlink:href="#m775aac8e3d" y="229.164"/>
      </g>
     </g>
     <g id="text_14">
      <!-- 0 -->
      <g transform="translate(29.23314 232.507313)scale(0.088 -0.088)">
       <use xlink:href="#DejaVuSans-30"/>
      </g>
     </g>
    </g>
    <g id="ytick_6">
     <g id="line2d_30">
      <g>
       <use style="stroke:#000000;" x="43.13214" xlink:href="#m775aac8e3d" y="203.754476"/>
      </g>
     </g>
     <g id="text_15">
      <!-- 10 -->
      <g transform="translate(23.63414 207.097789)scale(0.088 -0.088)">
       <use xlink:href="#DejaVuSans-31"/>
       <use x="63.623047" xlink:href="#DejaVuSans-30"/>
      </g>
     </g>
    </g>
    <g id="ytick_7">
     <g id="line2d_31">
      <g>
       <use style="stroke:#000000;" x="43.13214" xlink:href="#m775aac8e3d" y="178.344952"/>
      </g>
     </g>
     <g id="text_16">
      <!-- 20 -->
      <g transform="translate(23.63414 181.688265)scale(0.088 -0.088)">
       <use xlink:href="#DejaVuSans-32"/>
       <use x="63.623047" xlink:href="#DejaVuSans-30"/>
      </g>
     </g>
    </g>
    <g id="ytick_8">
     <g id="line2d_32">
      <g>
       <use style="stroke:#000000;" x="43.13214" xlink:href="#m775aac8e3d" y="152.935429"/>
      </g>
     </g>
     <g id="text_17">
      <!-- 30 -->
      <g transform="translate(23.63414 156.278741)scale(0.088 -0.088)">
       <use xlink:href="#DejaVuSans-33"/>
       <use x="63.623047" xlink:href="#DejaVuSans-30"/>
      </g>
     </g>
    </g>
   </g>
   <g id="line2d_33">
    <path clip-path="url(#p54e8aeafe6)" style="fill:none;stroke:#424242;stroke-linecap:square;stroke-width:2.16;"/>
   </g>
   <g id="line2d_34">
    <path clip-path="url(#p54e8aeafe6)" style="fill:none;stroke:#424242;stroke-linecap:square;stroke-width:2.16;"/>
   </g>
   <g id="line2d_35">
    <path clip-path="url(#p54e8aeafe6)" style="fill:none;stroke:#424242;stroke-linecap:square;stroke-width:2.16;"/>
   </g>
   <g id="line2d_36">
    <path clip-path="url(#p54e8aeafe6)" style="fill:none;stroke:#424242;stroke-linecap:square;stroke-width:2.16;"/>
   </g>
   <g id="line2d_37">
    <path clip-path="url(#p54e8aeafe6)" style="fill:none;stroke:#424242;stroke-linecap:square;stroke-width:2.16;"/>
   </g>
   <g id="line2d_38">
    <path clip-path="url(#p54e8aeafe6)" style="fill:none;stroke:#424242;stroke-linecap:square;stroke-width:2.16;"/>
   </g>
   <g id="line2d_39">
    <path clip-path="url(#p54e8aeafe6)" style="fill:none;stroke:#424242;stroke-linecap:square;stroke-width:2.16;"/>
   </g>
   <g id="line2d_40">
    <path clip-path="url(#p54e8aeafe6)" style="fill:none;stroke:#424242;stroke-linecap:square;stroke-width:2.16;"/>
   </g>
   <g id="patch_22">
    <path d="M 43.13214 229.164 
L 43.13214 133.116 
" style="fill:none;stroke:#000000;stroke-linecap:square;stroke-linejoin:miter;"/>
   </g>
   <g id="patch_23">
    <path d="M 43.13214 229.164 
L 287.17514 229.164 
" style="fill:none;stroke:#000000;stroke-linecap:square;stroke-linejoin:miter;"/>
   </g>
  </g>
  <g id="text_18">
   <!-- Number of gene pairs -->
   <g transform="translate(14.67439 186.4285)rotate(-90)scale(0.096 -0.096)">
    <defs>
     <path d="M 3116 1747 
Q 3116 2381 2855 2742 
Q 2594 3103 2138 3103 
Q 1681 3103 1420 2742 
Q 1159 2381 1159 1747 
Q 1159 1113 1420 752 
Q 1681 391 2138 391 
Q 2594 391 2855 752 
Q 3116 1113 3116 1747 
z
M 1159 2969 
Q 1341 3281 1617 3432 
Q 1894 3584 2278 3584 
Q 2916 3584 3314 3078 
Q 3713 2572 3713 1747 
Q 3713 922 3314 415 
Q 2916 -91 2278 -91 
Q 1894 -91 1617 61 
Q 1341 213 1159 525 
L 1159 0 
L 581 0 
L 581 4863 
L 1159 4863 
L 1159 2969 
z
" id="DejaVuSans-62" transform="scale(0.015625)"/>
     <path d="M 2375 4863 
L 2375 4384 
L 1825 4384 
Q 1516 4384 1395 4259 
Q 1275 4134 1275 3809 
L 1275 3500 
L 2222 3500 
L 2222 3053 
L 1275 3053 
L 1275 0 
L 697 0 
L 697 3053 
L 147 3053 
L 147 3500 
L 697 3500 
L 697 3744 
Q 697 4328 969 4595 
Q 1241 4863 1831 4863 
L 2375 4863 
z
" id="DejaVuSans-66" transform="scale(0.015625)"/>
    </defs>
    <use xlink:href="#DejaVuSans-4e"/>
    <use x="74.804688" xlink:href="#DejaVuSans-75"/>
    <use x="138.183594" xlink:href="#DejaVuSans-6d"/>
    <use x="235.595703" xlink:href="#DejaVuSans-62"/>
    <use x="299.072266" xlink:href="#DejaVuSans-65"/>
    <use x="360.595703" xlink:href="#DejaVuSans-72"/>
    <use x="401.708984" xlink:href="#DejaVuSans-20"/>
    <use x="433.496094" xlink:href="#DejaVuSans-6f"/>
    <use x="494.677734" xlink:href="#DejaVuSans-66"/>
    <use x="529.882812" xlink:href="#DejaVuSans-20"/>
    <use x="561.669922" xlink:href="#DejaVuSans-67"/>
    <use x="625.146484" xlink:href="#DejaVuSans-65"/>
    <use x="686.669922" xlink:href="#DejaVuSans-6e"/>
    <use x="750.048828" xlink:href="#DejaVuSans-65"/>
    <use x="811.572266" xlink:href="#DejaVuSans-20"/>
    <use x="843.359375" xlink:href="#DejaVuSans-70"/>
    <use x="906.835938" xlink:href="#DejaVuSans-61"/>
    <use x="968.115234" xlink:href="#DejaVuSans-69"/>
    <use x="995.898438" xlink:href="#DejaVuSans-72"/>
    <use x="1037.011719" xlink:href="#DejaVuSans-73"/>
   </g>
  </g>
 </g>
 <defs>
  <clipPath id="p4c04761cf3">
   <rect height="96.048" width="244.043" x="43.13214" y="7.2"/>
  </clipPath>
  <clipPath id="p54e8aeafe6">
   <rect height="96.048" width="244.043" x="43.13214" y="133.116"/>
  </clipPath>
 </defs>
</svg>
