<?xml version="1.0" encoding="UTF-8" standalone="no"?>
<svg
   height="410.49249"
   width="411.28638"
   version="1.1"
   id="svg252"
   sodipodi:docname="GIANT-MYOZ1_vs_TNNI2-blood.svg"
   inkscape:version="1.1.2 (76b9e6a115, 2022-02-25)"
   xmlns:inkscape="http://www.inkscape.org/namespaces/inkscape"
   xmlns:sodipodi="http://sodipodi.sourceforge.net/DTD/sodipodi-0.dtd"
   xmlns="http://www.w3.org/2000/svg"
   xmlns:svg="http://www.w3.org/2000/svg">
  <defs
     id="defs256">
    <linearGradient
       id="legend2"
       x1="3.5533452"
       y1="0"
       x2="73.909584"
       y2="0"
       spreadMethod="pad"
       gradientTransform="matrix(4.9990019,0,0,0.10098994,22.321037,410.78561)"
       gradientUnits="userSpaceOnUse">
      <stop
         offset="0%"
         style="stop-color: rgb(44, 160, 44);"
         id="stop2" />
      <stop
         offset="25%"
         style="stop-color: rgb(228, 164, 76);"
         id="stop4" />
      <stop
         offset="50%"
         style="stop-color: rgb(219, 109, 61);"
         id="stop6" />
      <stop
         offset="75%"
         style="stop-color: rgb(211, 55, 47);"
         id="stop8" />
      <stop
         offset="100%"
         style="stop-color: rgb(202, 0, 32);"
         id="stop10" />
    </linearGradient>
    <clipPath
       clipPathUnits="userSpaceOnUse"
       id="clipPath1221">
      <rect
         style="fill:none;stroke:#000000;stroke-width:1.35509;stroke-linecap:round;stroke-linejoin:round;stroke-miterlimit:4;stroke-dasharray:1.35509, 16.261;stroke-dashoffset:0"
         id="rect1223"
         width="403.2023"
         height="396.51294"
         x="74.897202"
         y="130.29227" />
    </clipPath>
    <linearGradient
       id="legend2-1"
       x1="3.5533452"
       y1="0"
       x2="73.909584"
       y2="0"
       spreadMethod="pad"
       gradientTransform="matrix(7.0356236,0,0,0.14213381,-25,15.27081)"
       gradientUnits="userSpaceOnUse">
      <stop
         offset="0%"
         style="stop-color: rgb(44, 160, 44);"
         id="stop2-9" />
      <stop
         offset="25%"
         style="stop-color: rgb(228, 164, 76);"
         id="stop4-6" />
      <stop
         offset="50%"
         style="stop-color: rgb(219, 109, 61);"
         id="stop6-9" />
      <stop
         offset="75%"
         style="stop-color: rgb(211, 55, 47);"
         id="stop8-3" />
      <stop
         offset="100%"
         style="stop-color: rgb(202, 0, 32);"
         id="stop10-3" />
    </linearGradient>
    <clipPath
       clipPathUnits="userSpaceOnUse"
       id="clipPath1771">
      <rect
         style="fill:#fefefe;fill-opacity:1;stroke:#000000;stroke-width:5;stroke-linecap:round;stroke-linejoin:round;stroke-miterlimit:4;stroke-dasharray:10, 5;stroke-dashoffset:0"
         id="rect1773"
         width="438.29736"
         height="449.99292"
         x="41.806408"
         y="86.000839" />
    </clipPath>
    <clipPath
       clipPathUnits="userSpaceOnUse"
       id="clipPath3450">
      <rect
         style="fill:#fefefe;fill-opacity:1;stroke:#000000;stroke-width:5;stroke-linecap:round;stroke-linejoin:round;stroke-miterlimit:4;stroke-dasharray:10, 5;stroke-dashoffset:0"
         id="rect3452"
         width="436.6178"
         height="500.89938"
         x="56.287468"
         y="49.557167" />
    </clipPath>
    <clipPath
       clipPathUnits="userSpaceOnUse"
       id="clipPath4168">
      <rect
         style="fill:#fefefe;fill-opacity:1;stroke:#000000;stroke-width:5;stroke-linecap:round;stroke-linejoin:round;stroke-miterlimit:4;stroke-dasharray:10, 5;stroke-dashoffset:0"
         id="rect4170"
         width="458.97461"
         height="459.98932"
         x="35.95993"
         y="74.78331" />
    </clipPath>
    <clipPath
       clipPathUnits="userSpaceOnUse"
       id="clipPath4884">
      <rect
         style="fill:#fefefe;fill-opacity:1;stroke:#000000;stroke-width:5;stroke-linecap:round;stroke-linejoin:round;stroke-miterlimit:4;stroke-dasharray:10, 5;stroke-dashoffset:0"
         id="rect4886"
         width="481.69214"
         height="472.88062"
         x="20.610344"
         y="62.696053" />
    </clipPath>
    <clipPath
       clipPathUnits="userSpaceOnUse"
       id="clipPath5331">
      <rect
         style="fill:#fefefe;fill-opacity:1;stroke:#000000;stroke-width:5;stroke-linecap:round;stroke-linejoin:round;stroke-miterlimit:4;stroke-dasharray:10, 5;stroke-dashoffset:0"
         id="rect5333"
         width="468.5484"
         height="465.58652"
         x="32.712112"
         y="57.513329" />
    </clipPath>
  </defs>
  <sodipodi:namedview
     id="namedview254"
     pagecolor="#ffffff"
     bordercolor="#666666"
     borderopacity="1.0"
     inkscape:pageshadow="2"
     inkscape:pageopacity="0.0"
     inkscape:pagecheckerboard="0"
     showgrid="false"
     inkscape:zoom="1.4066667"
     inkscape:cx="221.80094"
     inkscape:cy="117.29858"
     inkscape:window-width="1714"
     inkscape:window-height="1371"
     inkscape:window-x="4"
     inkscape:window-y="28"
     inkscape:window-maximized="0"
     inkscape:current-layer="svg252"
     fit-margin-top="0"
     fit-margin-left="0"
     fit-margin-right="0"
     fit-margin-bottom="0" />
  <rect
     style="fill:#ffffff;fill-opacity:1;stroke:none;stroke-width:0.848711;stroke-linecap:round;stroke-linejoin:round;stroke-miterlimit:4;stroke-dasharray:0.848711, 10.1844;stroke-dashoffset:0"
     id="rect1456"
     width="419.55774"
     height="404.80002"
     x="-4.8424907"
     y="2.1971207" />
  <g
     id="g5277"
     clip-path="url(#clipPath5331)"
     transform="matrix(0.85262462,0,0,0.85262462,-22.702725,-42.925414)">
    <rect
       class="canvas"
       width="540"
       height="600"
       style="fill:none"
       id="rect5091"
       x="0"
       y="0" />
    <g
       transform="matrix(1.2,0,0,1.2,-72.374557,-33.417942)"
       id="g5275">
      <path
         class="edge"
         id="246"
         d="m 261.16584,108.29311 c 0,0 -83.29041,-34.290751 -141.34639,10.66848"
         style="fill:none;stroke:#9eb043;stroke-width:1" />
      <path
         class="edge"
         id="248"
         d="m 261.16584,108.29311 c 0,0 58.91827,-43.670235 79.9805,17.24915"
         style="fill:none;stroke:#e6b551;stroke-width:1" />
      <path
         class="edge"
         id="252"
         d="m 261.16584,108.29311 c 0,0 57.70884,16.18555 36.44984,93.34189"
         style="fill:none;stroke:#a8b145;stroke-width:1" />
      <path
         class="edge"
         id="255"
         d="m 261.16584,108.29311 c 0,0 124.82803,132.02567 192.4692,273.84405"
         style="fill:none;stroke:#e4a94d;stroke-width:1" />
      <path
         class="edge"
         id="289"
         d="m 261.16584,108.29311 c 0,0 -96.62507,14.34839 -144.17661,93.62884"
         style="fill:none;stroke:#e6b250;stroke-width:1" />
      <path
         class="edge"
         id="337"
         d="m 119.81945,118.96159 c 0,0 104.56335,-31.040339 221.32689,6.58067"
         style="fill:none;stroke:#c4b54b;stroke-width:1" />
      <path
         class="edge"
         id="341"
         d="m 119.81945,118.96159 c 0,0 80.24273,25.54313 177.79623,82.67341"
         style="fill:none;stroke:#a2b044;stroke-width:1" />
      <path
         class="edge"
         id="342"
         d="m 119.81945,118.96159 c 0,0 123.47608,99.39058 234.54509,226.73603"
         style="fill:none;stroke:#aeb246;stroke-width:1" />
      <path
         class="edge"
         id="344"
         d="m 119.81945,118.96159 c 0,0 183.82127,119.36432 333.81559,263.17557"
         style="fill:none;stroke:#acb246;stroke-width:1" />
      <path
         class="edge"
         id="346"
         d="m 119.81945,118.96159 c 0,0 145.05287,30.13661 326.4032,129.7096"
         style="fill:none;stroke:#e08a45;stroke-width:1.00977" />
      <path
         class="edge"
         id="352"
         d="m 119.81945,118.96159 c 0,0 124.13392,135.74922 257.48336,297.40499"
         style="fill:none;stroke:#adb246;stroke-width:1" />
      <path
         class="edge"
         id="367"
         d="m 119.81945,118.96159 c 0,0 101.08611,162.35857 219.97308,328.44187"
         style="fill:none;stroke:#e29749;stroke-width:1" />
      <path
         class="edge"
         id="370"
         d="m 119.81945,118.96159 c 0,0 131.5803,3.51483 291.23938,62.70578"
         style="fill:none;stroke:#e39f4b;stroke-width:1" />
      <path
         class="edge"
         id="379"
         d="m 119.81945,118.96159 c 0,0 17.76279,52.44829 97.92282,100.78022"
         style="fill:none;stroke:#e1b951;stroke-width:1" />
      <path
         class="edge"
         id="429"
         d="m 341.14634,125.54226 c 0,0 82.21846,127.13688 112.4887,256.5949"
         style="fill:none;stroke:#e6b751;stroke-width:1" />
      <path
         class="edge"
         id="455"
         d="m 341.14634,125.54226 c 0,0 69.69316,-10.59695 69.91249,56.12511"
         style="fill:none;stroke:#adb246;stroke-width:1" />
      <path
         class="edge"
         id="463"
         d="m 341.14634,125.54226 c 0,0 -118.64258,12.97162 -224.15711,76.37969"
         style="fill:none;stroke:#e6b250;stroke-width:1" />
      <path
         class="edge"
         id="464"
         d="m 341.14634,125.54226 c 0,0 -50.77057,37.63633 -123.40407,94.19955"
         style="fill:none;stroke:#9eb043;stroke-width:1" />
      <path
         class="edge"
         id="546"
         d="m 140.69876,343.25077 c 0,0 61.42088,-83.39914 156.91692,-141.61577"
         style="fill:none;stroke:#e6b250;stroke-width:1" />
      <path
         class="edge"
         id="547"
         d="m 140.69876,343.25077 c 0,0 102.84168,23.26394 213.66578,2.44685"
         style="fill:none;stroke:#e7b852;stroke-width:1" />
      <path
         class="edge"
         id="548"
         d="m 140.69876,343.25077 c 0,0 13.4411,50.40146 81.10754,1.54018"
         style="fill:none;stroke:#e7ba52;stroke-width:1" />
      <path
         class="edge"
         id="549"
         d="m 140.69876,343.25077 c 0,0 166.41317,32.20508 312.93628,38.88639"
         style="fill:none;stroke:#e4a74d;stroke-width:1" />
      <path
         class="edge"
         id="560"
         d="m 140.69876,343.25077 c 0,0 17.71019,82.13738 105.46206,63.40989"
         style="fill:none;stroke:#e7b952;stroke-width:1" />
      <path
         class="edge"
         id="568"
         d="m 140.69876,343.25077 c 0,0 -70.539135,-28.24937 -17.335,-76.66979"
         style="fill:none;stroke:#adb246;stroke-width:1" />
      <path
         class="edge"
         id="572"
         d="m 140.69876,343.25077 c 0,0 86.66511,84.54035 199.09377,104.15269"
         style="fill:none;stroke:#adb246;stroke-width:1" />
      <path
         class="edge"
         id="573"
         d="m 140.69876,343.25077 c 0,0 -38.96375,65.83357 36.29558,65.21037"
         style="fill:none;stroke:#9aaf42;stroke-width:1" />
      <path
         class="edge"
         id="584"
         d="m 140.69876,343.25077 c 0,0 3.14862,-77.05404 77.04351,-123.50896"
         style="fill:none;stroke:#e1b951;stroke-width:1" />
      <path
         class="edge"
         id="585"
         d="m 297.61568,201.635 c 0,0 61.24597,56.06126 56.74886,144.06262"
         style="fill:none;stroke:#e3a04b;stroke-width:1" />
      <path
         class="edge"
         id="586"
         d="m 297.61568,201.635 c 0,0 -32.28486,68.86111 -75.80938,143.15595"
         style="fill:none;stroke:#b7b348;stroke-width:1" />
      <path
         class="edge"
         id="587"
         d="m 297.61568,201.635 c 0,0 103.86167,86.02987 156.01936,180.50216"
         style="fill:none;stroke:#e19448;stroke-width:1" />
      <path
         class="edge"
         id="598"
         d="m 297.61568,201.635 c 0,0 -26.99661,104.17016 -51.45486,205.02566"
         style="fill:none;stroke:#bcb449;stroke-width:1" />
      <path
         class="edge"
         id="606"
         d="m 297.61568,201.635 c 0,0 -102.33525,8.23692 -174.25192,64.94598"
         style="fill:none;stroke:#e6b350;stroke-width:1" />
      <path
         class="edge"
         id="622"
         d="m 297.61568,201.635 c 0,0 -47.83468,-32.68266 -79.87341,18.10681"
         style="fill:none;stroke:#e6b350;stroke-width:1" />
      <path
         class="edge"
         id="623"
         d="m 354.36454,345.69762 c 0,0 -68.92842,40.41513 -132.55824,-0.90667"
         style="fill:none;stroke:#dc713e;stroke-width:1.3309" />
      <path
         class="edge"
         id="624"
         d="m 354.36454,345.69762 c 0,0 85.69545,-10.82285 99.2705,36.43954"
         style="fill:none;stroke:#e6b450;stroke-width:1" />
      <path
         class="edge"
         id="632"
         d="m 354.36454,345.69762 c 0,0 68.21693,30.76804 22.93827,70.66896"
         style="fill:none;stroke:#e6b250;stroke-width:1" />
      <path
         class="edge"
         id="635"
         d="m 354.36454,345.69762 c 0,0 -43.62558,78.38719 -108.20372,60.96304"
         style="fill:none;stroke:#bfb44a;stroke-width:1" />
      <path
         class="edge"
         id="647"
         d="m 354.36454,345.69762 c 0,0 46.26979,67.18197 -14.57201,101.70584"
         style="fill:none;stroke:#dab84f;stroke-width:1" />
      <path
         class="edge"
         id="659"
         d="m 354.36454,345.69762 c 0,0 -50.93145,-80.55625 -136.62227,-125.95581"
         style="fill:none;stroke:#e5ac4e;stroke-width:1" />
      <path
         class="edge"
         id="660"
         d="m 221.8063,344.79095 c 0,0 131.26766,29.25789 231.82874,37.34621"
         style="fill:none;stroke:#dd7b41;stroke-width:1.20082" />
      <path
         class="edge"
         id="671"
         d="m 221.8063,344.79095 c 0,0 -25.19257,84.72549 24.35452,61.86971"
         style="fill:none;stroke:#ddb950;stroke-width:1" />
      <path
         class="edge"
         id="679"
         d="m 221.8063,344.79095 c 0,0 -100.32629,-12.7133 -98.44254,-78.20997"
         style="fill:none;stroke:#9aaf42;stroke-width:1" />
      <path
         class="edge"
         id="684"
         d="m 221.8063,344.79095 c 0,0 -87.44816,37.98362 -44.81196,63.67019"
         style="fill:none;stroke:#a1b044;stroke-width:1" />
      <path
         class="edge"
         id="695"
         d="m 221.8063,344.79095 c 0,0 -44.34203,-64.53672 -4.06403,-125.04914"
         style="fill:none;stroke:#e6b450;stroke-width:1" />
      <path
         class="edge"
         id="703"
         d="m 453.63504,382.13716 c 0,0 3.13511,56.59671 -76.33223,34.22942"
         style="fill:none;stroke:#e6b250;stroke-width:1" />
      <path
         class="edge"
         id="706"
         d="m 453.63504,382.13716 c 0,0 -93.7772,38.23938 -207.47422,24.5235"
         style="fill:none;stroke:#e5ad4e;stroke-width:1" />
      <path
         class="edge"
         id="714"
         d="m 453.63504,382.13716 c 0,0 -144.95025,-44.95827 -330.27128,-115.55618"
         style="fill:none;stroke:#e4a94d;stroke-width:1" />
      <path
         class="edge"
         id="718"
         d="m 453.63504,382.13716 c 0,0 -30.33989,69.01327 -113.84251,65.2663"
         style="fill:none;stroke:#acb246;stroke-width:1" />
      <path
         class="edge"
         id="719"
         d="m 453.63504,382.13716 c 0,0 -124.7273,31.25411 -276.6407,26.32398"
         style="fill:none;stroke:#e4a84d;stroke-width:1" />
      <path
         class="edge"
         id="729"
         d="m 453.63504,382.13716 c 0,0 -142.0116,-90.93969 -336.64581,-180.21521"
         style="fill:none;stroke:#e5ac4e;stroke-width:1" />
      <path
         class="edge"
         id="730"
         d="m 453.63504,382.13716 c 0,0 -100.083,-86.48924 -235.89277,-162.39535"
         style="fill:none;stroke:#e4a94d;stroke-width:1" />
      <path
         class="edge"
         id="788"
         d="m 446.22265,248.67119 c 0,0 34.8823,-58.93556 -35.16382,-67.00382"
         style="fill:none;stroke:#a3b144;stroke-width:1" />
      <path
         class="edge"
         id="962"
         d="m 377.30281,416.36658 c 0,0 6.2545,75.3571 -37.51028,31.03688"
         style="fill:none;stroke:#cab64c;stroke-width:1" />
      <path
         class="edge"
         id="963"
         d="m 377.30281,416.36658 c 0,0 -103.27825,35.23003 -200.30847,-7.90544"
         style="fill:none;stroke:#bdb449;stroke-width:1" />
      <path
         class="edge"
         id="974"
         d="m 377.30281,416.36658 c 0,0 -71.77171,-103.42242 -159.56054,-196.62477"
         style="fill:none;stroke:#e5b04f;stroke-width:1" />
      <path
         class="edge"
         id="1037"
         d="m 246.16082,406.66066 c 0,0 34.90439,78.98851 93.63171,40.7428"
         style="fill:none;stroke:#9eb043;stroke-width:1" />
      <path
         class="edge"
         id="1038"
         d="m 246.16082,406.66066 c 0,0 -49.17624,66.63199 -69.16648,1.80048"
         style="fill:none;stroke:#c5b54b;stroke-width:1" />
      <path
         class="edge"
         id="1048"
         d="m 246.16082,406.66066 c 0,0 -91.17232,-87.87333 -129.17159,-204.73871"
         style="fill:none;stroke:#e6b250;stroke-width:1" />
      <path
         class="edge"
         id="1049"
         d="m 246.16082,406.66066 c 0,0 -28.85248,-89.22997 -28.41855,-186.91885"
         style="fill:none;stroke:#d1b74e;stroke-width:1" />
      <path
         class="edge"
         id="1205"
         d="m 123.36376,266.58098 c 0,0 15.15527,-51.07926 94.37851,-46.83917"
         style="fill:none;stroke:#e19548;stroke-width:1" />
      <path
         class="edge"
         id="1259"
         d="m 339.79253,447.40346 c 0,0 -66.8706,-108.28092 -122.05026,-227.66165"
         style="fill:none;stroke:#db703e;stroke-width:1.34013" />
      <path
         class="edge"
         id="1270"
         d="m 176.99434,408.46114 c 0,0 1.05381,-93.80502 40.74793,-188.71933"
         style="fill:none;stroke:#c7b64c;stroke-width:1" />
      <path
         class="edge"
         id="1325"
         d="m 116.98923,201.92195 c 0,0 43.14698,-28.35649 100.75304,17.81986"
         style="fill:none;stroke:#e5ae4f;stroke-width:1" />
      <g
         class="gene-group"
         id="7134"
         cx="221.80630160434347"
         cy="344.7909486124234"
         transform="translate(221.8063,344.79095)">
        <circle
           class="gene"
           r="8"
           style="stroke:#aaaaaa;stroke-width:1"
           id="circle5156"
           cx="0"
           cy="0" />
        <rect
           rx="5"
           ry="5"
           x="-24.78125"
           y="-27"
           width="48.5625"
           height="19"
           style="opacity:0.5;fill:#ffffff"
           id="rect5158" />
        <text
           class="gene-name"
           text-anchor="middle"
           y="-13"
           id="text5160">TNNC1</text>
      </g>
      <g
         class="gene-group"
         id="7140"
         cx="297.61568342471"
         cy="201.6349979474408"
         transform="translate(297.61568,201.635)">
        <circle
           class="gene"
           r="8"
           style="stroke:#aaaaaa;stroke-width:1"
           id="circle5163"
           cx="0"
           cy="0" />
        <rect
           rx="5"
           ry="5"
           x="-24.367188"
           y="-27"
           width="47.734375"
           height="19"
           style="opacity:0.5;fill:#ffffff"
           id="rect5165" />
        <text
           class="gene-name"
           text-anchor="middle"
           y="-13"
           id="text5167">TNNT3</text>
      </g>
      <g
         class="gene-group"
         id="88"
         cx="339.7925309633097"
         cy="447.4034588208765"
         transform="translate(339.79253,447.40346)">
        <circle
           class="gene"
           r="8"
           style="stroke:#aaaaaa;stroke-width:1"
           id="circle5170"
           cx="0"
           cy="0" />
        <rect
           rx="5"
           ry="5"
           x="-23.578125"
           y="-27"
           width="47.15625"
           height="19"
           style="opacity:0.5;fill:#ffffff"
           id="rect5172" />
        <text
           class="gene-name"
           text-anchor="middle"
           y="-13"
           id="text5174">ACTN2</text>
      </g>
      <g
         class="gene-group"
         id="4110"
         cx="446.2226487309837"
         cy="248.67118941680826"
         transform="translate(446.22265,248.67119)">
        <circle
           class="gene"
           r="8"
           style="stroke:#aaaaaa;stroke-width:1"
           id="circle5177"
           cx="0"
           cy="0" />
        <rect
           rx="5"
           ry="5"
           x="-34.03125"
           y="-27"
           width="68.0625"
           height="19"
           style="opacity:0.5;fill:#ffffff"
           id="rect5179" />
        <text
           class="gene-name"
           text-anchor="middle"
           y="-13"
           id="text5181">MAGEA11</text>
      </g>
      <g
         class="gene-group"
         id="7273"
         cx="217.7422744564448"
         cy="219.74181427281377"
         transform="translate(217.74227,219.74181)">
        <circle
           class="gene"
           r="8"
           style="stroke:#aaaaaa;stroke-width:1"
           id="circle5184"
           cx="0"
           cy="0" />
        <rect
           rx="5"
           ry="5"
           x="-15.023438"
           y="-27"
           width="29.046875"
           height="19"
           style="opacity:0.5;fill:#ffffff"
           id="rect5186" />
        <text
           class="gene-name"
           text-anchor="middle"
           y="-13"
           id="text5188">TTN</text>
      </g>
      <g
         class="gene-group"
         id="124599"
         cx="261.16583796955587"
         cy="108.29310974306031"
         transform="translate(261.16584,108.29311)">
        <circle
           class="gene"
           r="8"
           style="stroke:#aaaaaa;stroke-width:1"
           id="circle5191"
           cx="0"
           cy="0" />
        <rect
           rx="5"
           ry="5"
           x="-31.445312"
           y="-27"
           width="62.890625"
           height="19"
           style="opacity:0.5;fill:#ffffff"
           id="rect5193" />
        <text
           class="gene-name"
           text-anchor="middle"
           y="-13"
           id="text5195">CD300LB</text>
      </g>
      <g
         class="gene-group"
         id="1674"
         cx="140.69875663763685"
         cy="343.25076756513903"
         transform="translate(140.69876,343.25077)">
        <circle
           class="gene"
           r="8"
           style="stroke:#aaaaaa;stroke-width:1"
           id="circle5198"
           cx="0"
           cy="0" />
        <rect
           rx="5"
           ry="5"
           x="-13.867188"
           y="-27"
           width="27.885925"
           height="19"
           style="opacity:0.5;fill:#ffffff"
           id="rect5200" />
        <text
           class="gene-name"
           text-anchor="middle"
           y="-13"
           id="text5202">DES</text>
      </g>
      <g
         class="gene-group"
         id="84676"
         cx="123.36375714146118"
         cy="266.58097527232803"
         transform="translate(123.36376,266.58098)">
        <circle
           class="gene"
           r="8"
           style="stroke:#aaaaaa;stroke-width:1"
           id="circle5205"
           cx="0"
           cy="0" />
        <rect
           rx="5"
           ry="5"
           x="-26.601562"
           y="-27"
           width="52.203125"
           height="19"
           style="opacity:0.5;fill:#ffffff"
           id="rect5207" />
        <text
           class="gene-name"
           text-anchor="middle"
           y="-13"
           id="text5209">TRIM63</text>
      </g>
      <g
         class="gene-group"
         id="9659"
         cx="116.98923038219027"
         cy="201.92195367274775"
         transform="translate(116.98923,201.92195)">
        <circle
           class="gene"
           r="8"
           style="stroke:#aaaaaa;stroke-width:1"
           id="circle5212"
           cx="0"
           cy="0" />
        <rect
           rx="5"
           ry="5"
           x="-30.15625"
           y="-27"
           width="60.3125"
           height="19"
           style="opacity:0.5;fill:#ffffff"
           id="rect5214" />
        <text
           class="gene-name"
           text-anchor="middle"
           y="-13"
           id="text5216">PDE4DIP</text>
      </g>
      <g
         class="gene-group"
         id="755"
         cx="176.99434263286417"
         cy="408.46114415181205"
         transform="translate(176.99434,408.46114)">
        <circle
           class="gene"
           r="8"
           style="stroke:#aaaaaa;stroke-width:1"
           id="circle5219"
           cx="0"
           cy="0" />
        <rect
           rx="5"
           ry="5"
           x="-26.882812"
           y="-27"
           width="53.765625"
           height="19"
           style="opacity:0.5;fill:#ffffff"
           id="rect5221" />
        <text
           class="gene-name"
           text-anchor="middle"
           y="-13"
           id="text5223">C21orf2</text>
      </g>
      <g
         class="gene-group"
         id="1158"
         cx="377.3028106297087"
         cy="416.3665814785638"
         transform="translate(377.30281,416.36658)">
        <circle
           class="gene"
           r="8"
           style="stroke:#aaaaaa;stroke-width:1"
           id="circle5226"
           cx="0"
           cy="0" />
        <rect
           rx="5"
           ry="5"
           x="-15.492188"
           y="-27"
           width="30.984375"
           height="19"
           style="opacity:0.5;fill:#ffffff"
           id="rect5228" />
        <text
           class="gene-name"
           text-anchor="middle"
           y="-13"
           id="text5230">CKM</text>
      </g>
      <g
         class="gene-group"
         id="64581"
         cx="341.14634284464074"
         cy="125.54225606960736"
         transform="translate(341.14634,125.54226)">
        <circle
           class="gene"
           r="8"
           style="stroke:#aaaaaa;stroke-width:1"
           id="circle5233"
           cx="0"
           cy="0" />
        <rect
           rx="5"
           ry="5"
           x="-27.039062"
           y="-27"
           width="54.65181"
           height="19"
           style="opacity:0.5;fill:#ffffff"
           id="rect5235" />
        <text
           class="gene-name"
           text-anchor="middle"
           y="-13"
           id="text5237">CLEC7A</text>
      </g>
      <g
         class="gene-group"
         id="87"
         cx="411.05883324642707"
         cy="181.66736982973202"
         transform="translate(411.05883,181.66737)">
        <circle
           class="gene"
           r="8"
           style="stroke:#aaaaaa;stroke-width:1"
           id="circle5240"
           cx="0"
           cy="0" />
        <rect
           rx="5"
           ry="5"
           x="-23.578125"
           y="-27"
           width="47.15625"
           height="19"
           style="opacity:0.5;fill:#ffffff"
           id="rect5242" />
        <text
           class="gene-name"
           text-anchor="middle"
           y="-13"
           id="text5244">ACTN1</text>
      </g>
      <g
         class="gene-group"
         id="7135"
         cx="354.3645378363483"
         cy="345.69762329316336"
         transform="translate(354.36454,345.69762)">
        <circle
           class="gene"
           r="8"
           style="stroke:#aaaaaa;stroke-width:1"
           id="circle5247"
           cx="0"
           cy="0" />
        <rect
           rx="5"
           ry="5"
           x="-22"
           y="-27"
           width="43"
           height="19"
           style="opacity:0.5;fill:#ffffff"
           id="rect5249" />
        <text
           class="gene-name"
           text-anchor="middle"
           y="-13"
           id="text5251">TNNI1</text>
      </g>
      <g
         class="gene-group"
         id="4684"
         cx="246.16081558392347"
         cy="406.6606623573181"
         transform="translate(246.16082,406.66066)">
        <circle
           class="gene"
           r="8"
           style="stroke:#aaaaaa;stroke-width:1"
           id="circle5254"
           cx="0"
           cy="0" />
        <rect
           rx="5"
           ry="5"
           x="-25.375"
           y="-27"
           width="50.75"
           height="19"
           style="opacity:0.5;fill:#ffffff"
           id="rect5256" />
        <text
           class="gene-name"
           text-anchor="middle"
           y="-13"
           id="text5258">NCAM1</text>
      </g>
      <g
         class="gene-group"
         id="58529"
         cx="119.81944821834196"
         cy="118.96159034887987"
         transform="translate(119.81945,118.96159)">
        <circle
           class="gene gene-query"
           r="15"
           style="stroke:#aaaaaa;stroke-width:1"
           id="circle5261"
           cx="0"
           cy="0" />
        <rect
           rx="5"
           ry="5"
           x="-23.929688"
           y="-34"
           width="47.859375"
           height="19"
           style="opacity:0.5;fill:#ffffff"
           id="rect5263" />
        <text
           class="gene-name"
           text-anchor="middle"
           y="-20"
           id="text5265">MYOZ1</text>
      </g>
      <g
         class="gene-group"
         id="7136"
         cx="453.635035979286"
         cy="382.13715636589444"
         transform="translate(453.63504,382.13716)">
        <circle
           class="gene gene-query"
           r="15"
           style="stroke:#aaaaaa;stroke-width:1"
           id="circle5268"
           cx="0"
           cy="0" />
        <rect
           rx="5"
           ry="5"
           x="-22"
           y="-34"
           width="43"
           height="19"
           style="opacity:0.5;fill:#ffffff"
           id="rect5270" />
        <text
           class="gene-name"
           text-anchor="middle"
           y="-20"
           id="text5272">TNNI2</text>
      </g>
    </g>
  </g>
</svg>
