<?xml version="1.0" encoding="UTF-8" standalone="no"?>
<svg
   xmlns:dc="http://purl.org/dc/elements/1.1/"
   xmlns:cc="http://creativecommons.org/ns#"
   xmlns:rdf="http://www.w3.org/1999/02/22-rdf-syntax-ns#"
   xmlns:svg="http://www.w3.org/2000/svg"
   xmlns="http://www.w3.org/2000/svg"
   xmlns:sodipodi="http://sodipodi.sourceforge.net/DTD/sodipodi-0.dtd"
   xmlns:inkscape="http://www.inkscape.org/namespaces/inkscape"
   height="410.49249"
   width="411.28638"
   version="1.1"
   id="svg252"
   sodipodi:docname="GIANT-JUN_vs_APOC1-blood.svg"
   inkscape:version="0.92.5 (2060ec1f9f, 2020-04-08)">
  <metadata
     id="metadata223">
    <rdf:RDF>
      <cc:Work
         rdf:about="">
        <dc:format>image/svg+xml</dc:format>
        <dc:type
           rdf:resource="http://purl.org/dc/dcmitype/StillImage" />
      </cc:Work>
    </rdf:RDF>
  </metadata>
  <defs
     id="defs256">
    <linearGradient
       id="legend2"
       x1="3.5533452"
       y1="0"
       x2="73.909584"
       y2="0"
       spreadMethod="pad"
       gradientTransform="matrix(4.9990019,0,0,0.10098994,22.321037,410.78561)"
       gradientUnits="userSpaceOnUse">
      <stop
         offset="0%"
         style="stop-color: rgb(44, 160, 44);"
         id="stop2" />
      <stop
         offset="25%"
         style="stop-color: rgb(228, 164, 76);"
         id="stop4" />
      <stop
         offset="50%"
         style="stop-color: rgb(219, 109, 61);"
         id="stop6" />
      <stop
         offset="75%"
         style="stop-color: rgb(211, 55, 47);"
         id="stop8" />
      <stop
         offset="100%"
         style="stop-color: rgb(202, 0, 32);"
         id="stop10" />
    </linearGradient>
    <clipPath
       clipPathUnits="userSpaceOnUse"
       id="clipPath1221">
      <rect
         style="fill:none;stroke:#000000;stroke-width:1.35509;stroke-linecap:round;stroke-linejoin:round;stroke-miterlimit:4;stroke-dasharray:1.35509, 16.261;stroke-dashoffset:0"
         id="rect1223"
         width="403.2023"
         height="396.51294"
         x="74.897202"
         y="130.29227" />
    </clipPath>
    <linearGradient
       id="legend2-1"
       x1="3.5533452"
       y1="0"
       x2="73.909584"
       y2="0"
       spreadMethod="pad"
       gradientTransform="matrix(7.0356236,0,0,0.14213381,-25,15.27081)"
       gradientUnits="userSpaceOnUse">
      <stop
         offset="0%"
         style="stop-color: rgb(44, 160, 44);"
         id="stop2-9" />
      <stop
         offset="25%"
         style="stop-color: rgb(228, 164, 76);"
         id="stop4-6" />
      <stop
         offset="50%"
         style="stop-color: rgb(219, 109, 61);"
         id="stop6-9" />
      <stop
         offset="75%"
         style="stop-color: rgb(211, 55, 47);"
         id="stop8-3" />
      <stop
         offset="100%"
         style="stop-color: rgb(202, 0, 32);"
         id="stop10-3" />
    </linearGradient>
    <clipPath
       clipPathUnits="userSpaceOnUse"
       id="clipPath1771">
      <rect
         style="fill:#fefefe;fill-opacity:1;stroke:#000000;stroke-width:5;stroke-linecap:round;stroke-linejoin:round;stroke-miterlimit:4;stroke-dasharray:10, 5;stroke-dashoffset:0"
         id="rect1773"
         width="438.29736"
         height="449.99292"
         x="41.806408"
         y="86.000839" />
    </clipPath>
    <clipPath
       clipPathUnits="userSpaceOnUse"
       id="clipPath3450">
      <rect
         style="fill:#fefefe;fill-opacity:1;stroke:#000000;stroke-width:5;stroke-linecap:round;stroke-linejoin:round;stroke-miterlimit:4;stroke-dasharray:10, 5;stroke-dashoffset:0"
         id="rect3452"
         width="436.6178"
         height="500.89938"
         x="56.287468"
         y="49.557167" />
    </clipPath>
  </defs>
  <sodipodi:namedview
     id="namedview254"
     pagecolor="#ffffff"
     bordercolor="#666666"
     borderopacity="1.0"
     inkscape:pageshadow="2"
     inkscape:pageopacity="0.0"
     inkscape:pagecheckerboard="0"
     showgrid="false"
     inkscape:zoom="1.4066667"
     inkscape:cx="78.554498"
     inkscape:cy="117.29858"
     inkscape:window-width="1714"
     inkscape:window-height="1371"
     inkscape:window-x="4"
     inkscape:window-y="28"
     inkscape:window-maximized="0"
     inkscape:current-layer="g3336"
     fit-margin-top="0"
     fit-margin-left="0"
     fit-margin-right="0"
     fit-margin-bottom="0" />
  <rect
     style="fill:#ffffff;fill-opacity:1;stroke:none;stroke-width:0.848711;stroke-linecap:round;stroke-linejoin:round;stroke-miterlimit:4;stroke-dasharray:0.848711, 10.1844;stroke-dashoffset:0"
     id="rect1456"
     width="419.55774"
     height="404.80002"
     x="-4.8424907"
     y="2.1971207" />
  <g
     id="g3338"
     clip-path="url(#clipPath3450)"
     transform="matrix(0.80200087,0,0,0.80200087,-15.290146,-36.008632)">
    <rect
       class="canvas"
       width="540"
       height="600"
       style="fill:none"
       id="rect3085"
       x="0"
       y="0" />
    <g
       transform="matrix(1.2,0,0,1.2,-50.114365,-52.806847)"
       id="g3336">
      <path
         class="edge"
         id="2"
         d="m 299.74517,133.75379 c 0,0 -4.28912,172.6935 -27.85203,325.01702"
         style="fill:none;stroke:#e08e46;stroke-width:1" />
      <path
         class="edge"
         id="4"
         d="m 299.74517,133.75379 c 0,0 100.32535,11.75152 109.17343,117.15979"
         style="fill:none;stroke:#d2332e;stroke-width:2.1134" />
      <path
         class="edge"
         id="5"
         d="m 299.74517,133.75379 c 0,0 45.29882,153.80337 21.5154,324.99548"
         style="fill:none;stroke:#d75537;stroke-width:1.68623" />
      <path
         class="edge"
         id="9"
         d="m 299.74517,133.75379 c 0,0 -125.07451,37.35104 -175.39045,151.48904"
         style="fill:none;stroke:#cf2229;stroke-width:2.32414" />
      <path
         class="edge"
         id="11"
         d="m 299.74517,133.75379 c 0,0 60.5047,-62.655466 42.94794,26.40002"
         style="fill:none;stroke:#e4a44c;stroke-width:1" />
      <path
         class="edge"
         id="12"
         d="m 299.74517,133.75379 c 0,0 90.26494,-39.024014 94.58232,46.12385"
         style="fill:none;stroke:#cb0922;stroke-width:2.63454" />
      <path
         class="edge"
         id="13"
         d="m 299.74517,133.75379 c 0,0 -18.24292,-86.670731 -53.40506,-6.72452"
         style="fill:none;stroke:#d75136;stroke-width:1.72849" />
      <path
         class="edge"
         id="16"
         d="m 299.74517,133.75379 c 0,0 88.64002,105.89999 99.76997,245.28791"
         style="fill:none;stroke:#d2352e;stroke-width:2.08248" />
      <path
         class="edge"
         id="25"
         d="m 299.74517,133.75379 c 0,0 -29.2176,142.02085 -62.32761,283.14744"
         style="fill:none;stroke:#d2362e;stroke-width:2.07702" />
      <path
         class="edge"
         id="28"
         d="m 299.74517,133.75379 c 0,0 -82.74245,124.06646 -115.22806,266.7482"
         style="fill:none;stroke:#d12e2c;stroke-width:2.17422" />
      <path
         class="edge"
         id="33"
         d="m 299.74517,133.75379 c 0,0 -101.31843,-70.321655 -181.7696,-11.29329"
         style="fill:none;stroke:#cf2029;stroke-width:2.34476" />
      <path
         class="edge"
         id="37"
         d="m 299.74517,133.75379 c 0,0 -79.3996,-38.881326 -109.13814,50.41567"
         style="fill:none;stroke:#d54533;stroke-width:1.88315" />
      <path
         class="edge"
         id="38"
         d="m 299.74517,133.75379 c 0,0 -108.52693,-1.85451 -158.01263,95.8629"
         style="fill:none;stroke:#ce1726;stroke-width:2.46527" />
      <path
         class="edge"
         id="41"
         d="m 299.74517,133.75379 c 0,0 104.46877,64.82704 112.64511,181.80956"
         style="fill:none;stroke:#cf2229;stroke-width:2.3275" />
      <path
         class="edge"
         id="49"
         d="m 299.74517,133.75379 c 0,0 -109.91573,89.6309 -156.51724,219.48902"
         style="fill:none;stroke:#d44232;stroke-width:1.91467" />
      <path
         class="edge"
         id="151"
         d="m 271.89314,458.77081 c 0,0 104.40564,-73.98728 137.02546,-207.85723"
         style="fill:none;stroke:#cc0a23;stroke-width:2.62525" />
      <path
         class="edge"
         id="152"
         d="m 271.89314,458.77081 c 0,0 27.33958,83.33677 49.36743,-0.0215"
         style="fill:none;stroke:#cd1526;stroke-width:2.48579" />
      <path
         class="edge"
         id="153"
         d="m 271.89314,458.77081 c 0,0 82.36055,71.21008 143.65522,6.7801"
         style="fill:none;stroke:#d64a34;stroke-width:1.81709" />
      <path
         class="edge"
         id="156"
         d="m 271.89314,458.77081 c 0,0 -117.30492,-46.74044 -147.53842,-173.52798"
         style="fill:none;stroke:#db6f3e;stroke-width:1.34978" />
      <path
         class="edge"
         id="158"
         d="m 271.89314,458.77081 c 0,0 59.99484,-136.27103 70.79997,-298.617"
         style="fill:none;stroke:#d2362e;stroke-width:2.07686" />
      <path
         class="edge"
         id="159"
         d="m 271.89314,458.77081 c 0,0 96.1492,-122.29899 122.43435,-278.89317"
         style="fill:none;stroke:#d43e31;stroke-width:1.96468" />
      <path
         class="edge"
         id="163"
         d="m 271.89314,458.77081 c 0,0 95.83403,18.2017 127.622,-79.72911"
         style="fill:none;stroke:#cf1e28;stroke-width:2.36955" />
      <path
         class="edge"
         id="172"
         d="m 271.89314,458.77081 c 0,0 -44.95544,61.15555 -34.47558,-41.86958"
         style="fill:none;stroke:#d0262a;stroke-width:2.2745" />
      <path
         class="edge"
         id="175"
         d="m 271.89314,458.77081 c 0,0 -79.95514,41.47346 -87.37603,-58.26882"
         style="fill:none;stroke:#cf1e28;stroke-width:2.37819" />
      <path
         class="edge"
         id="180"
         d="m 271.89314,458.77081 c 0,0 -109.7361,-161.03637 -153.91757,-336.31031"
         style="fill:none;stroke:#dd7a41;stroke-width:1.21107" />
      <path
         class="edge"
         id="184"
         d="m 271.89314,458.77081 c 0,0 -68.08596,-120.31843 -81.28611,-274.60135"
         style="fill:none;stroke:#d54633;stroke-width:1.86423" />
      <path
         class="edge"
         id="185"
         d="m 271.89314,458.77081 c 0,0 -102.19935,-88.46373 -130.1606,-229.15412"
         style="fill:none;stroke:#df8544;stroke-width:1.07325" />
      <path
         class="edge"
         id="188"
         d="m 271.89314,458.77081 c 0,0 107.91485,-29.69549 140.49714,-143.20746"
         style="fill:none;stroke:#df8945;stroke-width:1.02935" />
      <path
         class="edge"
         id="196"
         d="m 271.89314,458.77081 c 0,0 -104.20866,-0.99472 -128.66521,-105.528"
         style="fill:none;stroke:#d95e39;stroke-width:1.56412" />
      <path
         class="edge"
         id="245"
         d="m 408.9186,250.91358 c 0,0 11.1703,130.50765 -87.65803,207.83569"
         style="fill:none;stroke:#d2322d;stroke-width:2.12405" />
      <path
         class="edge"
         id="246"
         d="m 408.9186,250.91358 c 0,0 56.63474,119.54568 6.62976,214.63733"
         style="fill:none;stroke:#d85737;stroke-width:1.6514" />
      <path
         class="edge"
         id="249"
         d="m 408.9186,250.91358 c 0,0 -137.88858,-4.45429 -284.56388,34.32925"
         style="fill:none;stroke:#d3392f;stroke-width:2.03528" />
      <path
         class="edge"
         id="251"
         d="m 408.9186,250.91358 c 0,0 30.07152,-89.56323 -66.22549,-90.75977"
         style="fill:none;stroke:#cf2329;stroke-width:2.30768" />
      <path
         class="edge"
         id="252"
         d="m 408.9186,250.91358 c 0,0 68.08016,-67.1019 -14.59111,-71.03594"
         style="fill:none;stroke:#ce1b27;stroke-width:2.40832" />
      <path
         class="edge"
         id="256"
         d="m 408.9186,250.91358 c 0,0 72.71319,70.0175 -9.40346,128.12812"
         style="fill:none;stroke:#d54633;stroke-width:1.86863" />
      <path
         class="edge"
         id="265"
         d="m 408.9186,250.91358 c 0,0 -57.28664,113.67267 -171.50104,165.98765"
         style="fill:none;stroke:#d2362f;stroke-width:2.06643" />
      <path
         class="edge"
         id="268"
         d="m 408.9186,250.91358 c 0,0 -94.50121,109.29124 -224.40149,149.58841"
         style="fill:none;stroke:#d0292b;stroke-width:2.23205" />
      <path
         class="edge"
         id="273"
         d="m 408.9186,250.91358 c 0,0 -136.89574,-103.07291 -290.94303,-128.45308"
         style="fill:none;stroke:#db6c3d;stroke-width:1.39607" />
      <path
         class="edge"
         id="277"
         d="m 408.9186,250.91358 c 0,0 -89.53648,-71.56035 -218.31157,-66.74412"
         style="fill:none;stroke:#d44232;stroke-width:1.92509" />
      <path
         class="edge"
         id="278"
         d="m 408.9186,250.91358 c 0,0 -122.23994,-39.1635 -267.18606,-21.29689"
         style="fill:none;stroke:#e3a04b;stroke-width:1" />
      <path
         class="edge"
         id="281"
         d="m 408.9186,250.91358 c 0,0 86.01896,25.06568 3.47168,64.64977"
         style="fill:none;stroke:#dc743f;stroke-width:1.28866" />
      <path
         class="edge"
         id="289"
         d="m 408.9186,250.91358 c 0,0 -127.4264,75.46032 -265.69067,102.32923"
         style="fill:none;stroke:#ce1d28;stroke-width:2.38946" />
      <path
         class="edge"
         id="291"
         d="m 321.26057,458.74927 c 0,0 71.94498,74.18451 94.28779,6.80164"
         style="fill:none;stroke:#d2332e;stroke-width:2.1139" />
      <path
         class="edge"
         id="294"
         d="m 321.26057,458.74927 c 0,0 -122.60984,-45.34835 -196.90585,-173.50644"
         style="fill:none;stroke:#e4a64d;stroke-width:1" />
      <path
         class="edge"
         id="296"
         d="m 321.26057,458.74927 c 0,0 51.91875,-149.16083 21.43254,-298.59546"
         style="fill:none;stroke:#d0242a;stroke-width:2.30268" />
      <path
         class="edge"
         id="297"
         d="m 321.26057,458.74927 c 0,0 79.77349,-124.98901 73.06692,-278.87163"
         style="fill:none;stroke:#cd1325;stroke-width:2.51059" />
      <path
         class="edge"
         id="301"
         d="m 321.26057,458.74927 c 0,0 84.14372,22.63851 78.25457,-79.70757"
         style="fill:none;stroke:#d75537;stroke-width:1.67623" />
      <path
         class="edge"
         id="310"
         d="m 321.26057,458.74927 c 0,0 -56.31069,56.87615 -83.84301,-41.84804"
         style="fill:none;stroke:#cd1125;stroke-width:2.53131" />
      <path
         class="edge"
         id="313"
         d="m 321.26057,458.74927 c 0,0 -89.85863,32.45119 -136.74346,-58.24728"
         style="fill:none;stroke:#d0262a;stroke-width:2.26743" />
      <path
         class="edge"
         id="318"
         d="m 321.26057,458.74927 c 0,0 -123.90933,-159.22727 -203.285,-336.28877"
         style="fill:none;stroke:#e3a14b;stroke-width:1" />
      <path
         class="edge"
         id="322"
         d="m 321.26057,458.74927 c 0,0 -86.19553,-118.8993 -130.65354,-274.57981"
         style="fill:none;stroke:#d75236;stroke-width:1.71527" />
      <path
         class="edge"
         id="323"
         d="m 321.26057,458.74927 c 0,0 -113.54634,-86.7723 -179.52803,-229.13258"
         style="fill:none;stroke:#e29849;stroke-width:1" />
      <path
         class="edge"
         id="326"
         d="m 321.26057,458.74927 c 0,0 98.18738,-32.83488 91.12971,-143.18592"
         style="fill:none;stroke:#df8544;stroke-width:1.07839" />
      <path
         class="edge"
         id="334"
         d="m 321.26057,458.74927 c 0,0 -113.65959,-3.15346 -178.03264,-105.50646"
         style="fill:none;stroke:#ce1a27;stroke-width:2.42805" />
      <path
         class="edge"
         id="340"
         d="m 415.54836,465.55091 c 0,0 12.7012,-160.81338 -72.85525,-305.3971"
         style="fill:none;stroke:#d43d30;stroke-width:1.98036" />
      <path
         class="edge"
         id="341"
         d="m 415.54836,465.55091 c 0,0 40.1946,-140.49632 -21.22087,-285.67327"
         style="fill:none;stroke:#e39f4b;stroke-width:1" />
      <path
         class="edge"
         id="345"
         d="m 415.54836,465.55091 c 0,0 59.9405,-10.19637 -16.03322,-86.50921"
         style="fill:none;stroke:#e4a64d;stroke-width:1" />
      <path
         class="edge"
         id="354"
         d="m 415.54836,465.55091 c 0,0 -87.48699,36.41688 -178.1308,-48.64968"
         style="fill:none;stroke:#db6f3e;stroke-width:1.35927" />
      <path
         class="edge"
         id="357"
         d="m 415.54836,465.55091 c 0,0 -121.37486,22.2949 -231.03125,-65.04892"
         style="fill:none;stroke:#e19348;stroke-width:1" />
      <path
         class="edge"
         id="366"
         d="m 415.54836,465.55091 c 0,0 -105.84919,-126.57008 -224.94133,-281.38145"
         style="fill:none;stroke:#e29a49;stroke-width:1" />
      <path
         class="edge"
         id="370"
         d="m 415.54836,465.55091 c 0,0 62.35617,-55.05145 -3.15808,-149.98756"
         style="fill:none;stroke:#e5ac4e;stroke-width:1" />
      <path
         class="edge"
         id="378"
         d="m 415.54836,465.55091 c 0,0 -153.66346,-17.39816 -272.32043,-112.3081"
         style="fill:none;stroke:#d9623a;stroke-width:1.5201" />
      <path
         class="edge"
         id="466"
         d="m 124.35472,285.24283 c 0,0 91.52426,-95.31919 218.33839,-125.08902"
         style="fill:none;stroke:#e4a74d;stroke-width:1" />
      <path
         class="edge"
         id="467"
         d="m 124.35472,285.24283 c 0,0 124.93001,-83.44007 269.97277,-105.36519"
         style="fill:none;stroke:#cb0a23;stroke-width:2.6306" />
      <path
         class="edge"
         id="468"
         d="m 124.35472,285.24283 c 0,0 13.71327,-112.63879 121.98539,-158.21356"
         style="fill:none;stroke:#cf1f28;stroke-width:2.3661" />
      <path
         class="edge"
         id="471"
         d="m 124.35472,285.24283 c 0,0 126.5593,80.73983 275.16042,93.79887"
         style="fill:none;stroke:#cd1425;stroke-width:2.49557" />
      <path
         class="edge"
         id="480"
         d="m 124.35472,285.24283 c 0,0 1.57004,106.82577 113.06284,131.6584"
         style="fill:none;stroke:#dc743f;stroke-width:1.29768" />
      <path
         class="edge"
         id="483"
         d="m 124.35472,285.24283 c 0,0 -38.363998,93.976 60.16239,115.25916"
         style="fill:none;stroke:#d12c2c;stroke-width:2.19631" />
      <path
         class="edge"
         id="488"
         d="m 124.35472,285.24283 c 0,0 -69.511134,-94.55312 -6.37915,-162.78233"
         style="fill:none;stroke:#cb0622;stroke-width:2.67835" />
      <path
         class="edge"
         id="492"
         d="m 124.35472,285.24283 c 0,0 -31.458566,-81.16514 66.25231,-101.07337"
         style="fill:none;stroke:#d3372f;stroke-width:2.05495" />
      <path
         class="edge"
         id="493"
         d="m 124.35472,285.24283 c 0,0 -78.04281,-31.99545 17.37782,-55.62614"
         style="fill:none;stroke:#cc0f24;stroke-width:2.55798" />
      <path
         class="edge"
         id="496"
         d="m 124.35472,285.24283 c 0,0 135.58615,42.90154 288.03556,30.32052"
         style="fill:none;stroke:#cd1526;stroke-width:2.49216" />
      <path
         class="edge"
         id="504"
         d="m 124.35472,285.24283 c 0,0 -71.711914,59.73228 18.87321,67.99998"
         style="fill:none;stroke:#d3392f;stroke-width:2.03291" />
      <path
         class="edge"
         id="546"
         d="m 342.69311,160.15381 c 0,0 83.11225,-49.55923 51.63438,19.72383"
         style="fill:none;stroke:#d0252a;stroke-width:2.28012" />
      <path
         class="edge"
         id="547"
         d="m 342.69311,160.15381 c 0,0 -25.45743,-91.113208 -96.353,-33.12454"
         style="fill:none;stroke:#e4a54c;stroke-width:1" />
      <path
         class="edge"
         id="550"
         d="m 342.69311,160.15381 c 0,0 84.60604,98.38072 56.82203,218.88789"
         style="fill:none;stroke:#d85938;stroke-width:1.63651" />
      <path
         class="edge"
         id="559"
         d="m 342.69311,160.15381 c 0,0 -26.90276,130.27607 -105.27555,256.74742"
         style="fill:none;stroke:#d0272a;stroke-width:2.25961" />
      <path
         class="edge"
         id="562"
         d="m 342.69311,160.15381 c 0,0 -94.15114,121.47949 -158.176,240.34818"
         style="fill:none;stroke:#d2342e;stroke-width:2.09275" />
      <path
         class="edge"
         id="567"
         d="m 342.69311,160.15381 c 0,0 -111.87006,-81.985671 -224.71754,-37.69331"
         style="fill:none;stroke:#e08f46;stroke-width:1" />
      <path
         class="edge"
         id="571"
         d="m 342.69311,160.15381 c 0,0 -71.39611,-50.35026 -152.08608,24.01565"
         style="fill:none;stroke:#cf2329;stroke-width:2.31123" />
      <path
         class="edge"
         id="572"
         d="m 342.69311,160.15381 c 0,0 -117.68387,-10.00173 -200.96057,69.46288"
         style="fill:none;stroke:#e29949;stroke-width:1" />
      <path
         class="edge"
         id="575"
         d="m 342.69311,160.15381 c 0,0 95.31578,51.7976 69.69717,155.40954"
         style="fill:none;stroke:#e4a74d;stroke-width:1" />
      <path
         class="edge"
         id="583"
         d="m 342.69311,160.15381 c 0,0 -121.21592,74.8551 -199.46518,193.089"
         style="fill:none;stroke:#d12a2b;stroke-width:2.22179" />
      <path
         class="edge"
         id="585"
         d="m 394.32749,179.87764 c 0,0 -45.80807,-83.402212 -147.98738,-52.84837"
         style="fill:none;stroke:#d54934;stroke-width:1.8377" />
      <path
         class="edge"
         id="588"
         d="m 394.32749,179.87764 c 0,0 64.14429,94.21054 5.18765,199.16406"
         style="fill:none;stroke:#d0252a;stroke-width:2.28533" />
      <path
         class="edge"
         id="597"
         d="m 394.32749,179.87764 c 0,0 -46.69548,127.93936 -156.90993,237.02359"
         style="fill:none;stroke:#d0292b;stroke-width:2.23946" />
      <path
         class="edge"
         id="600"
         d="m 394.32749,179.87764 c 0,0 -97.42991,107.91738 -209.81038,220.62435"
         style="fill:none;stroke:#cb0822;stroke-width:2.64487" />
      <path
         class="edge"
         id="605"
         d="m 394.32749,179.87764 c 0,0 -133.40072,-85.757652 -276.35192,-57.41714"
         style="fill:none;stroke:#cf1e28;stroke-width:2.36959" />
      <path
         class="edge"
         id="609"
         d="m 394.32749,179.87764 c 0,0 -82.84947,-56.10463 -203.72046,4.29182"
         style="fill:none;stroke:#cd1024;stroke-width:2.54564" />
      <path
         class="edge"
         id="610"
         d="m 394.32749,179.87764 c 0,0 -129.85694,-11.9195 -252.59495,49.73905"
         style="fill:none;stroke:#cd1325;stroke-width:2.51184" />
      <path
         class="edge"
         id="613"
         d="m 394.32749,179.87764 c 0,0 80.51235,51.21784 18.06279,135.68571"
         style="fill:none;stroke:#ce1826;stroke-width:2.44724" />
      <path
         class="edge"
         id="621"
         d="m 394.32749,179.87764 c 0,0 -136.85209,75.77206 -251.09956,173.36517"
         style="fill:none;stroke:#cd1425;stroke-width:2.50327" />
      <path
         class="edge"
         id="625"
         d="m 246.34011,127.02927 c 0,0 111.43267,108.17784 153.17503,252.01243"
         style="fill:none;stroke:#d54533;stroke-width:1.87791" />
      <path
         class="edge"
         id="634"
         d="m 246.34011,127.02927 c 0,0 -30.33276,150.30421 -8.92255,289.87196"
         style="fill:none;stroke:#de7e42;stroke-width:1.16498" />
      <path
         class="edge"
         id="637"
         d="m 246.34011,127.02927 c 0,0 -66.53089,131.70788 -61.823,273.47272"
         style="fill:none;stroke:#d3372f;stroke-width:2.06024" />
      <path
         class="edge"
         id="642"
         d="m 246.34011,127.02927 c 0,0 -86.79788,-70.281524 -128.36454,-4.56877"
         style="fill:none;stroke:#cb0822;stroke-width:2.64548" />
      <path
         class="edge"
         id="646"
         d="m 246.34011,127.02927 c 0,0 -71.20529,-35.308275 -55.73308,57.14019"
         style="fill:none;stroke:#da693c;stroke-width:1.43656" />
      <path
         class="edge"
         id="647"
         d="m 246.34011,127.02927 c 0,0 -96.9751,2.79655 -104.60757,102.58742"
         style="fill:none;stroke:#cf1f28;stroke-width:2.35825" />
      <path
         class="edge"
         id="650"
         d="m 246.34011,127.02927 c 0,0 117.24266,65.09235 166.05017,188.53408"
         style="fill:none;stroke:#dc703e;stroke-width:1.33726" />
      <path
         class="edge"
         id="658"
         d="m 246.34011,127.02927 c 0,0 -91.64676,91.78499 -103.11218,226.21354"
         style="fill:none;stroke:#d44131;stroke-width:1.93245" />
      <path
         class="edge"
         id="739"
         d="m 399.51514,379.0417 c 0,0 -58.47964,72.44452 -162.09758,37.85953"
         style="fill:none;stroke:#d12c2c;stroke-width:2.19324" />
      <path
         class="edge"
         id="742"
         d="m 399.51514,379.0417 c 0,0 -101.88928,55.90707 -214.99803,21.46029"
         style="fill:none;stroke:#ce1726;stroke-width:2.46127" />
      <path
         class="edge"
         id="747"
         d="m 399.51514,379.0417 c 0,0 -143.22387,-149.38746 -281.53957,-256.5812"
         style="fill:none;stroke:#d12b2c;stroke-width:2.21027" />
      <path
         class="edge"
         id="751"
         d="m 399.51514,379.0417 c 0,0 -77.82918,-117.94567 -208.90811,-194.87224"
         style="fill:none;stroke:#ce1726;stroke-width:2.46235" />
      <path
         class="edge"
         id="752"
         d="m 399.51514,379.0417 c 0,0 -139.64269,-66.80307 -257.7826,-149.42501"
         style="fill:none;stroke:#d0252a;stroke-width:2.28809" />
      <path
         class="edge"
         id="755"
         d="m 399.51514,379.0417 c 0,0 89.53672,-11.62159 12.87514,-63.47835"
         style="fill:none;stroke:#d44332;stroke-width:1.90856" />
      <path
         class="edge"
         id="763"
         d="m 399.51514,379.0417 c 0,0 -132.40671,26.57198 -256.28721,-25.79889"
         style="fill:none;stroke:#d44132;stroke-width:1.9271" />
      <path
         class="edge"
         id="1003"
         d="m 237.41756,416.90123 c 0,0 -73.2325,65.94664 -52.90045,-16.39924"
         style="fill:none;stroke:#cf1f28;stroke-width:2.35859" />
      <path
         class="edge"
         id="1008"
         d="m 237.41756,416.90123 c 0,0 -95.66387,-147.86511 -119.44199,-294.44073"
         style="fill:none;stroke:#da683c;stroke-width:1.44346" />
      <path
         class="edge"
         id="1012"
         d="m 237.41756,416.90123 c 0,0 -60.5075,-100.33829 -46.81053,-232.73177"
         style="fill:none;stroke:#d64c34;stroke-width:1.79509" />
      <path
         class="edge"
         id="1013"
         d="m 237.41756,416.90123 c 0,0 -106.10006,-71.66643 -95.68502,-187.28454"
         style="fill:none;stroke:#da653b;stroke-width:1.48254" />
      <path
         class="edge"
         id="1016"
         d="m 237.41756,416.90123 c 0,0 112.86534,-8.3673 174.97272,-101.33788"
         style="fill:none;stroke:#d85c39;stroke-width:1.58989" />
      <path
         class="edge"
         id="1024"
         d="m 237.41756,416.90123 c 0,0 -100.74153,27.22707 -94.18963,-63.65842"
         style="fill:none;stroke:#d0292b;stroke-width:2.23552" />
      <path
         class="edge"
         id="1077"
         d="m 184.51711,400.50199 c 0,0 -89.408268,-132.5336 -66.54154,-278.04149"
         style="fill:none;stroke:#d43f31;stroke-width:1.95277" />
      <path
         class="edge"
         id="1081"
         d="m 184.51711,400.50199 c 0,0 -49.92457,-97.3618 6.08992,-216.33253"
         style="fill:none;stroke:#cd1225;stroke-width:2.52295" />
      <path
         class="edge"
         id="1082"
         d="m 184.51711,400.50199 c 0,0 -87.894196,-65.95902 -42.78457,-170.8853"
         style="fill:none;stroke:#d2352e;stroke-width:2.079" />
      <path
         class="edge"
         id="1085"
         d="m 184.51711,400.50199 c 0,0 127.45979,-3.60982 227.87317,-84.93864"
         style="fill:none;stroke:#d33c30;stroke-width:1.99794" />
      <path
         class="edge"
         id="1093"
         d="m 184.51711,400.50199 c 0,0 -88.323801,28.40243 -41.28918,-47.25918"
         style="fill:none;stroke:#cf2129;stroke-width:2.33254" />
      <path
         class="edge"
         id="1176"
         d="m 117.97557,122.4605 c 0,0 0.755,-39.186298 72.63146,61.70896"
         style="fill:none;stroke:#d33b30;stroke-width:2.00294" />
      <path
         class="edge"
         id="1177"
         d="m 117.97557,122.4605 c 0,0 -58.59676,30.28936 23.75697,107.15619"
         style="fill:none;stroke:#cf1d28;stroke-width:2.38706" />
      <path
         class="edge"
         id="1180"
         d="m 117.97557,122.4605 c 0,0 158.96651,67.24149 294.41471,193.10285"
         style="fill:none;stroke:#d0282b;stroke-width:2.24792" />
      <path
         class="edge"
         id="1188"
         d="m 117.97557,122.4605 c 0,0 -46.309571,110.62801 25.25236,230.78231"
         style="fill:none;stroke:#da673c;stroke-width:1.45251" />
      <path
         class="edge"
         id="1235"
         d="m 190.60703,184.16946 c 0,0 -90.19484,-23.74211 -48.87449,45.44723"
         style="fill:none;stroke:#d2312d;stroke-width:2.13378" />
      <path
         class="edge"
         id="1238"
         d="m 190.60703,184.16946 c 0,0 136.11417,37.02212 221.78325,131.39389"
         style="fill:none;stroke:#d2342e;stroke-width:2.09249" />
      <path
         class="edge"
         id="1246"
         d="m 190.60703,184.16946 c 0,0 -82.65109,68.44409 -47.3791,169.07335"
         style="fill:none;stroke:#d85b38;stroke-width:1.61219" />
      <path
         class="edge"
         id="1250"
         d="m 141.73254,229.61669 c 0,0 151.29242,22.39405 270.65774,85.94666"
         style="fill:none;stroke:#d0252a;stroke-width:2.29006" />
      <path
         class="edge"
         id="1258"
         d="m 141.73254,229.61669 c 0,0 -77.869094,70.44361 1.49539,123.62612"
         style="fill:none;stroke:#e08b45;stroke-width:1.00246" />
      <path
         class="edge"
         id="1288"
         d="m 412.39028,315.56335 c 0,0 -132.22266,54.56406 -269.16235,37.67946"
         style="fill:none;stroke:#d64f35;stroke-width:1.75171" />
      <g
         class="gene-group"
         id="7128"
         cx="394.3274858577878"
         cy="179.8776434718614"
         transform="translate(394.32749,179.87764)">
        <circle
           class="gene"
           r="8"
           style="stroke-width:1"
           id="circle3215"
           cx="0"
           cy="0" />
        <rect
           rx="5"
           ry="5"
           x="-30.078125"
           y="-27"
           width="59.15625"
           height="19"
           style="opacity:0.5;fill:#ffffff"
           id="rect3217" />
        <text
           class="gene-name"
           text-anchor="middle"
           y="-13"
           id="text3219">TNFAIP3</text>
      </g>
      <g
         class="gene-group"
         id="2633"
         cx="408.918602163733"
         cy="250.91357996895727"
         transform="translate(408.9186,250.91358)">
        <circle
           class="gene"
           r="8"
           style="stroke:#aaaaaa;stroke-width:1"
           id="circle3222"
           cx="0"
           cy="0" />
        <rect
           rx="5"
           ry="5"
           x="-18.734375"
           y="-27"
           width="37.46875"
           height="19"
           style="opacity:0.5;fill:#ffffff"
           id="rect3224" />
        <text
           class="gene-name"
           text-anchor="middle"
           y="-13"
           id="text3226">GBP1</text>
      </g>
      <g
         class="gene-group"
         id="2634"
         cx="271.8931391618928"
         cy="458.77081170571586"
         transform="translate(271.89314,458.77081)">
        <circle
           class="gene"
           r="8"
           style="stroke:#aaaaaa;stroke-width:1"
           id="circle3229"
           cx="0"
           cy="0" />
        <rect
           rx="5"
           ry="5"
           x="-18.734375"
           y="-27"
           width="37.46875"
           height="19"
           style="opacity:0.5;fill:#ffffff"
           id="rect3231" />
        <text
           class="gene-name"
           text-anchor="middle"
           y="-13"
           id="text3233">GBP2</text>
      </g>
      <g
         class="gene-group"
         id="2353"
         cx="246.34010933779362"
         cy="127.02926533281506"
         transform="translate(246.34011,127.02927)">
        <circle
           class="gene"
           r="8"
           style="stroke:#aaaaaa;stroke-width:1"
           id="circle3236"
           cx="0"
           cy="0" />
        <rect
           rx="5"
           ry="5"
           x="-13.757812"
           y="-27"
           width="27.675934"
           height="19"
           style="opacity:0.5;fill:#ffffff"
           id="rect3238" />
        <text
           class="gene-name"
           text-anchor="middle"
           y="-13"
           id="text3240">FOS</text>
      </g>
      <g
         class="gene-group"
         id="6347"
         cx="143.22793061886478"
         cy="353.24280805798946"
         transform="translate(143.22793,353.24281)">
        <circle
           class="gene"
           r="8"
           style="stroke:#aaaaaa;stroke-width:1"
           id="circle3243"
           cx="0"
           cy="0" />
        <rect
           rx="5"
           ry="5"
           x="-17.5"
           y="-27"
           width="35"
           height="19"
           style="opacity:0.5;fill:#ffffff"
           id="rect3245" />
        <text
           class="gene-name"
           text-anchor="middle"
           y="-13"
           id="text3247">CCL2</text>
      </g>
      <g
         class="gene-group"
         id="6503"
         cx="342.6931056678229"
         cy="160.15381345029127"
         transform="translate(342.69311,160.15381)">
        <circle
           class="gene"
           r="8"
           style="stroke-width:1"
           id="circle3250"
           cx="0"
           cy="0" />
        <rect
           rx="5"
           ry="5"
           x="-13.460938"
           y="-27"
           width="27.491928"
           height="19"
           style="opacity:0.5;fill:#ffffff"
           id="rect3252" />
        <text
           class="gene-name"
           text-anchor="middle"
           y="-13"
           id="text3254">SLA</text>
      </g>
      <g
         class="gene-group"
         id="g3263"
         cx="124.3547219880481"
         cy="285.2428275787574"
         transform="translate(124.35472,285.24283)">
        <circle
           class="gene"
           r="8"
           style="stroke:#aaaaaa;stroke-width:1"
           id="circle3257"
           cx="0"
           cy="0" />
        <rect
           rx="5"
           ry="5"
           x="-17.148438"
           y="-27"
           width="34.296875"
           height="19"
           style="opacity:0.5;fill:#ffffff"
           id="rect3259" />
        <text
           class="gene-name"
           text-anchor="middle"
           y="-13"
           id="text3261">ATF3</text>
      </g>
      <g
         class="gene-group"
         id="4616"
         cx="399.51513694101436"
         cy="379.0417029396911"
         transform="translate(399.51514,379.0417)">
        <circle
           class="gene"
           r="8"
           style="stroke:#aaaaaa;stroke-width:1"
           id="circle3265"
           cx="0"
           cy="0" />
        <rect
           rx="5"
           ry="5"
           x="-34.25"
           y="-27"
           width="68.5"
           height="19"
           style="opacity:0.5;fill:#ffffff"
           id="rect3267" />
        <text
           class="gene-name"
           text-anchor="middle"
           y="-13"
           id="text3269">GADD45B</text>
      </g>
      <g
         class="gene-group"
         id="5329"
         cx="184.51710939448148"
         cy="400.5019868227226"
         transform="translate(184.51711,400.50199)">
        <circle
           class="gene"
           r="8"
           style="stroke:#aaaaaa;stroke-width:1"
           id="circle3272"
           cx="0"
           cy="0" />
        <rect
           rx="5"
           ry="5"
           x="-23.539062"
           y="-27"
           width="47.078125"
           height="19"
           style="opacity:0.5;fill:#ffffff"
           id="rect3274" />
        <text
           class="gene-name"
           text-anchor="middle"
           y="-13"
           id="text3276">PLAUR</text>
      </g>
      <g
         class="gene-group"
         id="1026"
         cx="412.3902832781958"
         cy="315.56334554617"
         transform="translate(412.39028,315.56335)">
        <circle
           class="gene"
           r="8"
           style="stroke:#aaaaaa;stroke-width:1"
           id="circle3279"
           cx="0"
           cy="0" />
        <rect
           rx="5"
           ry="5"
           x="-29.398438"
           y="-27"
           width="59.369797"
           height="19"
           style="opacity:0.5;fill:#ffffff"
           id="rect3281" />
        <text
           class="gene-name"
           text-anchor="middle"
           y="-13"
           id="text3283">CDKN1A</text>
      </g>
      <g
         class="gene-group"
         id="4792"
         cx="299.7451664643376"
         cy="133.7537883491849"
         transform="translate(299.74517,133.75379)">
        <circle
           class="gene"
           r="8"
           style="stroke:#aaaaaa;stroke-width:1"
           id="circle3286"
           cx="0"
           cy="0" />
        <rect
           rx="5"
           ry="5"
           x="-25.828125"
           y="-27"
           width="52.229828"
           height="19"
           style="opacity:0.5;fill:#ffffff"
           id="rect3288" />
        <text
           class="gene-name"
           text-anchor="middle"
           y="-13"
           id="text3290">NFKBIA</text>
      </g>
      <g
         class="gene-group"
         id="6352"
         cx="321.2605738920767"
         cy="458.74927155144104"
         transform="translate(321.26057,458.74927)">
        <circle
           class="gene"
           r="8"
           style="stroke:#aaaaaa;stroke-width:1"
           id="circle3293"
           cx="0"
           cy="0" />
        <rect
           rx="5"
           ry="5"
           x="-17.5"
           y="-27"
           width="35"
           height="19"
           style="opacity:0.5;fill:#ffffff"
           id="rect3295" />
        <text
           class="gene-name"
           text-anchor="middle"
           y="-13"
           id="text3297">CCL5</text>
      </g>
      <g
         class="gene-group"
         id="6515"
         cx="190.60703454081374"
         cy="184.16945870649718"
         transform="translate(190.60703,184.16946)">
        <circle
           class="gene"
           r="8"
           style="stroke:#aaaaaa;stroke-width:1"
           id="circle3300"
           cx="0"
           cy="0" />
        <rect
           rx="5"
           ry="5"
           x="-26.453125"
           y="-27"
           width="52.90625"
           height="19"
           style="opacity:0.5;fill:#ffffff"
           id="rect3302" />
        <text
           class="gene-name"
           text-anchor="middle"
           y="-13"
           id="text3304">SLC2A3</text>
      </g>
      <g
         class="gene-group"
         id="5175"
         cx="237.41756209455673"
         cy="416.9012336443982"
         transform="translate(237.41756,416.90123)">
        <circle
           class="gene"
           r="8"
           style="stroke:#aaaaaa;stroke-width:1"
           id="circle3307"
           cx="0"
           cy="0" />
        <rect
           rx="5"
           ry="5"
           x="-28.875"
           y="-27"
           width="57.75"
           height="19"
           style="opacity:0.5;fill:#ffffff"
           id="rect3309" />
        <text
           class="gene-name"
           text-anchor="middle"
           y="-13"
           id="text3311">PECAM1</text>
      </g>
      <g
         class="gene-group"
         id="1843"
         cx="141.7325364450103"
         cy="229.61668891112296"
         transform="translate(141.73254,229.61669)">
        <circle
           class="gene"
           r="8"
           style="stroke:#aaaaaa;stroke-width:1"
           id="circle3314"
           cx="0"
           cy="0" />
        <rect
           rx="5"
           ry="5"
           x="-23.6875"
           y="-27"
           width="47.375"
           height="19"
           style="opacity:0.5;fill:#ffffff"
           id="rect3316" />
        <text
           class="gene-name"
           text-anchor="middle"
           y="-13"
           id="text3318">DUSP1</text>
      </g>
      <g
         class="gene-group"
         id="g3327"
         cx="415.54836485271096"
         cy="465.55091220955563"
         transform="translate(415.54836,465.55091)">
        <circle
           class="gene gene-query"
           r="15"
           style="stroke:#aaaaaa;stroke-width:1"
           id="circle3321"
           cx="0"
           cy="0" />
        <rect
           rx="5"
           ry="5"
           x="-24.195312"
           y="-34"
           width="48.390625"
           height="19"
           style="opacity:0.5;fill:#ffffff"
           id="rect3323" />
        <text
           class="gene-name"
           text-anchor="middle"
           y="-20"
           id="text3325">
          <tspan
             style="-inkscape-font-specification:'sans-serif, Bold';font-family:sans-serif;font-weight:bold;font-style:normal;font-stretch:normal;font-variant:normal;font-size:11.99998714px;text-anchor:middle;text-align:center;writing-mode:lr;font-variant-ligatures:normal;font-variant-caps:normal;font-variant-numeric:normal;font-feature-settings:normal"
             id="tspan1040">APOC1</tspan>
        </text>
      </g>
      <g
         class="gene-group"
         id="3725"
         cx="117.97557442623724"
         cy="122.46050049262118"
         transform="translate(117.97557,122.4605)">
        <circle
           class="gene gene-query"
           r="15"
           style="stroke:#aaaaaa;stroke-width:1"
           id="circle3329"
           cx="0"
           cy="0" />
        <rect
           rx="5"
           ry="5"
           x="-13.882812"
           y="-34"
           width="26.765625"
           height="19"
           style="opacity:0.5;fill:#ffffff"
           id="rect3331" />
        <text
           class="gene-name"
           text-anchor="middle"
           y="-20"
           id="text3333">
          <tspan
             style="-inkscape-font-specification:'sans-serif, Bold';font-family:sans-serif;font-weight:bold;font-style:normal;font-stretch:normal;font-variant:normal;font-size:11.99998714px;text-anchor:middle;text-align:center;writing-mode:lr;font-variant-ligatures:normal;font-variant-caps:normal;font-variant-numeric:normal;font-feature-settings:normal"
             id="tspan1038">JUN</tspan>
        </text>
      </g>
    </g>
  </g>
  <text
     xml:space="preserve"
     style="font-style:normal;font-variant:normal;font-weight:bold;font-stretch:normal;font-size:12px;line-height:1.25;font-family:sans-serif;-inkscape-font-specification:'sans-serif, Bold';font-variant-ligatures:normal;font-variant-caps:normal;font-variant-numeric:normal;letter-spacing:0px;word-spacing:0px;fill:#000000;fill-opacity:1;stroke:none"
     x="321.95129"
     y="17.91855"
     id="text1801"><tspan
       sodipodi:role="line"
       id="tspan1799"
       x="321.95129"
       y="17.91855"
       style="font-style:normal;font-variant:normal;font-weight:bold;font-stretch:normal;font-size:18.66666603px;font-family:sans-serif;-inkscape-font-specification:'sans-serif, Bold';font-variant-ligatures:normal;font-variant-caps:normal;font-variant-numeric:normal;font-feature-settings:normal;text-align:start;writing-mode:lr-tb;text-anchor:start">Blood</tspan></text>
</svg>
