<?xml version="1.0" encoding="utf-8" standalone="no"?>
<!DOCTYPE svg PUBLIC "-//W3C//DTD SVG 1.1//EN"
  "http://www.w3.org/Graphics/SVG/1.1/DTD/svg11.dtd">
<svg height="521.657656pt" version="1.1" viewBox="0 0 1448.807812 521.657656" width="1448.807812pt" xmlns="http://www.w3.org/2000/svg" xmlns:xlink="http://www.w3.org/1999/xlink">
 <metadata>
  <rdf:RDF xmlns:cc="http://creativecommons.org/ns#" xmlns:dc="http://purl.org/dc/elements/1.1/" xmlns:rdf="http://www.w3.org/1999/02/22-rdf-syntax-ns#">
   <cc:Work>
    <dc:type rdf:resource="http://purl.org/dc/dcmitype/StillImage"/>
    <dc:date>2024-01-08T16:10:31.892833</dc:date>
    <dc:format>image/svg+xml</dc:format>
    <dc:creator>
     <cc:Agent>
      <dc:title>Matplotlib v3.4.3, https://matplotlib.org/</dc:title>
     </cc:Agent>
    </dc:creator>
   </cc:Work>
  </rdf:RDF>
 </metadata>
 <defs>
  <style type="text/css">*{stroke-linecap:butt;stroke-linejoin:round;}</style>
 </defs>
 <g id="figure_1">
  <g id="patch_1">
   <path d="M 0 521.657656 
L 1448.807812 521.657656 
L 1448.807812 0 
L 0 0 
z
" style="fill:#ffffff;"/>
  </g>
  <g id="axes_1">
   <g id="patch_2">
    <path d="M 84.914375 450.438281 
L 693.641648 450.438281 
L 693.641648 15.558281 
L 84.914375 15.558281 
z
" style="fill:#ffffff;"/>
   </g>
   <g id="matplotlib.axis_1">
    <g id="xtick_1">
     <g id="text_1">
      <!-- 0.0 -->
      <g style="fill:#262626;" transform="translate(67.420938 482.654844)scale(0.22 -0.22)">
       <defs>
        <path d="M 2034 4250 
Q 1547 4250 1301 3770 
Q 1056 3291 1056 2328 
Q 1056 1369 1301 889 
Q 1547 409 2034 409 
Q 2525 409 2770 889 
Q 3016 1369 3016 2328 
Q 3016 3291 2770 3770 
Q 2525 4250 2034 4250 
z
M 2034 4750 
Q 2819 4750 3233 4129 
Q 3647 3509 3647 2328 
Q 3647 1150 3233 529 
Q 2819 -91 2034 -91 
Q 1250 -91 836 529 
Q 422 1150 422 2328 
Q 422 3509 836 4129 
Q 1250 4750 2034 4750 
z
" id="DejaVuSans-30" transform="scale(0.015625)"/>
        <path d="M 684 794 
L 1344 794 
L 1344 0 
L 684 0 
L 684 794 
z
" id="DejaVuSans-2e" transform="scale(0.015625)"/>
       </defs>
       <use xlink:href="#DejaVuSans-30"/>
       <use x="63.623047" xlink:href="#DejaVuSans-2e"/>
       <use x="95.410156" xlink:href="#DejaVuSans-30"/>
      </g>
     </g>
    </g>
    <g id="xtick_2">
     <g id="text_2">
      <!-- 0.2 -->
      <g style="fill:#262626;" transform="translate(189.166392 482.654844)scale(0.22 -0.22)">
       <defs>
        <path d="M 1228 531 
L 3431 531 
L 3431 0 
L 469 0 
L 469 531 
Q 828 903 1448 1529 
Q 2069 2156 2228 2338 
Q 2531 2678 2651 2914 
Q 2772 3150 2772 3378 
Q 2772 3750 2511 3984 
Q 2250 4219 1831 4219 
Q 1534 4219 1204 4116 
Q 875 4013 500 3803 
L 500 4441 
Q 881 4594 1212 4672 
Q 1544 4750 1819 4750 
Q 2544 4750 2975 4387 
Q 3406 4025 3406 3419 
Q 3406 3131 3298 2873 
Q 3191 2616 2906 2266 
Q 2828 2175 2409 1742 
Q 1991 1309 1228 531 
z
" id="DejaVuSans-32" transform="scale(0.015625)"/>
       </defs>
       <use xlink:href="#DejaVuSans-30"/>
       <use x="63.623047" xlink:href="#DejaVuSans-2e"/>
       <use x="95.410156" xlink:href="#DejaVuSans-32"/>
      </g>
     </g>
    </g>
    <g id="xtick_3">
     <g id="text_3">
      <!-- 0.4 -->
      <g style="fill:#262626;" transform="translate(310.911847 482.654844)scale(0.22 -0.22)">
       <defs>
        <path d="M 2419 4116 
L 825 1625 
L 2419 1625 
L 2419 4116 
z
M 2253 4666 
L 3047 4666 
L 3047 1625 
L 3713 1625 
L 3713 1100 
L 3047 1100 
L 3047 0 
L 2419 0 
L 2419 1100 
L 313 1100 
L 313 1709 
L 2253 4666 
z
" id="DejaVuSans-34" transform="scale(0.015625)"/>
       </defs>
       <use xlink:href="#DejaVuSans-30"/>
       <use x="63.623047" xlink:href="#DejaVuSans-2e"/>
       <use x="95.410156" xlink:href="#DejaVuSans-34"/>
      </g>
     </g>
    </g>
    <g id="xtick_4">
     <g id="text_4">
      <!-- 0.6 -->
      <g style="fill:#262626;" transform="translate(432.657301 482.654844)scale(0.22 -0.22)">
       <defs>
        <path d="M 2113 2584 
Q 1688 2584 1439 2293 
Q 1191 2003 1191 1497 
Q 1191 994 1439 701 
Q 1688 409 2113 409 
Q 2538 409 2786 701 
Q 3034 994 3034 1497 
Q 3034 2003 2786 2293 
Q 2538 2584 2113 2584 
z
M 3366 4563 
L 3366 3988 
Q 3128 4100 2886 4159 
Q 2644 4219 2406 4219 
Q 1781 4219 1451 3797 
Q 1122 3375 1075 2522 
Q 1259 2794 1537 2939 
Q 1816 3084 2150 3084 
Q 2853 3084 3261 2657 
Q 3669 2231 3669 1497 
Q 3669 778 3244 343 
Q 2819 -91 2113 -91 
Q 1303 -91 875 529 
Q 447 1150 447 2328 
Q 447 3434 972 4092 
Q 1497 4750 2381 4750 
Q 2619 4750 2861 4703 
Q 3103 4656 3366 4563 
z
" id="DejaVuSans-36" transform="scale(0.015625)"/>
       </defs>
       <use xlink:href="#DejaVuSans-30"/>
       <use x="63.623047" xlink:href="#DejaVuSans-2e"/>
       <use x="95.410156" xlink:href="#DejaVuSans-36"/>
      </g>
     </g>
    </g>
    <g id="xtick_5">
     <g id="text_5">
      <!-- 0.8 -->
      <g style="fill:#262626;" transform="translate(554.402756 482.654844)scale(0.22 -0.22)">
       <defs>
        <path d="M 2034 2216 
Q 1584 2216 1326 1975 
Q 1069 1734 1069 1313 
Q 1069 891 1326 650 
Q 1584 409 2034 409 
Q 2484 409 2743 651 
Q 3003 894 3003 1313 
Q 3003 1734 2745 1975 
Q 2488 2216 2034 2216 
z
M 1403 2484 
Q 997 2584 770 2862 
Q 544 3141 544 3541 
Q 544 4100 942 4425 
Q 1341 4750 2034 4750 
Q 2731 4750 3128 4425 
Q 3525 4100 3525 3541 
Q 3525 3141 3298 2862 
Q 3072 2584 2669 2484 
Q 3125 2378 3379 2068 
Q 3634 1759 3634 1313 
Q 3634 634 3220 271 
Q 2806 -91 2034 -91 
Q 1263 -91 848 271 
Q 434 634 434 1313 
Q 434 1759 690 2068 
Q 947 2378 1403 2484 
z
M 1172 3481 
Q 1172 3119 1398 2916 
Q 1625 2713 2034 2713 
Q 2441 2713 2670 2916 
Q 2900 3119 2900 3481 
Q 2900 3844 2670 4047 
Q 2441 4250 2034 4250 
Q 1625 4250 1398 4047 
Q 1172 3844 1172 3481 
z
" id="DejaVuSans-38" transform="scale(0.015625)"/>
       </defs>
       <use xlink:href="#DejaVuSans-30"/>
       <use x="63.623047" xlink:href="#DejaVuSans-2e"/>
       <use x="95.410156" xlink:href="#DejaVuSans-38"/>
      </g>
     </g>
    </g>
    <g id="xtick_6">
     <g id="text_6">
      <!-- 1.0 -->
      <g style="fill:#262626;" transform="translate(676.14821 482.654844)scale(0.22 -0.22)">
       <defs>
        <path d="M 794 531 
L 1825 531 
L 1825 4091 
L 703 3866 
L 703 4441 
L 1819 4666 
L 2450 4666 
L 2450 531 
L 3481 531 
L 3481 0 
L 794 0 
L 794 531 
z
" id="DejaVuSans-31" transform="scale(0.015625)"/>
       </defs>
       <use xlink:href="#DejaVuSans-31"/>
       <use x="63.623047" xlink:href="#DejaVuSans-2e"/>
       <use x="95.410156" xlink:href="#DejaVuSans-30"/>
      </g>
     </g>
    </g>
    <g id="text_7">
     <!-- $k_{\mathrm{max}}$ as fraction of $n$ -->
     <g style="fill:#262626;" transform="translate(269.518011 509.466406)scale(0.24 -0.24)">
      <defs>
       <path d="M 1172 4863 
L 1747 4863 
L 1197 2028 
L 3169 3500 
L 3916 3500 
L 1716 1825 
L 3322 0 
L 2625 0 
L 1131 1709 
L 800 0 
L 225 0 
L 1172 4863 
z
" id="DejaVuSans-Oblique-6b" transform="scale(0.015625)"/>
       <path d="M 3328 2828 
Q 3544 3216 3844 3400 
Q 4144 3584 4550 3584 
Q 5097 3584 5394 3201 
Q 5691 2819 5691 2113 
L 5691 0 
L 5113 0 
L 5113 2094 
Q 5113 2597 4934 2840 
Q 4756 3084 4391 3084 
Q 3944 3084 3684 2787 
Q 3425 2491 3425 1978 
L 3425 0 
L 2847 0 
L 2847 2094 
Q 2847 2600 2669 2842 
Q 2491 3084 2119 3084 
Q 1678 3084 1418 2786 
Q 1159 2488 1159 1978 
L 1159 0 
L 581 0 
L 581 3500 
L 1159 3500 
L 1159 2956 
Q 1356 3278 1631 3431 
Q 1906 3584 2284 3584 
Q 2666 3584 2933 3390 
Q 3200 3197 3328 2828 
z
" id="DejaVuSans-6d" transform="scale(0.015625)"/>
       <path d="M 2194 1759 
Q 1497 1759 1228 1600 
Q 959 1441 959 1056 
Q 959 750 1161 570 
Q 1363 391 1709 391 
Q 2188 391 2477 730 
Q 2766 1069 2766 1631 
L 2766 1759 
L 2194 1759 
z
M 3341 1997 
L 3341 0 
L 2766 0 
L 2766 531 
Q 2569 213 2275 61 
Q 1981 -91 1556 -91 
Q 1019 -91 701 211 
Q 384 513 384 1019 
Q 384 1609 779 1909 
Q 1175 2209 1959 2209 
L 2766 2209 
L 2766 2266 
Q 2766 2663 2505 2880 
Q 2244 3097 1772 3097 
Q 1472 3097 1187 3025 
Q 903 2953 641 2809 
L 641 3341 
Q 956 3463 1253 3523 
Q 1550 3584 1831 3584 
Q 2591 3584 2966 3190 
Q 3341 2797 3341 1997 
z
" id="DejaVuSans-61" transform="scale(0.015625)"/>
       <path d="M 3513 3500 
L 2247 1797 
L 3578 0 
L 2900 0 
L 1881 1375 
L 863 0 
L 184 0 
L 1544 1831 
L 300 3500 
L 978 3500 
L 1906 2253 
L 2834 3500 
L 3513 3500 
z
" id="DejaVuSans-78" transform="scale(0.015625)"/>
       <path id="DejaVuSans-20" transform="scale(0.015625)"/>
       <path d="M 2834 3397 
L 2834 2853 
Q 2591 2978 2328 3040 
Q 2066 3103 1784 3103 
Q 1356 3103 1142 2972 
Q 928 2841 928 2578 
Q 928 2378 1081 2264 
Q 1234 2150 1697 2047 
L 1894 2003 
Q 2506 1872 2764 1633 
Q 3022 1394 3022 966 
Q 3022 478 2636 193 
Q 2250 -91 1575 -91 
Q 1294 -91 989 -36 
Q 684 19 347 128 
L 347 722 
Q 666 556 975 473 
Q 1284 391 1588 391 
Q 1994 391 2212 530 
Q 2431 669 2431 922 
Q 2431 1156 2273 1281 
Q 2116 1406 1581 1522 
L 1381 1569 
Q 847 1681 609 1914 
Q 372 2147 372 2553 
Q 372 3047 722 3315 
Q 1072 3584 1716 3584 
Q 2034 3584 2315 3537 
Q 2597 3491 2834 3397 
z
" id="DejaVuSans-73" transform="scale(0.015625)"/>
       <path d="M 2375 4863 
L 2375 4384 
L 1825 4384 
Q 1516 4384 1395 4259 
Q 1275 4134 1275 3809 
L 1275 3500 
L 2222 3500 
L 2222 3053 
L 1275 3053 
L 1275 0 
L 697 0 
L 697 3053 
L 147 3053 
L 147 3500 
L 697 3500 
L 697 3744 
Q 697 4328 969 4595 
Q 1241 4863 1831 4863 
L 2375 4863 
z
" id="DejaVuSans-66" transform="scale(0.015625)"/>
       <path d="M 2631 2963 
Q 2534 3019 2420 3045 
Q 2306 3072 2169 3072 
Q 1681 3072 1420 2755 
Q 1159 2438 1159 1844 
L 1159 0 
L 581 0 
L 581 3500 
L 1159 3500 
L 1159 2956 
Q 1341 3275 1631 3429 
Q 1922 3584 2338 3584 
Q 2397 3584 2469 3576 
Q 2541 3569 2628 3553 
L 2631 2963 
z
" id="DejaVuSans-72" transform="scale(0.015625)"/>
       <path d="M 3122 3366 
L 3122 2828 
Q 2878 2963 2633 3030 
Q 2388 3097 2138 3097 
Q 1578 3097 1268 2742 
Q 959 2388 959 1747 
Q 959 1106 1268 751 
Q 1578 397 2138 397 
Q 2388 397 2633 464 
Q 2878 531 3122 666 
L 3122 134 
Q 2881 22 2623 -34 
Q 2366 -91 2075 -91 
Q 1284 -91 818 406 
Q 353 903 353 1747 
Q 353 2603 823 3093 
Q 1294 3584 2113 3584 
Q 2378 3584 2631 3529 
Q 2884 3475 3122 3366 
z
" id="DejaVuSans-63" transform="scale(0.015625)"/>
       <path d="M 1172 4494 
L 1172 3500 
L 2356 3500 
L 2356 3053 
L 1172 3053 
L 1172 1153 
Q 1172 725 1289 603 
Q 1406 481 1766 481 
L 2356 481 
L 2356 0 
L 1766 0 
Q 1100 0 847 248 
Q 594 497 594 1153 
L 594 3053 
L 172 3053 
L 172 3500 
L 594 3500 
L 594 4494 
L 1172 4494 
z
" id="DejaVuSans-74" transform="scale(0.015625)"/>
       <path d="M 603 3500 
L 1178 3500 
L 1178 0 
L 603 0 
L 603 3500 
z
M 603 4863 
L 1178 4863 
L 1178 4134 
L 603 4134 
L 603 4863 
z
" id="DejaVuSans-69" transform="scale(0.015625)"/>
       <path d="M 1959 3097 
Q 1497 3097 1228 2736 
Q 959 2375 959 1747 
Q 959 1119 1226 758 
Q 1494 397 1959 397 
Q 2419 397 2687 759 
Q 2956 1122 2956 1747 
Q 2956 2369 2687 2733 
Q 2419 3097 1959 3097 
z
M 1959 3584 
Q 2709 3584 3137 3096 
Q 3566 2609 3566 1747 
Q 3566 888 3137 398 
Q 2709 -91 1959 -91 
Q 1206 -91 779 398 
Q 353 888 353 1747 
Q 353 2609 779 3096 
Q 1206 3584 1959 3584 
z
" id="DejaVuSans-6f" transform="scale(0.015625)"/>
       <path d="M 3513 2113 
L 3513 0 
L 2938 0 
L 2938 2094 
Q 2938 2591 2744 2837 
Q 2550 3084 2163 3084 
Q 1697 3084 1428 2787 
Q 1159 2491 1159 1978 
L 1159 0 
L 581 0 
L 581 3500 
L 1159 3500 
L 1159 2956 
Q 1366 3272 1645 3428 
Q 1925 3584 2291 3584 
Q 2894 3584 3203 3211 
Q 3513 2838 3513 2113 
z
" id="DejaVuSans-6e" transform="scale(0.015625)"/>
       <path d="M 3566 2113 
L 3156 0 
L 2578 0 
L 2988 2091 
Q 3016 2238 3031 2350 
Q 3047 2463 3047 2528 
Q 3047 2791 2881 2937 
Q 2716 3084 2419 3084 
Q 1956 3084 1622 2776 
Q 1288 2469 1184 1941 
L 800 0 
L 225 0 
L 903 3500 
L 1478 3500 
L 1363 2950 
Q 1603 3253 1940 3418 
Q 2278 3584 2650 3584 
Q 3113 3584 3367 3334 
Q 3622 3084 3622 2631 
Q 3622 2519 3608 2391 
Q 3594 2263 3566 2113 
z
" id="DejaVuSans-Oblique-6e" transform="scale(0.015625)"/>
      </defs>
      <use transform="translate(0 0.015625)" xlink:href="#DejaVuSans-Oblique-6b"/>
      <use transform="translate(57.910156 -16.390625)scale(0.7)" xlink:href="#DejaVuSans-6d"/>
      <use transform="translate(126.098633 -16.390625)scale(0.7)" xlink:href="#DejaVuSans-61"/>
      <use transform="translate(168.994141 -16.390625)scale(0.7)" xlink:href="#DejaVuSans-78"/>
      <use transform="translate(213.154297 0.015625)" xlink:href="#DejaVuSans-20"/>
      <use transform="translate(244.941406 0.015625)" xlink:href="#DejaVuSans-61"/>
      <use transform="translate(306.220703 0.015625)" xlink:href="#DejaVuSans-73"/>
      <use transform="translate(358.320312 0.015625)" xlink:href="#DejaVuSans-20"/>
      <use transform="translate(390.107422 0.015625)" xlink:href="#DejaVuSans-66"/>
      <use transform="translate(425.3125 0.015625)" xlink:href="#DejaVuSans-72"/>
      <use transform="translate(466.425781 0.015625)" xlink:href="#DejaVuSans-61"/>
      <use transform="translate(527.705078 0.015625)" xlink:href="#DejaVuSans-63"/>
      <use transform="translate(582.685547 0.015625)" xlink:href="#DejaVuSans-74"/>
      <use transform="translate(621.894531 0.015625)" xlink:href="#DejaVuSans-69"/>
      <use transform="translate(649.677734 0.015625)" xlink:href="#DejaVuSans-6f"/>
      <use transform="translate(710.859375 0.015625)" xlink:href="#DejaVuSans-6e"/>
      <use transform="translate(774.238281 0.015625)" xlink:href="#DejaVuSans-20"/>
      <use transform="translate(806.025391 0.015625)" xlink:href="#DejaVuSans-6f"/>
      <use transform="translate(867.207031 0.015625)" xlink:href="#DejaVuSans-66"/>
      <use transform="translate(902.412109 0.015625)" xlink:href="#DejaVuSans-20"/>
      <use transform="translate(934.199219 0.015625)" xlink:href="#DejaVuSans-Oblique-6e"/>
     </g>
    </g>
   </g>
   <g id="matplotlib.axis_2">
    <g id="ytick_1">
     <g id="line2d_1">
      <path clip-path="url(#p2d91cfaf32)" d="M 84.914375 450.438281 
L 693.641648 450.438281 
" style="fill:none;stroke:#cccccc;stroke-linecap:round;stroke-width:2;"/>
     </g>
     <g id="text_8">
      <!-- 0.0 -->
      <g style="fill:#262626;" transform="translate(34.4275 458.796562)scale(0.22 -0.22)">
       <use xlink:href="#DejaVuSans-30"/>
       <use x="63.623047" xlink:href="#DejaVuSans-2e"/>
       <use x="95.410156" xlink:href="#DejaVuSans-30"/>
      </g>
     </g>
    </g>
    <g id="ytick_2">
     <g id="line2d_2">
      <path clip-path="url(#p2d91cfaf32)" d="M 84.914375 363.462281 
L 693.641648 363.462281 
" style="fill:none;stroke:#cccccc;stroke-linecap:round;stroke-width:2;"/>
     </g>
     <g id="text_9">
      <!-- 0.2 -->
      <g style="fill:#262626;" transform="translate(34.4275 371.820562)scale(0.22 -0.22)">
       <use xlink:href="#DejaVuSans-30"/>
       <use x="63.623047" xlink:href="#DejaVuSans-2e"/>
       <use x="95.410156" xlink:href="#DejaVuSans-32"/>
      </g>
     </g>
    </g>
    <g id="ytick_3">
     <g id="line2d_3">
      <path clip-path="url(#p2d91cfaf32)" d="M 84.914375 276.486281 
L 693.641648 276.486281 
" style="fill:none;stroke:#cccccc;stroke-linecap:round;stroke-width:2;"/>
     </g>
     <g id="text_10">
      <!-- 0.4 -->
      <g style="fill:#262626;" transform="translate(34.4275 284.844562)scale(0.22 -0.22)">
       <use xlink:href="#DejaVuSans-30"/>
       <use x="63.623047" xlink:href="#DejaVuSans-2e"/>
       <use x="95.410156" xlink:href="#DejaVuSans-34"/>
      </g>
     </g>
    </g>
    <g id="ytick_4">
     <g id="line2d_4">
      <path clip-path="url(#p2d91cfaf32)" d="M 84.914375 189.510281 
L 693.641648 189.510281 
" style="fill:none;stroke:#cccccc;stroke-linecap:round;stroke-width:2;"/>
     </g>
     <g id="text_11">
      <!-- 0.6 -->
      <g style="fill:#262626;" transform="translate(34.4275 197.868562)scale(0.22 -0.22)">
       <use xlink:href="#DejaVuSans-30"/>
       <use x="63.623047" xlink:href="#DejaVuSans-2e"/>
       <use x="95.410156" xlink:href="#DejaVuSans-36"/>
      </g>
     </g>
    </g>
    <g id="ytick_5">
     <g id="line2d_5">
      <path clip-path="url(#p2d91cfaf32)" d="M 84.914375 102.534281 
L 693.641648 102.534281 
" style="fill:none;stroke:#cccccc;stroke-linecap:round;stroke-width:2;"/>
     </g>
     <g id="text_12">
      <!-- 0.8 -->
      <g style="fill:#262626;" transform="translate(34.4275 110.892562)scale(0.22 -0.22)">
       <use xlink:href="#DejaVuSans-30"/>
       <use x="63.623047" xlink:href="#DejaVuSans-2e"/>
       <use x="95.410156" xlink:href="#DejaVuSans-38"/>
      </g>
     </g>
    </g>
    <g id="ytick_6">
     <g id="line2d_6">
      <path clip-path="url(#p2d91cfaf32)" d="M 84.914375 15.558281 
L 693.641648 15.558281 
" style="fill:none;stroke:#cccccc;stroke-linecap:round;stroke-width:2;"/>
     </g>
     <g id="text_13">
      <!-- 1.0 -->
      <g style="fill:#262626;" transform="translate(34.4275 23.916562)scale(0.22 -0.22)">
       <use xlink:href="#DejaVuSans-31"/>
       <use x="63.623047" xlink:href="#DejaVuSans-2e"/>
       <use x="95.410156" xlink:href="#DejaVuSans-30"/>
      </g>
     </g>
    </g>
    <g id="text_14">
     <!-- CCC -->
     <g style="fill:#262626;" transform="translate(25.43625 258.136406)rotate(-90)scale(0.24 -0.24)">
      <defs>
       <path d="M 4122 4306 
L 4122 3641 
Q 3803 3938 3442 4084 
Q 3081 4231 2675 4231 
Q 1875 4231 1450 3742 
Q 1025 3253 1025 2328 
Q 1025 1406 1450 917 
Q 1875 428 2675 428 
Q 3081 428 3442 575 
Q 3803 722 4122 1019 
L 4122 359 
Q 3791 134 3420 21 
Q 3050 -91 2638 -91 
Q 1578 -91 968 557 
Q 359 1206 359 2328 
Q 359 3453 968 4101 
Q 1578 4750 2638 4750 
Q 3056 4750 3426 4639 
Q 3797 4528 4122 4306 
z
" id="DejaVuSans-43" transform="scale(0.015625)"/>
      </defs>
      <use xlink:href="#DejaVuSans-43"/>
      <use x="69.824219" xlink:href="#DejaVuSans-43"/>
      <use x="139.648438" xlink:href="#DejaVuSans-43"/>
     </g>
    </g>
   </g>
   <g id="line2d_7">
    <path clip-path="url(#p2d91cfaf32)" d="M 91.001648 431.480149 
L 115.350739 431.480149 
L 157.961648 431.480149 
L 224.921648 431.480149 
L 291.881648 431.480149 
L 358.841648 431.480149 
L 425.801648 431.480149 
L 492.761648 431.480149 
L 559.721648 431.480149 
L 626.681648 431.480149 
L 693.641648 431.480149 
" style="fill:none;stroke:#edd1cb;stroke-linecap:round;stroke-width:3;"/>
    <defs>
     <path d="M 0 6 
C 1.591219 6 3.117479 5.367802 4.242641 4.242641 
C 5.367802 3.117479 6 1.591219 6 0 
C 6 -1.591219 5.367802 -3.117479 4.242641 -4.242641 
C 3.117479 -5.367802 1.591219 -6 0 -6 
C -1.591219 -6 -3.117479 -5.367802 -4.242641 -4.242641 
C -5.367802 -3.117479 -6 -1.591219 -6 0 
C -6 1.591219 -5.367802 3.117479 -4.242641 4.242641 
C -3.117479 5.367802 -1.591219 6 0 6 
z
" id="mcf7c15439f" style="stroke:#ffffff;stroke-width:0.75;"/>
    </defs>
    <g clip-path="url(#p2d91cfaf32)">
     <use style="fill:#edd1cb;stroke:#ffffff;stroke-width:0.75;" x="91.001648" xlink:href="#mcf7c15439f" y="431.480149"/>
     <use style="fill:#edd1cb;stroke:#ffffff;stroke-width:0.75;" x="115.350739" xlink:href="#mcf7c15439f" y="431.480149"/>
     <use style="fill:#edd1cb;stroke:#ffffff;stroke-width:0.75;" x="157.961648" xlink:href="#mcf7c15439f" y="431.480149"/>
     <use style="fill:#edd1cb;stroke:#ffffff;stroke-width:0.75;" x="224.921648" xlink:href="#mcf7c15439f" y="431.480149"/>
     <use style="fill:#edd1cb;stroke:#ffffff;stroke-width:0.75;" x="291.881648" xlink:href="#mcf7c15439f" y="431.480149"/>
     <use style="fill:#edd1cb;stroke:#ffffff;stroke-width:0.75;" x="358.841648" xlink:href="#mcf7c15439f" y="431.480149"/>
     <use style="fill:#edd1cb;stroke:#ffffff;stroke-width:0.75;" x="425.801648" xlink:href="#mcf7c15439f" y="431.480149"/>
     <use style="fill:#edd1cb;stroke:#ffffff;stroke-width:0.75;" x="492.761648" xlink:href="#mcf7c15439f" y="431.480149"/>
     <use style="fill:#edd1cb;stroke:#ffffff;stroke-width:0.75;" x="559.721648" xlink:href="#mcf7c15439f" y="431.480149"/>
     <use style="fill:#edd1cb;stroke:#ffffff;stroke-width:0.75;" x="626.681648" xlink:href="#mcf7c15439f" y="431.480149"/>
     <use style="fill:#edd1cb;stroke:#ffffff;stroke-width:0.75;" x="693.641648" xlink:href="#mcf7c15439f" y="431.480149"/>
    </g>
   </g>
   <g id="line2d_8">
    <path clip-path="url(#p2d91cfaf32)" d="M 86.943466 449.597319 
L 95.05983 448.061776 
L 153.903466 446.913497 
L 220.863466 446.666504 
L 288.838011 446.019127 
L 355.798011 446.019127 
L 423.772557 446.019127 
L 490.732557 446.019127 
L 558.707102 444.785869 
L 625.667102 443.238515 
L 693.641648 437.133152 
" style="fill:none;stroke:#d499a7;stroke-linecap:round;stroke-width:3;"/>
    <defs>
     <path d="M -3 6 
L 0 3 
L 3 6 
L 6 3 
L 3 0 
L 6 -3 
L 3 -6 
L 0 -3 
L -3 -6 
L -6 -3 
L -3 0 
L -6 3 
z
" id="mb110fa3e6f" style="stroke:#ffffff;stroke-linejoin:miter;stroke-width:0.75;"/>
    </defs>
    <g clip-path="url(#p2d91cfaf32)">
     <use style="fill:#d499a7;stroke:#ffffff;stroke-linejoin:miter;stroke-width:0.75;" x="86.943466" xlink:href="#mb110fa3e6f" y="449.597319"/>
     <use style="fill:#d499a7;stroke:#ffffff;stroke-linejoin:miter;stroke-width:0.75;" x="95.05983" xlink:href="#mb110fa3e6f" y="448.061776"/>
     <use style="fill:#d499a7;stroke:#ffffff;stroke-linejoin:miter;stroke-width:0.75;" x="153.903466" xlink:href="#mb110fa3e6f" y="446.913497"/>
     <use style="fill:#d499a7;stroke:#ffffff;stroke-linejoin:miter;stroke-width:0.75;" x="220.863466" xlink:href="#mb110fa3e6f" y="446.666504"/>
     <use style="fill:#d499a7;stroke:#ffffff;stroke-linejoin:miter;stroke-width:0.75;" x="288.838011" xlink:href="#mb110fa3e6f" y="446.019127"/>
     <use style="fill:#d499a7;stroke:#ffffff;stroke-linejoin:miter;stroke-width:0.75;" x="355.798011" xlink:href="#mb110fa3e6f" y="446.019127"/>
     <use style="fill:#d499a7;stroke:#ffffff;stroke-linejoin:miter;stroke-width:0.75;" x="423.772557" xlink:href="#mb110fa3e6f" y="446.019127"/>
     <use style="fill:#d499a7;stroke:#ffffff;stroke-linejoin:miter;stroke-width:0.75;" x="490.732557" xlink:href="#mb110fa3e6f" y="446.019127"/>
     <use style="fill:#d499a7;stroke:#ffffff;stroke-linejoin:miter;stroke-width:0.75;" x="558.707102" xlink:href="#mb110fa3e6f" y="444.785869"/>
     <use style="fill:#d499a7;stroke:#ffffff;stroke-linejoin:miter;stroke-width:0.75;" x="625.667102" xlink:href="#mb110fa3e6f" y="443.238515"/>
     <use style="fill:#d499a7;stroke:#ffffff;stroke-linejoin:miter;stroke-width:0.75;" x="693.641648" xlink:href="#mb110fa3e6f" y="437.133152"/>
    </g>
   </g>
   <g id="line2d_9">
    <path clip-path="url(#p2d91cfaf32)" d="M 85.590739 449.983955 
L 88.296193 449.983955 
L 152.88892 449.700971 
L 220.525284 449.37533 
L 288.161648 449.046763 
L 355.798011 449.046763 
L 423.096193 449.046763 
L 490.732557 449.046763 
L 558.36892 448.634034 
L 626.005284 447.316153 
L 693.641648 445.314181 
" style="fill:none;stroke:#2d1e3e;stroke-linecap:round;stroke-width:3;"/>
    <defs>
     <path d="M -4.242641 -4.242641 
L -4.242641 4.242641 
L 4.242641 4.242641 
L 4.242641 -4.242641 
z
" id="m724989e120" style="stroke:#ffffff;stroke-linejoin:miter;stroke-width:0.75;"/>
    </defs>
    <g clip-path="url(#p2d91cfaf32)">
     <use style="fill:#2d1e3e;stroke:#ffffff;stroke-linejoin:miter;stroke-width:0.75;" x="85.590739" xlink:href="#m724989e120" y="449.983955"/>
     <use style="fill:#2d1e3e;stroke:#ffffff;stroke-linejoin:miter;stroke-width:0.75;" x="88.296193" xlink:href="#m724989e120" y="449.983955"/>
     <use style="fill:#2d1e3e;stroke:#ffffff;stroke-linejoin:miter;stroke-width:0.75;" x="152.88892" xlink:href="#m724989e120" y="449.700971"/>
     <use style="fill:#2d1e3e;stroke:#ffffff;stroke-linejoin:miter;stroke-width:0.75;" x="220.525284" xlink:href="#m724989e120" y="449.37533"/>
     <use style="fill:#2d1e3e;stroke:#ffffff;stroke-linejoin:miter;stroke-width:0.75;" x="288.161648" xlink:href="#m724989e120" y="449.046763"/>
     <use style="fill:#2d1e3e;stroke:#ffffff;stroke-linejoin:miter;stroke-width:0.75;" x="355.798011" xlink:href="#m724989e120" y="449.046763"/>
     <use style="fill:#2d1e3e;stroke:#ffffff;stroke-linejoin:miter;stroke-width:0.75;" x="423.096193" xlink:href="#m724989e120" y="449.046763"/>
     <use style="fill:#2d1e3e;stroke:#ffffff;stroke-linejoin:miter;stroke-width:0.75;" x="490.732557" xlink:href="#m724989e120" y="449.046763"/>
     <use style="fill:#2d1e3e;stroke:#ffffff;stroke-linejoin:miter;stroke-width:0.75;" x="558.36892" xlink:href="#m724989e120" y="448.634034"/>
     <use style="fill:#2d1e3e;stroke:#ffffff;stroke-linejoin:miter;stroke-width:0.75;" x="626.005284" xlink:href="#m724989e120" y="447.316153"/>
     <use style="fill:#2d1e3e;stroke:#ffffff;stroke-linejoin:miter;stroke-width:0.75;" x="693.641648" xlink:href="#m724989e120" y="445.314181"/>
    </g>
   </g>
   <g id="line2d_10"/>
   <g id="line2d_11"/>
   <g id="line2d_12"/>
   <g id="patch_3">
    <path d="M 84.914375 450.438281 
L 84.914375 15.558281 
" style="fill:none;stroke:#cccccc;stroke-linecap:square;stroke-linejoin:miter;stroke-width:2.5;"/>
   </g>
   <g id="patch_4">
    <path d="M 693.641648 450.438281 
L 693.641648 15.558281 
" style="fill:none;stroke:#cccccc;stroke-linecap:square;stroke-linejoin:miter;stroke-width:2.5;"/>
   </g>
   <g id="patch_5">
    <path d="M 84.914375 450.438281 
L 693.641648 450.438281 
" style="fill:none;stroke:#cccccc;stroke-linecap:square;stroke-linejoin:miter;stroke-width:2.5;"/>
   </g>
   <g id="patch_6">
    <path d="M 84.914375 15.558281 
L 693.641648 15.558281 
" style="fill:none;stroke:#cccccc;stroke-linecap:square;stroke-linejoin:miter;stroke-width:2.5;"/>
   </g>
   <g id="legend_1">
    <g id="patch_7">
     <path d="M 551.851648 164.261406 
L 678.241648 164.261406 
Q 682.641648 164.261406 682.641648 159.861406 
L 682.641648 30.958281 
Q 682.641648 26.558281 678.241648 26.558281 
L 551.851648 26.558281 
Q 547.451648 26.558281 547.451648 30.958281 
L 547.451648 159.861406 
Q 547.451648 164.261406 551.851648 164.261406 
z
" style="fill:#ffffff;opacity:0.8;stroke:#cccccc;stroke-linejoin:miter;stroke-width:2;"/>
    </g>
    <g id="text_15">
     <!-- $n$ -->
     <g style="fill:#262626;" transform="translate(607.366648 53.594531)scale(0.24 -0.24)">
      <use xlink:href="#DejaVuSans-Oblique-6e"/>
     </g>
    </g>
    <g id="line2d_13">
     <path d="M 556.251648 78.602344 
L 600.251648 78.602344 
" style="fill:none;stroke:#edd1cb;stroke-linecap:round;stroke-width:3;"/>
    </g>
    <g id="line2d_14">
     <defs>
      <path d="M 0 6 
C 1.591219 6 3.117479 5.367802 4.242641 4.242641 
C 5.367802 3.117479 6 1.591219 6 0 
C 6 -1.591219 5.367802 -3.117479 4.242641 -4.242641 
C 3.117479 -5.367802 1.591219 -6 0 -6 
C -1.591219 -6 -3.117479 -5.367802 -4.242641 -4.242641 
C -5.367802 -3.117479 -6 -1.591219 -6 0 
C -6 1.591219 -5.367802 3.117479 -4.242641 4.242641 
C -3.117479 5.367802 -1.591219 6 0 6 
z
" id="m83f67d9616" style="stroke:#edd1cb;"/>
     </defs>
     <g>
      <use style="fill:#edd1cb;stroke:#edd1cb;" x="578.251648" xlink:href="#m83f67d9616" y="78.602344"/>
     </g>
    </g>
    <g id="text_16">
     <!-- 200 -->
     <g style="fill:#262626;" transform="translate(617.851648 86.302344)scale(0.22 -0.22)">
      <use xlink:href="#DejaVuSans-32"/>
      <use x="63.623047" xlink:href="#DejaVuSans-30"/>
      <use x="127.246094" xlink:href="#DejaVuSans-30"/>
     </g>
    </g>
    <g id="line2d_15">
     <path d="M 556.251648 110.894219 
L 600.251648 110.894219 
" style="fill:none;stroke:#d499a7;stroke-linecap:round;stroke-width:3;"/>
    </g>
    <g id="line2d_16">
     <defs>
      <path d="M -3 6 
L 0 3 
L 3 6 
L 6 3 
L 3 0 
L 6 -3 
L 3 -6 
L 0 -3 
L -3 -6 
L -6 -3 
L -3 0 
L -6 3 
z
" id="ma5edae6d7d" style="stroke:#d499a7;stroke-linejoin:miter;"/>
     </defs>
     <g>
      <use style="fill:#d499a7;stroke:#d499a7;stroke-linejoin:miter;" x="578.251648" xlink:href="#ma5edae6d7d" y="110.894219"/>
     </g>
    </g>
    <g id="text_17">
     <!-- 600 -->
     <g style="fill:#262626;" transform="translate(617.851648 118.594219)scale(0.22 -0.22)">
      <use xlink:href="#DejaVuSans-36"/>
      <use x="63.623047" xlink:href="#DejaVuSans-30"/>
      <use x="127.246094" xlink:href="#DejaVuSans-30"/>
     </g>
    </g>
    <g id="line2d_17">
     <path d="M 556.251648 143.186094 
L 600.251648 143.186094 
" style="fill:none;stroke:#2d1e3e;stroke-linecap:round;stroke-width:3;"/>
    </g>
    <g id="line2d_18">
     <defs>
      <path d="M -4.242641 -4.242641 
L -4.242641 4.242641 
L 4.242641 4.242641 
L 4.242641 -4.242641 
z
" id="me2b6212ea3" style="stroke:#2d1e3e;stroke-linejoin:miter;"/>
     </defs>
     <g>
      <use style="fill:#2d1e3e;stroke:#2d1e3e;stroke-linejoin:miter;" x="578.251648" xlink:href="#me2b6212ea3" y="143.186094"/>
     </g>
    </g>
    <g id="text_18">
     <!-- 1800 -->
     <g style="fill:#262626;" transform="translate(617.851648 150.886094)scale(0.22 -0.22)">
      <use xlink:href="#DejaVuSans-31"/>
      <use x="63.623047" xlink:href="#DejaVuSans-38"/>
      <use x="127.246094" xlink:href="#DejaVuSans-30"/>
      <use x="190.869141" xlink:href="#DejaVuSans-30"/>
     </g>
    </g>
   </g>
  </g>
  <g id="axes_2">
   <g id="patch_8">
    <path d="M 815.387102 450.438281 
L 1424.114375 450.438281 
L 1424.114375 15.558281 
L 815.387102 15.558281 
z
" style="fill:#ffffff;"/>
   </g>
   <g id="matplotlib.axis_3">
    <g id="xtick_7">
     <g id="text_19">
      <!-- 0.0 -->
      <g style="fill:#262626;" transform="translate(797.893665 482.654844)scale(0.22 -0.22)">
       <use xlink:href="#DejaVuSans-30"/>
       <use x="63.623047" xlink:href="#DejaVuSans-2e"/>
       <use x="95.410156" xlink:href="#DejaVuSans-30"/>
      </g>
     </g>
    </g>
    <g id="xtick_8">
     <g id="text_20">
      <!-- 0.2 -->
      <g style="fill:#262626;" transform="translate(919.639119 482.654844)scale(0.22 -0.22)">
       <use xlink:href="#DejaVuSans-30"/>
       <use x="63.623047" xlink:href="#DejaVuSans-2e"/>
       <use x="95.410156" xlink:href="#DejaVuSans-32"/>
      </g>
     </g>
    </g>
    <g id="xtick_9">
     <g id="text_21">
      <!-- 0.4 -->
      <g style="fill:#262626;" transform="translate(1041.384574 482.654844)scale(0.22 -0.22)">
       <use xlink:href="#DejaVuSans-30"/>
       <use x="63.623047" xlink:href="#DejaVuSans-2e"/>
       <use x="95.410156" xlink:href="#DejaVuSans-34"/>
      </g>
     </g>
    </g>
    <g id="xtick_10">
     <g id="text_22">
      <!-- 0.6 -->
      <g style="fill:#262626;" transform="translate(1163.130028 482.654844)scale(0.22 -0.22)">
       <use xlink:href="#DejaVuSans-30"/>
       <use x="63.623047" xlink:href="#DejaVuSans-2e"/>
       <use x="95.410156" xlink:href="#DejaVuSans-36"/>
      </g>
     </g>
    </g>
    <g id="xtick_11">
     <g id="text_23">
      <!-- 0.8 -->
      <g style="fill:#262626;" transform="translate(1284.875483 482.654844)scale(0.22 -0.22)">
       <use xlink:href="#DejaVuSans-30"/>
       <use x="63.623047" xlink:href="#DejaVuSans-2e"/>
       <use x="95.410156" xlink:href="#DejaVuSans-38"/>
      </g>
     </g>
    </g>
    <g id="xtick_12">
     <g id="text_24">
      <!-- 1.0 -->
      <g style="fill:#262626;" transform="translate(1406.620937 482.654844)scale(0.22 -0.22)">
       <use xlink:href="#DejaVuSans-31"/>
       <use x="63.623047" xlink:href="#DejaVuSans-2e"/>
       <use x="95.410156" xlink:href="#DejaVuSans-30"/>
      </g>
     </g>
    </g>
    <g id="text_25">
     <!-- $k_{\mathrm{max}}$ as fraction of $n$ -->
     <g style="fill:#262626;" transform="translate(999.990739 509.466406)scale(0.24 -0.24)">
      <use transform="translate(0 0.015625)" xlink:href="#DejaVuSans-Oblique-6b"/>
      <use transform="translate(57.910156 -16.390625)scale(0.7)" xlink:href="#DejaVuSans-6d"/>
      <use transform="translate(126.098633 -16.390625)scale(0.7)" xlink:href="#DejaVuSans-61"/>
      <use transform="translate(168.994141 -16.390625)scale(0.7)" xlink:href="#DejaVuSans-78"/>
      <use transform="translate(213.154297 0.015625)" xlink:href="#DejaVuSans-20"/>
      <use transform="translate(244.941406 0.015625)" xlink:href="#DejaVuSans-61"/>
      <use transform="translate(306.220703 0.015625)" xlink:href="#DejaVuSans-73"/>
      <use transform="translate(358.320312 0.015625)" xlink:href="#DejaVuSans-20"/>
      <use transform="translate(390.107422 0.015625)" xlink:href="#DejaVuSans-66"/>
      <use transform="translate(425.3125 0.015625)" xlink:href="#DejaVuSans-72"/>
      <use transform="translate(466.425781 0.015625)" xlink:href="#DejaVuSans-61"/>
      <use transform="translate(527.705078 0.015625)" xlink:href="#DejaVuSans-63"/>
      <use transform="translate(582.685547 0.015625)" xlink:href="#DejaVuSans-74"/>
      <use transform="translate(621.894531 0.015625)" xlink:href="#DejaVuSans-69"/>
      <use transform="translate(649.677734 0.015625)" xlink:href="#DejaVuSans-6f"/>
      <use transform="translate(710.859375 0.015625)" xlink:href="#DejaVuSans-6e"/>
      <use transform="translate(774.238281 0.015625)" xlink:href="#DejaVuSans-20"/>
      <use transform="translate(806.025391 0.015625)" xlink:href="#DejaVuSans-6f"/>
      <use transform="translate(867.207031 0.015625)" xlink:href="#DejaVuSans-66"/>
      <use transform="translate(902.412109 0.015625)" xlink:href="#DejaVuSans-20"/>
      <use transform="translate(934.199219 0.015625)" xlink:href="#DejaVuSans-Oblique-6e"/>
     </g>
    </g>
   </g>
   <g id="matplotlib.axis_4">
    <g id="ytick_7">
     <g id="line2d_19">
      <path clip-path="url(#pd69391ac62)" d="M 815.387102 450.438281 
L 1424.114375 450.438281 
" style="fill:none;stroke:#cccccc;stroke-linecap:round;stroke-width:2;"/>
     </g>
     <g id="text_26">
      <!-- 0.00 -->
      <g style="fill:#262626;" transform="translate(750.902727 458.796562)scale(0.22 -0.22)">
       <use xlink:href="#DejaVuSans-30"/>
       <use x="63.623047" xlink:href="#DejaVuSans-2e"/>
       <use x="95.410156" xlink:href="#DejaVuSans-30"/>
       <use x="159.033203" xlink:href="#DejaVuSans-30"/>
      </g>
     </g>
    </g>
    <g id="ytick_8">
     <g id="line2d_20">
      <path clip-path="url(#pd69391ac62)" d="M 815.387102 377.958281 
L 1424.114375 377.958281 
" style="fill:none;stroke:#cccccc;stroke-linecap:round;stroke-width:2;"/>
     </g>
     <g id="text_27">
      <!-- 0.02 -->
      <g style="fill:#262626;" transform="translate(750.902727 386.316562)scale(0.22 -0.22)">
       <use xlink:href="#DejaVuSans-30"/>
       <use x="63.623047" xlink:href="#DejaVuSans-2e"/>
       <use x="95.410156" xlink:href="#DejaVuSans-30"/>
       <use x="159.033203" xlink:href="#DejaVuSans-32"/>
      </g>
     </g>
    </g>
    <g id="ytick_9">
     <g id="line2d_21">
      <path clip-path="url(#pd69391ac62)" d="M 815.387102 305.478281 
L 1424.114375 305.478281 
" style="fill:none;stroke:#cccccc;stroke-linecap:round;stroke-width:2;"/>
     </g>
     <g id="text_28">
      <!-- 0.04 -->
      <g style="fill:#262626;" transform="translate(750.902727 313.836562)scale(0.22 -0.22)">
       <use xlink:href="#DejaVuSans-30"/>
       <use x="63.623047" xlink:href="#DejaVuSans-2e"/>
       <use x="95.410156" xlink:href="#DejaVuSans-30"/>
       <use x="159.033203" xlink:href="#DejaVuSans-34"/>
      </g>
     </g>
    </g>
    <g id="ytick_10">
     <g id="line2d_22">
      <path clip-path="url(#pd69391ac62)" d="M 815.387102 232.998281 
L 1424.114375 232.998281 
" style="fill:none;stroke:#cccccc;stroke-linecap:round;stroke-width:2;"/>
     </g>
     <g id="text_29">
      <!-- 0.06 -->
      <g style="fill:#262626;" transform="translate(750.902727 241.356562)scale(0.22 -0.22)">
       <use xlink:href="#DejaVuSans-30"/>
       <use x="63.623047" xlink:href="#DejaVuSans-2e"/>
       <use x="95.410156" xlink:href="#DejaVuSans-30"/>
       <use x="159.033203" xlink:href="#DejaVuSans-36"/>
      </g>
     </g>
    </g>
    <g id="ytick_11">
     <g id="line2d_23">
      <path clip-path="url(#pd69391ac62)" d="M 815.387102 160.518281 
L 1424.114375 160.518281 
" style="fill:none;stroke:#cccccc;stroke-linecap:round;stroke-width:2;"/>
     </g>
     <g id="text_30">
      <!-- 0.08 -->
      <g style="fill:#262626;" transform="translate(750.902727 168.876562)scale(0.22 -0.22)">
       <use xlink:href="#DejaVuSans-30"/>
       <use x="63.623047" xlink:href="#DejaVuSans-2e"/>
       <use x="95.410156" xlink:href="#DejaVuSans-30"/>
       <use x="159.033203" xlink:href="#DejaVuSans-38"/>
      </g>
     </g>
    </g>
    <g id="ytick_12">
     <g id="line2d_24">
      <path clip-path="url(#pd69391ac62)" d="M 815.387102 88.038281 
L 1424.114375 88.038281 
" style="fill:none;stroke:#cccccc;stroke-linecap:round;stroke-width:2;"/>
     </g>
     <g id="text_31">
      <!-- 0.10 -->
      <g style="fill:#262626;" transform="translate(750.902727 96.396562)scale(0.22 -0.22)">
       <use xlink:href="#DejaVuSans-30"/>
       <use x="63.623047" xlink:href="#DejaVuSans-2e"/>
       <use x="95.410156" xlink:href="#DejaVuSans-31"/>
       <use x="159.033203" xlink:href="#DejaVuSans-30"/>
      </g>
     </g>
    </g>
    <g id="ytick_13">
     <g id="line2d_25">
      <path clip-path="url(#pd69391ac62)" d="M 815.387102 15.558281 
L 1424.114375 15.558281 
" style="fill:none;stroke:#cccccc;stroke-linecap:round;stroke-width:2;"/>
     </g>
     <g id="text_32">
      <!-- 0.12 -->
      <g style="fill:#262626;" transform="translate(750.902727 23.916562)scale(0.22 -0.22)">
       <use xlink:href="#DejaVuSans-30"/>
       <use x="63.623047" xlink:href="#DejaVuSans-2e"/>
       <use x="95.410156" xlink:href="#DejaVuSans-31"/>
       <use x="159.033203" xlink:href="#DejaVuSans-32"/>
      </g>
     </g>
    </g>
    <g id="text_33">
     <!-- CCC -->
     <g style="fill:#262626;" transform="translate(741.911477 258.136406)rotate(-90)scale(0.24 -0.24)">
      <use xlink:href="#DejaVuSans-43"/>
      <use x="69.824219" xlink:href="#DejaVuSans-43"/>
      <use x="139.648438" xlink:href="#DejaVuSans-43"/>
     </g>
    </g>
   </g>
   <g id="line2d_26">
    <path clip-path="url(#pd69391ac62)" d="M 821.474375 292.453845 
L 845.823466 292.453845 
L 888.434375 292.453845 
L 955.394375 292.453845 
L 1022.354375 292.453845 
L 1089.314375 292.453845 
L 1156.274375 292.453845 
L 1223.234375 292.453845 
L 1290.194375 292.453845 
L 1357.154375 292.453845 
L 1424.114375 292.453845 
" style="fill:none;stroke:#edd1cb;stroke-linecap:round;stroke-width:3;"/>
    <g clip-path="url(#pd69391ac62)">
     <use style="fill:#edd1cb;stroke:#ffffff;stroke-width:0.75;" x="821.474375" xlink:href="#mcf7c15439f" y="292.453845"/>
     <use style="fill:#edd1cb;stroke:#ffffff;stroke-width:0.75;" x="845.823466" xlink:href="#mcf7c15439f" y="292.453845"/>
     <use style="fill:#edd1cb;stroke:#ffffff;stroke-width:0.75;" x="888.434375" xlink:href="#mcf7c15439f" y="292.453845"/>
     <use style="fill:#edd1cb;stroke:#ffffff;stroke-width:0.75;" x="955.394375" xlink:href="#mcf7c15439f" y="292.453845"/>
     <use style="fill:#edd1cb;stroke:#ffffff;stroke-width:0.75;" x="1022.354375" xlink:href="#mcf7c15439f" y="292.453845"/>
     <use style="fill:#edd1cb;stroke:#ffffff;stroke-width:0.75;" x="1089.314375" xlink:href="#mcf7c15439f" y="292.453845"/>
     <use style="fill:#edd1cb;stroke:#ffffff;stroke-width:0.75;" x="1156.274375" xlink:href="#mcf7c15439f" y="292.453845"/>
     <use style="fill:#edd1cb;stroke:#ffffff;stroke-width:0.75;" x="1223.234375" xlink:href="#mcf7c15439f" y="292.453845"/>
     <use style="fill:#edd1cb;stroke:#ffffff;stroke-width:0.75;" x="1290.194375" xlink:href="#mcf7c15439f" y="292.453845"/>
     <use style="fill:#edd1cb;stroke:#ffffff;stroke-width:0.75;" x="1357.154375" xlink:href="#mcf7c15439f" y="292.453845"/>
     <use style="fill:#edd1cb;stroke:#ffffff;stroke-width:0.75;" x="1424.114375" xlink:href="#mcf7c15439f" y="292.453845"/>
    </g>
   </g>
   <g id="line2d_27">
    <path clip-path="url(#pd69391ac62)" d="M 817.416193 443.430265 
L 825.532557 430.634069 
L 884.376193 421.065079 
L 951.336193 419.006804 
L 1019.310739 413.611995 
L 1086.270739 413.611995 
L 1154.245284 413.611995 
L 1221.205284 413.611995 
L 1289.17983 403.334842 
L 1356.13983 390.440226 
L 1424.114375 339.562202 
" style="fill:none;stroke:#d499a7;stroke-linecap:round;stroke-width:3;"/>
    <g clip-path="url(#pd69391ac62)">
     <use style="fill:#d499a7;stroke:#ffffff;stroke-linejoin:miter;stroke-width:0.75;" x="817.416193" xlink:href="#mb110fa3e6f" y="443.430265"/>
     <use style="fill:#d499a7;stroke:#ffffff;stroke-linejoin:miter;stroke-width:0.75;" x="825.532557" xlink:href="#mb110fa3e6f" y="430.634069"/>
     <use style="fill:#d499a7;stroke:#ffffff;stroke-linejoin:miter;stroke-width:0.75;" x="884.376193" xlink:href="#mb110fa3e6f" y="421.065079"/>
     <use style="fill:#d499a7;stroke:#ffffff;stroke-linejoin:miter;stroke-width:0.75;" x="951.336193" xlink:href="#mb110fa3e6f" y="419.006804"/>
     <use style="fill:#d499a7;stroke:#ffffff;stroke-linejoin:miter;stroke-width:0.75;" x="1019.310739" xlink:href="#mb110fa3e6f" y="413.611995"/>
     <use style="fill:#d499a7;stroke:#ffffff;stroke-linejoin:miter;stroke-width:0.75;" x="1086.270739" xlink:href="#mb110fa3e6f" y="413.611995"/>
     <use style="fill:#d499a7;stroke:#ffffff;stroke-linejoin:miter;stroke-width:0.75;" x="1154.245284" xlink:href="#mb110fa3e6f" y="413.611995"/>
     <use style="fill:#d499a7;stroke:#ffffff;stroke-linejoin:miter;stroke-width:0.75;" x="1221.205284" xlink:href="#mb110fa3e6f" y="413.611995"/>
     <use style="fill:#d499a7;stroke:#ffffff;stroke-linejoin:miter;stroke-width:0.75;" x="1289.17983" xlink:href="#mb110fa3e6f" y="403.334842"/>
     <use style="fill:#d499a7;stroke:#ffffff;stroke-linejoin:miter;stroke-width:0.75;" x="1356.13983" xlink:href="#mb110fa3e6f" y="390.440226"/>
     <use style="fill:#d499a7;stroke:#ffffff;stroke-linejoin:miter;stroke-width:0.75;" x="1424.114375" xlink:href="#mb110fa3e6f" y="339.562202"/>
    </g>
   </g>
   <g id="line2d_28">
    <path clip-path="url(#pd69391ac62)" d="M 816.063466 446.652229 
L 818.76892 446.652229 
L 883.361648 444.294029 
L 950.998011 441.580357 
L 1018.634375 438.842293 
L 1086.270739 438.842293 
L 1153.56892 438.842293 
L 1221.205284 438.842293 
L 1288.841648 435.402888 
L 1356.478011 424.42055 
L 1424.114375 407.73745 
" style="fill:none;stroke:#2d1e3e;stroke-linecap:round;stroke-width:3;"/>
    <g clip-path="url(#pd69391ac62)">
     <use style="fill:#2d1e3e;stroke:#ffffff;stroke-linejoin:miter;stroke-width:0.75;" x="816.063466" xlink:href="#m724989e120" y="446.652229"/>
     <use style="fill:#2d1e3e;stroke:#ffffff;stroke-linejoin:miter;stroke-width:0.75;" x="818.76892" xlink:href="#m724989e120" y="446.652229"/>
     <use style="fill:#2d1e3e;stroke:#ffffff;stroke-linejoin:miter;stroke-width:0.75;" x="883.361648" xlink:href="#m724989e120" y="444.294029"/>
     <use style="fill:#2d1e3e;stroke:#ffffff;stroke-linejoin:miter;stroke-width:0.75;" x="950.998011" xlink:href="#m724989e120" y="441.580357"/>
     <use style="fill:#2d1e3e;stroke:#ffffff;stroke-linejoin:miter;stroke-width:0.75;" x="1018.634375" xlink:href="#m724989e120" y="438.842293"/>
     <use style="fill:#2d1e3e;stroke:#ffffff;stroke-linejoin:miter;stroke-width:0.75;" x="1086.270739" xlink:href="#m724989e120" y="438.842293"/>
     <use style="fill:#2d1e3e;stroke:#ffffff;stroke-linejoin:miter;stroke-width:0.75;" x="1153.56892" xlink:href="#m724989e120" y="438.842293"/>
     <use style="fill:#2d1e3e;stroke:#ffffff;stroke-linejoin:miter;stroke-width:0.75;" x="1221.205284" xlink:href="#m724989e120" y="438.842293"/>
     <use style="fill:#2d1e3e;stroke:#ffffff;stroke-linejoin:miter;stroke-width:0.75;" x="1288.841648" xlink:href="#m724989e120" y="435.402888"/>
     <use style="fill:#2d1e3e;stroke:#ffffff;stroke-linejoin:miter;stroke-width:0.75;" x="1356.478011" xlink:href="#m724989e120" y="424.42055"/>
     <use style="fill:#2d1e3e;stroke:#ffffff;stroke-linejoin:miter;stroke-width:0.75;" x="1424.114375" xlink:href="#m724989e120" y="407.73745"/>
    </g>
   </g>
   <g id="patch_9">
    <path d="M 815.387102 450.438281 
L 815.387102 15.558281 
" style="fill:none;stroke:#cccccc;stroke-linecap:square;stroke-linejoin:miter;stroke-width:2.5;"/>
   </g>
   <g id="patch_10">
    <path d="M 1424.114375 450.438281 
L 1424.114375 15.558281 
" style="fill:none;stroke:#cccccc;stroke-linecap:square;stroke-linejoin:miter;stroke-width:2.5;"/>
   </g>
   <g id="patch_11">
    <path d="M 815.387102 450.438281 
L 1424.114375 450.438281 
" style="fill:none;stroke:#cccccc;stroke-linecap:square;stroke-linejoin:miter;stroke-width:2.5;"/>
   </g>
   <g id="patch_12">
    <path d="M 815.387102 15.558281 
L 1424.114375 15.558281 
" style="fill:none;stroke:#cccccc;stroke-linecap:square;stroke-linejoin:miter;stroke-width:2.5;"/>
   </g>
  </g>
 </g>
 <defs>
  <clipPath id="p2d91cfaf32">
   <rect height="434.88" width="608.727273" x="84.914375" y="15.558281"/>
  </clipPath>
  <clipPath id="pd69391ac62">
   <rect height="434.88" width="608.727273" x="815.387102" y="15.558281"/>
  </clipPath>
 </defs>
</svg>
