<?xml version="1.0" encoding="utf-8" standalone="no"?>
<!DOCTYPE svg PUBLIC "-//W3C//DTD SVG 1.1//EN"
  "http://www.w3.org/Graphics/SVG/1.1/DTD/svg11.dtd">
<svg height="423.388906pt" version="1.1" viewBox="0 0 637.815 423.388906" width="637.815pt" xmlns="http://www.w3.org/2000/svg" xmlns:xlink="http://www.w3.org/1999/xlink">
 <metadata>
  <rdf:RDF xmlns:cc="http://creativecommons.org/ns#" xmlns:dc="http://purl.org/dc/elements/1.1/" xmlns:rdf="http://www.w3.org/1999/02/22-rdf-syntax-ns#">
   <cc:Work>
    <dc:type rdf:resource="http://purl.org/dc/dcmitype/StillImage"/>
    <dc:date>2021-12-21T20:20:09.322232</dc:date>
    <dc:format>image/svg+xml</dc:format>
    <dc:creator>
     <cc:Agent>
      <dc:title>Matplotlib v3.4.3, https://matplotlib.org/</dc:title>
     </cc:Agent>
    </dc:creator>
   </cc:Work>
  </rdf:RDF>
 </metadata>
 <defs>
  <style type="text/css">*{stroke-linecap:butt;stroke-linejoin:round;}</style>
 </defs>
 <g id="figure_1">
  <g id="patch_1">
   <path d="M 0 423.388906 
L 637.815 423.388906 
L 637.815 0 
L 0 0 
z
" style="fill:#ffffff;"/>
  </g>
  <g id="axes_1">
   <g id="patch_2">
    <path d="M 72.615 387.72 
L 630.615 387.72 
L 630.615 7.2 
L 72.615 7.2 
z
" style="fill:#ffffff;"/>
   </g>
   <g id="matplotlib.axis_1">
    <g id="xtick_1">
     <g id="line2d_1">
      <defs>
       <path d="M 0 0 
L 0 9 
" id="m9dcdfd8a23" style="stroke:#000000;stroke-width:1.875;"/>
      </defs>
      <g>
       <use style="stroke:#000000;stroke-width:1.875;" x="98.488818" xlink:href="#m9dcdfd8a23" y="387.72"/>
      </g>
     </g>
     <g id="text_1">
      <!-- 0.0 -->
      <g transform="translate(85.36874 412.757422)scale(0.165 -0.165)">
       <defs>
        <path d="M 2034 4250 
Q 1547 4250 1301 3770 
Q 1056 3291 1056 2328 
Q 1056 1369 1301 889 
Q 1547 409 2034 409 
Q 2525 409 2770 889 
Q 3016 1369 3016 2328 
Q 3016 3291 2770 3770 
Q 2525 4250 2034 4250 
z
M 2034 4750 
Q 2819 4750 3233 4129 
Q 3647 3509 3647 2328 
Q 3647 1150 3233 529 
Q 2819 -91 2034 -91 
Q 1250 -91 836 529 
Q 422 1150 422 2328 
Q 422 3509 836 4129 
Q 1250 4750 2034 4750 
z
" id="DejaVuSans-30" transform="scale(0.015625)"/>
        <path d="M 684 794 
L 1344 794 
L 1344 0 
L 684 0 
L 684 794 
z
" id="DejaVuSans-2e" transform="scale(0.015625)"/>
       </defs>
       <use xlink:href="#DejaVuSans-30"/>
       <use x="63.623047" xlink:href="#DejaVuSans-2e"/>
       <use x="95.410156" xlink:href="#DejaVuSans-30"/>
      </g>
     </g>
    </g>
    <g id="xtick_2">
     <g id="line2d_2">
      <g>
       <use style="stroke:#000000;stroke-width:1.875;" x="149.425976" xlink:href="#m9dcdfd8a23" y="387.72"/>
      </g>
     </g>
     <g id="text_2">
      <!-- 0.1 -->
      <g transform="translate(136.305898 412.757422)scale(0.165 -0.165)">
       <defs>
        <path d="M 794 531 
L 1825 531 
L 1825 4091 
L 703 3866 
L 703 4441 
L 1819 4666 
L 2450 4666 
L 2450 531 
L 3481 531 
L 3481 0 
L 794 0 
L 794 531 
z
" id="DejaVuSans-31" transform="scale(0.015625)"/>
       </defs>
       <use xlink:href="#DejaVuSans-30"/>
       <use x="63.623047" xlink:href="#DejaVuSans-2e"/>
       <use x="95.410156" xlink:href="#DejaVuSans-31"/>
      </g>
     </g>
    </g>
    <g id="xtick_3">
     <g id="line2d_3">
      <g>
       <use style="stroke:#000000;stroke-width:1.875;" x="200.363133" xlink:href="#m9dcdfd8a23" y="387.72"/>
      </g>
     </g>
     <g id="text_3">
      <!-- 0.2 -->
      <g transform="translate(187.243055 412.757422)scale(0.165 -0.165)">
       <defs>
        <path d="M 1228 531 
L 3431 531 
L 3431 0 
L 469 0 
L 469 531 
Q 828 903 1448 1529 
Q 2069 2156 2228 2338 
Q 2531 2678 2651 2914 
Q 2772 3150 2772 3378 
Q 2772 3750 2511 3984 
Q 2250 4219 1831 4219 
Q 1534 4219 1204 4116 
Q 875 4013 500 3803 
L 500 4441 
Q 881 4594 1212 4672 
Q 1544 4750 1819 4750 
Q 2544 4750 2975 4387 
Q 3406 4025 3406 3419 
Q 3406 3131 3298 2873 
Q 3191 2616 2906 2266 
Q 2828 2175 2409 1742 
Q 1991 1309 1228 531 
z
" id="DejaVuSans-32" transform="scale(0.015625)"/>
       </defs>
       <use xlink:href="#DejaVuSans-30"/>
       <use x="63.623047" xlink:href="#DejaVuSans-2e"/>
       <use x="95.410156" xlink:href="#DejaVuSans-32"/>
      </g>
     </g>
    </g>
    <g id="xtick_4">
     <g id="line2d_4">
      <g>
       <use style="stroke:#000000;stroke-width:1.875;" x="251.30029" xlink:href="#m9dcdfd8a23" y="387.72"/>
      </g>
     </g>
     <g id="text_4">
      <!-- 0.3 -->
      <g transform="translate(238.180212 412.757422)scale(0.165 -0.165)">
       <defs>
        <path d="M 2597 2516 
Q 3050 2419 3304 2112 
Q 3559 1806 3559 1356 
Q 3559 666 3084 287 
Q 2609 -91 1734 -91 
Q 1441 -91 1130 -33 
Q 819 25 488 141 
L 488 750 
Q 750 597 1062 519 
Q 1375 441 1716 441 
Q 2309 441 2620 675 
Q 2931 909 2931 1356 
Q 2931 1769 2642 2001 
Q 2353 2234 1838 2234 
L 1294 2234 
L 1294 2753 
L 1863 2753 
Q 2328 2753 2575 2939 
Q 2822 3125 2822 3475 
Q 2822 3834 2567 4026 
Q 2313 4219 1838 4219 
Q 1578 4219 1281 4162 
Q 984 4106 628 3988 
L 628 4550 
Q 988 4650 1302 4700 
Q 1616 4750 1894 4750 
Q 2613 4750 3031 4423 
Q 3450 4097 3450 3541 
Q 3450 3153 3228 2886 
Q 3006 2619 2597 2516 
z
" id="DejaVuSans-33" transform="scale(0.015625)"/>
       </defs>
       <use xlink:href="#DejaVuSans-30"/>
       <use x="63.623047" xlink:href="#DejaVuSans-2e"/>
       <use x="95.410156" xlink:href="#DejaVuSans-33"/>
      </g>
     </g>
    </g>
    <g id="xtick_5">
     <g id="line2d_5">
      <g>
       <use style="stroke:#000000;stroke-width:1.875;" x="302.237447" xlink:href="#m9dcdfd8a23" y="387.72"/>
      </g>
     </g>
     <g id="text_5">
      <!-- 0.4 -->
      <g transform="translate(289.117369 412.757422)scale(0.165 -0.165)">
       <defs>
        <path d="M 2419 4116 
L 825 1625 
L 2419 1625 
L 2419 4116 
z
M 2253 4666 
L 3047 4666 
L 3047 1625 
L 3713 1625 
L 3713 1100 
L 3047 1100 
L 3047 0 
L 2419 0 
L 2419 1100 
L 313 1100 
L 313 1709 
L 2253 4666 
z
" id="DejaVuSans-34" transform="scale(0.015625)"/>
       </defs>
       <use xlink:href="#DejaVuSans-30"/>
       <use x="63.623047" xlink:href="#DejaVuSans-2e"/>
       <use x="95.410156" xlink:href="#DejaVuSans-34"/>
      </g>
     </g>
    </g>
    <g id="xtick_6">
     <g id="line2d_6">
      <g>
       <use style="stroke:#000000;stroke-width:1.875;" x="353.174604" xlink:href="#m9dcdfd8a23" y="387.72"/>
      </g>
     </g>
     <g id="text_6">
      <!-- 0.5 -->
      <g transform="translate(340.054526 412.757422)scale(0.165 -0.165)">
       <defs>
        <path d="M 691 4666 
L 3169 4666 
L 3169 4134 
L 1269 4134 
L 1269 2991 
Q 1406 3038 1543 3061 
Q 1681 3084 1819 3084 
Q 2600 3084 3056 2656 
Q 3513 2228 3513 1497 
Q 3513 744 3044 326 
Q 2575 -91 1722 -91 
Q 1428 -91 1123 -41 
Q 819 9 494 109 
L 494 744 
Q 775 591 1075 516 
Q 1375 441 1709 441 
Q 2250 441 2565 725 
Q 2881 1009 2881 1497 
Q 2881 1984 2565 2268 
Q 2250 2553 1709 2553 
Q 1456 2553 1204 2497 
Q 953 2441 691 2322 
L 691 4666 
z
" id="DejaVuSans-35" transform="scale(0.015625)"/>
       </defs>
       <use xlink:href="#DejaVuSans-30"/>
       <use x="63.623047" xlink:href="#DejaVuSans-2e"/>
       <use x="95.410156" xlink:href="#DejaVuSans-35"/>
      </g>
     </g>
    </g>
    <g id="xtick_7">
     <g id="line2d_7">
      <g>
       <use style="stroke:#000000;stroke-width:1.875;" x="404.111761" xlink:href="#m9dcdfd8a23" y="387.72"/>
      </g>
     </g>
     <g id="text_7">
      <!-- 0.6 -->
      <g transform="translate(390.991683 412.757422)scale(0.165 -0.165)">
       <defs>
        <path d="M 2113 2584 
Q 1688 2584 1439 2293 
Q 1191 2003 1191 1497 
Q 1191 994 1439 701 
Q 1688 409 2113 409 
Q 2538 409 2786 701 
Q 3034 994 3034 1497 
Q 3034 2003 2786 2293 
Q 2538 2584 2113 2584 
z
M 3366 4563 
L 3366 3988 
Q 3128 4100 2886 4159 
Q 2644 4219 2406 4219 
Q 1781 4219 1451 3797 
Q 1122 3375 1075 2522 
Q 1259 2794 1537 2939 
Q 1816 3084 2150 3084 
Q 2853 3084 3261 2657 
Q 3669 2231 3669 1497 
Q 3669 778 3244 343 
Q 2819 -91 2113 -91 
Q 1303 -91 875 529 
Q 447 1150 447 2328 
Q 447 3434 972 4092 
Q 1497 4750 2381 4750 
Q 2619 4750 2861 4703 
Q 3103 4656 3366 4563 
z
" id="DejaVuSans-36" transform="scale(0.015625)"/>
       </defs>
       <use xlink:href="#DejaVuSans-30"/>
       <use x="63.623047" xlink:href="#DejaVuSans-2e"/>
       <use x="95.410156" xlink:href="#DejaVuSans-36"/>
      </g>
     </g>
    </g>
    <g id="xtick_8">
     <g id="line2d_8">
      <g>
       <use style="stroke:#000000;stroke-width:1.875;" x="455.048919" xlink:href="#m9dcdfd8a23" y="387.72"/>
      </g>
     </g>
     <g id="text_8">
      <!-- 0.7 -->
      <g transform="translate(441.92884 412.757422)scale(0.165 -0.165)">
       <defs>
        <path d="M 525 4666 
L 3525 4666 
L 3525 4397 
L 1831 0 
L 1172 0 
L 2766 4134 
L 525 4134 
L 525 4666 
z
" id="DejaVuSans-37" transform="scale(0.015625)"/>
       </defs>
       <use xlink:href="#DejaVuSans-30"/>
       <use x="63.623047" xlink:href="#DejaVuSans-2e"/>
       <use x="95.410156" xlink:href="#DejaVuSans-37"/>
      </g>
     </g>
    </g>
    <g id="xtick_9">
     <g id="line2d_9">
      <g>
       <use style="stroke:#000000;stroke-width:1.875;" x="505.986076" xlink:href="#m9dcdfd8a23" y="387.72"/>
      </g>
     </g>
     <g id="text_9">
      <!-- 0.8 -->
      <g transform="translate(492.865998 412.757422)scale(0.165 -0.165)">
       <defs>
        <path d="M 2034 2216 
Q 1584 2216 1326 1975 
Q 1069 1734 1069 1313 
Q 1069 891 1326 650 
Q 1584 409 2034 409 
Q 2484 409 2743 651 
Q 3003 894 3003 1313 
Q 3003 1734 2745 1975 
Q 2488 2216 2034 2216 
z
M 1403 2484 
Q 997 2584 770 2862 
Q 544 3141 544 3541 
Q 544 4100 942 4425 
Q 1341 4750 2034 4750 
Q 2731 4750 3128 4425 
Q 3525 4100 3525 3541 
Q 3525 3141 3298 2862 
Q 3072 2584 2669 2484 
Q 3125 2378 3379 2068 
Q 3634 1759 3634 1313 
Q 3634 634 3220 271 
Q 2806 -91 2034 -91 
Q 1263 -91 848 271 
Q 434 634 434 1313 
Q 434 1759 690 2068 
Q 947 2378 1403 2484 
z
M 1172 3481 
Q 1172 3119 1398 2916 
Q 1625 2713 2034 2713 
Q 2441 2713 2670 2916 
Q 2900 3119 2900 3481 
Q 2900 3844 2670 4047 
Q 2441 4250 2034 4250 
Q 1625 4250 1398 4047 
Q 1172 3844 1172 3481 
z
" id="DejaVuSans-38" transform="scale(0.015625)"/>
       </defs>
       <use xlink:href="#DejaVuSans-30"/>
       <use x="63.623047" xlink:href="#DejaVuSans-2e"/>
       <use x="95.410156" xlink:href="#DejaVuSans-38"/>
      </g>
     </g>
    </g>
    <g id="xtick_10">
     <g id="line2d_10">
      <g>
       <use style="stroke:#000000;stroke-width:1.875;" x="556.923233" xlink:href="#m9dcdfd8a23" y="387.72"/>
      </g>
     </g>
     <g id="text_10">
      <!-- 0.9 -->
      <g transform="translate(543.803155 412.757422)scale(0.165 -0.165)">
       <defs>
        <path d="M 703 97 
L 703 672 
Q 941 559 1184 500 
Q 1428 441 1663 441 
Q 2288 441 2617 861 
Q 2947 1281 2994 2138 
Q 2813 1869 2534 1725 
Q 2256 1581 1919 1581 
Q 1219 1581 811 2004 
Q 403 2428 403 3163 
Q 403 3881 828 4315 
Q 1253 4750 1959 4750 
Q 2769 4750 3195 4129 
Q 3622 3509 3622 2328 
Q 3622 1225 3098 567 
Q 2575 -91 1691 -91 
Q 1453 -91 1209 -44 
Q 966 3 703 97 
z
M 1959 2075 
Q 2384 2075 2632 2365 
Q 2881 2656 2881 3163 
Q 2881 3666 2632 3958 
Q 2384 4250 1959 4250 
Q 1534 4250 1286 3958 
Q 1038 3666 1038 3163 
Q 1038 2656 1286 2365 
Q 1534 2075 1959 2075 
z
" id="DejaVuSans-39" transform="scale(0.015625)"/>
       </defs>
       <use xlink:href="#DejaVuSans-30"/>
       <use x="63.623047" xlink:href="#DejaVuSans-2e"/>
       <use x="95.410156" xlink:href="#DejaVuSans-39"/>
      </g>
     </g>
    </g>
    <g id="xtick_11">
     <g id="line2d_11">
      <g>
       <use style="stroke:#000000;stroke-width:1.875;" x="607.86039" xlink:href="#m9dcdfd8a23" y="387.72"/>
      </g>
     </g>
     <g id="text_11">
      <!-- 1.0 -->
      <g transform="translate(594.740312 412.757422)scale(0.165 -0.165)">
       <use xlink:href="#DejaVuSans-31"/>
       <use x="63.623047" xlink:href="#DejaVuSans-2e"/>
       <use x="95.410156" xlink:href="#DejaVuSans-30"/>
      </g>
     </g>
    </g>
   </g>
   <g id="matplotlib.axis_2">
    <g id="ytick_1">
     <g id="line2d_12">
      <defs>
       <path d="M 0 0 
L -9 0 
" id="m3a1fad0227" style="stroke:#000000;stroke-width:1.875;"/>
      </defs>
      <g>
       <use style="stroke:#000000;stroke-width:1.875;" x="72.615" xlink:href="#m3a1fad0227" y="387.72"/>
      </g>
     </g>
     <g id="text_12">
      <!-- 0 -->
      <g transform="translate(49.616875 393.988711)scale(0.165 -0.165)">
       <use xlink:href="#DejaVuSans-30"/>
      </g>
     </g>
    </g>
    <g id="ytick_2">
     <g id="line2d_13">
      <g>
       <use style="stroke:#000000;stroke-width:1.875;" x="72.615" xlink:href="#m3a1fad0227" y="351.48"/>
      </g>
     </g>
     <g id="text_13">
      <!-- 10 -->
      <g transform="translate(39.11875 357.748711)scale(0.165 -0.165)">
       <use xlink:href="#DejaVuSans-31"/>
       <use x="63.623047" xlink:href="#DejaVuSans-30"/>
      </g>
     </g>
    </g>
    <g id="ytick_3">
     <g id="line2d_14">
      <g>
       <use style="stroke:#000000;stroke-width:1.875;" x="72.615" xlink:href="#m3a1fad0227" y="315.24"/>
      </g>
     </g>
     <g id="text_14">
      <!-- 20 -->
      <g transform="translate(39.11875 321.508711)scale(0.165 -0.165)">
       <use xlink:href="#DejaVuSans-32"/>
       <use x="63.623047" xlink:href="#DejaVuSans-30"/>
      </g>
     </g>
    </g>
    <g id="ytick_4">
     <g id="line2d_15">
      <g>
       <use style="stroke:#000000;stroke-width:1.875;" x="72.615" xlink:href="#m3a1fad0227" y="279"/>
      </g>
     </g>
     <g id="text_15">
      <!-- 30 -->
      <g transform="translate(39.11875 285.268711)scale(0.165 -0.165)">
       <use xlink:href="#DejaVuSans-33"/>
       <use x="63.623047" xlink:href="#DejaVuSans-30"/>
      </g>
     </g>
    </g>
    <g id="ytick_5">
     <g id="line2d_16">
      <g>
       <use style="stroke:#000000;stroke-width:1.875;" x="72.615" xlink:href="#m3a1fad0227" y="242.76"/>
      </g>
     </g>
     <g id="text_16">
      <!-- 40 -->
      <g transform="translate(39.11875 249.028711)scale(0.165 -0.165)">
       <use xlink:href="#DejaVuSans-34"/>
       <use x="63.623047" xlink:href="#DejaVuSans-30"/>
      </g>
     </g>
    </g>
    <g id="ytick_6">
     <g id="line2d_17">
      <g>
       <use style="stroke:#000000;stroke-width:1.875;" x="72.615" xlink:href="#m3a1fad0227" y="206.52"/>
      </g>
     </g>
     <g id="text_17">
      <!-- 50 -->
      <g transform="translate(39.11875 212.788711)scale(0.165 -0.165)">
       <use xlink:href="#DejaVuSans-35"/>
       <use x="63.623047" xlink:href="#DejaVuSans-30"/>
      </g>
     </g>
    </g>
    <g id="ytick_7">
     <g id="line2d_18">
      <g>
       <use style="stroke:#000000;stroke-width:1.875;" x="72.615" xlink:href="#m3a1fad0227" y="170.28"/>
      </g>
     </g>
     <g id="text_18">
      <!-- 60 -->
      <g transform="translate(39.11875 176.548711)scale(0.165 -0.165)">
       <use xlink:href="#DejaVuSans-36"/>
       <use x="63.623047" xlink:href="#DejaVuSans-30"/>
      </g>
     </g>
    </g>
    <g id="ytick_8">
     <g id="line2d_19">
      <g>
       <use style="stroke:#000000;stroke-width:1.875;" x="72.615" xlink:href="#m3a1fad0227" y="134.04"/>
      </g>
     </g>
     <g id="text_19">
      <!-- 70 -->
      <g transform="translate(39.11875 140.308711)scale(0.165 -0.165)">
       <use xlink:href="#DejaVuSans-37"/>
       <use x="63.623047" xlink:href="#DejaVuSans-30"/>
      </g>
     </g>
    </g>
    <g id="ytick_9">
     <g id="line2d_20">
      <g>
       <use style="stroke:#000000;stroke-width:1.875;" x="72.615" xlink:href="#m3a1fad0227" y="97.8"/>
      </g>
     </g>
     <g id="text_20">
      <!-- 80 -->
      <g transform="translate(39.11875 104.068711)scale(0.165 -0.165)">
       <use xlink:href="#DejaVuSans-38"/>
       <use x="63.623047" xlink:href="#DejaVuSans-30"/>
      </g>
     </g>
    </g>
    <g id="ytick_10">
     <g id="line2d_21">
      <g>
       <use style="stroke:#000000;stroke-width:1.875;" x="72.615" xlink:href="#m3a1fad0227" y="61.56"/>
      </g>
     </g>
     <g id="text_21">
      <!-- 90 -->
      <g transform="translate(39.11875 67.828711)scale(0.165 -0.165)">
       <use xlink:href="#DejaVuSans-39"/>
       <use x="63.623047" xlink:href="#DejaVuSans-30"/>
      </g>
     </g>
    </g>
    <g id="ytick_11">
     <g id="line2d_22">
      <g>
       <use style="stroke:#000000;stroke-width:1.875;" x="72.615" xlink:href="#m3a1fad0227" y="25.32"/>
      </g>
     </g>
     <g id="text_22">
      <!-- 100 -->
      <g transform="translate(28.620625 31.588711)scale(0.165 -0.165)">
       <use xlink:href="#DejaVuSans-31"/>
       <use x="63.623047" xlink:href="#DejaVuSans-30"/>
       <use x="127.246094" xlink:href="#DejaVuSans-30"/>
      </g>
     </g>
    </g>
    <g id="text_23">
     <!-- Percent of gene pairs -->
     <g transform="translate(20.877188 293.180625)rotate(-90)scale(0.18 -0.18)">
      <defs>
       <path d="M 1259 4147 
L 1259 2394 
L 2053 2394 
Q 2494 2394 2734 2622 
Q 2975 2850 2975 3272 
Q 2975 3691 2734 3919 
Q 2494 4147 2053 4147 
L 1259 4147 
z
M 628 4666 
L 2053 4666 
Q 2838 4666 3239 4311 
Q 3641 3956 3641 3272 
Q 3641 2581 3239 2228 
Q 2838 1875 2053 1875 
L 1259 1875 
L 1259 0 
L 628 0 
L 628 4666 
z
" id="DejaVuSans-50" transform="scale(0.015625)"/>
       <path d="M 3597 1894 
L 3597 1613 
L 953 1613 
Q 991 1019 1311 708 
Q 1631 397 2203 397 
Q 2534 397 2845 478 
Q 3156 559 3463 722 
L 3463 178 
Q 3153 47 2828 -22 
Q 2503 -91 2169 -91 
Q 1331 -91 842 396 
Q 353 884 353 1716 
Q 353 2575 817 3079 
Q 1281 3584 2069 3584 
Q 2775 3584 3186 3129 
Q 3597 2675 3597 1894 
z
M 3022 2063 
Q 3016 2534 2758 2815 
Q 2500 3097 2075 3097 
Q 1594 3097 1305 2825 
Q 1016 2553 972 2059 
L 3022 2063 
z
" id="DejaVuSans-65" transform="scale(0.015625)"/>
       <path d="M 2631 2963 
Q 2534 3019 2420 3045 
Q 2306 3072 2169 3072 
Q 1681 3072 1420 2755 
Q 1159 2438 1159 1844 
L 1159 0 
L 581 0 
L 581 3500 
L 1159 3500 
L 1159 2956 
Q 1341 3275 1631 3429 
Q 1922 3584 2338 3584 
Q 2397 3584 2469 3576 
Q 2541 3569 2628 3553 
L 2631 2963 
z
" id="DejaVuSans-72" transform="scale(0.015625)"/>
       <path d="M 3122 3366 
L 3122 2828 
Q 2878 2963 2633 3030 
Q 2388 3097 2138 3097 
Q 1578 3097 1268 2742 
Q 959 2388 959 1747 
Q 959 1106 1268 751 
Q 1578 397 2138 397 
Q 2388 397 2633 464 
Q 2878 531 3122 666 
L 3122 134 
Q 2881 22 2623 -34 
Q 2366 -91 2075 -91 
Q 1284 -91 818 406 
Q 353 903 353 1747 
Q 353 2603 823 3093 
Q 1294 3584 2113 3584 
Q 2378 3584 2631 3529 
Q 2884 3475 3122 3366 
z
" id="DejaVuSans-63" transform="scale(0.015625)"/>
       <path d="M 3513 2113 
L 3513 0 
L 2938 0 
L 2938 2094 
Q 2938 2591 2744 2837 
Q 2550 3084 2163 3084 
Q 1697 3084 1428 2787 
Q 1159 2491 1159 1978 
L 1159 0 
L 581 0 
L 581 3500 
L 1159 3500 
L 1159 2956 
Q 1366 3272 1645 3428 
Q 1925 3584 2291 3584 
Q 2894 3584 3203 3211 
Q 3513 2838 3513 2113 
z
" id="DejaVuSans-6e" transform="scale(0.015625)"/>
       <path d="M 1172 4494 
L 1172 3500 
L 2356 3500 
L 2356 3053 
L 1172 3053 
L 1172 1153 
Q 1172 725 1289 603 
Q 1406 481 1766 481 
L 2356 481 
L 2356 0 
L 1766 0 
Q 1100 0 847 248 
Q 594 497 594 1153 
L 594 3053 
L 172 3053 
L 172 3500 
L 594 3500 
L 594 4494 
L 1172 4494 
z
" id="DejaVuSans-74" transform="scale(0.015625)"/>
       <path id="DejaVuSans-20" transform="scale(0.015625)"/>
       <path d="M 1959 3097 
Q 1497 3097 1228 2736 
Q 959 2375 959 1747 
Q 959 1119 1226 758 
Q 1494 397 1959 397 
Q 2419 397 2687 759 
Q 2956 1122 2956 1747 
Q 2956 2369 2687 2733 
Q 2419 3097 1959 3097 
z
M 1959 3584 
Q 2709 3584 3137 3096 
Q 3566 2609 3566 1747 
Q 3566 888 3137 398 
Q 2709 -91 1959 -91 
Q 1206 -91 779 398 
Q 353 888 353 1747 
Q 353 2609 779 3096 
Q 1206 3584 1959 3584 
z
" id="DejaVuSans-6f" transform="scale(0.015625)"/>
       <path d="M 2375 4863 
L 2375 4384 
L 1825 4384 
Q 1516 4384 1395 4259 
Q 1275 4134 1275 3809 
L 1275 3500 
L 2222 3500 
L 2222 3053 
L 1275 3053 
L 1275 0 
L 697 0 
L 697 3053 
L 147 3053 
L 147 3500 
L 697 3500 
L 697 3744 
Q 697 4328 969 4595 
Q 1241 4863 1831 4863 
L 2375 4863 
z
" id="DejaVuSans-66" transform="scale(0.015625)"/>
       <path d="M 2906 1791 
Q 2906 2416 2648 2759 
Q 2391 3103 1925 3103 
Q 1463 3103 1205 2759 
Q 947 2416 947 1791 
Q 947 1169 1205 825 
Q 1463 481 1925 481 
Q 2391 481 2648 825 
Q 2906 1169 2906 1791 
z
M 3481 434 
Q 3481 -459 3084 -895 
Q 2688 -1331 1869 -1331 
Q 1566 -1331 1297 -1286 
Q 1028 -1241 775 -1147 
L 775 -588 
Q 1028 -725 1275 -790 
Q 1522 -856 1778 -856 
Q 2344 -856 2625 -561 
Q 2906 -266 2906 331 
L 2906 616 
Q 2728 306 2450 153 
Q 2172 0 1784 0 
Q 1141 0 747 490 
Q 353 981 353 1791 
Q 353 2603 747 3093 
Q 1141 3584 1784 3584 
Q 2172 3584 2450 3431 
Q 2728 3278 2906 2969 
L 2906 3500 
L 3481 3500 
L 3481 434 
z
" id="DejaVuSans-67" transform="scale(0.015625)"/>
       <path d="M 1159 525 
L 1159 -1331 
L 581 -1331 
L 581 3500 
L 1159 3500 
L 1159 2969 
Q 1341 3281 1617 3432 
Q 1894 3584 2278 3584 
Q 2916 3584 3314 3078 
Q 3713 2572 3713 1747 
Q 3713 922 3314 415 
Q 2916 -91 2278 -91 
Q 1894 -91 1617 61 
Q 1341 213 1159 525 
z
M 3116 1747 
Q 3116 2381 2855 2742 
Q 2594 3103 2138 3103 
Q 1681 3103 1420 2742 
Q 1159 2381 1159 1747 
Q 1159 1113 1420 752 
Q 1681 391 2138 391 
Q 2594 391 2855 752 
Q 3116 1113 3116 1747 
z
" id="DejaVuSans-70" transform="scale(0.015625)"/>
       <path d="M 2194 1759 
Q 1497 1759 1228 1600 
Q 959 1441 959 1056 
Q 959 750 1161 570 
Q 1363 391 1709 391 
Q 2188 391 2477 730 
Q 2766 1069 2766 1631 
L 2766 1759 
L 2194 1759 
z
M 3341 1997 
L 3341 0 
L 2766 0 
L 2766 531 
Q 2569 213 2275 61 
Q 1981 -91 1556 -91 
Q 1019 -91 701 211 
Q 384 513 384 1019 
Q 384 1609 779 1909 
Q 1175 2209 1959 2209 
L 2766 2209 
L 2766 2266 
Q 2766 2663 2505 2880 
Q 2244 3097 1772 3097 
Q 1472 3097 1187 3025 
Q 903 2953 641 2809 
L 641 3341 
Q 956 3463 1253 3523 
Q 1550 3584 1831 3584 
Q 2591 3584 2966 3190 
Q 3341 2797 3341 1997 
z
" id="DejaVuSans-61" transform="scale(0.015625)"/>
       <path d="M 603 3500 
L 1178 3500 
L 1178 0 
L 603 0 
L 603 3500 
z
M 603 4863 
L 1178 4863 
L 1178 4134 
L 603 4134 
L 603 4863 
z
" id="DejaVuSans-69" transform="scale(0.015625)"/>
       <path d="M 2834 3397 
L 2834 2853 
Q 2591 2978 2328 3040 
Q 2066 3103 1784 3103 
Q 1356 3103 1142 2972 
Q 928 2841 928 2578 
Q 928 2378 1081 2264 
Q 1234 2150 1697 2047 
L 1894 2003 
Q 2506 1872 2764 1633 
Q 3022 1394 3022 966 
Q 3022 478 2636 193 
Q 2250 -91 1575 -91 
Q 1294 -91 989 -36 
Q 684 19 347 128 
L 347 722 
Q 666 556 975 473 
Q 1284 391 1588 391 
Q 1994 391 2212 530 
Q 2431 669 2431 922 
Q 2431 1156 2273 1281 
Q 2116 1406 1581 1522 
L 1381 1569 
Q 847 1681 609 1914 
Q 372 2147 372 2553 
Q 372 3047 722 3315 
Q 1072 3584 1716 3584 
Q 2034 3584 2315 3537 
Q 2597 3491 2834 3397 
z
" id="DejaVuSans-73" transform="scale(0.015625)"/>
      </defs>
      <use xlink:href="#DejaVuSans-50"/>
      <use x="56.677734" xlink:href="#DejaVuSans-65"/>
      <use x="118.201172" xlink:href="#DejaVuSans-72"/>
      <use x="157.064453" xlink:href="#DejaVuSans-63"/>
      <use x="212.044922" xlink:href="#DejaVuSans-65"/>
      <use x="273.568359" xlink:href="#DejaVuSans-6e"/>
      <use x="336.947266" xlink:href="#DejaVuSans-74"/>
      <use x="376.15625" xlink:href="#DejaVuSans-20"/>
      <use x="407.943359" xlink:href="#DejaVuSans-6f"/>
      <use x="469.125" xlink:href="#DejaVuSans-66"/>
      <use x="504.330078" xlink:href="#DejaVuSans-20"/>
      <use x="536.117188" xlink:href="#DejaVuSans-67"/>
      <use x="599.59375" xlink:href="#DejaVuSans-65"/>
      <use x="661.117188" xlink:href="#DejaVuSans-6e"/>
      <use x="724.496094" xlink:href="#DejaVuSans-65"/>
      <use x="786.019531" xlink:href="#DejaVuSans-20"/>
      <use x="817.806641" xlink:href="#DejaVuSans-70"/>
      <use x="881.283203" xlink:href="#DejaVuSans-61"/>
      <use x="942.5625" xlink:href="#DejaVuSans-69"/>
      <use x="970.345703" xlink:href="#DejaVuSans-72"/>
      <use x="1011.458984" xlink:href="#DejaVuSans-73"/>
     </g>
    </g>
   </g>
   <g id="LineCollection_1">
    <path clip-path="url(#p1879bd937b)" d="M 72.615 134.04 
L 385.132447 134.04 
" style="fill:none;stroke:#808080;stroke-dasharray:2.25,3.7125;stroke-dashoffset:0;stroke-width:2.25;"/>
   </g>
   <g id="LineCollection_2">
    <path clip-path="url(#p1879bd937b)" d="M 191.16406 387.72 
L 191.16406 134.04 
" style="fill:none;stroke:#808080;stroke-dasharray:2.25,3.7125;stroke-dashoffset:0;stroke-width:2.25;"/>
   </g>
   <g id="LineCollection_3">
    <path clip-path="url(#p1879bd937b)" d="M 319.918266 387.72 
L 319.918266 134.04 
" style="fill:none;stroke:#808080;stroke-dasharray:2.25,3.7125;stroke-dashoffset:0;stroke-width:2.25;"/>
   </g>
   <g id="LineCollection_4">
    <path clip-path="url(#p1879bd937b)" d="M 385.132447 387.72 
L 385.132447 134.04 
" style="fill:none;stroke:#808080;stroke-dasharray:2.25,3.7125;stroke-dashoffset:0;stroke-width:2.25;"/>
   </g>
   <g id="line2d_23">
    <path clip-path="url(#p1879bd937b)" d="M 97.978636 386.963389 
L 99.144781 386.963389 
L 99.144781 385.6165 
L 100.310925 385.6165 
L 100.310925 384.267928 
L 101.477069 384.267928 
L 101.477069 382.899957 
L 102.643213 382.899957 
L 102.643213 381.55414 
L 103.809357 381.55414 
L 103.809357 380.200842 
L 104.975502 380.200842 
L 104.975502 378.858765 
L 106.141646 378.858765 
L 106.141646 377.511847 
L 107.30779 377.511847 
L 107.30779 376.167654 
L 108.473934 376.167654 
L 108.473934 374.826592 
L 109.640078 374.826592 
L 109.640078 373.479007 
L 110.806223 373.479007 
L 110.806223 372.138525 
L 111.972367 372.138525 
L 111.972367 370.798885 
L 113.138511 370.798885 
L 113.138511 369.459042 
L 114.304655 369.459042 
L 114.304655 368.110586 
L 115.470799 368.110586 
L 115.470799 366.764914 
L 116.636944 366.764914 
L 116.636944 365.442614 
L 117.803088 365.442614 
L 117.803088 364.107817 
L 118.969232 364.107817 
L 118.969232 362.78601 
L 120.135376 362.78601 
L 120.135376 361.449849 
L 121.30152 361.449849 
L 121.30152 360.13738 
L 122.467665 360.13738 
L 122.467665 358.820677 
L 123.633809 358.820677 
L 123.633809 357.512267 
L 124.799953 357.512267 
L 124.799953 356.214935 
L 125.966097 356.214935 
L 125.966097 354.904408 
L 127.132241 354.904408 
L 127.132241 353.601943 
L 128.298386 353.601943 
L 128.298386 352.299681 
L 129.46453 352.299681 
L 129.46453 350.98956 
L 130.630674 350.98956 
L 130.630674 349.683441 
L 131.796818 349.683441 
L 131.796818 348.391386 
L 132.962962 348.391386 
L 132.962962 347.095794 
L 134.129107 347.095794 
L 134.129107 345.814526 
L 135.295251 345.814526 
L 135.295251 344.524791 
L 136.461395 344.524791 
L 136.461395 343.244915 
L 137.627539 343.244915 
L 137.627539 341.963125 
L 138.793683 341.963125 
L 138.793683 340.685163 
L 139.959828 340.685163 
L 139.959828 339.412102 
L 141.125972 339.412102 
L 141.125972 338.134952 
L 142.292116 338.134952 
L 142.292116 336.864413 
L 143.45826 336.864413 
L 143.45826 335.599848 
L 144.624404 335.599848 
L 144.624404 334.332934 
L 145.790549 334.332934 
L 145.790549 333.075184 
L 146.956693 333.075184 
L 146.956693 331.819579 
L 148.122837 331.819579 
L 148.122837 330.563249 
L 149.288981 330.563249 
L 149.288981 329.302193 
L 150.455125 329.302193 
L 150.455125 328.057462 
L 151.62127 328.057462 
L 151.62127 326.809484 
L 152.787414 326.809484 
L 152.787414 325.583602 
L 153.953558 325.583602 
L 153.953558 324.347774 
L 155.119702 324.347774 
L 155.119702 323.113773 
L 156.285846 323.113773 
L 156.285846 321.881424 
L 157.451991 321.881424 
L 157.451991 320.654382 
L 158.618135 320.654382 
L 158.618135 319.431748 
L 159.784279 319.431748 
L 159.784279 318.209085 
L 160.950423 318.209085 
L 160.950423 316.988741 
L 162.116567 316.988741 
L 162.116567 315.767702 
L 163.282712 315.767702 
L 163.282712 314.555217 
L 164.448856 314.555217 
L 164.448856 313.352968 
L 165.615 313.352968 
L 165.615 312.14202 
L 166.781144 312.14202 
L 166.781144 310.936495 
L 167.947288 310.936495 
L 167.947288 309.717775 
L 169.113433 309.717775 
L 169.113433 308.50848 
L 170.279577 308.50848 
L 170.279577 307.30858 
L 171.445721 307.30858 
L 171.445721 306.123759 
L 172.611865 306.123759 
L 172.611865 304.940156 
L 173.778009 304.940156 
L 173.778009 303.747708 
L 174.944154 303.747708 
L 174.944154 302.557754 
L 176.110298 302.557754 
L 176.110298 301.375659 
L 177.276442 301.375659 
L 177.276442 300.207367 
L 178.442586 300.207367 
L 178.442586 299.025271 
L 179.60873 299.025271 
L 179.60873 297.847932 
L 180.774875 297.847932 
L 180.774875 296.681147 
L 181.941019 296.681147 
L 181.941019 295.518075 
L 183.107163 295.518075 
L 183.107163 294.354103 
L 184.273307 294.354103 
L 184.273307 293.206167 
L 185.439451 293.206167 
L 185.439451 292.043558 
L 186.605596 292.043558 
L 186.605596 290.890345 
L 187.77174 290.890345 
L 187.77174 289.743453 
L 188.937884 289.743453 
L 188.937884 288.597663 
L 190.104028 288.597663 
L 190.104028 287.455381 
L 191.270172 287.455381 
L 191.270172 286.323104 
L 192.436317 286.323104 
L 192.436317 285.195554 
L 193.602461 285.195554 
L 193.602461 284.053302 
L 194.768605 284.053302 
L 194.768605 282.930072 
L 195.934749 282.930072 
L 195.934749 281.803565 
L 197.100893 281.803565 
L 197.100893 280.689702 
L 198.267038 280.689702 
L 198.267038 279.575548 
L 199.433182 279.575548 
L 199.433182 278.464933 
L 200.599326 278.464933 
L 200.599326 277.361247 
L 201.76547 277.361247 
L 201.76547 276.263304 
L 202.931614 276.263304 
L 202.931614 275.167216 
L 204.097759 275.167216 
L 204.097759 274.071244 
L 205.263903 274.071244 
L 205.263903 272.987306 
L 206.430047 272.987306 
L 206.430047 271.91201 
L 207.596191 271.91201 
L 207.596191 270.830711 
L 208.762335 270.830711 
L 208.762335 269.76394 
L 209.92848 269.76394 
L 209.92848 268.697053 
L 211.094624 268.697053 
L 211.094624 267.628861 
L 212.260768 267.628861 
L 212.260768 266.564236 
L 213.426912 266.564236 
L 213.426912 265.519764 
L 214.593056 265.519764 
L 214.593056 264.473523 
L 215.759201 264.473523 
L 215.759201 263.419511 
L 216.925345 263.419511 
L 216.925345 262.377591 
L 218.091489 262.377591 
L 218.091489 261.337266 
L 219.257633 261.337266 
L 219.257633 260.302973 
L 220.423777 260.302973 
L 220.423777 259.281293 
L 221.589922 259.281293 
L 221.589922 258.250306 
L 222.756066 258.250306 
L 222.756066 257.216853 
L 223.92221 257.216853 
L 223.92221 256.198015 
L 225.088354 256.198015 
L 225.088354 255.174712 
L 226.254498 255.174712 
L 226.254498 254.156338 
L 227.420643 254.156338 
L 227.420643 253.138225 
L 228.586787 253.138225 
L 228.586787 252.131219 
L 229.752931 252.131219 
L 229.752931 251.130128 
L 230.919075 251.130128 
L 230.919075 250.139592 
L 232.085219 250.139592 
L 232.085219 249.140328 
L 233.251364 249.140328 
L 233.251364 248.147936 
L 234.417508 248.147936 
L 234.417508 247.152703 
L 235.583652 247.152703 
L 235.583652 246.166401 
L 236.749796 246.166401 
L 236.749796 245.179112 
L 237.91594 245.179112 
L 237.91594 244.211601 
L 239.082085 244.211601 
L 239.082085 243.229967 
L 240.248229 243.229967 
L 240.248229 242.247986 
L 241.414373 242.247986 
L 241.414373 241.276473 
L 242.580517 241.276473 
L 242.580517 240.302842 
L 243.746661 240.302842 
L 243.746661 239.325878 
L 244.912806 239.325878 
L 244.912806 238.344244 
L 246.07895 238.344244 
L 246.07895 237.369338 
L 247.245094 237.369338 
L 247.245094 236.395766 
L 248.411238 236.395766 
L 248.411238 235.432053 
L 249.577382 235.432053 
L 249.577382 234.465527 
L 250.743527 234.465527 
L 250.743527 233.513936 
L 251.909671 233.513936 
L 251.909671 232.557298 
L 253.075815 232.557298 
L 253.075815 231.596427 
L 254.241959 231.596427 
L 254.241959 230.634512 
L 255.408103 230.634512 
L 255.408103 229.678629 
L 256.574248 229.678629 
L 256.574248 228.724485 
L 257.740392 228.724485 
L 257.740392 227.774082 
L 258.906536 227.774082 
L 258.906536 226.825564 
L 260.07268 226.825564 
L 260.07268 225.885687 
L 261.238824 225.885687 
L 261.238824 224.94381 
L 262.404969 224.94381 
L 262.404969 224.011763 
L 263.571113 224.011763 
L 263.571113 223.076526 
L 264.737257 223.076526 
L 264.737257 222.134068 
L 265.903401 222.134068 
L 265.903401 221.204022 
L 267.069545 221.204022 
L 267.069545 220.2718 
L 268.23569 220.2718 
L 268.23569 219.347989 
L 269.401834 219.347989 
L 269.401834 218.423974 
L 270.567978 218.423974 
L 270.567978 217.498074 
L 271.734122 217.498074 
L 271.734122 216.565592 
L 272.900266 216.565592 
L 272.900266 215.636879 
L 274.066411 215.636879 
L 274.066411 214.7124 
L 275.232555 214.7124 
L 275.232555 213.782702 
L 276.398699 213.782702 
L 276.398699 212.863095 
L 277.564843 212.863095 
L 277.564843 211.959088 
L 278.730987 211.959088 
L 278.730987 211.05137 
L 279.897132 211.05137 
L 279.897132 210.136026 
L 281.063276 210.136026 
L 281.063276 209.22506 
L 282.22942 209.22506 
L 282.22942 208.325113 
L 283.395564 208.325113 
L 283.395564 207.411769 
L 284.561708 207.411769 
L 284.561708 206.508256 
L 285.727853 206.508256 
L 285.727853 205.602974 
L 286.893997 205.602974 
L 286.893997 204.703317 
L 288.060141 204.703317 
L 288.060141 203.799194 
L 289.226285 203.799194 
L 289.226285 202.899683 
L 290.392429 202.899683 
L 290.392429 202.004927 
L 291.558574 202.004927 
L 291.558574 201.102109 
L 292.724718 201.102109 
L 292.724718 200.200539 
L 293.890862 200.200539 
L 293.890862 199.304594 
L 295.057006 199.304594 
L 295.057006 198.412128 
L 296.22315 198.412128 
L 296.22315 197.523752 
L 297.389295 197.523752 
L 297.389295 196.635491 
L 298.555439 196.635491 
L 298.555439 195.749289 
L 299.721583 195.749289 
L 299.721583 194.871845 
L 300.887727 194.871845 
L 300.887727 193.98805 
L 302.053871 193.98805 
L 302.053871 193.106111 
L 303.220016 193.106111 
L 303.220016 192.225506 
L 304.38616 192.225506 
L 304.38616 191.337448 
L 305.552304 191.337448 
L 305.552304 190.461918 
L 306.718448 190.461918 
L 306.718448 189.575252 
L 307.884592 189.575252 
L 307.884592 188.69801 
L 309.050737 188.69801 
L 309.050737 187.827902 
L 310.216881 187.827902 
L 310.216881 186.958809 
L 311.383025 186.958809 
L 311.383025 186.082119 
L 312.549169 186.082119 
L 312.549169 185.208241 
L 313.715313 185.208241 
L 313.715313 184.336857 
L 314.881458 184.336857 
L 314.881458 183.462487 
L 316.047602 183.462487 
L 316.047602 182.591567 
L 317.213746 182.591567 
L 317.213746 181.724794 
L 318.37989 181.724794 
L 318.37989 180.853381 
L 319.546034 180.853381 
L 319.546034 179.988173 
L 320.712179 179.988173 
L 320.712179 179.116093 
L 321.878323 179.116093 
L 321.878323 178.243695 
L 323.044467 178.243695 
L 323.044467 177.378951 
L 324.210611 177.378951 
L 324.210611 176.519225 
L 325.376755 176.519225 
L 325.376755 175.664688 
L 326.5429 175.664688 
L 326.5429 174.803251 
L 327.709044 174.803251 
L 327.709044 173.943205 
L 328.875188 173.943205 
L 328.875188 173.082463 
L 330.041332 173.082463 
L 330.041332 172.227666 
L 331.207476 172.227666 
L 331.207476 171.374 
L 332.373621 171.374 
L 332.373621 170.522016 
L 333.539765 170.522016 
L 333.539765 169.669422 
L 334.705909 169.669422 
L 334.705909 168.828747 
L 335.872053 168.828747 
L 335.872053 167.976357 
L 337.038197 167.976357 
L 337.038197 167.126141 
L 338.204342 167.126141 
L 338.204342 166.282624 
L 339.370486 166.282624 
L 339.370486 165.432351 
L 340.53663 165.432351 
L 340.53663 164.583788 
L 341.702774 164.583788 
L 341.702774 163.739459 
L 342.868918 163.739459 
L 342.868918 162.901568 
L 344.035063 162.901568 
L 344.035063 162.063242 
L 345.201207 162.063242 
L 345.201207 161.221174 
L 346.367351 161.221174 
L 346.367351 160.387575 
L 347.533495 160.387575 
L 347.533495 159.557542 
L 348.699639 159.557542 
L 348.699639 158.729017 
L 349.865784 158.729017 
L 349.865784 157.892082 
L 351.031928 157.892082 
L 351.031928 157.075098 
L 352.198072 157.075098 
L 352.198072 156.241208 
L 353.364216 156.241208 
L 353.364216 155.414017 
L 354.530361 155.414017 
L 354.530361 154.580388 
L 355.696505 154.580388 
L 355.696505 153.750326 
L 356.862649 153.750326 
L 356.862649 152.926412 
L 358.028793 152.926412 
L 358.028793 152.10183 
L 359.194937 152.10183 
L 359.194937 151.276118 
L 360.361082 151.276118 
L 360.361082 150.455422 
L 361.527226 150.455422 
L 361.527226 149.636727 
L 362.69337 149.636727 
L 362.69337 148.819975 
L 363.859514 148.819975 
L 363.859514 148.008211 
L 365.025658 148.008211 
L 365.025658 147.197317 
L 366.191803 147.197317 
L 366.191803 146.381376 
L 367.357947 146.381376 
L 367.357947 145.555432 
L 368.524091 145.555432 
L 368.524091 144.737201 
L 369.690235 144.737201 
L 369.690235 143.919318 
L 370.856379 143.919318 
L 370.856379 143.110338 
L 372.022524 143.110338 
L 372.022524 142.304634 
L 373.188668 142.304634 
L 373.188668 141.492753 
L 374.354812 141.492753 
L 374.354812 140.682497 
L 375.520956 140.682497 
L 375.520956 139.868123 
L 376.6871 139.868123 
L 376.6871 139.062941 
L 377.853245 139.062941 
L 377.853245 138.259876 
L 379.019389 138.259876 
L 379.019389 137.453041 
L 380.185533 137.453041 
L 380.185533 136.647366 
L 381.351677 136.647366 
L 381.351677 135.837342 
L 382.517821 135.837342 
L 382.517821 135.03619 
L 383.683966 135.03619 
L 383.683966 134.237243 
L 384.85011 134.237243 
L 384.85011 133.432873 
L 386.016254 133.432873 
L 386.016254 132.627459 
L 387.182398 132.627459 
L 387.182398 131.82364 
L 388.348542 131.82364 
L 388.348542 131.019647 
L 389.514687 131.019647 
L 389.514687 130.211913 
L 390.680831 130.211913 
L 390.680831 129.418128 
L 391.846975 129.418128 
L 391.846975 128.623965 
L 393.013119 128.623965 
L 393.013119 127.82957 
L 394.179263 127.82957 
L 394.179263 127.037205 
L 395.345408 127.037205 
L 395.345408 126.233096 
L 396.511552 126.233096 
L 396.511552 125.438731 
L 397.677696 125.438731 
L 397.677696 124.649614 
L 398.84384 124.649614 
L 398.84384 123.854929 
L 400.009984 123.854929 
L 400.009984 123.065638 
L 401.176129 123.065638 
L 401.176129 122.269126 
L 402.342273 122.269126 
L 402.342273 121.467627 
L 403.508417 121.467627 
L 403.508417 120.685701 
L 404.674561 120.685701 
L 404.674561 119.893742 
L 405.840705 119.893742 
L 405.840705 119.100653 
L 407.00685 119.100653 
L 407.00685 118.308114 
L 408.172994 118.308114 
L 408.172994 117.518649 
L 409.339138 117.518649 
L 409.339138 116.730083 
L 410.505282 116.730083 
L 410.505282 115.938733 
L 411.671426 115.938733 
L 411.671426 115.154719 
L 412.837571 115.154719 
L 412.837571 114.369749 
L 414.003715 114.369749 
L 414.003715 113.586112 
L 415.169859 113.586112 
L 415.169859 112.799953 
L 416.336003 112.799953 
L 416.336003 112.01072 
L 417.502147 112.01072 
L 417.502147 111.225169 
L 418.668292 111.225169 
L 418.668292 110.437821 
L 419.834436 110.437821 
L 419.834436 109.647196 
L 421.00058 109.647196 
L 421.00058 108.852946 
L 422.166724 108.852946 
L 422.166724 108.062408 
L 423.332868 108.062408 
L 423.332868 107.271667 
L 424.499013 107.271667 
L 424.499013 106.474692 
L 425.665157 106.474692 
L 425.665157 105.683342 
L 426.831301 105.683342 
L 426.831301 104.899444 
L 427.997445 104.899444 
L 427.997445 104.104644 
L 429.163589 104.104644 
L 429.163589 103.311177 
L 430.329734 103.311177 
L 430.329734 102.507967 
L 431.495878 102.507967 
L 431.495878 101.704119 
L 432.662022 101.704119 
L 432.662022 100.911232 
L 433.828166 100.911232 
L 433.828166 100.117272 
L 434.99431 100.117272 
L 434.99431 99.326183 
L 436.160455 99.326183 
L 436.160455 98.525264 
L 437.326599 98.525264 
L 437.326599 97.727071 
L 438.492743 97.727071 
L 438.492743 96.926093 
L 439.658887 96.926093 
L 439.658887 96.125667 
L 440.825031 96.125667 
L 440.825031 95.322921 
L 441.991176 95.322921 
L 441.991176 94.523771 
L 443.15732 94.523771 
L 443.15732 93.722648 
L 444.323464 93.722648 
L 444.323464 92.920366 
L 445.489608 92.920366 
L 445.489608 92.116982 
L 446.655752 92.116982 
L 446.655752 91.312728 
L 447.821897 91.312728 
L 447.821897 90.506676 
L 448.988041 90.506676 
L 448.988041 89.702509 
L 450.154185 89.702509 
L 450.154185 88.901271 
L 451.320329 88.901271 
L 451.320329 88.095915 
L 452.486473 88.095915 
L 452.486473 87.289255 
L 453.652618 87.289255 
L 453.652618 86.491206 
L 454.818762 86.491206 
L 454.818762 85.679036 
L 455.984906 85.679036 
L 455.984906 84.870867 
L 457.15105 84.870867 
L 457.15105 84.064148 
L 458.317194 84.064148 
L 458.317194 83.261663 
L 459.483339 83.261663 
L 459.483339 82.448971 
L 460.649483 82.448971 
L 460.649483 81.641672 
L 461.815627 81.641672 
L 461.815627 80.834634 
L 462.981771 80.834634 
L 462.981771 80.027162 
L 464.147915 80.027162 
L 464.147915 79.209453 
L 465.31406 79.209453 
L 465.31406 78.398007 
L 466.480204 78.398007 
L 466.480204 77.587287 
L 467.646348 77.587287 
L 467.646348 76.78196 
L 468.812492 76.78196 
L 468.812492 75.977677 
L 469.978636 75.977677 
L 469.978636 75.173858 
L 471.144781 75.173858 
L 471.144781 74.367661 
L 472.310925 74.367661 
L 472.310925 73.553693 
L 473.477069 73.553693 
L 473.477069 72.750744 
L 474.643213 72.750744 
L 474.643213 71.952289 
L 475.809357 71.952289 
L 475.809357 71.146238 
L 476.975502 71.146238 
L 476.975502 70.342651 
L 478.141646 70.342651 
L 478.141646 69.536338 
L 479.30779 69.536338 
L 479.30779 68.739594 
L 480.473934 68.739594 
L 480.473934 67.936355 
L 481.640078 67.936355 
L 481.640078 67.138249 
L 482.806223 67.138249 
L 482.806223 66.344376 
L 483.972367 66.344376 
L 483.972367 65.542297 
L 485.138511 65.542297 
L 485.138511 64.752658 
L 486.304655 64.752658 
L 486.304655 63.969224 
L 487.470799 63.969224 
L 487.470799 63.181093 
L 488.636944 63.181093 
L 488.636944 62.396442 
L 489.803088 62.396442 
L 489.803088 61.614748 
L 490.969232 61.614748 
L 490.969232 60.82969 
L 492.135376 60.82969 
L 492.135376 60.04965 
L 493.30152 60.04965 
L 493.30152 59.27306 
L 494.467665 59.27306 
L 494.467665 58.498557 
L 495.633809 58.498557 
L 495.633809 57.724084 
L 496.799953 57.724084 
L 496.799953 56.95947 
L 497.966097 56.95947 
L 497.966097 56.206716 
L 499.132241 56.206716 
L 499.132241 55.44274 
L 500.298386 55.44274 
L 500.298386 54.695641 
L 501.46453 54.695641 
L 501.46453 53.941814 
L 502.630674 53.941814 
L 502.630674 53.198398 
L 503.796818 53.198398 
L 503.796818 52.460462 
L 504.962962 52.460462 
L 504.962962 51.737633 
L 506.129107 51.737633 
L 506.129107 51.018459 
L 507.295251 51.018459 
L 507.295251 50.299922 
L 508.461395 50.299922 
L 508.461395 49.583909 
L 509.627539 49.583909 
L 509.627539 48.882742 
L 510.793683 48.882742 
L 510.793683 48.187839 
L 511.959828 48.187839 
L 511.959828 47.491747 
L 513.125972 47.491747 
L 513.125972 46.810501 
L 514.292116 46.810501 
L 514.292116 46.137288 
L 515.45826 46.137288 
L 515.45826 45.462857 
L 516.624404 45.462857 
L 516.624404 44.792457 
L 517.790549 44.792457 
L 517.790549 44.135802 
L 518.956693 44.135802 
L 518.956693 43.484512 
L 520.122837 43.484512 
L 520.122837 42.841601 
L 521.288981 42.841601 
L 521.288981 42.203795 
L 522.455125 42.203795 
L 522.455125 41.579037 
L 523.62127 41.579037 
L 523.62127 40.966517 
L 524.787414 40.966517 
L 524.787414 40.358636 
L 525.953558 40.358636 
L 525.953558 39.758787 
L 527.119702 39.758787 
L 527.119702 39.174859 
L 528.285846 39.174859 
L 528.285846 38.602268 
L 529.451991 38.602268 
L 529.451991 38.035593 
L 530.618135 38.035593 
L 530.618135 37.47782 
L 531.784279 37.47782 
L 531.784279 36.932923 
L 532.950423 36.932923 
L 532.950423 36.395855 
L 534.116567 36.395855 
L 534.116567 35.872241 
L 535.282712 35.872241 
L 535.282712 35.362025 
L 536.448856 35.362025 
L 536.448856 34.865148 
L 537.615 34.865148 
L 537.615 34.374273 
L 538.781144 34.374273 
L 538.781144 33.895751 
L 539.947288 33.895751 
L 539.947288 33.43341 
L 541.113433 33.43341 
L 541.113433 32.984205 
L 542.279577 32.984205 
L 542.279577 32.548108 
L 543.445721 32.548108 
L 543.445721 32.123957 
L 544.611865 32.123957 
L 544.611865 31.71155 
L 545.778009 31.71155 
L 545.778009 31.31312 
L 546.944154 31.31312 
L 546.944154 30.92742 
L 548.110298 30.92742 
L 548.110298 30.554132 
L 549.276442 30.554132 
L 549.276442 30.192181 
L 550.442586 30.192181 
L 550.442586 29.842004 
L 551.60873 29.842004 
L 551.60873 29.511487 
L 552.774875 29.511487 
L 552.774875 29.196977 
L 553.941019 29.196977 
L 553.941019 28.89598 
L 555.107163 28.89598 
L 555.107163 28.610902 
L 556.273307 28.610902 
L 556.273307 28.333045 
L 557.439451 28.333045 
L 557.439451 28.07279 
L 558.605596 28.07279 
L 558.605596 27.819175 
L 559.77174 27.819175 
L 559.77174 27.586091 
L 560.937884 27.586091 
L 560.937884 27.368753 
L 562.104028 27.368753 
L 562.104028 27.163274 
L 563.270172 27.163274 
L 563.270172 26.965538 
L 564.436317 26.965538 
L 564.436317 26.784331 
L 565.602461 26.784331 
L 565.602461 26.615071 
L 566.768605 26.615071 
L 566.768605 26.460889 
L 567.934749 26.460889 
L 567.934749 26.31967 
L 569.100893 26.31967 
L 569.100893 26.187672 
L 570.267038 26.187672 
L 570.267038 26.067766 
L 572.599326 25.96146 
L 572.599326 25.862085 
L 574.931614 25.775439 
L 574.931614 25.699842 
L 577.263903 25.635322 
L 577.263903 25.576805 
L 580.762335 25.483026 
L 580.762335 25.445879 
L 588.925345 25.336674 
L 588.925345 25.330584 
L 605.251364 25.32 
L 605.251364 25.32 
" style="fill:none;stroke:#2ca02c;stroke-linecap:square;stroke-width:2.25;"/>
   </g>
   <g id="line2d_24">
    <path clip-path="url(#p1879bd937b)" d="M 97.978636 386.342373 
L 99.144781 386.342373 
L 99.144781 383.898119 
L 100.310925 383.898119 
L 100.310925 381.435307 
L 101.477069 381.435307 
L 101.477069 378.978468 
L 102.643213 378.978468 
L 102.643213 376.516932 
L 103.809357 376.516932 
L 103.809357 374.057368 
L 104.975502 374.057368 
L 104.975502 371.622539 
L 106.141646 371.622539 
L 106.141646 369.19522 
L 107.30779 369.19522 
L 107.30779 366.773439 
L 108.473934 366.773439 
L 108.473934 364.379062 
L 109.640078 364.379062 
L 109.640078 361.990223 
L 110.806223 361.990223 
L 110.806223 359.615101 
L 111.972367 359.615101 
L 111.972367 357.251867 
L 113.138511 357.251867 
L 113.138511 354.899102 
L 114.304655 354.899102 
L 114.304655 352.5876 
L 115.470799 352.5876 
L 115.470799 350.281579 
L 116.636944 350.281579 
L 116.636944 347.999336 
L 117.803088 347.999336 
L 117.803088 345.735478 
L 118.969232 345.735478 
L 118.969232 343.502183 
L 120.135376 343.502183 
L 120.135376 341.262683 
L 121.30152 341.262683 
L 121.30152 339.052674 
L 122.467665 339.052674 
L 122.467665 336.859048 
L 123.633809 336.859048 
L 123.633809 334.675572 
L 124.799953 334.675572 
L 124.799953 332.530373 
L 125.966097 332.530373 
L 125.966097 330.380708 
L 127.132241 330.380708 
L 127.132241 328.262854 
L 128.298386 328.262854 
L 128.298386 326.150132 
L 129.46453 326.150132 
L 129.46453 324.056897 
L 130.630674 324.056897 
L 130.630674 321.986106 
L 131.796818 321.986106 
L 131.796818 319.922304 
L 132.962962 319.922304 
L 132.962962 317.878655 
L 134.129107 317.878655 
L 134.129107 315.840515 
L 135.295251 315.840515 
L 135.295251 313.832737 
L 136.461395 313.832737 
L 136.461395 311.833426 
L 137.627539 311.833426 
L 137.627539 309.86085 
L 138.793683 309.86085 
L 138.793683 307.906804 
L 139.959828 307.906804 
L 139.959828 305.9585 
L 141.125972 305.9585 
L 141.125972 304.031945 
L 142.292116 304.031945 
L 142.292116 302.122236 
L 143.45826 302.122236 
L 143.45826 300.239148 
L 144.624404 300.239148 
L 144.624404 298.374039 
L 145.790549 298.374039 
L 145.790549 296.529518 
L 146.956693 296.529518 
L 146.956693 294.682532 
L 148.122837 294.682532 
L 148.122837 292.864863 
L 149.288981 292.864863 
L 149.288981 291.056473 
L 150.455125 291.056473 
L 150.455125 289.269078 
L 151.62127 289.269078 
L 151.62127 287.485539 
L 152.787414 287.485539 
L 152.787414 285.722734 
L 153.953558 285.722734 
L 153.953558 283.980981 
L 155.119702 283.980981 
L 155.119702 282.257671 
L 156.285846 282.257671 
L 156.285846 280.537956 
L 157.451991 280.537956 
L 157.451991 278.844485 
L 158.618135 278.844485 
L 158.618135 277.178329 
L 159.784279 277.178329 
L 159.784279 275.503648 
L 160.950423 275.503648 
L 160.950423 273.843611 
L 162.116567 273.843611 
L 162.116567 272.20712 
L 163.282712 272.20712 
L 163.282712 270.578923 
L 164.448856 270.578923 
L 164.448856 268.958758 
L 165.615 268.958758 
L 165.615 267.374057 
L 166.781144 267.374057 
L 166.781144 265.784804 
L 167.947288 265.784804 
L 167.947288 264.213877 
L 169.113433 264.213877 
L 169.113433 262.657391 
L 170.279577 262.657391 
L 170.279577 261.117289 
L 171.445721 261.117289 
L 171.445721 259.579362 
L 172.611865 259.579362 
L 172.611865 258.056397 
L 173.778009 258.056397 
L 173.778009 256.545902 
L 174.944154 256.545902 
L 174.944154 255.055241 
L 176.110298 255.055241 
L 176.110298 253.574816 
L 177.276442 253.574816 
L 177.276442 252.10573 
L 178.442586 252.10573 
L 178.442586 250.635164 
L 179.60873 250.635164 
L 179.60873 249.184318 
L 180.774875 249.184318 
L 180.774875 247.747912 
L 181.941019 247.747912 
L 181.941019 246.328643 
L 183.107163 246.328643 
L 183.107163 244.919263 
L 184.273307 244.919263 
L 184.273307 243.519075 
L 185.439451 243.519075 
L 185.439451 242.116133 
L 186.605596 242.116133 
L 186.605596 240.734765 
L 187.77174 240.734765 
L 187.77174 239.371665 
L 188.937884 239.371665 
L 188.937884 238.017787 
L 190.104028 238.017787 
L 190.104028 236.678639 
L 191.270172 236.678639 
L 191.270172 235.347872 
L 192.436317 235.347872 
L 192.436317 234.004027 
L 193.602461 234.004027 
L 193.602461 232.686135 
L 194.768605 232.686135 
L 194.768605 231.378596 
L 195.934749 231.378596 
L 195.934749 230.083612 
L 197.100893 230.083612 
L 197.100893 228.800952 
L 198.267038 228.800952 
L 198.267038 227.532125 
L 199.433182 227.532125 
L 199.433182 226.268168 
L 200.599326 226.268168 
L 200.599326 225.022568 
L 201.76547 225.022568 
L 201.76547 223.767978 
L 202.931614 223.767978 
L 202.931614 222.524524 
L 204.097759 222.524524 
L 204.097759 221.303484 
L 205.263903 221.303484 
L 205.263903 220.088302 
L 206.430047 220.088302 
L 206.430047 218.882545 
L 207.596191 218.882545 
L 207.596191 217.683602 
L 208.762335 217.683602 
L 208.762335 216.512671 
L 209.92848 216.512671 
L 209.92848 215.332257 
L 211.094624 215.332257 
L 211.094624 214.163733 
L 212.260768 214.163733 
L 212.260768 213.004227 
L 213.426912 213.004227 
L 213.426912 211.859017 
L 214.593056 211.859017 
L 214.593056 210.72819 
L 215.759201 210.72819 
L 215.759201 209.60931 
L 216.925345 209.60931 
L 216.925345 208.488719 
L 218.091489 208.488719 
L 218.091489 207.374681 
L 219.257633 207.374681 
L 219.257633 206.265428 
L 220.423777 206.265428 
L 220.423777 205.180708 
L 221.589922 205.180708 
L 221.589922 204.087027 
L 222.756066 204.087027 
L 222.756066 203.000189 
L 223.92221 203.000189 
L 223.92221 201.927821 
L 225.088354 201.927821 
L 225.088354 200.861804 
L 226.254498 200.861804 
L 226.254498 199.801703 
L 227.420643 199.801703 
L 227.420643 198.754737 
L 228.586787 198.754737 
L 228.586787 197.713484 
L 229.752931 197.713484 
L 229.752931 196.68383 
L 230.919075 196.68383 
L 230.919075 195.655829 
L 232.085219 195.655829 
L 232.085219 194.635165 
L 233.251364 194.635165 
L 233.251364 193.634625 
L 234.417508 193.634625 
L 234.417508 192.628923 
L 235.583652 192.628923 
L 235.583652 191.636067 
L 236.749796 191.636067 
L 236.749796 190.651737 
L 237.91594 190.651737 
L 237.91594 189.674076 
L 239.082085 189.674076 
L 239.082085 188.695053 
L 240.248229 188.695053 
L 240.248229 187.723597 
L 241.414373 187.723597 
L 241.414373 186.763161 
L 242.580517 186.763161 
L 242.580517 185.814585 
L 243.746661 185.814585 
L 243.746661 184.876651 
L 244.912806 184.876651 
L 244.912806 183.923523 
L 246.07895 183.923523 
L 246.07895 182.987416 
L 247.245094 182.987416 
L 247.245094 182.056441 
L 248.411238 182.056441 
L 248.411238 181.135587 
L 249.577382 181.135587 
L 249.577382 180.222302 
L 250.743527 180.222302 
L 250.743527 179.31496 
L 251.909671 179.31496 
L 251.909671 178.40933 
L 253.075815 178.40933 
L 253.075815 177.514661 
L 254.241959 177.514661 
L 254.241959 176.626719 
L 255.408103 176.626719 
L 255.408103 175.735704 
L 256.574248 175.735704 
L 256.574248 174.856172 
L 257.740392 174.856172 
L 257.740392 173.983135 
L 258.906536 173.983135 
L 258.906536 173.114274 
L 260.07268 173.114274 
L 260.07268 172.255997 
L 261.238824 172.255997 
L 261.238824 171.398793 
L 262.404969 171.398793 
L 262.404969 170.537703 
L 263.571113 170.537703 
L 263.571113 169.694215 
L 264.737257 169.694215 
L 264.737257 168.852931 
L 265.903401 168.852931 
L 265.903401 168.02197 
L 267.069545 168.02197 
L 267.069545 167.200405 
L 268.23569 167.200405 
L 268.23569 166.363586 
L 269.401834 166.363586 
L 269.401834 165.548574 
L 270.567978 165.548574 
L 270.567978 164.727269 
L 271.734122 164.727269 
L 271.734122 163.919855 
L 272.900266 163.919855 
L 272.900266 163.113252 
L 274.066411 163.113252 
L 274.066411 162.30865 
L 275.232555 162.30865 
L 275.232555 161.502888 
L 276.398699 161.502888 
L 276.398699 160.704695 
L 277.564843 160.704695 
L 277.564843 159.909894 
L 278.730987 159.909894 
L 278.730987 159.125532 
L 279.897132 159.125532 
L 279.897132 158.344187 
L 281.063276 158.344187 
L 281.063276 157.565132 
L 282.22942 157.565132 
L 282.22942 156.788339 
L 283.395564 156.788339 
L 283.395564 156.020883 
L 284.561708 156.020883 
L 284.561708 155.258792 
L 285.727853 155.258792 
L 285.727853 154.488668 
L 286.893997 154.488668 
L 286.893997 153.73777 
L 288.060141 153.73777 
L 288.060141 152.987945 
L 289.226285 152.987945 
L 289.226285 152.231509 
L 290.392429 152.231509 
L 290.392429 151.484525 
L 291.558574 151.484525 
L 291.558574 150.733772 
L 292.724718 150.733772 
L 292.724718 149.994879 
L 293.890862 149.994879 
L 293.890862 149.251434 
L 295.057006 149.251434 
L 295.057006 148.520022 
L 296.22315 148.520022 
L 296.22315 147.784203 
L 297.389295 147.784203 
L 297.389295 147.042613 
L 298.555439 147.042613 
L 298.555439 146.309752 
L 299.721583 146.309752 
L 299.721583 145.581762 
L 300.887727 145.581762 
L 300.887727 144.865198 
L 302.053871 144.865198 
L 302.053871 144.145501 
L 303.220016 144.145501 
L 303.220016 143.42798 
L 304.38616 143.42798 
L 304.38616 142.710516 
L 305.552304 142.710516 
L 305.552304 141.995952 
L 306.718448 141.995952 
L 306.718448 141.287188 
L 307.884592 141.287188 
L 307.884592 140.577322 
L 309.050737 140.577322 
L 309.050737 139.872936 
L 310.216881 139.872936 
L 310.216881 139.169798 
L 311.383025 139.169798 
L 311.383025 138.463904 
L 312.549169 138.463904 
L 312.549169 137.753632 
L 313.715313 137.753632 
L 313.715313 137.061513 
L 314.881458 137.061513 
L 314.881458 136.360143 
L 316.047602 136.360143 
L 316.047602 135.659208 
L 317.213746 135.659208 
L 317.213746 134.960912 
L 318.37989 134.960912 
L 318.37989 134.261572 
L 319.546034 134.261572 
L 319.546034 133.564639 
L 320.712179 133.564639 
L 320.712179 132.86962 
L 321.878323 132.86962 
L 321.878323 132.176746 
L 323.044467 132.176746 
L 323.044467 131.485555 
L 324.210611 131.485555 
L 324.210611 130.800366 
L 325.376755 130.800366 
L 325.376755 130.121527 
L 326.5429 130.121527 
L 326.5429 129.4308 
L 327.709044 129.4308 
L 327.709044 128.741232 
L 328.875188 128.741232 
L 328.875188 128.056449 
L 330.041332 128.056449 
L 330.041332 127.365373 
L 331.207476 127.365373 
L 331.207476 126.683548 
L 332.373621 126.683548 
L 332.373621 125.994734 
L 333.539765 125.994734 
L 333.539765 125.311662 
L 334.705909 125.311662 
L 334.705909 124.632969 
L 335.872053 124.632969 
L 335.872053 123.950013 
L 337.038197 123.950013 
L 337.038197 123.270101 
L 338.204342 123.270101 
L 338.204342 122.585956 
L 339.370486 122.585956 
L 339.370486 121.906306 
L 340.53663 121.906306 
L 340.53663 121.23115 
L 341.702774 121.23115 
L 341.702774 120.542829 
L 342.868918 120.542829 
L 342.868918 119.868166 
L 344.035063 119.868166 
L 344.035063 119.189444 
L 345.201207 119.189444 
L 345.201207 118.51365 
L 346.367351 118.51365 
L 346.367351 117.830056 
L 347.533495 117.830056 
L 347.533495 117.153189 
L 348.699639 117.153189 
L 348.699639 116.476671 
L 349.865784 116.476671 
L 349.865784 115.794556 
L 351.031928 115.794556 
L 351.031928 115.112933 
L 352.198072 115.112933 
L 352.198072 114.440126 
L 353.364216 114.440126 
L 353.364216 113.763579 
L 354.530361 113.763579 
L 354.530361 113.085813 
L 355.696505 113.085813 
L 355.696505 112.411643 
L 356.862649 112.411643 
L 356.862649 111.734168 
L 358.028793 111.734168 
L 358.028793 111.055271 
L 359.194937 111.055271 
L 359.194937 110.376723 
L 360.361082 110.376723 
L 360.361082 109.701654 
L 361.527226 109.701654 
L 361.527226 109.024526 
L 362.69337 109.024526 
L 362.69337 108.35343 
L 363.859514 108.35343 
L 363.859514 107.681 
L 365.025658 107.681 
L 365.025658 107.008483 
L 366.191803 107.008483 
L 366.191803 106.334893 
L 367.357947 106.334893 
L 367.357947 105.663768 
L 368.524091 105.663768 
L 368.524091 104.986873 
L 369.690235 104.986873 
L 369.690235 104.306294 
L 370.856379 104.306294 
L 370.856379 103.632037 
L 372.022524 103.632037 
L 372.022524 102.960332 
L 373.188668 102.960332 
L 373.188668 102.291034 
L 374.354812 102.291034 
L 374.354812 101.619445 
L 375.520956 101.619445 
L 375.520956 100.947943 
L 376.6871 100.947943 
L 376.6871 100.274875 
L 377.853245 100.274875 
L 377.853245 99.601343 
L 379.019389 99.601343 
L 379.019389 98.919779 
L 380.185533 98.919779 
L 380.185533 98.246769 
L 381.351677 98.246769 
L 381.351677 97.57982 
L 382.517821 97.57982 
L 382.517821 96.910782 
L 383.683966 96.910782 
L 383.683966 96.241136 
L 384.85011 96.241136 
L 384.85011 95.558325 
L 386.016254 95.558325 
L 386.016254 94.880647 
L 387.182398 94.880647 
L 387.182398 94.212189 
L 388.348542 94.212189 
L 388.348542 93.536831 
L 389.514687 93.536831 
L 389.514687 92.859355 
L 390.680831 92.859355 
L 390.680831 92.189448 
L 391.846975 92.189448 
L 391.846975 91.520613 
L 393.013119 91.520613 
L 393.013119 90.847517 
L 394.179263 90.847517 
L 394.179263 90.17529 
L 395.345408 90.17529 
L 395.345408 89.508398 
L 396.511552 89.508398 
L 396.511552 88.839709 
L 397.677696 88.839709 
L 397.677696 88.17247 
L 398.84384 88.17247 
L 398.84384 87.501808 
L 400.009984 87.501808 
L 400.009984 86.839992 
L 401.176129 86.839992 
L 401.176129 86.174869 
L 402.342273 86.174869 
L 402.342273 85.509109 
L 403.508417 85.509109 
L 403.508417 84.849583 
L 404.674561 84.849583 
L 404.674561 84.179531 
L 405.840705 84.179531 
L 405.840705 83.513683 
L 407.00685 83.513683 
L 407.00685 82.849575 
L 408.172994 82.849575 
L 408.172994 82.196603 
L 409.339138 82.196603 
L 409.339138 81.542297 
L 410.505282 81.542297 
L 410.505282 80.88596 
L 411.671426 80.88596 
L 411.671426 80.2309 
L 412.837571 80.2309 
L 412.837571 79.573491 
L 414.003715 79.573491 
L 414.003715 78.92165 
L 415.169859 78.92165 
L 415.169859 78.264849 
L 416.336003 78.264849 
L 416.336003 77.608281 
L 417.502147 77.608281 
L 417.502147 76.960673 
L 418.668292 76.960673 
L 418.668292 76.30889 
L 419.834436 76.30889 
L 419.834436 75.660818 
L 421.00058 75.660818 
L 421.00058 75.002742 
L 422.166724 75.002742 
L 422.166724 74.357744 
L 423.332868 74.357744 
L 423.332868 73.71669 
L 424.499013 73.71669 
L 424.499013 73.074156 
L 425.665157 73.074156 
L 425.665157 72.431768 
L 426.831301 72.431768 
L 426.831301 71.804865 
L 427.997445 71.804865 
L 427.997445 71.177555 
L 429.163589 71.177555 
L 429.163589 70.5423 
L 430.329734 70.5423 
L 430.329734 69.909481 
L 431.495878 69.909481 
L 431.495878 69.280171 
L 432.662022 69.280171 
L 432.662022 68.645235 
L 433.828166 68.645235 
L 433.828166 68.011546 
L 434.99431 68.011546 
L 434.99431 67.390936 
L 436.160455 67.390936 
L 436.160455 66.768092 
L 437.326599 66.768092 
L 437.326599 66.147858 
L 438.492743 66.147858 
L 438.492743 65.523506 
L 439.658887 65.523506 
L 439.658887 64.908811 
L 440.825031 64.908811 
L 440.825031 64.285242 
L 441.991176 64.285242 
L 441.991176 63.672113 
L 443.15732 63.672113 
L 443.15732 63.059882 
L 444.323464 63.059882 
L 444.323464 62.443099 
L 445.489608 62.443099 
L 445.489608 61.838698 
L 446.655752 61.838698 
L 446.655752 61.233978 
L 447.821897 61.233978 
L 447.821897 60.634506 
L 448.988041 60.634506 
L 448.988041 60.044227 
L 450.154185 60.044227 
L 450.154185 59.45534 
L 451.320329 59.45534 
L 451.320329 58.863089 
L 452.486473 58.863089 
L 452.486473 58.270606 
L 453.652618 58.270606 
L 453.652618 57.681167 
L 454.818762 57.681167 
L 454.818762 57.095731 
L 455.984906 57.095731 
L 455.984906 56.511048 
L 457.15105 56.511048 
L 457.15105 55.927061 
L 458.317194 55.927061 
L 458.317194 55.347714 
L 459.483339 55.347714 
L 459.483339 54.770803 
L 460.649483 54.770803 
L 460.649483 54.200097 
L 461.815627 54.200097 
L 461.815627 53.635742 
L 462.981771 53.635742 
L 462.981771 53.077448 
L 464.147915 53.077448 
L 464.147915 52.515238 
L 465.31406 52.515238 
L 465.31406 51.960249 
L 466.480204 51.960249 
L 466.480204 51.406536 
L 467.646348 51.406536 
L 467.646348 50.862596 
L 468.812492 50.862596 
L 468.812492 50.323556 
L 469.978636 50.323556 
L 469.978636 49.781703 
L 471.144781 49.781703 
L 471.144781 49.251275 
L 472.310925 49.251275 
L 472.310925 48.718817 
L 473.477069 48.718817 
L 473.477069 48.191637 
L 474.643213 48.191637 
L 474.643213 47.669619 
L 475.809357 47.669619 
L 475.809357 47.15253 
L 476.975502 47.15253 
L 476.975502 46.639849 
L 478.141646 46.639849 
L 478.141646 46.139579 
L 479.30779 46.139579 
L 479.30779 45.639976 
L 480.473934 45.639976 
L 480.473934 45.138169 
L 481.640078 45.138169 
L 481.640078 44.646569 
L 482.806223 44.646569 
L 482.806223 44.155231 
L 483.972367 44.155231 
L 483.972367 43.677521 
L 485.138511 43.677521 
L 485.138511 43.194882 
L 486.304655 43.194882 
L 486.304655 42.720971 
L 487.470799 42.720971 
L 487.470799 42.259123 
L 488.636944 42.259123 
L 488.636944 41.806032 
L 489.803088 41.806032 
L 489.803088 41.352361 
L 490.969232 41.352361 
L 490.969232 40.905563 
L 492.135376 40.905563 
L 492.135376 40.4563 
L 493.30152 40.4563 
L 493.30152 40.014693 
L 494.467665 40.014693 
L 494.467665 39.584627 
L 495.633809 39.584627 
L 495.633809 39.150906 
L 496.799953 39.150906 
L 496.799953 38.727365 
L 497.966097 38.727365 
L 497.966097 38.308926 
L 499.132241 38.308926 
L 499.132241 37.901652 
L 500.298386 37.901652 
L 500.298386 37.495625 
L 501.46453 37.495625 
L 501.46453 37.101458 
L 502.630674 37.101458 
L 502.630674 36.709118 
L 503.796818 36.709118 
L 503.796818 36.325593 
L 504.962962 36.325593 
L 504.962962 35.944968 
L 506.129107 35.944968 
L 506.129107 35.566488 
L 507.295251 35.566488 
L 507.295251 35.19868 
L 508.461395 35.19868 
L 508.461395 34.836005 
L 509.627539 34.836005 
L 509.627539 34.473909 
L 510.793683 34.473909 
L 510.793683 34.12669 
L 511.959828 34.12669 
L 511.959828 33.786923 
L 513.125972 33.786923 
L 513.125972 33.449156 
L 514.292116 33.449156 
L 514.292116 33.122989 
L 515.45826 33.122989 
L 515.45826 32.798243 
L 516.624404 32.798243 
L 516.624404 32.485037 
L 517.790549 32.485037 
L 517.790549 32.178502 
L 518.956693 32.178502 
L 518.956693 31.878432 
L 520.122837 31.878432 
L 520.122837 31.583235 
L 521.288981 31.583235 
L 521.288981 31.300042 
L 522.455125 31.300042 
L 522.455125 31.0203 
L 523.62127 31.0203 
L 523.62127 30.749867 
L 524.787414 30.749867 
L 524.787414 30.486828 
L 525.953558 30.486828 
L 525.953558 30.231299 
L 527.119702 30.231299 
L 527.119702 29.989342 
L 528.285846 29.989342 
L 528.285846 29.745876 
L 529.451991 29.745876 
L 529.451991 29.510762 
L 530.618135 29.510762 
L 530.618135 29.28281 
L 531.784279 29.28281 
L 531.784279 29.056743 
L 532.950423 29.056743 
L 532.950423 28.841725 
L 534.116567 28.841725 
L 534.116567 28.634101 
L 535.282712 28.634101 
L 535.282712 28.43564 
L 536.448856 28.43564 
L 536.448856 28.243529 
L 537.615 28.243529 
L 537.615 28.056551 
L 538.781144 28.056551 
L 538.781144 27.876533 
L 539.947288 27.876533 
L 539.947288 27.705011 
L 541.113433 27.705011 
L 541.113433 27.541057 
L 542.279577 27.541057 
L 542.279577 27.3856 
L 543.445721 27.3856 
L 543.445721 27.235305 
L 544.611865 27.235305 
L 544.611865 27.092606 
L 545.778009 27.092606 
L 545.778009 26.95449 
L 546.944154 26.95449 
L 546.944154 26.824377 
L 548.110298 26.824377 
L 548.110298 26.703717 
L 549.276442 26.703717 
L 549.276442 26.585812 
L 551.60873 26.47968 
L 551.60873 26.374447 
L 553.941019 26.275912 
L 553.941019 26.187034 
L 556.273307 26.101781 
L 556.273307 26.018673 
L 558.605596 25.944062 
L 558.605596 25.877918 
L 560.937884 25.814876 
L 560.937884 25.756736 
L 564.436317 25.655215 
L 564.436317 25.609862 
L 569.100893 25.504948 
L 569.100893 25.476037 
L 577.263903 25.368948 
L 577.263903 25.359698 
L 605.251364 25.32 
L 605.251364 25.32 
" style="fill:none;stroke:#ff7f0e;stroke-linecap:square;stroke-width:2.25;"/>
   </g>
   <g id="line2d_25">
    <path clip-path="url(#p1879bd937b)" d="M 97.978636 387.498863 
L 99.144781 387.498863 
L 99.144781 384.883928 
L 100.310925 384.883928 
L 100.310925 378.562292 
L 101.477069 378.562292 
L 101.477069 370.36531 
L 102.643213 370.36531 
L 102.643213 361.655821 
L 103.809357 361.655821 
L 103.809357 352.753148 
L 104.975502 352.753148 
L 104.975502 343.965452 
L 106.141646 343.965452 
L 106.141646 334.934001 
L 107.30779 334.934001 
L 107.30779 326.380578 
L 108.473934 326.380578 
L 108.473934 318.53502 
L 109.640078 318.53502 
L 109.640078 310.615547 
L 110.806223 310.615547 
L 110.806223 302.996781 
L 111.972367 302.996781 
L 111.972367 296.265203 
L 113.138511 296.265203 
L 113.138511 289.382604 
L 114.304655 289.382604 
L 114.304655 283.39566 
L 115.470799 283.39566 
L 115.470799 277.097976 
L 116.636944 277.097976 
L 116.636944 271.684116 
L 117.803088 271.684116 
L 117.803088 266.632786 
L 118.969232 266.632786 
L 118.969232 261.793605 
L 120.135376 261.793605 
L 120.135376 257.195946 
L 121.30152 257.195946 
L 121.30152 252.795095 
L 122.467665 252.795095 
L 122.467665 248.586064 
L 123.633809 248.586064 
L 123.633809 244.551368 
L 124.799953 244.551368 
L 124.799953 240.666678 
L 125.966097 240.666678 
L 125.966097 236.90459 
L 127.132241 236.90459 
L 127.132241 234.136663 
L 128.298386 234.136663 
L 128.298386 230.635411 
L 129.46453 230.635411 
L 129.46453 227.206711 
L 130.630674 227.206711 
L 130.630674 224.878072 
L 131.796818 224.878072 
L 131.796818 221.663463 
L 132.962962 221.663463 
L 132.962962 218.517782 
L 134.129107 218.517782 
L 134.129107 216.298899 
L 135.295251 216.298899 
L 135.295251 213.269209 
L 136.461395 213.269209 
L 136.461395 211.351787 
L 137.627539 211.351787 
L 137.627539 208.422546 
L 138.793683 208.422546 
L 138.793683 205.532335 
L 139.959828 205.532335 
L 139.959828 203.548045 
L 141.125972 203.548045 
L 141.125972 201.904797 
L 142.292116 201.904797 
L 142.292116 199.120747 
L 143.45826 199.120747 
L 143.45826 197.21565 
L 144.624404 197.21565 
L 144.624404 194.456364 
L 145.790549 194.456364 
L 145.790549 193.013376 
L 146.956693 193.013376 
L 146.956693 190.311564 
L 148.122837 190.311564 
L 148.122837 188.456314 
L 149.288981 188.456314 
L 149.288981 187.133666 
L 150.455125 187.133666 
L 150.455125 184.458184 
L 151.62127 184.458184 
L 151.62127 182.650142 
L 152.787414 182.650142 
L 152.787414 181.417765 
L 153.953558 181.417765 
L 153.953558 178.810805 
L 155.119702 178.810805 
L 155.119702 177.013956 
L 156.285846 177.013956 
L 156.285846 175.873937 
L 157.451991 175.873937 
L 157.451991 174.081351 
L 158.618135 174.081351 
L 158.618135 171.508956 
L 159.784279 171.508956 
L 159.784279 170.423046 
L 160.950423 170.423046 
L 160.950423 168.642987 
L 162.116567 168.642987 
L 162.116567 167.616958 
L 163.282712 167.616958 
L 163.282712 165.821037 
L 164.448856 165.821037 
L 164.448856 163.305623 
L 165.615 163.305623 
L 165.615 162.322946 
L 166.781144 162.322946 
L 166.781144 160.558981 
L 167.947288 160.558981 
L 167.947288 159.622555 
L 169.113433 159.622555 
L 169.113433 157.842583 
L 170.279577 157.842583 
L 170.279577 156.9353 
L 171.445721 156.9353 
L 171.445721 154.467964 
L 172.611865 154.467964 
L 172.611865 152.684135 
L 173.778009 152.684135 
L 173.778009 151.808054 
L 174.944154 151.808054 
L 174.944154 150.03507 
L 176.110298 150.03507 
L 176.110298 149.2093 
L 177.276442 149.2093 
L 177.276442 147.437853 
L 178.442586 147.437853 
L 178.442586 146.636847 
L 179.60873 146.636847 
L 179.60873 144.873056 
L 180.774875 144.873056 
L 180.774875 144.095219 
L 181.941019 144.095219 
L 181.941019 142.332298 
L 183.107163 142.332298 
L 183.107163 141.586967 
L 184.273307 141.586967 
L 184.273307 139.811171 
L 185.439451 139.811171 
L 185.439451 137.433989 
L 186.605596 137.433989 
L 186.605596 136.71844 
L 187.77174 136.71844 
L 187.77174 134.963319 
L 188.937884 134.963319 
L 188.937884 134.275839 
L 190.104028 134.275839 
L 190.104028 132.512686 
L 191.270172 132.512686 
L 191.270172 131.839038 
L 192.436317 131.839038 
L 192.436317 130.075885 
L 193.602461 130.075885 
L 193.602461 129.417751 
L 194.768605 129.417751 
L 194.768605 127.673069 
L 195.934749 127.673069 
L 195.934749 127.04721 
L 197.100893 127.04721 
L 197.100893 125.300643 
L 198.267038 125.300643 
L 198.267038 124.691747 
L 200.599326 124.632592 
L 200.599326 122.880893 
L 201.76547 122.880893 
L 201.76547 122.306939 
L 202.931614 122.306939 
L 202.931614 120.553906 
L 204.097759 120.553906 
L 204.097759 119.98033 
L 205.263903 119.98033 
L 205.263903 118.238229 
L 206.430047 118.238229 
L 206.430047 117.682051 
L 207.596191 117.682051 
L 207.596191 115.924234 
L 208.762335 115.924234 
L 208.762335 115.378524 
L 209.92848 115.378524 
L 209.92848 113.626622 
L 211.094624 113.626622 
L 211.094624 113.110171 
L 212.260768 113.110171 
L 212.260768 111.359284 
L 213.426912 111.359284 
L 213.426912 110.856172 
L 214.593056 110.856172 
L 214.593056 109.113173 
L 216.925345 109.081884 
L 216.925345 108.598114 
L 218.091489 108.598114 
L 218.091489 106.853403 
L 219.257633 106.853403 
L 219.257633 106.376447 
L 220.423777 106.376447 
L 220.423777 104.64264 
L 221.589922 104.64264 
L 221.589922 104.188302 
L 222.756066 104.188302 
L 222.756066 102.462179 
L 223.92221 102.462179 
L 223.92221 102.022022 
L 226.254498 102.002303 
L 226.254498 100.264639 
L 227.420643 100.264639 
L 227.420643 99.835762 
L 228.586787 99.835762 
L 228.586787 98.090993 
L 229.752931 98.090993 
L 229.752931 97.673947 
L 230.919075 97.673947 
L 230.919075 95.945156 
L 232.085219 95.945156 
L 232.085219 95.53446 
L 234.417508 95.522107 
L 234.417508 93.795636 
L 235.583652 93.795636 
L 235.583652 93.410023 
L 236.749796 93.410023 
L 236.749796 91.67926 
L 237.91594 91.67926 
L 237.91594 91.294895 
L 240.248229 91.285296 
L 240.248229 89.568627 
L 241.414373 89.568627 
L 241.414373 89.200645 
L 242.580517 89.200645 
L 242.580517 87.496647 
L 243.746661 87.496647 
L 243.746661 87.135798 
L 244.912806 87.135798 
L 244.912806 85.440993 
L 247.245094 85.432004 
L 247.245094 85.079506 
L 248.411238 85.079506 
L 248.411238 83.382816 
L 249.577382 83.382816 
L 249.577382 83.043658 
L 251.909671 83.038757 
L 251.909671 81.364279 
L 253.075815 81.364279 
L 253.075815 81.031442 
L 254.241959 81.031442 
L 254.241959 79.364881 
L 255.408103 79.364881 
L 255.408103 79.050429 
L 257.740392 79.046253 
L 257.740392 77.379721 
L 258.906536 77.379721 
L 258.906536 77.068197 
L 260.07268 77.068197 
L 260.07268 75.424892 
L 262.404969 75.421209 
L 262.404969 75.119023 
L 263.571113 75.119023 
L 263.571113 73.481923 
L 264.737257 73.481923 
L 264.737257 73.1947 
L 267.069545 73.191365 
L 267.069545 71.569808 
L 268.23569 71.569808 
L 268.23569 71.291749 
L 269.401834 71.291749 
L 269.401834 69.677905 
L 271.734122 69.675208 
L 271.734122 69.400889 
L 272.900266 69.400889 
L 272.900266 67.801515 
L 274.066411 67.801515 
L 274.066411 67.535983 
L 276.398699 67.533837 
L 276.398699 65.967666 
L 277.564843 65.967666 
L 277.564843 65.714718 
L 278.730987 65.714718 
L 278.730987 64.166641 
L 281.063276 64.164379 
L 281.063276 63.910939 
L 282.22942 63.910939 
L 282.22942 62.378318 
L 284.561708 62.376462 
L 284.561708 62.13346 
L 285.727853 62.13346 
L 285.727853 60.63149 
L 286.893997 60.63149 
L 286.893997 60.399769 
L 289.226285 60.397594 
L 289.226285 58.915923 
L 290.392429 58.915923 
L 290.392429 58.689827 
L 292.724718 58.68829 
L 292.724718 57.226859 
L 293.890862 57.226859 
L 293.890862 57.004475 
L 296.22315 57.00317 
L 296.22315 55.572882 
L 297.389295 55.572882 
L 297.389295 55.359748 
L 298.555439 55.359748 
L 298.555439 53.949614 
L 300.887727 53.948078 
L 300.887727 53.742744 
L 302.053871 53.742744 
L 302.053871 52.363116 
L 304.38616 52.361492 
L 304.38616 52.159783 
L 305.552304 52.159783 
L 305.552304 50.821274 
L 307.884592 50.81994 
L 307.884592 50.629859 
L 309.050737 50.629859 
L 309.050737 49.318753 
L 311.383025 49.317303 
L 311.383025 49.131485 
L 312.549169 49.131485 
L 312.549169 47.869762 
L 314.881458 47.868805 
L 314.881458 47.696123 
L 316.047602 47.696123 
L 316.047602 46.457395 
L 318.37989 46.456351 
L 318.37989 46.289614 
L 319.546034 46.289614 
L 319.546034 45.101806 
L 321.878323 45.100617 
L 321.878323 44.94081 
L 323.044467 44.94081 
L 323.044467 43.769299 
L 325.376755 43.768371 
L 325.376755 43.614828 
L 327.709044 43.614103 
L 327.709044 42.493338 
L 328.875188 42.493338 
L 328.875188 42.351394 
L 331.207476 42.350698 
L 331.207476 41.276358 
L 332.373621 41.276358 
L 332.373621 41.137952 
L 334.705909 41.137024 
L 334.705909 40.104702 
L 335.872053 40.104702 
L 335.872053 39.972501 
L 338.204342 39.971834 
L 338.204342 38.978051 
L 340.53663 38.977326 
L 340.53663 38.850402 
L 341.702774 38.850402 
L 341.702774 37.894751 
L 344.035063 37.89391 
L 344.035063 37.776585 
L 345.201207 37.776585 
L 345.201207 36.862284 
L 347.533495 36.861936 
L 347.533495 36.749802 
L 349.865784 36.749483 
L 349.865784 35.882825 
L 353.364216 35.775099 
L 353.364216 34.951358 
L 356.862649 34.849112 
L 356.862649 34.074117 
L 361.527226 33.981614 
L 361.527226 33.25084 
L 365.025658 33.161295 
L 365.025658 32.478571 
L 368.524091 32.396942 
L 368.524091 31.766269 
L 373.188668 31.686844 
L 373.188668 31.089431 
L 376.6871 31.020387 
L 376.6871 30.465573 
L 381.351677 30.400617 
L 381.351677 29.890894 
L 384.85011 29.832406 
L 384.85011 29.357045 
L 389.514687 29.303718 
L 389.514687 28.867127 
L 393.013119 28.819657 
L 393.013119 28.426244 
L 397.677696 28.383473 
L 397.677696 28.024944 
L 401.176129 27.985623 
L 401.176129 27.658238 
L 405.840705 27.623411 
L 405.840705 27.333375 
L 409.339138 27.303623 
L 409.339138 27.039541 
L 414.003715 27.011732 
L 414.003715 26.777168 
L 418.668292 26.753361 
L 418.668292 26.544809 
L 422.166724 26.524946 
L 422.166724 26.343274 
L 426.831301 26.327761 
L 426.831301 26.169607 
L 431.495878 26.155601 
L 431.495878 26.016121 
L 436.160455 26.005595 
L 436.160455 25.889575 
L 441.991176 25.779325 
L 441.991176 25.771409 
L 448.988041 25.678326 
L 448.988041 25.609833 
L 458.317194 25.543341 
L 458.317194 25.496887 
L 476.975502 25.399338 
L 476.975502 25.380779 
L 605.251364 25.32 
L 605.251364 25.32 
" style="fill:none;stroke:#1f77b4;stroke-linecap:square;stroke-width:2.25;"/>
   </g>
   <g id="patch_3">
    <path d="M 72.615 387.72 
L 72.615 7.2 
" style="fill:none;stroke:#000000;stroke-linecap:square;stroke-linejoin:miter;stroke-width:1.875;"/>
   </g>
   <g id="patch_4">
    <path d="M 72.615 387.72 
L 630.615 387.72 
" style="fill:none;stroke:#000000;stroke-linecap:square;stroke-linejoin:miter;stroke-width:1.875;"/>
   </g>
  </g>
 </g>
 <defs>
  <clipPath id="p1879bd937b">
   <rect height="380.52" width="558" x="72.615" y="7.2"/>
  </clipPath>
 </defs>
</svg>
